<?xml version="1.0" encoding="UTF-8"?><svg id="uuid-b92514c5-c39d-40e0-9180-730456ab10c4" xmlns="http://www.w3.org/2000/svg" width="600" height="219.5" viewBox="0 0 600 219.5"><path d="m190.3,195.6l40.2-92.6-46.9,34.8,6.7,57.8Zm38.9-104.4L168.9,9.9l6.6,58.1,53.7,23.2Zm-68.7,14l21.3,28.7,49.6-36.9-56.7-24.6-14.2,32.8Zm-21.9-29.6l18.9,25.5,12.4-29-31.3,3.5Zm-8.8,100.3l56.7,24.6-7.1-61.4-35.4,4.3-14.2,32.5Zm41.3-108.4l-6.9-61.4-49.8,36.9,21.4,28.7,35.3-4.2Zm-63.6,79.9l18.9,25.2,12.4-28.8-31.3,3.6Zm-27.4,66.9l100.5-11.5-53.5-23.3-47,34.8Zm-11.9-66.7l109-12.4L111.8,46.8l-43.6,100.8Zm5.9,65.8l49.8-36.7-21.3-28.7-35.4,3.9,6.9,61.5Zm5.5-103.5l12.9-29-31.3,3.6,18.4,25.4ZM158.2,5.2l-100.5,11.6,53.6,23.1L158.2,5.2Zm-49.8,38.6l-56.5-24.6,7.1,61.3,35.3-4.1,14.1-32.6ZM9,128.5l60.3,81.1-6.6-58-53.7-23.1ZM47.9,23.9L7.9,116.5l46.9-34.7-6.9-57.9Zm8.7,61.9L6.8,122.7l56.7,24.6,14.2-32.8-21.1-28.7ZM166.7,0l71.5,96.4-47.6,109.8-119.1,13.3L0,123.3,47.6,13.5,166.7,0Z" style="fill:#b90030; stroke-width:0px;"/><polygon points="345.5 162.5 345.5 94.1 369.1 94.1 369.1 204.4 344.7 204.4 300.8 136.8 300.8 204.4 277.2 204.4 277.2 96.3 301.1 93.8 345.5 162.5" style="fill:#b90030; stroke-width:0px;"/><path d="m388.2,179c5.4,2.2,10.7,3.9,16.1,5.2,5.4,1.3,10.3,1.9,14.7,1.9,6.3,0,10.8-1,13.6-3,2.8-2,4.2-4.9,4.2-8.8s-1.4-7-4.3-9.4-7.2-4.5-12.8-6.5c-4.7-1.7-9.2-3.4-13.5-5.2-4.3-1.8-8-3.9-11.2-6.5-3.2-2.5-5.8-5.6-7.6-9.3-1.9-3.7-2.8-8.3-2.8-13.9s1.1-10,3.2-13.9,5.1-7.1,8.8-9.8c3.7-2.6,8.1-4.6,13.2-5.8,5-1.3,10.4-1.9,16.2-1.9,6.1,0,12,.7,17.6,2,5.7,1.3,10.5,2.8,14.5,4.3l-4.6,18.7c-4.9-1.8-9.8-3.1-14.7-4.1-4.9-.9-9.3-1.4-13.3-1.4-5,0-9.1,1-12.2,2.9s-4.7,4.9-4.7,8.9c0,2,.6,3.7,1.7,5.2s2.6,2.8,4.6,3.9c1.9,1.2,4.3,2.2,7,3.3,2.7,1.1,5.8,2.1,9.1,3.3,4.4,1.6,8.5,3.3,12.1,5.3,3.7,1.9,6.9,4.2,9.5,6.8,2.7,2.6,4.8,5.7,6.3,9.1,1.5,3.5,2.3,7.5,2.3,12,0,10.2-3.4,18.3-10.2,24.4-6.8,6.1-16.7,9.1-29.6,9.1-3.4,0-6.8-.2-10.5-.6-3.6-.4-7.1-1-10.5-1.7s-6.6-1.6-9.6-2.6c-3.1-1-5.7-2-7.9-3.1l5.3-18.8Z" style="fill:#b90030; stroke-width:0px;"/><path d="m502.9,159.6h24.7l-12.6-41.1-12.1,41.1Zm38.6,44.8l-8-26.1h-36.1l-7.6,26.1h-25.5l36.7-107.9,28.4-3,37.6,110.9h-25.5Z" style="fill:#b90030; stroke-width:0px;"/><polygon points="600 93.8 600 204.4 576.4 204.4 576.4 96.3 600 93.8" style="fill:#b90030; stroke-width:0px;"/></svg>