<?xml version="1.0" encoding="UTF-8"?><svg id="uuid-b5fdf912-78f1-46b5-999d-b31a21febbd4" xmlns="http://www.w3.org/2000/svg" width="100.48" height="100.48" xmlns:xlink="http://www.w3.org/1999/xlink" viewBox="0 0 100.48 100.48"><defs><linearGradient id="uuid-82f35213-7379-4dfd-83d1-eb3e69a93c0d" x1="9.47" y1="9.47" x2="91.01" y2="91.01" gradientUnits="userSpaceOnUse"><stop offset="0" stop-color="#26b9ff"/><stop offset=".12" stop-color="#22a7f1"/><stop offset=".37" stop-color="#1a79cd"/><stop offset=".7" stop-color="#0d3093"/><stop offset=".86" stop-color="#070d78"/></linearGradient></defs><path d="m32.32,0h68.16v68.16c0,17.84-14.48,32.32-32.32,32.32H0V32.32C0,14.48,14.48,0,32.32,0Z" style="fill:url(#uuid-82f35213-7379-4dfd-83d1-eb3e69a93c0d); stroke-width:0px;"/><path d="m100.48,34.41v7.45s-11.89.01-12.27.01c-6.64,0-15.47,15.36-5.29,15.36,4.28,0,10.56,0,14.84,0,0,.25-6.76,8.43-6.76,8.43,0,0-14.35.02-14.6.02-17.83-4.34-2.73-31.27,9.94-31.27h14.15Z" style="fill:#fff; stroke-width:0px;"/><path d="m-.32,66.07v-7.84h19.05c2,0,7.08-4.46.02-4.46h-8.87c-14.93,0-6.88-19.36,4.19-19.36h37.86l-6.37,7.47s-21.11,0-30.63,0c-2.6,0-4.67,4.44-1.25,4.44,4.19,0,5.57.01,9.22.01,18.09,0,6.71,19.75-2.15,19.75H-.32Z" style="fill:#fff; stroke-width:0px;"/><path d="m56.55,65.68c0-.74.16-22.43.16-22.43l-12.55,15.73h9.42l-4.78,6.76-20.82-.06,25.61-31.27h12.66l.02,31.27h-9.7Z" style="fill:#fff; stroke-width:0px;"/></svg>