<svg width="76" height="64" viewBox="0 0 76 64" fill="none" xmlns="http://www.w3.org/2000/svg">
  <g clip-path="url(#clip0_277_9056)">
    <path d="M 26.637 26.718 C 24.907 26.718 23.763 27.303 23.114 27.656 L 23.114 36.605 C 23.768 36.963 24.907 37.543 26.637 37.543 C 29.835 37.543 30.326 35.146 30.326 32.13 C 30.326 29.115 29.835 26.718 26.637 26.718 Z" fill="#24262E"/>
    <path d="M 54.024 40.391 C 54.024 40.391 53.7 40.455 53.307 40.455 C 50.339 40.455 48.998 39.031 48.998 36.241 L 48.998 24.021 L 52.653 24.021 L 52.653 36.211 C 52.653 37.12 52.982 37.444 54.024 37.444 L 54.024 40.391 Z M 50.826 16.861 C 52.132 16.861 53.208 17.931 53.208 19.228 C 53.208 20.524 52.132 21.595 50.826 21.595 C 49.519 21.595 48.443 20.524 48.443 19.228 C 48.443 17.931 49.519 16.861 50.826 16.861 Z M 40.559 40.617 C 38.309 40.617 36.285 40.195 35.175 39.743 L 35.175 36.629 C 36.251 37.017 37.98 37.537 40.038 37.537 C 42.651 37.537 43.924 36.953 43.924 35.529 C 43.924 34.33 43.403 33.712 41.217 33.52 C 36.29 33.098 35.081 31.575 35.081 28.79 C 35.081 26.006 36.909 23.638 41.703 23.638 C 43.924 23.638 45.486 23.899 46.758 24.449 L 46.758 27.592 C 45.358 27.076 43.821 26.683 41.767 26.683 C 39.842 26.683 38.638 27.233 38.638 28.692 C 38.638 29.827 39.223 30.313 41.345 30.509 C 46.238 30.932 47.515 32.39 47.515 35.401 C 47.515 38.191 45.786 40.622 40.564 40.622 M 27.492 40.622 C 25.306 40.622 23.64 39.973 22.206 38.937 L 21.621 40.234 L 19.47 40.234 L 19.47 15.923 L 23.125 15.923 L 23.125 24.901 C 24.299 24.154 25.866 23.638 27.497 23.638 C 32.262 23.638 34.025 26.85 34.025 32.13 C 34.025 37.41 32.262 40.622 27.497 40.622 M 66.702 7.799 L 26.523 0.191 C 21.473 -0.766 16.433 1.925 14.404 6.66 L 0.664 38.692 C -1.134 42.881 0.846 47.733 5.056 49.462 L 38.49 63.18 C 43.388 65.188 49.017 63.406 51.881 58.941 L 73.899 24.567 C 78.109 18 74.351 9.248 66.702 7.799 Z" fill="#24262E"/>
  </g>
  <defs>
    <clipPath id="clip0_277_9056">
      <rect width="75.6513" height="64" fill="white"/>
    </clipPath>
  </defs>
</svg>
