<?xml version="1.0" encoding="UTF-8"?><svg id="uuid-4b14ad6e-c03f-4acf-9c88-51882c49a00e" xmlns="http://www.w3.org/2000/svg" width="205" height="49.87" viewBox="0 0 205 49.87"><path d="m77.02,47.1c3.36,1.43,9.69,2.77,16.16,2.77,9.83,0,20.38-4.34,20.38-16.59,0-8.49-4.06-13.03-15.1-15.39l-2.7-.57c-3.43-.7-4.2-1.43-4.2-2.57,0-1.57,2.13-2.27,6.83-2.27s9.56,1,13.19,2.07V1.2c-4.15-.91-8.01-1.2-12.58-1.2-14.23,0-22.29,5.77-22.29,15.75,0,9.19,6.13,13.46,12.33,14.82l4.2.93c3.56.79,5.2,1.27,5.2,2.77,0,2.13-3.13,2.63-5.56,2.63-4.63,0-10.26-1.13-15.89-2.93,0,0,.02,13.12.02,13.12Zm-20.18,2.07v-13.69h14.82v-12.33h-14.82v-8.63h16.46V.77h-32.76v48.4h16.3ZM.36,47.1c3.27,1.43,9.62,2.77,16.09,2.77,9.83,0,20.45-4.34,20.45-16.59,0-8.49-4.06-12.96-15.19-15.39l-2.63-.57c-3.5-.66-4.27-1.43-4.27-2.57,0-1.57,2.13-2.27,6.83-2.27s9.56,1,13.26,2.07V1.2c-4.13-.91-8.06-1.2-12.53-1.2C8.13,0,0,5.77,0,15.75c0,9.19,6.13,13.39,12.39,14.82l4.13.93c3.56.79,5.2,1.27,5.2,2.77,0,2.13-3.13,2.63-5.56,2.63-4.63,0-10.26-1.13-15.82-2.93,0,0,.02,13.12.02,13.12Zm200.44-16.75v2.16h-1.43v1.79h1.43v3.5c0,1.29.89,2.13,2.63,2.13.5,0,1.04-.05,1.57-.23v-1.86c-.11.11-.48.2-.91.2-.75,0-1.07-.32-1.07-1.2v-2.57h1.97v-1.79h-1.97v-2.16s-2.22.02-2.22.02Zm-4.59,9.37h2.22v-7.24h-2.22v7.24Zm1.11-10.83c-.7,0-1.29.54-1.29,1.29,0,.7.59,1.29,1.29,1.29s1.29-.59,1.29-1.29-.57-1.29-1.29-1.29m-8.58,7.22c0-1.11.68-1.84,1.77-1.84s1.82.66,1.82,1.84c0,1.11-.7,1.84-1.79,1.84s-1.79-.75-1.79-1.84m3.4-7.65v4.79h-.02c-.54-.73-1.43-.95-2.29-.95-2.11,0-3.31,1.93-3.31,3.86,0,2.16,1.36,3.75,3.54,3.75.84,0,1.75-.43,2.25-1.13h.02v.95h2.07v-11.26s-2.25,0-2.25,0Zm-6.79,3.84c-1,0-1.63.45-2.11,1.34h-.02v-1.16h-2.22v7.24h2.22v-3.11c0-1.5.32-2.34,1.91-2.34.34,0,.64.07.95.16v-2.04c-.2-.07-.5-.09-.73-.09m-10.6,5.31c0-.93,1.41-1.04,2.09-1.04h.68v.45c0,.93-.84,1.36-1.68,1.36-.48,0-1.07-.23-1.09-.77m1.52-5.31c-1.13,0-2.36.36-3.18,1.16l1.18,1.23c.48-.54,1.09-.86,1.82-.86s1.43.48,1.43,1.29c-1.77,0-4.9.02-4.9,2.54,0,1.45,1.25,2.25,2.57,2.25.89,0,1.82-.32,2.29-1.09h.02v.91h2.04v-3.79c.05-2.38-.77-3.63-3.27-3.63m-10.71,3.81c0-1.11.68-1.84,1.77-1.84s1.82.66,1.82,1.84c0,1.11-.7,1.84-1.79,1.84s-1.79-.75-1.79-1.84m3.38-7.65v4.79h-.02c-.54-.73-1.43-.95-2.29-.95-2.11,0-3.31,1.93-3.31,3.86,0,2.16,1.36,3.75,3.54,3.75.84,0,1.75-.43,2.25-1.13h.02v.95h2.04v-11.26h-2.22Zm-9.62,3.84c-.93,0-1.73.43-2.11,1.16h-.02v-.98h-2.16v7.24h2.22v-3.68c0-1.25.45-1.77,1.34-1.77.77,0,1.16.45,1.16,1.73v3.72h2.22v-4.09c.02-2.38-.82-3.34-2.66-3.34m-10.51,5.31c0-.93,1.41-1.04,2.09-1.04h.68v.45c0,.93-.84,1.36-1.68,1.36-.5,0-1.09-.2-1.09-.77m1.5-5.31c-1.13,0-2.36.36-3.2,1.16l1.18,1.23c.48-.54,1.09-.86,1.82-.86s1.43.48,1.43,1.29c-1.77,0-4.9.02-4.9,2.54,0,1.45,1.25,2.25,2.59,2.25.89,0,1.82-.32,2.29-1.09h.02v.91h2.04v-3.79c.05-2.38-.75-3.63-3.27-3.63m-8.63-1.95v2.16h-1.43v1.79h1.43v3.5c0,1.29.89,2.13,2.63,2.13.5,0,1.04-.05,1.57-.23v-1.86c-.11.11-.48.2-.91.2-.75,0-1.07-.32-1.07-1.2v-2.57h1.97v-1.79h-1.97v-2.16l-2.22.02h0Zm-5.43-1.43c-2.07,0-4.02,1.18-4.02,3.43,0,1.84,1.36,2.45,2.66,2.86,1.18.39,2.29.64,2.29,1.54,0,.82-.98,1.11-1.61,1.11-.79,0-1.54-.36-2.02-1l-1.66,1.82c1,.93,2.2,1.32,3.54,1.32,2.16,0,4.06-1.07,4.06-3.47,0-1.91-1.32-2.52-2.57-2.91-1.16-.36-2.29-.54-2.29-1.48,0-.79.93-1.09,1.57-1.09.57,0,1.32.23,1.68.7l1.59-1.75c-.91-.79-2.04-1.09-3.22-1.09m48.17-13.8c-.93,0-1.73.43-2.11,1.16h-.05v-.98h-2.16v7.24h2.22v-3.68c0-1.23.45-1.77,1.34-1.77.77,0,1.16.45,1.16,1.73v3.72h2.22v-4.09c.05-2.38-.79-3.34-2.63-3.34m-10.85,3c.07-.84.73-1.38,1.57-1.38.77,0,1.38.54,1.38,1.38h-2.95Zm-2.22.82c0,2.36,1.86,3.79,4.02,3.79,1.13,0,2.36-.52,3.06-1.43l-1.57-1.16c-.36.5-.84.89-1.59.89-.91,0-1.5-.59-1.68-1.41h5.2v-.64c0-3.02-1.93-3.88-3.34-3.88-2.36.02-4.11,1.54-4.11,3.84m-8.44-3.81c-.91,0-1.73.43-2.11,1.16h-.02v-.98h-2.16v7.24h2.22v-3.68c0-1.27.45-1.77,1.34-1.77.64,0,1,.39,1,1.5v3.97h2.22v-3.88c0-.98.43-1.59,1.36-1.59.66,0,.98.45.98,1.2v4.24h2.22v-4.34c0-1.97-.84-3.06-2.57-3.06-1.07,0-1.77.36-2.29,1.29-.39-.89-1.18-1.32-2.2-1.32m-11.44,3.81c0-1.07.68-1.84,1.77-1.84s1.82.7,1.82,1.84-.7,1.84-1.79,1.84-1.79-.75-1.79-1.84m1.79-3.81c-2.25,0-4.02,1.5-4.02,3.81s1.79,3.79,4.02,3.79,4.04-1.5,4.04-3.79-1.79-3.81-4.04-3.81m-12.3.18v4.09c0,2.32.77,3.34,2.68,3.34.93,0,1.73-.43,2.13-1.16h.02v.98h2.16v-7.24h-2.22v3.68c0,1.2-.41,1.79-1.34,1.79-1.16,0-1.16-1.13-1.16-1.86v-3.61s-2.27,0-2.27,0Zm-4.7-3.56c-2.07,0-4.02,1.18-4.02,3.43,0,1.84,1.36,2.45,2.66,2.86,1.18.39,2.29.64,2.29,1.54,0,.82-.98,1.11-1.61,1.11-.79,0-1.54-.36-2.02-1l-1.66,1.82c1,.93,2.2,1.32,3.54,1.32,2.16,0,4.06-1.07,4.06-3.47,0-1.91-1.32-2.52-2.57-2.91-1.16-.36-2.29-.54-2.29-1.48,0-.79.93-1.09,1.57-1.09.57,0,1.32.23,1.68.7l1.59-1.75c-.91-.77-2.04-1.09-3.22-1.09" style="fill:#2f2e84; stroke-width:0px;"/></svg>