<?xml version="1.0" encoding="utf-8"?>
<!-- Generator: Adobe Illustrator 28.0.0, SVG Export Plug-In . SVG Version: 6.00 Build 0)  -->
<svg version="1.1" id="Layer_1" xmlns="http://www.w3.org/2000/svg" xmlns:xlink="http://www.w3.org/1999/xlink" x="0px" y="0px"
	 viewBox="0 0 800 245" style="enable-background:new 0 0 800 245;" xml:space="preserve">
<style type="text/css">
	.st0{fill:#035370;}
	.st1{fill:#045370;}
	.st2{fill:#065572;}
	.st3{fill:#FBAA02;}
</style>
<g>
	<path class="st0" d="M454,245c-5-6.4-9.8-12.9-15-19.2c-44.8-55-89.7-110-134.5-164.9c-0.8-1-1.7-2-3.3-3.8c0,9.9,0,18.9,0,28.2
		c-5.3,0-10.1,0-15.4,0c0-11,0.3-21.8-0.1-32.6c-0.6-21-13.7-34.6-34.8-36.7c-2-0.2-3.9-0.4-6-0.7c0-3.5,0-6.6,0-10
		c18.2,0,36.3,0,55.3,0c49.7,59.6,99.8,119.8,150.7,181c0-2.8,0-4.4,0-6c-0.1-36.2,0.1-72.3-0.3-108.5c-0.1-12.1-1.5-24.2-2.7-36.3
		c-0.8-9.2-6.2-15-15-17.2c-6.4-1.6-13-2.3-19.9-3.4c0-2.9,0-6,0-9.5c28.8,0,57.7,0,87,0c0,3.1,0,6.4,0,9.9c-4,0.6-7.9,1-11.8,1.7
		c-11.6,2.1-17.3,8.1-18.2,19.7c-1,13.4-2,26.9-2.1,40.4c-0.2,56-0.1,112-0.1,167.9C463.3,245,458.7,245,454,245z"/>
	<path class="st1" d="M800,188c-2.6,6.7-4.4,13.9-8,20.1c-13.6,23.2-34.8,33.2-61.5,34.1c0-4.1,0-7.8,0-11.1
		c6.2-1.9,12.3-3.4,18-5.8c15.7-6.7,22.2-21.6,21.2-37.8c-1-15.4-8.9-26.8-21.2-35c-11.9-7.9-24.8-14.3-36.8-22
		c-10.3-6.6-21.1-13.1-29.8-21.5c-32.7-31.6-22.6-83.8,19.3-101.8c6.6-2.9,14-4.1,21-6.2c0.7-0.2,1.3-0.7,2-1c9,0,18,0,27,0
		c0.8,0.3,1.7,0.8,2.5,1c10,2.3,20,4.5,29.8,6.6c2.2,17.7,4.2,34.3,6.2,51.1c-4,0.6-7.4,1.1-10.5,1.6c-2.2-6.4-4-12.3-6.3-18
		c-7.1-17.1-18.6-28.5-38.2-29.8c-18.2-1.2-33.3,7-40,22.2c-7,16.1-4.1,36.1,8.7,48.1c7.8,7.3,17.1,13.2,26.2,18.8
		c11.2,6.8,23.2,12.3,34.4,19.1c15.4,9.4,28,21.4,33.5,39.4c0.8,2.6,1.6,5.2,2.5,7.8C800,174.7,800,181.3,800,188z"/>
	<path class="st2" d="M0,5c30.2,0.1,60.3,0.1,90.5,0.2c1.8,0,3.6,0,5.7,0c0,3.6,0,6.9,0,10.3c-6,0.9-11.9,1.4-17.7,2.6
		c-8.6,1.7-12.3,5.5-13.6,14.3c-0.7,4.4-1,8.9-1,13.4c-0.1,52-0.1,104,0,156c0,4.8,0.5,9.6,1.1,14.4c0.9,7,4.8,11.6,11.9,13
		c6.3,1.2,12.8,2,19.4,3c0,3.1,0,6.2,0,9.4c-0.4,0.2-0.9,0.6-1.3,0.6c-31.7,0-63.3-0.1-95-0.1c0-3.3,0-6.7,0-10
		c6.6-1,13.2-1.7,19.7-3c6.3-1.3,10.3-5.4,11.3-11.8c0.8-4.9,1.4-9.9,1.4-14.8c0.1-52.2,0.1-104.5,0-156.7c0-3.7-0.1-7.3-0.5-11
		c-1-10.4-4.9-14.9-15.1-16.8C11.3,16.8,5.6,16.6,0,16C0,12.3,0,8.7,0,5z"/>
	<path class="st3" d="M288.4,184.4c4.4,0,8.2,0,12.4,0c0,19.1,0,38.1,0,57.5c-59.1,0-118.2,0-177.5,0c0-3.2,0-6.3,0-9.9
		c5-0.6,10.1-1.1,15.1-1.9c12.2-1.9,16.7-6.9,17.6-19.1c0.3-3.5,0.4-7,0.4-10.5c0-51.7,0-103.3-0.1-155c0-5.1-0.5-10.3-1.2-15.4
		c-1-7-5.6-10.8-12.2-12.1c-5.9-1.1-11.8-1.7-18.1-2.6c0-3.1,0-6.4,0-10c31.5,0,62.8,0,94.4,0c0,3.3,0,6.6,0,10
		c-5.8,0.9-11.5,1.6-17.2,2.6c-7.6,1.3-12.3,5.8-13.1,13.6c-0.7,6.9-1.3,13.9-1.3,20.9c-0.1,45.7-0.1,91.3,0,137
		c0,8,0.6,16,1.3,23.9c0.7,7.3,5.1,11.9,12.2,13.3c8.5,1.6,17,3.3,25.6,3.9c10.6,0.7,21.3,1.4,31.9,0.4c19.1-1.8,29.2-13.6,29.7-33
		C288.5,193.5,288.4,189.1,288.4,184.4z"/>
	<path class="st0" d="M685.7,232c0,3.4,0,6.3,0,9.7c-29.8,0-59.4,0-89.3,0c0-3.2,0-6.4,0-9.8c4.5-0.9,9.1-1.6,13.6-2.7
		c9.5-2.5,11.6-6,8.4-15.3c-6.1-17.9-12.6-35.7-19-53.6c-0.5-1.4-1-2.8-1.7-4.4c-26.8,0-53.6,0-80.9,0c1.8-5.5,3.6-10.7,5.3-16
		c23.3,0,46.5,0,70.2,0c-1.1-3.4-2.1-6.3-3.1-9.3c-10.6-30.6-21.2-61.2-31.9-91.7c-1.3-3.6-1.4-6.9-0.1-10.5
		c2.7-7.3,5-14.8,7.5-22.3c4.1,0,8,0,12.4,0c4.5,12.5,9.1,25.1,13.7,37.7c19.3,53.1,38.6,106.1,57.9,159.2c0.6,1.7,1.4,3.4,2,5.1
		c5.3,14.5,15.3,22.6,31,23.2C683,231.2,684.1,231.7,685.7,232z"/>
</g>
</svg>
