<?xml version="1.0" encoding="utf-8"?>
<!-- Generator: Adobe Illustrator 28.0.0, SVG Export Plug-In . SVG Version: 6.00 Build 0)  -->
<svg version="1.1" id="Layer_1" xmlns="http://www.w3.org/2000/svg" xmlns:xlink="http://www.w3.org/1999/xlink" x="0px" y="0px"
	 viewBox="0 0 301 208" style="enable-background:new 0 0 301 208;" xml:space="preserve">
<style type="text/css">
	.st0{fill:#3F648E;}
</style>
<g>
	<path class="st0" d="M184.5,45.4c-6,0-11.7,0-17.3,0c-15,0.1-30,0-44.9,0.6c-19.7,0.8-36.7,8.9-51.6,21.4
		c-17.2,14.5-28.8,32.6-33.1,54.9c-1,5.4-1.4,10.9-1.4,16.4c0.1,12.2,7.8,20,19.9,20.4c9.5,0.3,19,0.1,28.5,0.3
		c1.9,0,3.8,0.5,6.6,0.9c-7.1,16.3-13.8,31.8-20.4,47c-0.6,0.3-0.9,0.6-1.2,0.6c-11.3-0.1-22.7,0.4-33.9-0.4
		c-14.6-1-24.3-9.7-30.7-22.4c-3.3-6.5-4.6-13.5-4.9-20.7c-0.9-25.8,6.3-49.6,18.6-72C30,71.3,43,51.6,60.4,35.2
		C75.7,20.7,93,9.2,113.6,3.9c8-2,16.3-3.4,24.6-3.6c19.5-0.5,39-0.2,58.5-0.1c2.4,0,4.9,0.4,8.1,0.7
		C197.9,16,191.3,30.4,184.5,45.4z"/>
	<path class="st0" d="M301,0.3c-6.7,15.2-13.2,30-19.8,45.1c-12,0-23.6,0-35.2,0c-3.3,0-6.7-0.2-10-0.1c-4.4,0.2-8.4,1.5-10.2,5.9
		c-3.7,9.2-7.2,18.5-11,28.5c4,0,7.4,0,10.9,0c3.8,0,7.7,0,11.5,0.2c10.5,0.7,18.1,6.8,19.7,17.2c1.1,7.7,1.5,15.6,0.8,23.3
		c-2.1,24.2-13.1,44.3-29.4,61.9c-2.5,2.7-5.2,5.2-7.7,7.8c-11.3,12.1-25.7,16.8-41.6,17.7c-6.3,0.3-12.6-0.4-19.7-0.7
		c4.9-15.6,11.8-29.4,17.1-44c6.1-0.8,12-1.6,18-2.3c13.4-1.5,24.4-11.2,27.4-24.1c1.9-8.3-1.3-12.9-9.8-13.6
		c-3.6-0.3-7.3-0.2-11-0.3c-5-0.1-5.7-1.1-4-5.6c2.2-6.1,4.5-12.1,6.7-18.2c0.9-2.7,1.7-5.4,2.2-8.2c1.1-6.4-1.9-11.6-8-13.8
		c-2.8-1-5.8-1.4-8.7-2c-2.8-0.5-5.5-0.9-8.7-1.3c0.5-1.5,0.7-2.8,1.2-3.9c8.5-20.2,17.2-40.4,25.5-60.7c2.7-6.5,7-9.2,13.8-9.2
		c25.7,0,51.3-0.1,77-0.1C298.6,0.1,299.6,0.2,301,0.3z"/>
	<path class="st0" d="M153.7,207c-10.3,0-20.3,0-30.8,0c11.7-27.6,23.3-54.9,34.9-82.3c-7.2-1.6-9.7-0.3-12.5,6.4
		c-5.1,12.4-10.1,24.9-15.3,37.4c-4.6,11.2-9.3,22.4-14,33.6c-0.7,1.7-1.6,3.3-2.4,5c-11.6,0-23,0-35.1,0c1.1-2.5,1.9-4.6,2.8-6.7
		c10.4-23.6,20.8-47.1,31.1-70.7c0.9-2,3.4-4.4-0.4-6.6c-4.2,1.7-7.4,4.4-9.2,8.9c-1.7,4.5-3.8,8.8-5.6,13.3
		c-2.7,6.6-7.2,10-14.6,9.8c-6.5-0.3-13-0.1-20.4-0.1c10-25.3,20.5-49.8,30.7-74.7c3.4-0.2,6.7-0.5,10-0.5c27.3,0,54.6,0.1,81.9,0.1
		c1.7,0,3.3,0,5,0.2c8.6,1,12.9,7.1,10.7,15.6c-0.6,2.4-1.6,4.7-2.6,7c-13.4,31.9-26.8,63.7-40.2,95.5
		C156.6,201.1,155.2,203.9,153.7,207z"/>
</g>
</svg>
