<?xml version="1.0" encoding="UTF-8" standalone="no"?><!DOCTYPE svg PUBLIC "-//W3C//DTD SVG 1.1//EN" "http://www.w3.org/Graphics/SVG/1.1/DTD/svg11.dtd"><svg width="100%" height="100%" viewBox="0 0 372 87" version="1.1" xmlns="http://www.w3.org/2000/svg" xmlns:xlink="http://www.w3.org/1999/xlink" xml:space="preserve" xmlns:serif="http://www.serif.com/" style="fill-rule:evenodd;clip-rule:evenodd;stroke-linejoin:round;stroke-miterlimit:1.41421;"><g><path d="M91.246,32.275c0.584,0.374 1.869,1.004 3.459,1.004c1.308,0 2.477,-0.723 2.477,-2.36c0,-1.168 -0.678,-1.683 -2.126,-2.476l-1.519,-0.842c-1.613,-0.888 -2.664,-2.173 -2.664,-4.276c0,-2.921 2.406,-4.439 5.14,-4.439c1.728,0 2.945,0.444 3.411,0.584l-0.139,2.5c-0.725,-0.28 -1.682,-0.7 -3.06,-0.7c-1.497,0 -2.267,0.795 -2.267,1.915c0,1.215 0.816,1.682 1.728,2.196l1.752,0.983c1.917,1.074 2.828,2.103 2.828,4.392c0,3.319 -2.36,4.906 -5.468,4.906c-1.635,0 -2.896,-0.232 -3.715,-0.724l0.163,-2.663Z" style="fill:#231f20;fill-rule:nonzero;"/><path d="M103.186,20.919l2.898,-0.888l0,3.365l2.406,0l0,2.125l-2.406,0l0,6.24c0,1.284 0.467,1.659 1.308,1.659c0.515,0 0.888,-0.141 1.098,-0.258l0,2.058c-0.444,0.209 -1.074,0.396 -1.939,0.396c-2.15,0 -3.365,-0.981 -3.365,-3.505l0,-6.59l-1.915,0l0,-2.125l1.915,0l0,-2.477Z" style="fill:#231f20;fill-rule:nonzero;"/><path d="M117.201,29.541l-0.256,0c-2.478,0 -3.95,0.515 -3.95,2.267c0,1.098 0.725,1.846 1.847,1.846c1.728,0 2.359,-1.285 2.359,-3.436l0,-0.677Zm-5.701,-5.445c0.817,-0.373 1.963,-0.888 3.808,-0.888c3.74,0 4.604,1.824 4.604,4.838l0,5.257c0,0.864 0.094,1.659 0.163,2.127l-2.616,0c-0.141,-0.468 -0.165,-1.053 -0.165,-1.636l-0.046,0c-0.725,0.981 -1.635,1.822 -3.365,1.822c-1.869,0 -3.598,-1.284 -3.598,-3.529c0,-3.27 2.664,-4.088 6.333,-4.088l0.583,0l0,-0.444c0,-1.191 -0.583,-2.29 -2.242,-2.29c-1.449,0 -2.735,0.7 -3.296,1.17l-0.163,-2.339Z" style="fill:#231f20;fill-rule:nonzero;"/><path d="M122.669,25.382c0,-0.747 -0.023,-1.449 -0.093,-1.986l2.71,0c0.023,0.607 0.093,1.239 0.093,1.848l0.071,0l-0.023,0c0.419,-0.726 1.238,-2.036 3.2,-2.036c2.734,0 3.552,2.036 3.552,4.464l0,7.758l-2.897,0l0,-7.219c0,-1.847 -0.468,-2.618 -1.659,-2.618c-1.519,0 -2.056,1.284 -2.056,2.826l0,7.011l-2.898,0l0,-10.048Z" style="fill:#231f20;fill-rule:nonzero;"/><path d="M139.564,33.491c1.705,0 2.289,-1.847 2.289,-4.113c0,-2.337 -0.654,-4.043 -2.243,-4.043c-1.612,0 -2.173,1.566 -2.173,3.972c0,2.781 0.444,4.184 2.127,4.184m5.187,-15.587l0,15.471c0,0.863 0.022,1.61 0.093,2.054l-2.709,0c-0.048,-0.35 -0.095,-1.052 -0.095,-1.869l-0.07,0c-0.467,1.027 -1.332,2.056 -3.201,2.056c-2.991,0 -4.229,-2.85 -4.229,-6.193c0,-3.924 1.565,-6.215 4.158,-6.215c1.73,0 2.688,0.981 3.108,1.917l0.047,0l0,-7.221l2.898,0Z" style="fill:#231f20;fill-rule:nonzero;"/><path d="M153.77,29.541l-0.258,0c-2.476,0 -3.948,0.515 -3.948,2.267c0,1.098 0.725,1.846 1.847,1.846c1.728,0 2.359,-1.285 2.359,-3.436l0,-0.677Zm-5.701,-5.445c0.817,-0.373 1.962,-0.888 3.808,-0.888c3.74,0 4.604,1.824 4.604,4.838l0,5.257c0,0.864 0.093,1.659 0.163,2.127l-2.617,0c-0.14,-0.468 -0.164,-1.053 -0.164,-1.636l-0.046,0c-0.725,0.981 -1.635,1.822 -3.365,1.822c-1.869,0 -3.598,-1.284 -3.598,-3.529c0,-3.27 2.664,-4.088 6.333,-4.088l0.583,0l0,-0.444c0,-1.191 -0.583,-2.29 -2.244,-2.29c-1.447,0 -2.734,0.7 -3.294,1.17l-0.163,-2.339Z" style="fill:#231f20;fill-rule:nonzero;"/><path d="M159.332,25.382c0,-0.747 -0.024,-1.449 -0.093,-1.986l2.616,0c0.024,0.724 0.094,1.471 0.094,2.197l0.047,0c0.349,-0.934 1.261,-2.385 3.06,-2.385c0.187,0 0.328,0.048 0.49,0.072l0,2.709c-0.256,-0.069 -0.513,-0.117 -0.817,-0.117c-1.191,0 -2.501,0.725 -2.501,2.969l0,6.589l-2.896,0l0,-10.048Z" style="fill:#231f20;fill-rule:nonzero;"/><path d="M172.002,33.491c1.705,0 2.289,-1.847 2.289,-4.113c0,-2.337 -0.654,-4.043 -2.243,-4.043c-1.612,0 -2.173,1.566 -2.173,3.972c0,2.781 0.444,4.184 2.127,4.184m5.187,-15.587l0,15.471c0,0.863 0.024,1.61 0.093,2.054l-2.709,0c-0.048,-0.35 -0.095,-1.052 -0.095,-1.869l-0.069,0c-0.468,1.027 -1.333,2.056 -3.202,2.056c-2.991,0 -4.23,-2.85 -4.23,-6.193c0,-3.924 1.566,-6.215 4.159,-6.215c1.73,0 2.688,0.981 3.108,1.917l0.047,0l0,-7.221l2.898,0Z" style="fill:#231f20;fill-rule:nonzero;"/><path d="M179.595,32.626c0.468,0.187 1.659,0.793 3.015,0.793c1.053,0 1.871,-0.256 1.871,-1.191c0,-0.466 -0.234,-0.912 -1.287,-1.519l-1.191,-0.701c-1.215,-0.724 -2.547,-1.495 -2.547,-3.388c0,-1.659 1.612,-3.413 4.159,-3.413c1.542,0 2.733,0.399 3.015,0.492l-0.163,2.243c-0.726,-0.279 -1.497,-0.537 -2.547,-0.537c-1.17,0 -1.661,0.444 -1.661,1.168c0,0.654 0.515,1.005 1.356,1.542l1.425,0.911c1.496,0.96 2.243,1.638 2.243,3.039c0,2.218 -1.869,3.55 -4.485,3.55c-1.496,0 -2.735,-0.349 -3.342,-0.582l0.139,-2.407Z" style="fill:#231f20;fill-rule:nonzero;"/><path d="M206.747,35.079c-0.608,0.328 -2.057,0.583 -3.528,0.583c-4.955,0 -7.502,-3.621 -7.502,-8.388c0,-4.767 2.547,-8.388 7.407,-8.388c1.659,0 3.015,0.444 3.623,0.677l-0.164,2.688c-0.609,-0.303 -1.566,-0.888 -3.085,-0.888c-2.477,0 -4.604,1.683 -4.604,5.911c0,4.229 2.127,5.912 4.604,5.912c1.449,0 2.407,-0.35 3.085,-0.84l0.164,2.733Z" style="fill:#231f20;fill-rule:nonzero;"/><path d="M213.99,33.561c1.871,0 2.291,-2.151 2.291,-4.16c0,-2.008 -0.42,-4.135 -2.291,-4.135c-1.869,0 -2.313,2.127 -2.313,4.135c0,2.009 0.444,4.16 2.313,4.16m0,-10.353c2.454,0 5.282,1.287 5.282,6.193c0,5.048 -2.828,6.216 -5.282,6.216c-2.454,0 -5.304,-1.168 -5.304,-6.216c0,-4.906 2.85,-6.193 5.304,-6.193" style="fill:#231f20;fill-rule:nonzero;"/><path d="M231.14,33.444c0,0.747 0.024,1.448 0.095,1.985l-2.711,0c-0.024,-0.608 -0.093,-1.238 -0.093,-1.847l-0.07,-0.021l0.022,0.021c-0.561,0.89 -1.308,2.034 -3.201,2.034c-2.734,0 -3.552,-2.034 -3.552,-4.462l0,-7.758l2.898,0l0,7.219c0,1.847 0.515,2.619 1.73,2.619c1.542,0 1.986,-1.402 1.986,-2.944l0,-6.894l2.896,0l0,10.048Z" style="fill:#231f20;fill-rule:nonzero;"/><path d="M233.829,25.382c0,-0.747 -0.023,-1.449 -0.095,-1.986l2.712,0c0.023,0.607 0.093,1.239 0.093,1.848l0.069,0l-0.022,0c0.421,-0.726 1.239,-2.036 3.201,-2.036c2.734,0 3.552,2.036 3.552,4.464l0,7.758l-2.897,0l0,-7.219c0,-1.847 -0.468,-2.618 -1.659,-2.618c-1.519,0 -2.056,1.284 -2.056,2.826l0,7.011l-2.898,0l0,-10.048Z" style="fill:#231f20;fill-rule:nonzero;"/><path d="M254.204,35.127c-0.676,0.256 -1.683,0.49 -2.85,0.49c-3.972,0 -5.655,-2.781 -5.655,-6.193c0,-3.435 1.776,-6.215 5.817,-6.215c0.912,0 1.988,0.279 2.526,0.491l-0.165,2.289c-0.514,-0.257 -1.237,-0.584 -2.032,-0.584c-2.198,0 -3.156,1.472 -3.156,4.043c0,2.244 1.077,3.973 3.295,3.973c0.701,0 1.659,-0.328 2.058,-0.585l0.162,2.291Z" style="fill:#231f20;fill-rule:nonzero;"/><path d="M256.33,23.396l2.898,0l0,12.033l-2.898,0l0,-12.033Zm-0.046,-5.118l2.991,0l0,2.851l-2.991,0l0,-2.851Z" style="fill:#231f20;fill-rule:nonzero;"/><rect x="262.477" y="17.906" width="2.898" height="17.524" style="fill:#231f20;"/><path d="M279.015,33.561c1.869,0 2.289,-2.151 2.289,-4.16c0,-2.008 -0.42,-4.135 -2.289,-4.135c-1.871,0 -2.313,2.127 -2.313,4.135c0,2.009 0.442,4.16 2.313,4.16m0,-10.353c2.454,0 5.281,1.287 5.281,6.193c0,5.048 -2.827,6.216 -5.281,6.216c-2.454,0 -5.306,-1.168 -5.306,-6.216c0,-4.906 2.852,-6.193 5.306,-6.193" style="fill:#231f20;fill-rule:nonzero;"/><path d="M287.589,25.522l-2.008,0l0,-2.127l2.008,0l0,-2.452c0,-1.73 0.819,-3.32 3.461,-3.32c0.771,0 1.518,0.164 2.077,0.282l-0.115,2.102c-0.351,-0.093 -0.725,-0.186 -1.146,-0.186c-0.84,0 -1.377,0.583 -1.377,1.495l0,2.079l2.196,0l0,2.127l-2.196,0l0,9.908l-2.9,0l0,-9.908Z" style="fill:#231f20;fill-rule:nonzero;"/><path d="M310.797,35.079c-0.609,0.328 -2.057,0.583 -3.53,0.583c-4.953,0 -7.501,-3.621 -7.501,-8.388c0,-4.767 2.548,-8.388 7.408,-8.388c1.659,0 3.014,0.444 3.623,0.677l-0.165,2.688c-0.606,-0.303 -1.565,-0.888 -3.084,-0.888c-2.477,0 -4.604,1.683 -4.604,5.911c0,4.229 2.127,5.912 4.604,5.912c1.449,0 2.407,-0.35 3.084,-0.84l0.165,2.733Z" style="fill:#231f20;fill-rule:nonzero;"/><path d="M319.348,29.541l-0.256,0c-2.478,0 -3.95,0.515 -3.95,2.267c0,1.098 0.725,1.846 1.845,1.846c1.73,0 2.361,-1.285 2.361,-3.436l0,-0.677Zm-5.701,-5.445c0.819,-0.373 1.962,-0.888 3.81,-0.888c3.738,0 4.602,1.824 4.602,4.838l0,5.257c0,0.864 0.093,1.659 0.163,2.127l-2.616,0c-0.141,-0.468 -0.165,-1.053 -0.165,-1.636l-0.046,0c-0.725,0.981 -1.637,1.822 -3.365,1.822c-1.869,0 -3.598,-1.284 -3.598,-3.529c0,-3.27 2.664,-4.088 6.333,-4.088l0.583,0l0,-0.444c0,-1.191 -0.583,-2.29 -2.242,-2.29c-1.449,0 -2.735,0.7 -3.296,1.17l-0.163,-2.339Z" style="fill:#231f20;fill-rule:nonzero;"/><path d="M324.817,25.382c0,-0.747 -0.023,-1.449 -0.095,-1.986l2.712,0c0.023,0.607 0.093,1.239 0.093,1.848l0.071,0l-0.024,0c0.42,-0.726 1.239,-2.036 3.201,-2.036c2.734,0 3.552,2.036 3.552,4.464l0,7.758l-2.897,0l0,-7.219c0,-1.847 -0.468,-2.618 -1.659,-2.618c-1.519,0 -2.056,1.284 -2.056,2.826l0,7.011l-2.898,0l0,-10.048Z" style="fill:#231f20;fill-rule:nonzero;"/><path d="M343.3,29.541l-0.258,0c-2.476,0 -3.948,0.515 -3.948,2.267c0,1.098 0.725,1.846 1.845,1.846c1.73,0 2.361,-1.285 2.361,-3.436l0,-0.677Zm-5.701,-5.445c0.817,-0.373 1.962,-0.888 3.81,-0.888c3.738,0 4.6,1.824 4.6,4.838l0,5.257c0,0.864 0.095,1.659 0.165,2.127l-2.616,0c-0.142,-0.468 -0.165,-1.053 -0.165,-1.636l-0.046,0c-0.725,0.981 -1.637,1.822 -3.365,1.822c-1.869,0 -3.6,-1.284 -3.6,-3.529c0,-3.27 2.666,-4.088 6.333,-4.088l0.585,0l0,-0.444c0,-1.191 -0.585,-2.29 -2.244,-2.29c-1.449,0 -2.733,0.7 -3.294,1.17l-0.163,-2.339Z" style="fill:#231f20;fill-rule:nonzero;"/><path d="M353.464,33.491c1.706,0 2.289,-1.847 2.289,-4.113c0,-2.337 -0.654,-4.043 -2.241,-4.043c-1.614,0 -2.175,1.566 -2.175,3.972c0,2.781 0.444,4.184 2.127,4.184m5.187,-15.587l0,15.471c0,0.863 0.024,1.61 0.095,2.054l-2.711,0c-0.046,-0.35 -0.094,-1.052 -0.094,-1.869l-0.069,0c-0.468,1.027 -1.334,2.056 -3.201,2.056c-2.991,0 -4.23,-2.85 -4.23,-6.193c0,-3.924 1.564,-6.215 4.159,-6.215c1.728,0 2.687,0.981 3.108,1.917l0.045,0l0,-7.221l2.898,0Z" style="fill:#231f20;fill-rule:nonzero;"/><path d="M367.672,29.541l-0.258,0c-2.476,0 -3.948,0.515 -3.948,2.267c0,1.098 0.723,1.846 1.845,1.846c1.73,0 2.361,-1.285 2.361,-3.436l0,-0.677Zm-5.701,-5.445c0.817,-0.373 1.962,-0.888 3.808,-0.888c3.738,0 4.602,1.824 4.602,4.838l0,5.257c0,0.864 0.095,1.659 0.164,2.127l-2.616,0c-0.141,-0.468 -0.164,-1.053 -0.164,-1.636l-0.046,0c-0.725,0.981 -1.635,1.822 -3.365,1.822c-1.87,0 -3.598,-1.284 -3.598,-3.529c0,-3.27 2.662,-4.088 6.333,-4.088l0.583,0l0,-0.444c0,-1.191 -0.583,-2.29 -2.244,-2.29c-1.449,0 -2.734,0.7 -3.294,1.17l-0.163,-2.339Z" style="fill:#231f20;fill-rule:nonzero;"/><path d="M100.864,67.852c-0.608,0.327 -2.057,0.584 -3.528,0.584c-4.955,0 -7.502,-3.621 -7.502,-8.388c0,-4.769 2.547,-8.388 7.409,-8.388c1.657,0 3.013,0.442 3.621,0.676l-0.164,2.688c-0.607,-0.303 -1.566,-0.888 -3.085,-0.888c-2.477,0 -4.602,1.683 -4.602,5.912c0,4.228 2.125,5.911 4.602,5.911c1.45,0 2.407,-0.349 3.085,-0.841l0.164,2.734Z" style="fill:#231f20;fill-rule:nonzero;"/><path d="M108.038,66.334c1.869,0 2.289,-2.151 2.289,-4.16c0,-2.008 -0.42,-4.135 -2.289,-4.135c-1.871,0 -2.313,2.127 -2.313,4.135c0,2.009 0.442,4.16 2.313,4.16m0,-10.352c2.454,0 5.28,1.286 5.28,6.192c0,5.049 -2.826,6.216 -5.28,6.216c-2.454,0 -5.306,-1.167 -5.306,-6.216c0,-4.906 2.852,-6.192 5.306,-6.192" style="fill:#231f20;fill-rule:nonzero;"/><path d="M115.608,58.154c0,-0.747 -0.023,-1.447 -0.093,-1.986l2.71,0c0.023,0.608 0.093,1.239 0.093,1.847l0.071,0l-0.024,0c0.421,-0.725 1.239,-2.033 3.201,-2.033c2.734,0 3.552,2.033 3.552,4.463l0,7.756l-2.897,0l0,-7.219c0,-1.847 -0.468,-2.616 -1.659,-2.616c-1.519,0 -2.056,1.284 -2.056,2.827l0,7.008l-2.898,0l0,-10.047Z" style="fill:#231f20;fill-rule:nonzero;"/><path d="M127.408,65.399c0.468,0.187 1.659,0.795 3.014,0.795c1.051,0 1.869,-0.258 1.869,-1.193c0,-0.468 -0.233,-0.91 -1.284,-1.519l-1.193,-0.699c-1.215,-0.725 -2.547,-1.496 -2.547,-3.389c0,-1.659 1.614,-3.412 4.16,-3.412c1.543,0 2.734,0.397 3.015,0.49l-0.164,2.243c-0.726,-0.279 -1.495,-0.536 -2.547,-0.536c-1.168,0 -1.659,0.444 -1.659,1.167c0,0.656 0.513,1.005 1.355,1.544l1.425,0.91c1.497,0.959 2.244,1.637 2.244,3.039c0,2.219 -1.869,3.551 -4.487,3.551c-1.495,0 -2.733,-0.351 -3.342,-0.584l0.141,-2.407Z" style="fill:#231f20;fill-rule:nonzero;"/><path d="M143.882,61.146c0,-2.127 -0.702,-3.202 -2.01,-3.202c-1.518,0 -2.149,1.614 -2.149,3.202l4.159,0Zm2.198,6.471c-0.609,0.258 -1.871,0.773 -3.6,0.773c-3.879,0 -5.561,-2.781 -5.561,-6.029c0,-3.598 1.892,-6.379 4.953,-6.379c2.594,0 4.814,1.519 4.814,6.426l0,0.561l-6.963,0c0,2.056 0.817,3.294 3.061,3.294c1.775,0 2.618,-0.537 3.155,-0.933l0.141,2.287Z" style="fill:#231f20;fill-rule:nonzero;"/><path d="M149.209,56.168l2.898,0l0,12.033l-2.898,0l0,-12.033Zm-0.046,-5.117l2.989,0l0,2.85l-2.989,0l0,-2.85Z" style="fill:#231f20;fill-rule:nonzero;"/><rect x="155.284" y="50.678" width="2.898" height="17.523" style="fill:#231f20;"/><path d="M175.333,67.899c-0.678,0.258 -1.683,0.49 -2.85,0.49c-3.972,0 -5.655,-2.779 -5.655,-6.192c0,-3.435 1.776,-6.216 5.819,-6.216c0.91,0 1.986,0.281 2.523,0.491l-0.164,2.29c-0.513,-0.256 -1.239,-0.583 -2.032,-0.583c-2.198,0 -3.155,1.471 -3.155,4.041c0,2.244 1.076,3.973 3.296,3.973c0.699,0 1.659,-0.327 2.055,-0.583l0.163,2.289Z" style="fill:#231f20;fill-rule:nonzero;"/><path d="M183.396,62.314l-0.258,0c-2.477,0 -3.948,0.514 -3.948,2.266c0,1.1 0.724,1.845 1.846,1.845c1.728,0 2.36,-1.284 2.36,-3.433l0,-0.678Zm-5.702,-5.445c0.818,-0.372 1.962,-0.887 3.809,-0.887c3.739,0 4.602,1.823 4.602,4.838l0,5.256c0,0.865 0.094,1.659 0.165,2.125l-2.616,0c-0.143,-0.466 -0.165,-1.05 -0.165,-1.635l-0.047,0c-0.724,0.983 -1.635,1.824 -3.364,1.824c-1.869,0 -3.599,-1.285 -3.599,-3.529c0,-3.27 2.664,-4.089 6.332,-4.089l0.585,0l0,-0.444c0,-1.193 -0.585,-2.289 -2.244,-2.289c-1.449,0 -2.735,0.699 -3.294,1.167l-0.164,-2.337Z" style="fill:#231f20;fill-rule:nonzero;"/><path d="M188.793,58.154c0,-0.747 -0.023,-1.447 -0.093,-1.986l2.71,0c0.023,0.608 0.093,1.239 0.093,1.847l0.071,0l-0.024,0c0.421,-0.725 1.239,-2.033 3.201,-2.033c2.734,0 3.552,2.033 3.552,4.463l0,7.756l-2.897,0l0,-7.219c0,-1.847 -0.468,-2.616 -1.659,-2.616c-1.519,0 -2.056,1.284 -2.056,2.827l0,7.008l-2.898,0l0,-10.047Z" style="fill:#231f20;fill-rule:nonzero;"/><path d="M207.207,62.314l-0.257,0c-2.478,0 -3.949,0.514 -3.949,2.266c0,1.1 0.724,1.845 1.845,1.845c1.729,0 2.361,-1.284 2.361,-3.433l0,-0.678Zm-5.702,-5.445c0.818,-0.372 1.962,-0.887 3.809,-0.887c3.739,0 4.603,1.823 4.603,4.838l0,5.256c0,0.865 0.093,1.659 0.164,2.125l-2.618,0c-0.139,-0.466 -0.163,-1.05 -0.163,-1.635l-0.048,0c-0.723,0.983 -1.634,1.824 -3.363,1.824c-1.869,0 -3.599,-1.285 -3.599,-3.529c0,-3.27 2.664,-4.089 6.333,-4.089l0.584,0l0,-0.444c0,-1.193 -0.584,-2.289 -2.243,-2.289c-1.45,0 -2.734,0.699 -3.295,1.167l-0.164,-2.337Z" style="fill:#231f20;fill-rule:nonzero;"/><path d="M217.301,66.263c1.707,0 2.29,-1.846 2.29,-4.113c0,-2.335 -0.655,-4.041 -2.244,-4.041c-1.612,0 -2.173,1.565 -2.173,3.972c0,2.78 0.445,4.182 2.127,4.182m5.187,-15.585l0,15.468c0,0.864 0.024,1.613 0.094,2.055l-2.71,0c-0.048,-0.349 -0.093,-1.05 -0.093,-1.867l-0.071,0c-0.468,1.027 -1.332,2.056 -3.202,2.056c-2.991,0 -4.229,-2.851 -4.229,-6.193c0,-3.924 1.566,-6.215 4.16,-6.215c1.729,0 2.686,0.981 3.108,1.917l0.046,0l0,-7.221l2.897,0Z" style="fill:#231f20;fill-rule:nonzero;"/><path d="M225.432,56.168l2.898,0l0,12.033l-2.898,0l0,-12.033Zm-0.047,-5.117l2.991,0l0,2.85l-2.991,0l0,-2.85Z" style="fill:#231f20;fill-rule:nonzero;"/><path d="M237.863,61.146c0,-2.127 -0.7,-3.202 -2.008,-3.202c-1.52,0 -2.151,1.614 -2.151,3.202l4.159,0Zm2.196,6.471c-0.607,0.258 -1.867,0.773 -3.598,0.773c-3.878,0 -5.561,-2.781 -5.561,-6.029c0,-3.598 1.893,-6.379 4.955,-6.379c2.592,0 4.812,1.519 4.812,6.426l0,0.561l-6.963,0c0,2.056 0.817,3.294 3.063,3.294c1.774,0 2.616,-0.537 3.153,-0.933l0.139,2.287Z" style="fill:#231f20;fill-rule:nonzero;"/><path d="M242.911,58.154c0,-0.747 -0.023,-1.447 -0.095,-1.986l2.712,0c0.023,0.608 0.093,1.239 0.093,1.847l0.071,0l-0.024,0c0.421,-0.725 1.239,-2.033 3.202,-2.033c2.733,0 3.552,2.033 3.552,4.463l0,7.756l-2.899,0l0,-7.219c0,-1.847 -0.467,-2.616 -1.658,-2.616c-1.519,0 -2.056,1.284 -2.056,2.827l0,7.008l-2.898,0l0,-10.047Z" style="fill:#231f20;fill-rule:nonzero;"/><path d="M265.81,66.263c1.705,0 2.29,-1.846 2.29,-4.113c0,-2.335 -0.655,-4.041 -2.242,-4.041c-1.614,0 -2.175,1.565 -2.175,3.972c0,2.78 0.444,4.182 2.127,4.182m5.188,-15.585l0,15.468c0,0.864 0.023,1.613 0.093,2.055l-2.71,0c-0.048,-0.349 -0.095,-1.05 -0.095,-1.867l-0.069,0c-0.468,1.027 -1.332,2.056 -3.201,2.056c-2.991,0 -4.23,-2.851 -4.23,-6.193c0,-3.924 1.565,-6.215 4.16,-6.215c1.729,0 2.688,0.981 3.108,1.917l0.046,0l0,-7.221l2.898,0Z" style="fill:#231f20;fill-rule:nonzero;"/><path d="M280.297,61.146c0,-2.127 -0.7,-3.202 -2.008,-3.202c-1.52,0 -2.15,1.614 -2.15,3.202l4.158,0Zm2.198,6.471c-0.609,0.258 -1.869,0.773 -3.599,0.773c-3.879,0 -5.562,-2.781 -5.562,-6.029c0,-3.598 1.893,-6.379 4.955,-6.379c2.593,0 4.812,1.519 4.812,6.426l0,0.561l-6.962,0c0,2.056 0.818,3.294 3.06,3.294c1.776,0 2.618,-0.537 3.155,-0.933l0.141,2.287Z" style="fill:#231f20;fill-rule:nonzero;"/><path d="M285.018,65.399c0.466,0.187 1.659,0.795 3.013,0.795c1.052,0 1.871,-0.258 1.871,-1.193c0,-0.468 -0.234,-0.91 -1.286,-1.519l-1.191,-0.699c-1.215,-0.725 -2.547,-1.496 -2.547,-3.389c0,-1.659 1.611,-3.412 4.158,-3.412c1.542,0 2.735,0.397 3.015,0.49l-0.163,2.243c-0.725,-0.279 -1.496,-0.536 -2.547,-0.536c-1.169,0 -1.659,0.444 -1.659,1.167c0,0.656 0.514,1.005 1.354,1.544l1.425,0.91c1.497,0.959 2.244,1.637 2.244,3.039c0,2.219 -1.869,3.551 -4.486,3.551c-1.496,0 -2.735,-0.351 -3.341,-0.584l0.14,-2.407Z" style="fill:#231f20;fill-rule:nonzero;"/><path d="M300.93,58.154c0,-0.747 -0.023,-1.447 -0.093,-1.986l2.71,0c0.024,0.608 0.095,1.239 0.095,1.847l0.069,0l-0.023,0c0.42,-0.725 1.238,-2.033 3.201,-2.033c2.733,0 3.551,2.033 3.551,4.463l0,7.756l-2.897,0l0,-7.219c0,-1.847 -0.468,-2.616 -1.66,-2.616c-1.517,0 -2.055,1.284 -2.055,2.827l0,7.008l-2.898,0l0,-10.047Z" style="fill:#231f20;fill-rule:nonzero;"/><path d="M318.035,66.334c1.868,0 2.289,-2.151 2.289,-4.16c0,-2.008 -0.421,-4.135 -2.289,-4.135c-1.87,0 -2.313,2.127 -2.313,4.135c0,2.009 0.443,4.16 2.313,4.16m0,-10.352c2.454,0 5.282,1.286 5.282,6.192c0,5.049 -2.828,6.216 -5.282,6.216c-2.454,0 -5.305,-1.167 -5.305,-6.216c0,-4.906 2.851,-6.192 5.305,-6.192" style="fill:#231f20;fill-rule:nonzero;"/><path d="M325.7,58.154c0,-0.747 -0.024,-1.447 -0.094,-1.986l2.617,0c0.023,0.725 0.095,1.472 0.095,2.198l0.046,0c0.35,-0.935 1.26,-2.384 3.06,-2.384c0.188,0 0.327,0.047 0.492,0.069l0,2.712c-0.256,-0.07 -0.514,-0.118 -0.817,-0.118c-1.193,0 -2.502,0.726 -2.502,2.968l0,6.588l-2.897,0l0,-10.047Z" style="fill:#231f20;fill-rule:nonzero;"/><path d="M333.761,58.131c0,-0.864 -0.047,-1.518 -0.093,-1.962l2.898,0c0.022,0.631 0.091,1.261 0.091,1.893l0.047,0c0.445,-0.935 1.38,-2.081 3.039,-2.081c2.032,0 2.686,1.263 3.037,1.917c0.584,-0.841 1.449,-1.917 3.225,-1.917c2.618,0 3.458,1.871 3.458,4.79l0,7.431l-2.897,0l0,-7.595c0,-1.495 -0.468,-2.241 -1.543,-2.241c-1.284,0 -1.962,1.215 -1.962,2.546l0,7.29l-2.897,0l0,-7.595c0,-1.495 -0.468,-2.241 -1.543,-2.241c-1.284,0 -1.964,1.215 -1.964,2.546l0,7.29l-2.896,0l0,-10.071Z" style="fill:#231f20;fill-rule:nonzero;"/><path d="M358.646,61.146c0,-2.127 -0.7,-3.202 -2.01,-3.202c-1.518,0 -2.149,1.614 -2.149,3.202l4.159,0Zm2.198,6.471c-0.609,0.258 -1.871,0.773 -3.599,0.773c-3.879,0 -5.562,-2.781 -5.562,-6.029c0,-3.598 1.893,-6.379 4.953,-6.379c2.594,0 4.815,1.519 4.815,6.426l0,0.561l-6.964,0c0,2.056 0.817,3.294 3.061,3.294c1.776,0 2.618,-0.537 3.155,-0.933l0.141,2.287Z" style="fill:#231f20;fill-rule:nonzero;"/><path d="M363.367,65.399c0.467,0.187 1.659,0.795 3.014,0.795c1.053,0 1.87,-0.258 1.87,-1.193c0,-0.468 -0.234,-0.91 -1.285,-1.519l-1.191,-0.699c-1.215,-0.725 -2.547,-1.496 -2.547,-3.389c0,-1.659 1.611,-3.412 4.158,-3.412c1.543,0 2.734,0.397 3.015,0.49l-0.164,2.243c-0.724,-0.279 -1.495,-0.536 -2.547,-0.536c-1.168,0 -1.659,0.444 -1.659,1.167c0,0.656 0.515,1.005 1.355,1.544l1.426,0.91c1.496,0.959 2.243,1.637 2.243,3.039c0,2.219 -1.869,3.551 -4.487,3.551c-1.495,0 -2.734,-0.351 -3.34,-0.584l0.139,-2.407Z" style="fill:#231f20;fill-rule:nonzero;"/><rect x="88.759" y="43.292" width="283.149" height="1.221" style="fill:#558ac8;"/><path d="M11.812,16.119c12.393,-14.772 34.415,-16.7 49.188,-4.307l2.343,-2.791c-16.317,-13.688 -40.636,-11.559 -54.324,4.753c-12.519,14.919 -11.802,36.527 0.887,50.582l2.364,-2.817c-11.165,-12.734 -11.681,-32.048 -0.458,-45.42" style="fill:#558ac8;fill-rule:nonzero;"/><path d="M14.603,18.459c-9.925,11.827 -9.589,28.839 0.045,40.248l2.376,-2.837c-8.11,-10.068 -8.259,-24.789 0.371,-35.07c9.805,-11.686 27.229,-13.209 38.919,-3.406l2.341,-2.79c-13.23,-11.1 -32.952,-9.374 -44.052,3.855" style="fill:#558ac8;fill-rule:nonzero;"/><path d="M22.978,25.487c7.219,-8.603 20.044,-9.728 28.648,-2.51l2.343,-2.79c-10.146,-8.512 -25.27,-7.189 -33.783,2.957c-8.512,10.146 -7.192,25.269 2.952,33.786l2.345,-2.79c-8.604,-7.223 -9.726,-20.051 -2.505,-28.653" style="fill:#558ac8;fill-rule:nonzero;"/><path d="M28.561,30.171c4.629,-5.52 12.861,-6.24 18.381,-1.611l2.342,-2.79c-7.077,-5.94 -17.63,-5.015 -23.568,2.064c-5.942,7.078 -5.019,17.632 2.058,23.569l2.394,-2.851c-5.522,-4.629 -6.24,-12.858 -1.607,-18.381" style="fill:#558ac8;fill-rule:nonzero;"/><path d="M54.552,70.312c-12.393,14.769 -34.415,16.701 -49.188,4.305l-2.34,2.794c16.312,13.686 40.632,11.558 54.319,-4.756c12.521,-14.916 11.802,-36.524 -0.885,-50.582l-2.364,2.816c11.163,12.735 11.681,32.052 0.458,45.423" style="fill:#558ac8;fill-rule:nonzero;"/><path d="M51.762,67.972c9.924,-11.832 9.588,-28.841 -0.047,-40.247l-2.379,2.835c8.114,10.071 8.262,24.786 -0.367,35.067c-9.806,11.688 -27.231,13.212 -38.918,3.407l-2.343,2.793c13.227,11.101 32.954,9.373 44.054,-3.855" style="fill:#558ac8;fill-rule:nonzero;"/><path d="M43.385,60.944c-7.216,8.607 -20.046,9.726 -28.65,2.506l-2.343,2.793c10.146,8.513 25.272,7.185 33.788,-2.959c8.511,-10.145 7.189,-25.269 -2.957,-33.783l-2.341,2.791c8.604,7.221 9.724,20.046 2.503,28.652" style="fill:#558ac8;fill-rule:nonzero;"/><path d="M37.804,56.258c-4.632,5.52 -12.863,6.239 -18.384,1.61l-2.345,2.794c7.079,5.939 17.634,5.013 23.574,-2.068c5.94,-7.077 5.016,-17.63 -2.059,-23.567l-2.394,2.847c5.521,4.637 6.24,12.864 1.608,18.384" style="fill:#558ac8;fill-rule:nonzero;"/></g></svg>