<?xml version="1.0" encoding="UTF-8" standalone="no"?>
<!-- Created with Inkscape (http://www.inkscape.org/) -->

<svg
   xmlns:dc="http://purl.org/dc/elements/1.1/"
   xmlns:cc="http://creativecommons.org/ns#"
   xmlns:rdf="http://www.w3.org/1999/02/22-rdf-syntax-ns#"
   xmlns:svg="http://www.w3.org/2000/svg"
   xmlns="http://www.w3.org/2000/svg"
   xmlns:sodipodi="http://sodipodi.sourceforge.net/DTD/sodipodi-0.dtd"
   xmlns:inkscape="http://www.inkscape.org/namespaces/inkscape"
   width="125.22357"
   height="122.83217"
   id="svg3644"
   version="1.1"
   inkscape:version="0.48.2 r9819"
   sodipodi:docname="New document 4">
  <defs
     id="defs3646" />
  <sodipodi:namedview
     id="base"
     pagecolor="#ffffff"
     bordercolor="#666666"
     borderopacity="1.0"
     inkscape:pageopacity="0.0"
     inkscape:pageshadow="2"
     inkscape:zoom="0.98994949"
     inkscape:cx="109.00123"
     inkscape:cy="57.234804"
     inkscape:document-units="px"
     inkscape:current-layer="layer1"
     showgrid="false"
     fit-margin-top="0"
     fit-margin-left="0"
     fit-margin-right="0"
     fit-margin-bottom="0"
     inkscape:window-width="477"
     inkscape:window-height="464"
     inkscape:window-x="176"
     inkscape:window-y="176"
     inkscape:window-maximized="0" />
  <metadata
     id="metadata3649">
    <rdf:RDF>
      <cc:Work
         rdf:about="">
        <dc:format>image/svg+xml</dc:format>
        <dc:type
           rdf:resource="http://purl.org/dc/dcmitype/StillImage" />
        <dc:title></dc:title>
      </cc:Work>
    </rdf:RDF>
  </metadata>
  <g
     inkscape:label="Layer 1"
     inkscape:groupmode="layer"
     id="layer1"
     transform="translate(-325.60768,-434.91236)">
    <path
       d="m 401.63408,465.34746 -20.70814,0 c -10.05074,40.22001 -17.8214,63.96824 -22.34747,75.71967 -3.26504,8.73177 -7.76726,14.3212 -16.07982,16.3218 -7.51846,1.86769 -14.66883,-3.91941 -15.01988,-10.39837 -0.30332,-4.2875 0.92703,-7.50824 2.67884,-10.10868 0.86227,-1.26785 1.8336,-2.3721 2.75381,-3.35025 0.88272,-0.93043 1.77908,-1.80634 2.56977,-2.67883 2.12671,-2.29712 4.98959,-4.71012 7.63775,-7.69228 2.52206,-2.84243 4.75442,-6.13133 5.93365,-10.31658 l 13.75544,-47.49648 -7.36509,0 c -5.46332,0 -11.35948,3.19347 -13.95311,6.2438 l -6.39035,7.60366 -9.4918,0 1.69387,-3.25481 c 0.80774,-1.55073 2.13352,-4.59765 4.28068,-8.41822 2.18465,-3.89215 5.20771,-8.58182 9.38614,-13.34305 4.7851,-5.494 14.20873,-12.19449 25.24784,-12.19449 l 84.61504,0 -3.80695,23.36311 -13.9906,0 c -8.7863,0 -14.78812,3.80354 -16.62854,11.155 -6.42102,25.69431 -6.47896,30.31922 -7.83201,38.63178 -0.96452,5.90639 0.21485,11.86049 2.32438,14.18487 1.94948,2.11989 6.50282,5.20089 13.22376,0.5419 2.65498,-1.7927 4.11027,-4.00121 5.04412,-6.18245 1.0429,-2.42662 1.46552,-4.7476 2.05513,-6.36649 l 0.53168,-1.46552 8.85788,0 -0.49078,2.63112 c -3.82058,20.65702 -15.405,31.8086 -22.5247,35.4315 -5.00663,2.71974 -14.60749,5.22475 -20.96035,0.17396 -3.53769,-3.02306 -7.47756,-9.26004 -8.90218,-17.6101 -1.55072,-9.10667 1.67683,-27.13257 4.63173,-38.52272 0.18758,-0.78729 3.916,-16.24683 5.35766,-22.54515 1.05995,-4.63854 2.52547,-7.85928 3.9126,-10.05756"
       style="fill:#a7a5a6;fill-opacity:1;fill-rule:nonzero;stroke:none"
       id="path3237"
       inkscape:connector-curvature="0" />
    <path
       d="m 402.57815,453.81416 c 0,0 -4.31476,2.55614 -6.65278,12.78411 -1.48256,6.47214 -5.37471,22.60649 -5.37471,22.60649 -2.96512,11.43447 -6.04953,29.0173 -4.59082,37.59229 1.34623,7.91381 5.03389,13.62934 8.1217,16.26728 5.25202,4.17502 13.71113,2.19828 18.53713,-0.44307 6.47214,-3.29231 17.64417,-13.84746 21.34206,-33.8501 l -4.6181,0 c -1.19627,3.29572 -1.75521,9.4509 -7.93425,13.62934 -7.93085,5.49399 -13.6975,1.75862 -16.12413,-0.87932 -2.79471,-3.081 -3.87852,-9.89055 -2.87651,-16.04914 1.35987,-8.35006 1.4144,-12.99882 7.8695,-38.81242 2.15397,-8.62271 9.29753,-12.84546 18.78933,-12.84546 l 12.09565,0 3.07759,-18.9018 -81.98732,0 c -10.11549,0 -17.93387,6.15519 -22.53151,11.43106 -8.09785,9.23277 -11.76506,18.24402 -13.36691,21.32161 l 5.14977,0 5.67804,-6.81637 c 2.98898,-3.51384 8.4523,-7.0345 14.60748,-7.0345 l 10.01325,0 -14.57681,50.34232 c -2.60385,9.23277 -9.80194,14.2837 -14.0724,18.9018 -3.21051,3.51724 -7.96152,7.0379 -7.41962,14.50864 0.27607,5.05434 6.08021,9.89056 12.26606,8.35006 7.32079,-1.75522 11.4072,-6.58803 14.52569,-14.9449 4.57379,-11.8673 12.47055,-36.04838 22.6883,-77.15792 l 27.36432,0 z"
       style="fill:#493196;fill-opacity:1;fill-rule:nonzero;stroke:none"
       id="path3239"
       inkscape:connector-curvature="0" />
  </g>
</svg>
