<?xml version="1.0" encoding="utf-8"?>
<!-- Generator: Adobe Illustrator 19.2.1, SVG Export Plug-In . SVG Version: 6.00 Build 0)  -->
<svg version="1.1" id="layer" xmlns="http://www.w3.org/2000/svg" xmlns:xlink="http://www.w3.org/1999/xlink" x="0px" y="0px"
	 viewBox="0 0 652 652" style="enable-background:new 0 0 652 652;" xml:space="preserve">
<style type="text/css">
	.st0{fill:#001F3D;}
</style>
<path class="st0" d="M440.3,171.9l0.1,43.8c-14.9-7.5-31.8-10.1-48.2-7.4c-4.8,0.7-8.6,4.2-9.5,9c0,4.2,1,9,4.7,10.5
	c19.1,7.4,43.4,10,54,29.6c10.7,22.5,9.3,48.9-3.7,70.1c-23.3,30-69.8,22.7-101.6,13.7v-46.4c16.9,9,38.1,16.4,58.7,8.5
	c4.8-2.7,7-8.5,5.3-13.7c-9-11-25.4-10-37.6-16.9c-20.1-8.4-28.5-29.5-27.5-50.6c-0.5-19,6.3-38,23.3-47.4
	C383.2,161.9,413.8,163.9,440.3,171.9 M236.1,345.9c16.8,0.4,33.6-1.4,50-5.6c12.5-6,22.4-16.3,27.8-29.1
	c5.4-12.9,8.5-26.6,9.2-40.5l0.1-4.9v0c1.2-18.6-0.2-37.3-3.9-55.6c-3.6-18-16.1-32.9-33.2-39.6c-14.4-2.5-28.9-3.7-43.5-3.4
	c-6,0-12.2,0.1-18.2,0.2h-0.3c-5.9,0.1-12,0.2-18,0.2c-4.8,0-9.1-0.1-13.1-0.2l-1.6,0.1L191.2,345l1.2,0.1h0.7
	c6.7,0,13.6,0.2,20.9,0.4h0.1C220.9,345.7,228.5,345.9,236.1,345.9L236.1,345.9z M249.5,209c7.3,0,16.2,1.1,19.4,9.8
	c6.6,20.3,5.1,41.9,3.2,60.7c-1.7,8.5-3.9,16.4-11.6,20c-3.7,1.8-7.8,2.6-11.9,2.3c-1.2,0-2.6,0-3.9,0c-1.4-0.1-2.7-0.1-4.1-0.1
	l-0.2-92.4l1.9-0.1C244.6,209.1,247,209,249.5,209L249.5,209z M249.5,209 M17.6,206.7c36,26.2,64.4,0.6,64.4,0.6
	c38.1,25.7,64.4-0.6,64.4-0.6v-39.2c-32.6,26.7-64.4,0-64.4,0c-18.6,15.6-45.7,15.6-64.3,0L17.6,206.7z M17.7,167.5 M17.7,272.4
	C53.7,298.6,82,273,82,273c38.1,25.7,64.3-0.6,64.3-0.6v-39.2c-32.6,26.7-64.3,0-64.3,0c-18.6,15.6-45.7,15.6-64.3,0L17.7,272.4z
	 M17.7,233.2 M17.7,337.3c36,26.2,64.3,0.7,64.3,0.7c38.2,25.7,64.4-0.7,64.4-0.7v-39.2c-32.6,26.7-64.4,0-64.4,0
	c-18.6,15.6-45.7,15.6-64.3,0V337.3z M17.7,298.1 M488.6,206.7c36,26.2,64.3,0.6,64.3,0.6c38.2,25.7,64.4-0.6,64.4-0.6v-39.2
	c-32.6,26.7-64.4,0-64.4,0c-18.6,15.6-45.7,15.6-64.3,0L488.6,206.7z M488.7,167.5 M488.7,272.4c36.1,26.2,64.4,0.6,64.4,0.6
	c38.1,25.7,64.3-0.6,64.3-0.6v-39.2c-32.6,26.7-64.3,0-64.3,0c-18.6,15.6-45.7,15.6-64.3,0L488.7,272.4z M488.7,233.2 M488.7,337.3
	c36.1,26.2,64.3,0.7,64.3,0.7c38.2,25.7,64.4-0.7,64.4-0.7v-39.2c-32.6,26.7-64.4,0-64.4,0c-18.6,15.6-45.7,15.6-64.3,0V337.3z
	 M488.7,298.1 M31.7,468c11.2,1.1,20.7-8.1,19.9-19.3c0.3-5.3-1.7-10.4-5.4-14.1c-4-3.5-9.2-5.3-14.5-5H18V468H31.7L31.7,468z
	 M31.3,437.7c6.2-0.5,11.3,4.9,10.5,11.1c0.8,6.2-4.2,11.7-10.5,11.2h-3.9v-22.3H31.3z M27.4,437.7 M74.1,460h12l2.4,8.1h9.7
	l-13.1-38.4h-9.9L62.1,468h9.7L74.1,460z M80.2,438.3c0,0,0.9,4.2,1.6,6.6l2.1,7.4h-7.6l2.2-7.4c0.7-2.4,1.6-6.6,1.6-6.6H80.2z
	 M80.1,438.3 M111.5,468h9.4v-17.9c0-2.4-0.4-6.6-0.4-6.6h0.1c0.9,2.3,2,4.4,3.2,6.6l10.7,17.9h9.5v-38.4h-9.4v18
	c0,2.4,0.4,6.6,0.4,6.6h-0.1c-0.9-2.3-2-4.4-3.2-6.6l-10.7-18h-9.5V468z M111.5,429.6 M159.1,463.2c3.8,3.6,8.8,5.6,14.1,5.5
	c7.1,0.8,13.4-4.7,13.6-11.9c0-12.2-17.4-11.3-17.4-16.1c0-2.2,2.2-3,4.1-3c3.2,0.2,6.1,1.4,8.5,3.4l4-7.7c-3.4-3-7.9-4.6-12.4-4.4
	c-7.1-0.7-13.3,4.6-13.6,11.8c0,11.8,17.4,11.7,17.4,16.2c0,2.3-2.1,3-4,3c-3.4-0.3-6.7-1.7-9.2-4L159.1,463.2z M164.1,456
	 M202.1,468h9.4v-15.6h3.9l8.1,15.6h10.6l-11-19.9V448l10.4-18.4h-10.1l-8,14.9h-3.9v-14.9h-9.4V468z M202.1,429.6 M266.7,463.2
	c3.8,3.6,8.9,5.6,14.1,5.5c7.2,0.8,13.4-4.7,13.6-11.9c0-12.2-17.4-11.3-17.4-16.1c0-2.2,2.1-3,4.1-3c3.1,0.2,6.1,1.4,8.5,3.4l4-7.7
	c-3.4-3-7.9-4.6-12.4-4.4c-7.1-0.7-13.4,4.6-13.6,11.8c0,11.8,17.4,11.7,17.4,16.2c0,2.3-2.1,3-4.1,3c-3.4-0.3-6.6-1.7-9.2-4
	L266.7,463.2z M271.6,456 M317.1,468h9.4v-30.4h11.7v-8.1h-32.9v8.1h11.7V468z M317.1,437.7 M357.1,460h12l2.4,8.1h9.7L368,429.6
	h-9.9L345,468h9.7L357.1,460z M363.2,438.3c0.4,2.2,0.9,4.4,1.6,6.6l2.2,7.4h-7.6l2.2-7.4c0.7-2.4,1.6-6.6,1.6-6.6H363.2z
	 M363,438.3 M394.3,468h9.4v-17.9c0-2.4-0.4-6.6-0.4-6.6h0.1c1,2.3,2,4.4,3.2,6.6l10.7,17.9h9.5v-38.4h-9.4v18
	c0,2.4,0.4,6.6,0.4,6.6h-0.1c-1-2.3-2.1-4.4-3.2-6.6l-10.7-18h-9.5V468z M394.3,429.6 M458.6,468c11.2,1.1,20.7-8.1,19.9-19.3
	c0.2-5.3-1.7-10.4-5.4-14.1c-4-3.5-9.2-5.3-14.5-5h-13.7V468H458.6L458.6,468z M458.2,437.7c6.2-0.5,11.3,4.9,10.5,11.1
	c0.8,6.2-4.2,11.7-10.5,11.2h-3.9v-22.3H458.2z M454.3,437.7 M501,460h12l2.4,8.1h9.7L512,429.6h-9.9L489,468h9.7L501,460z
	 M507.1,438.3c0.4,2.2,1,4.4,1.6,6.6l2.2,7.4h-7.6l2.2-7.4C506.1,442.6,507,438.4,507.1,438.3L507.1,438.3z M507,438.3 M547.8,455.1
	h4.4l6.9,13h10.5l-7.5-13.4c-0.4-0.8-0.9-1.6-1.5-2.3v-0.1c3.7-2.2,6-6.2,5.8-10.5c0.3-4.9-2.6-9.4-7.1-11.2c-2.4-0.8-5-1.1-7.5-0.9
	h-13.4V468h9.4V455.1z M550.9,437.7c4.9,0,5.9,1.8,5.9,4.6c0.2,2.8-2.2,5.1-4.9,4.7h-4.1v-9.3H550.9z M547.8,437.7 M597.7,468
	c11.2,1.1,20.6-8.1,19.9-19.3c0.3-5.3-1.7-10.4-5.4-14.1c-4-3.5-9.2-5.3-14.5-5H584V468H597.7L597.7,468z M597.3,437.7
	c6.2-0.5,11.3,4.9,10.5,11.1c0.8,6.2-4.2,11.7-10.5,11.2h-3.9v-22.3H597.3z M593.4,437.7"/>
</svg>
