<svg viewBox="0 0 61.9 24" xmlns="http://www.w3.org/2000/svg"><path fill="currentColor" d="M61.9 6.31v11.36h-2.79V6.31h2.79zm-12.37-.45a5.8 5.8 0 0 0-5.8 5.79v6.02h2.79v-6.02a3.01 3.01 0 0 1 6.02-.01v6.02h2.79v-6.02a5.8 5.8 0 0 0-5.8-5.78zm-11.86.45v5.85a3.01 3.01 0 0 1-6.02.01V6.31h-2.79v5.85a5.8 5.8 0 0 0 11.61 0V6.31h-2.8zm-24.76 5.34a16.25 16.25 0 0 0-2.61-4.4L1.06 15.9a.6.6 0 0 0-.12.66c.09.23.29.38.54.4l12.57-.01a16.4 16.4 0 0 0-1.14-5.3zm4.03-10.6-5.98 5.59a17.33 17.33 0 0 1 3.99 10.32l8.04-.01a11.93 11.93 0 0 0-6.05-15.9zM6.81 4.13c-.79-.53-1.61-.98-2.47-1.36A11.99 11.99 0 0 0 .15 13.86l.14.75.16.63L9.7 6.58a15.88 15.88 0 0 0-2.89-2.45zm8.14 13.73a17.33 17.33 0 0 1-1.18 6.02 12.06 12.06 0 0 0 8.76-6.02h-7.58zM10.36 5.97 16.01.68A12.02 12.02 0 0 0 5.15 2.15c1.95.93 3.72 2.22 5.21 3.82zm-8.82 11.9a12.05 12.05 0 0 0 11.22 6.11 16.16 16.16 0 0 0 1.3-6.12l-12.52.01z"/></svg>
