<svg
   xmlns:svg="http://www.w3.org/2000/svg"
   xmlns="http://www.w3.org/2000/svg"
   version="1.1"
   width="806.53583"
   height="100.32841"
   id="svg4334">
  <defs
     id="defs4336" />
  <g
     transform="translate(40.410772,-482.19798)"
     id="layer1">
    <path
       d="m 8.0267199,547.65139 c -4.990766,0 -8.43750004,2.94867 -8.43750004,7 0,4.52107 3.25823104,5.98096 8.71875004,7.625 5.2256431,1.64401 6.6562501,2.9478 6.6562501,5.53125 0,2.75961 -2.488444,4.28125 -6.1875001,4.28125 -3.581635,0 -6.14576,-1.69584 -7.4375,-5.21875 l -2.65625,1.15625 c 1.35045096,4.16878 4.950493,6.8125 10,6.8125 5.5779411,0 9.3750001,-2.93634 9.3750001,-7.28125 0,-4.46236 -3.094435,-6.23096 -8.4375001,-7.875 -5.166931,-1.5853 -6.9375,-2.52543 -6.9375,-5.34375 0,-2.23118 1.996991,-3.8125 5.34375,-3.8125 3.1119141,0 5.4033371,1.23563 6.8125001,4.40625 l 2.53125,-1.40625 c -1.350453,-3.28805 -4.294241,-5.875 -9.3437501,-5.875 z m 128.6250001,0 c -4.9908,0 -8.46875,2.94867 -8.46875,7 0,4.52107 3.28949,5.98096 8.75,7.625 5.22565,1.64401 6.65625,2.9478 6.65625,5.53125 0,2.75961 -2.48847,4.28125 -6.1875,4.28125 -3.58164,0 -6.14579,-1.69584 -7.4375,-5.21875 l -2.65625,1.15625 c 1.35046,4.16878 4.95051,6.8125 10,6.8125 5.57794,0 9.375,-2.93634 9.375,-7.28125 0,-4.46236 -3.0944,-6.23096 -8.4375,-7.875 -5.16694,-1.5853 -6.9375,-2.52543 -6.9375,-5.34375 0,-2.23118 1.99699,-3.8125 5.34375,-3.8125 3.11191,0 5.40334,1.23563 6.8125,4.40625 l 2.53125,-1.40625 c -1.35045,-3.28805 -4.29424,-5.875 -9.34375,-5.875 z m 189.5,0 c -6.57609,0 -11.21875,5.3386 -11.21875,13.5 0,8.57242 4.52524,13.6875 11.21875,13.6875 5.51924,0 8.8645,-3.30183 10.15625,-8.46875 l -2.9375,-0.6875 c -1.11561,4.2862 -3.45719,6.34375 -7.15625,6.34375 -4.93205,0 -8.09375,-3.9504 -8.09375,-10.9375 0,-6.45867 3.09541,-10.5625 7.96875,-10.5625 3.8752,0 5.6969,2.06609 6.8125,6 l 3,-0.8125 c -1.17433,-4.81467 -4.17205,-8.0625 -9.75,-8.0625 z m -107.71875,0.53125 0,9.875 c -1.46787,-1.64404 -3.58511,-2.78125 -5.875,-2.78125 -4.57979,0 -8,3.23262 -8,9.75 0,6.51735 3.37005,9.625 7.65625,9.625 2.81833,0 4.69218,-1.2935 6.21875,-2.9375 0,0.93944 0.17141,2.0691 0.40625,2.65625 l 3.21875,0 c -0.46972,-0.93945 -0.5625,-2.3626 -0.5625,-4.59375 l 0,-21.59375 -3.0625,0 z m 53.96875,0 0,9.875 c -1.46791,-1.64404 -3.5851,-2.78125 -5.875,-2.78125 -4.57979,0 -7.96875,3.23262 -7.96875,9.75 0,6.51735 3.33879,9.625 7.625,9.625 2.81833,0 4.69212,-1.2935 6.21875,-2.9375 0,0.93944 0.17144,2.0691 0.40625,2.65625 l 3.25,0 c -0.46973,-0.93945 -0.59375,-2.3626 -0.59375,-4.59375 l 0,-21.59375 -3.0625,0 z m 190.21875,0 9.28125,26.3125 2.9375,0 9.28125,-26.3125 -3.0625,0 -7.5625,22.125 -0.0625,0 -7.59375,-22.125 -3.21875,0 z m 42.40625,0 0,26.1875 3.03125,0 0,-26.1875 -3.03125,0 z m -435.437502,0.53125 0,2.9375 3.15625,0 0,-2.9375 -3.15625,0 z m 337.500002,0 0,2.9375 3.1875,0 0,-2.9375 -3.1875,0 z m -363.1875,0.28125 0,6.71875 -3.3125,0 0,2.4375 3.3125,0 0,11.6875 c 0,3.2293 1.28485,4.78125 5.21875,4.78125 0.99815,0 2.15906,-0.12883 2.6875,-0.1875 l 0,-2.53125 c -0.52844,0.1175 -1.23293,0.25 -1.9375,0.25 -2.28989,0 -2.9375,-1.0037 -2.9375,-3 l 0,-11 4.9375,0 0,-2.4375 -4.9375,0 0,-6.71875 -3.03125,0 z m 13.40625,0 0,6.71875 -3.28125,0 0,2.4375 3.28125,0 0,11.6875 c 0,3.2293 1.28482,4.78125 5.218748,4.78125 0.99816,0 2.19032,-0.12883 2.71875,-0.1875 l 0,-2.53125 c -0.52843,0.1175 -1.23291,0.25 -1.9375,0.25 -2.2899,0 -2.937498,-1.0037 -2.937498,-3 l 0,-11 4.937498,0 0,-2.4375 -4.937498,0 0,-6.71875 -3.0625,0 z m 95.53125,0 0,6.71875 -3.28125,0 0,2.4375 3.28125,0 0,11.6875 c 0,3.2293 1.28485,4.78125 5.21875,4.78125 0.99816,0 2.19031,-0.12883 2.71875,-0.1875 l 0,-2.53125 c -0.52844,0.1175 -1.23294,0.25 -1.9375,0.25 -2.28989,0 -2.9375,-1.0037 -2.9375,-3 l 0,-11 4.9375,0 0,-2.4375 -4.9375,0 0,-6.71875 -3.0625,0 z m 242,0 0,6.71875 -3.28125,0 0,2.4375 3.28125,0 0,11.6875 c 0,3.2293 1.28485,4.78125 5.21875,4.78125 0.99815,0 2.15907,-0.12883 2.6875,-0.1875 l 0,-2.53125 c -0.52842,0.1175 -1.23293,0.25 -1.9375,0.25 -2.28989,0 -2.9375,-1.0037 -2.9375,-3 l 0,-11 4.9375,0 0,-2.4375 -4.9375,0 0,-6.71875 -3.03125,0 z m -364.5,6.28125 c -3.933902,0 -8.53125,2.93904 -8.53125,9.75 0,6.51735 4.068915,9.75 8.53125,9.75 3.52292,0 5.92228,-1.53397 7.625,-4 l -1.75,-1.5 c -1.40916,1.9376 -2.95538,2.96875 -5.65625,2.96875 -3.11191,0 -5.570078,-2.21 -5.6875,-6.4375 l 13.3125,0 0,-0.65625 c 0,-6.75226 -3.38138,-9.875 -7.84375,-9.875 z m 58.124998,0 c -3.0532,0 -5.38724,1.60217 -7.03125,3.1875 l 0,-2.75 -3.125,0 0,18.65625 3.125,0 0,-13.4375 c 1.9376,-1.82017 3.80385,-3 6.09375,-3 2.3486,0 3.46875,1.15898 3.46875,3.625 l 0,12.8125 3.0625,0 0,-13.5 c 0,-3.52292 -2.01214,-5.59375 -5.59375,-5.59375 z m 17.656252,0 c -4.52108,0 -7.687502,2.8161 -7.687502,6.75 0,2.2899 1.05483,4.16942 2.875002,5.34375 -1.350452,0.76327 -2.343752,1.82569 -2.343752,3 0,1.11559 0.54064,1.87781 1.656252,2.40625 -2.113762,0.82201 -3.468752,2.24611 -3.468752,4.125 0,2.87704 2.7525,4.625 9.093752,4.625 5.46049,0 9.21875,-1.88333 9.21875,-5.40625 0,-2.99445 -2.46284,-4.51891 -7.21875,-4.8125 l -3.8125,-0.34375 c -1.9963,-0.17616 -2.65625,-0.51795 -2.65625,-1.28125 0,-0.64586 0.52173,-1.11645 1.34375,-1.46875 0.93944,0.2937 1.8844,0.46875 3,0.46875 4.34491,0 7.59375,-2.6636 7.59375,-6.65625 0,-1.29174 -0.35036,-2.39673 -0.9375,-3.21875 1.05686,-0.46973 2.3456,-0.65625 3.34375,-0.65625 l 0,-2.625 c -1.52659,0.17618 -3.29443,0.86549 -4.46875,1.6875 -1.29171,-1.17431 -3.24139,-1.9375 -5.53125,-1.9375 z m 67,0 c -3.75778,0 -6.54629,1.47245 -8.71875,3.46875 l 1.5625,1.9375 c 1.87889,-1.5853 3.99417,-2.875 6.8125,-2.875 2.3486,0 3.59375,1.17885 3.59375,3.46875 l 0,0.875 c -9.33571,1.29174 -12.5625,3.99601 -12.5625,7.8125 0,2.99446 2.05191,4.6875 5.28125,4.6875 2.81832,0 5.16749,-0.93741 7.28125,-2.875 0,1.05686 0.1714,1.83046 0.40625,2.59375 l 3.15625,0 c -0.41101,-0.93945 -0.5,-2.3626 -0.5,-4.59375 l 0,-8.25 c 0,-3.87519 -1.85016,-6.25 -6.3125,-6.25 z m 21.65625,0 c -3.0532,0 -5.38725,1.60217 -7.03125,3.1875 l 0,-2.75 -3.125,0 0,18.65625 3.125,0 0,-13.4375 c 1.93759,-1.82017 3.80385,-3 6.09375,-3 2.3486,0 3.46875,1.15898 3.46875,3.625 l 0,12.8125 3.0625,0 0,-13.5 c 0,-3.52292 -2.01215,-5.59375 -5.59375,-5.59375 z m 40.375,0 c -3.75778,0 -6.57754,1.47245 -8.75,3.46875 l 1.5625,1.9375 c 1.87889,-1.5853 3.99417,-2.875 6.8125,-2.875 2.3486,0 3.59375,1.17885 3.59375,3.46875 l 0,0.875 c -9.33571,1.29174 -12.5625,3.99601 -12.5625,7.8125 0,2.99446 2.05191,4.6875 5.28125,4.6875 2.81833,0 5.16749,-0.93741 7.28125,-2.875 0,1.05686 0.1714,1.83046 0.40625,2.59375 l 3.1875,0 c -0.41101,-0.93945 -0.53125,-2.3626 -0.53125,-4.59375 l 0,-8.25 c 0,-3.87519 -1.81891,-6.25 -6.28125,-6.25 z m 21.84375,0 c -3.64038,0 -5.86829,1.70253 -7.21875,3.875 l -0.125,0 0,-3.4375 -3.03125,0 0,18.65625 3.03125,0 0,-12.09375 c 1.40916,-2.64219 3.66179,-4.15625 6.65625,-4.15625 l 0.875,0 0.21875,-2.84375 -0.40625,0 z m 29.8125,0 c -4.11004,0 -6.5625,2.30667 -6.5625,5.125 0,3.58161 2.69486,4.62684 6.6875,5.625 3.22934,0.70456 4.875,1.40238 4.875,3.28125 0,1.9376 -1.59548,2.9375 -4.53125,2.9375 -2.58345,0 -4.43459,-1.03589 -5.84375,-2.5625 l -1.90625,1.875 c 1.52659,1.82017 4.37199,3.15625 7.71875,3.15625 4.2862,0 7.5,-1.9146 7.5,-5.4375 0,-3.87521 -2.92876,-4.93934 -7.15625,-5.9375 -2.93575,-0.70459 -4.46875,-1.30104 -4.46875,-3.0625 0,-1.29171 1.1116,-2.53125 3.8125,-2.53125 2.11373,0 4.05959,0.95825 5.46875,2.25 l 1.625,-2 c -1.76146,-1.64404 -3.9307,-2.71875 -7.21875,-2.71875 z m 64.40625,0 c -3.64038,0 -5.86834,1.70253 -7.21875,3.875 l -0.125,0 0,-3.4375 -3.03125,0 0,18.65625 3.03125,0 0,-12.09375 c 1.40916,-2.64219 3.66179,-4.15625 6.65625,-4.15625 l 0.875,0 0.21875,-2.84375 -0.40625,0 z m 10.34375,0 c -3.93394,0 -8.5,2.93904 -8.5,9.75 0,6.51735 4.03763,9.75 8.5,9.75 3.52289,0 5.92225,-1.53398 7.625,-4 l -1.75,-1.5 c -1.40916,1.9376 -2.92409,2.96875 -5.625,2.96875 -3.11191,0 -5.60133,-2.21 -5.71875,-6.4375 l 13.34375,0 0,-0.65625 c 0,-6.75226 -3.41267,-9.875 -7.875,-9.875 z m 20.4375,0 c -3.75777,0 -6.57752,1.47245 -8.75,3.46875 l 1.59375,1.9375 c 1.87888,-1.5853 3.99417,-2.875 6.8125,-2.875 2.3486,0 3.5625,1.17885 3.5625,3.46875 l 0,0.875 c -9.3357,1.29174 -12.5625,3.99601 -12.5625,7.8125 0,2.99446 2.05195,4.6875 5.28125,4.6875 2.81832,0 5.1675,-0.93741 7.28125,-2.875 0,1.05686 0.20266,1.83046 0.4375,2.59375 l 3.15625,0 c -0.41101,-0.93945 -0.53125,-2.3626 -0.53125,-4.59375 l 0,-8.25 c 0,-3.87519 -1.81889,-6.25 -6.28125,-6.25 z m 43.96875,0 c -3.0532,0 -5.38725,1.60217 -7.03125,3.1875 l 0,-2.75 -3.125,0 0,18.65625 3.125,0 0,-13.4375 c 1.93759,-1.82018 3.80385,-3 6.09375,-3 2.3486,0 3.46875,1.15898 3.46875,3.625 l 0,12.8125 3.0625,0 0,-13.5 c 0,-3.52292 -2.01215,-5.59375 -5.59375,-5.59375 z m 17.6875,0 c -4.52107,0 -7.71875,2.8161 -7.71875,6.75 0,2.2899 1.05485,4.16943 2.875,5.34375 -1.35042,0.76328 -2.34375,1.82569 -2.34375,3 0,1.11559 0.54068,1.87781 1.65625,2.40625 -2.11375,0.82201 -3.46875,2.24611 -3.46875,4.125 0,2.87704 2.7525,4.625 9.09375,4.625 5.46051,0 9.21875,-1.88332 9.21875,-5.40625 0,-2.99445 -2.46283,-4.51891 -7.21875,-4.8125 l -3.8125,-0.34375 c -1.99631,-0.17616 -2.65625,-0.51795 -2.65625,-1.28125 0,-0.64586 0.553,-1.11645 1.375,-1.46875 0.93944,0.2937 1.88439,0.46875 3,0.46875 4.34491,0 7.5625,-2.6636 7.5625,-6.65625 0,-1.29174 -0.35035,-2.39673 -0.9375,-3.21875 1.05686,-0.46973 2.3456,-0.65625 3.34375,-0.65625 l 0,-2.625 c -1.52659,0.17617 -3.29444,0.86549 -4.46875,1.6875 -1.29171,-1.17431 -3.21011,-1.9375 -5.5,-1.9375 z m 49.65625,0 c -3.75778,0 -6.57756,1.47245 -8.75,3.46875 l 1.59375,1.9375 c 1.87889,-1.5853 3.99417,-2.875 6.8125,-2.875 2.34861,0 3.5625,1.17885 3.5625,3.46875 l 0,0.875 c -9.33571,1.29174 -12.5625,3.99601 -12.5625,7.8125 0,2.99446 2.05191,4.6875 5.28125,4.6875 2.81832,0 5.16751,-0.93741 7.28125,-2.875 0,1.05686 0.20266,1.83046 0.4375,2.59375 l 3.15625,0 c -0.411,-0.93945 -0.53125,-2.3626 -0.53125,-4.59375 l 0,-8.25 c 0,-3.87519 -1.81889,-6.25 -6.28125,-6.25 z m 48.78125,0 c -3.9339,0 -8.5,2.93904 -8.5,9.75 0,6.51735 4.03766,9.75 8.5,9.75 3.52292,0 5.9535,-1.53398 7.65625,-4 l -1.78125,-1.5 c -1.40916,1.9376 -2.9241,2.96875 -5.625,2.96875 -3.11191,0 -5.57007,-2.21 -5.6875,-6.4375 l 13.3125,0 0,-0.65625 c 0,-6.75226 -3.41264,-9.875 -7.875,-9.875 z m -472.468752,0.4375 0,18.65625 3.0625,0 0,-18.65625 -3.0625,0 z m 337.531252,0 0,18.65625 3.0625,0 0,-18.65625 -3.0625,0 z m 106.375,0 0,13.4375 c 0,3.58164 1.92215,5.5625 5.5625,5.5625 3.05318,0 5.41846,-1.57091 7.0625,-3.15625 l 0,2.8125 3.09375,0 0,-18.65625 -3.09375,0 0,13.4375 c -1.9376,1.87889 -3.8351,3.0625 -6.125,3.0625 -2.3486,0 -3.46875,-1.19023 -3.46875,-3.65625 l 0,-12.84375 -3.03125,0 z m -407.40625,1.9375 c 2.99445,0 4.71875,1.67789 4.71875,4.4375 0,2.7009 -1.84171,4.34375 -4.71875,4.34375 -2.87707,0 -4.75,-1.64285 -4.75,-4.34375 0,-2.70087 1.81421,-4.4375 4.75,-4.4375 z m 337.53125,0 c 2.99449,0 4.6875,1.67789 4.6875,4.4375 0,2.7009 -1.81046,4.34375 -4.6875,4.34375 -2.87704,0 -4.78125,-1.64285 -4.78125,-4.34375 0,-2.70088 1.84548,-4.4375 4.78125,-4.4375 z m -413.375,0.15625 c 3.11191,0 4.73387,2.30949 4.96875,5.65625 l -10.3125,0 c 0.469721,-3.87519 2.81901,-5.65625 5.34375,-5.65625 z m 331.21875,0 c 3.11191,0 4.76515,2.30949 5,5.65625 l -10.34375,0 c 0.46973,-3.87519 2.81901,-5.65625 5.34375,-5.65625 z m 180.5625,0 c 3.11191,0 4.73388,2.30949 4.96875,5.65625 l -10.3125,0 c 0.46971,-3.87519 2.81901,-5.65625 5.34375,-5.65625 z m -329.09375,0.0625 c 1.99631,0 3.82471,0.99232 5.46875,2.8125 l 0,8.59375 c -1.58533,1.70272 -3.2963,2.875 -5.46875,2.875 -3.0532,0 -5.34375,-2.30658 -5.34375,-7.0625 0,-4.93209 2.11441,-7.21875 5.34375,-7.21875 z m 54,0 c 1.99631,0 3.79346,0.99232 5.4375,2.8125 l 0,8.59375 c -1.58534,1.70272 -3.26502,2.875 -5.4375,2.875 -3.0532,0 -5.34375,-2.30658 -5.34375,-7.0625 0,-4.93209 2.11441,-7.21875 5.34375,-7.21875 z m -90.59375,6.40625 0,5.21875 c -1.76146,1.70275 -3.88151,2.75 -6.40625,2.75 -1.9376,0 -3.15625,-0.92983 -3.15625,-2.75 0,-2.3486 2.39923,-4.10317 9.5625,-5.21875 z m 62,0 0,5.21875 c -1.76146,1.70275 -3.88151,2.75 -6.40625,2.75 -1.9376,0 -3.15625,-0.92983 -3.15625,-2.75 0,-2.3486 2.39922,-4.10317 9.5625,-5.21875 z m 146.84375,0 0,5.21875 c -1.76145,1.70275 -3.85024,2.75 -6.375,2.75 -1.9376,0 -3.1875,-0.92982 -3.1875,-2.75 0,-2.3486 2.39926,-4.10317 9.5625,-5.21875 z m 111.3125,0 0,5.21875 c -1.76144,1.70275 -3.85026,2.75 -6.375,2.75 -1.93759,0 -3.1875,-0.92982 -3.1875,-2.75 0,-2.3486 2.39926,-4.10317 9.5625,-5.21875 z m -197.46875,6.40625 0,3.6875 3.71875,0 0,-3.6875 -3.71875,0 z m 254.84375,0 0,3.6875 3.6875,0 0,-3.6875 -3.6875,0 z m -451.125,2.6875 c 0.3523,0.0586 0.7102,0.0661 1.0625,0.125 l 3.59375,0.21875 c 3.99265,0.2937 5.21875,1.07471 5.21875,2.71875 0,1.70275 -2.24222,2.8125 -6,2.8125 -4.69721,0 -6.625,-0.87111 -6.625,-2.75 0,-1.29174 0.92986,-2.47911 2.75,-3.125 z m 337.5,0 c 0.3523,0.0586 0.71023,0.0661 1.0625,0.125 l 3.59375,0.21875 c 3.99264,0.2937 5.21875,1.07471 5.21875,2.71875 0,1.70275 -2.24222,2.8125 -6,2.8125 -4.69724,0 -6.625,-0.87111 -6.625,-2.75 0,-1.29174 0.92986,-2.47911 2.75,-3.125 z"
       id="path630"
       style="fill:#7f8a8f;fill-opacity:1;fill-rule:nonzero;stroke:none" />
    <path
       d="m 163.49548,494.99515 c -6.38821,0 -10.78125,3.73951 -10.78125,8.8125 0,5.77757 4.18087,7.63626 11.15625,9.75 6.59957,2.06677 8.40625,3.69245 8.40625,6.96875 0,3.52291 -3.13479,5.5 -7.84375,5.5 -4.50932,0 -7.81299,-2.20564 -9.46875,-6.65625 l -3.375,1.5 c 1.77319,5.27262 6.31105,8.6875 12.6875,8.6875 7.10453,0 11.9375,-3.79726 11.9375,-9.28125 0,-5.67188 -3.99,-7.93323 -10.71875,-10 -6.57609,-2.07851 -8.84375,-3.23485 -8.84375,-6.78125 0,-2.83007 2.54978,-4.90625 6.8125,-4.90625 3.98089,0 6.86733,1.62063 8.6875,5.625 l 3.15625,-1.78125 c -1.72623,-4.22749 -5.43602,-7.4375 -11.8125,-7.4375 z m 103.8125,0.625 0,12.5625 c -1.80845,-2.09026 -4.54874,-3.53125 -7.4375,-3.53125 -5.83629,0 -10.15625,4.14693 -10.15625,12.4375 0,8.25535 4.23475,12.1875 9.71875,12.1875 3.56988,0 5.97261,-1.67546 7.875,-3.71875 0,1.19779 0.28055,2.58045 0.5625,3.34375 l 4.0625,0 c -0.54016,-1.22127 -0.71875,-2.95497 -0.71875,-5.84375 l 0,-27.4375 -3.90625,0 z m 70.21875,0 0,12.5625 c -1.82017,-2.09026 -4.54871,-3.53125 -7.4375,-3.53125 -5.83626,0 -10.15625,4.14693 -10.15625,12.4375 0,8.25535 4.23478,12.1875 9.71875,12.1875 3.55816,0 5.96088,-1.67546 7.875,-3.71875 0,1.19779 0.28055,2.58045 0.5625,3.34375 l 4.0625,0 c -0.54019,-1.22127 -0.71875,-2.95497 -0.71875,-5.84375 l 0,-27.4375 -3.90625,0 z m -365.093752,0.1875 -11.84375,33.4375 3.875,0 3.28125,-9.53125 13.3125,0 3.28125,9.53125 4.125,0 -11.84375,-33.4375 -4.1875,0 z m 105.125,0.8125 0,3.8125 4.09375,0 0,-3.8125 -4.09375,0 z m 106.500002,0.0625 0,8.46875 -4.15625,0 0,3.1875 4.15625,0 0,14.8125 c 0,4.13354 1.6185,6.0625 6.65625,6.0625 1.22127,0 2.68219,-0.12082 3.375,-0.25 l 0,-3.21875 c -0.6341,0.17613 -1.56852,0.3125 -2.4375,0.3125 -2.88879,0 -3.71875,-1.2565 -3.71875,-3.78125 l 0,-13.9375 6.21875,0 0,-3.1875 -6.21875,0 0,-8.46875 -3.875,0 z m -140.093752,0.375 0,8.4375 -4.1875,0 0,3.1875 4.1875,0 0,14.8125 c 0,4.13354 1.59897,6.0625 6.625,6.0625 1.22127,0 2.70564,-0.12082 3.375,-0.25 l 0,-3.1875 c -0.62238,0.17613 -1.54903,0.28125 -2.40625,0.28125 -2.90055,0 -3.71875,-1.23699 -3.71875,-3.75 l 0,-13.96875 6.1875,0 0,-3.1875 -6.1875,0 0,-8.4375 -3.875,0 z m -69.5625,3.59375 0.0625,0 5.375,15.59375 -10.875,0 5.4375,-15.59375 z m 235.375002,4 c -4.74417,0 -8.30289,1.8815 -11.0625,4.40625 l 2.03125,2.4375 c 2.34861,-2.0198 5.03941,-3.59375 8.65625,-3.59375 2.93575,0 4.5,1.43527 4.5,4.40625 l 0,1.0625 c -11.86045,1.66751 -15.96875,5.07987 -15.96875,9.90625 0,3.81648 2.62818,6 6.75,6 3.5816,0 6.55308,-1.19022 9.21875,-3.65625 0,1.35045 0.23365,2.28309 0.5625,3.28125 l 3.96875,0 c -0.4932,-1.22127 -0.6875,-2.96671 -0.6875,-5.84375 l 0,-10.46875 c 0,-4.95556 -2.26163,-7.9375 -7.96875,-7.9375 z m 27.53125,0 c -3.89867,0 -6.8785,2.0427 -8.96875,4.0625 l 0,-3.5625 -3.9375,0 0,23.75 3.9375,0 0,-17.09375 c 2.48951,-2.34861 4.88472,-3.84375 7.75,-3.84375 3.02972,0 4.40625,1.49738 4.40625,4.65625 l 0,16.28125 3.875,0 0,-17.125 c 0,-4.50932 -2.50619,-7.125 -7.0625,-7.125 z m 51.21875,0 c -4.75592,0 -8.33414,1.8815 -11.09375,4.40625 l 2.03125,2.4375 c 2.36036,-2.0198 5.03941,-3.59375 8.65625,-3.59375 2.9475,0 4.53125,1.43527 4.53125,4.40625 l 0,1.0625 c -11.86045,1.66751 -16,5.07987 -16,9.90625 0,3.81648 2.62821,6 6.75,6 3.56988,0 6.58436,-1.19022 9.25,-3.65625 0,1.35045 0.21412,2.28309 0.53125,3.28125 l 3.96875,0 c -0.4932,-1.22127 -0.65625,-2.96671 -0.65625,-5.84375 l 0,-10.46875 c 0,-4.95556 -2.27339,-7.9375 -7.96875,-7.9375 z m 27.8125,0 c -4.66198,0 -7.45729,2.1349 -9.21875,4.90625 l -0.0937,0 0,-4.40625 -3.875,0 0,23.75 3.875,0 0,-15.34375 c 1.76146,-3.37025 4.63277,-5.34375 8.4375,-5.34375 l 1.125,0.0312 0.28125,-3.59375 -0.53125,0 z m 39.53125,0 c -5.21392,0 -8.40625,2.87539 -8.40625,6.46875 0,4.57978 3.48951,5.93498 8.5625,7.15625 4.06308,0.95118 6.15625,1.87791 6.15625,4.25 0,2.44255 -2.03919,3.71875 -5.75,3.71875 -3.26457,0 -5.63685,-1.34365 -7.46875,-3.28125 l -2.34375,2.34375 c 1.94935,2.34861 5.4833,4.03125 9.78125,4.03125 5.43701,0 9.53125,-2.4242 9.53125,-6.96875 0,-4.90859 -3.6842,-6.19653 -9.0625,-7.5 -3.75777,-0.85724 -5.6875,-1.66731 -5.6875,-3.875 0,-1.66751 1.36781,-3.1875 4.84375,-3.1875 2.66567,0 5.11733,1.18798 6.9375,2.84375 l 2.03125,-2.5625 c -2.20767,-2.07851 -4.90927,-3.4375 -9.125,-3.4375 z m -328.843752,0.34375 c -5.213918,0 -8.375,2.87539 -8.375,6.46875 0,4.59152 3.489513,5.96623 8.5625,7.1875 4.07483,0.93944 6.15625,1.84666 6.15625,4.21875 0,2.44255 -2.07044,3.71875 -5.78125,3.71875 -3.252814,0 -5.629052,-1.33589 -7.4375,-3.25 l -2.375,2.3125 c 1.94932,2.32512 5.483295,4.0625 9.78125,4.0625 5.43701,0 9.5625,-2.43594 9.5625,-6.96875 0,-4.90858 -3.7037,-6.22777 -9.09375,-7.53125 -3.757768,-0.85724 -5.65625,-1.65557 -5.65625,-3.875 0,-1.65577 1.35606,-3.1875 4.84375,-3.1875 2.66567,0 5.10956,1.1645 6.90625,2.84375 l 2.03125,-2.5625 c -2.21943,-2.06677 -4.90927,-3.4375 -9.125,-3.4375 z m 45.46875,0 c -4.66201,0 -7.48857,2.15838 -9.25,4.90625 l -0.0625,0 0,-4.40625 -3.90625,0 0,23.75 3.90625,0 0,-15.3125 c 1.76146,-3.38199 4.61328,-5.375 8.40625,-5.375 l 1.15625,0.0312 0.25,-3.59375 -0.5,0 z m 26.625,0 c -4.75592,0 -8.35363,1.89324 -11.125,4.40625 l 2.0625,2.4375 c 2.36036,-2.0198 4.99641,-3.59375 8.625,-3.59375 2.935752,0 4.531252,1.447 4.531252,4.40625 l 0,1.09375 c -11.848722,1.66751 -15.968752,5.06036 -15.968752,9.875 0,3.82823 2.63996,6 6.75,6 3.58163,0 6.553082,-1.17847 9.218752,-3.65625 0,1.35045 0.22588,2.29484 0.53125,3.28125 l 4,0 c -0.4932,-1.22127 -0.6875,-2.96671 -0.6875,-5.84375 l 0,-10.5 c 0,-4.94381 -2.24214,-7.90625 -7.937502,-7.90625 z m 27.500002,0 c -3.89867,0 -6.90198,2.03096 -8.96875,4.0625 l 0,-3.5625 -3.9375,0 0,23.75 3.9375,0 0,-17.0625 c 2.47778,-2.34861 4.89644,-3.84375 7.75,-3.84375 3.01797,0 4.375,1.46613 4.375,4.625 l 0,16.28125 3.90625,0 0,-17.125 c 0,-4.49758 -2.50619,-7.125 -7.0625,-7.125 z m -133.9375021,0.5 0,17.15625 c 0,4.49758 2.474971,7.0625 7.03124996,7.0625 3.89869904,0 6.89022304,-1.99971 8.96875004,-4.03125 l 0,3.5625 3.9375001,0 0,-23.75 -3.9375001,0 0,17.15625 c -2.489536,2.33686 -4.829988,3.8125 -7.71875004,3.8125 -3.04144696,0 -4.40624996,-1.49738 -4.40624996,-4.65625 l 0,-16.3125 -3.875,0 z m 84.9687501,0 0,23.75 3.875,0 0,-23.75 -3.875,0 z m 182.781252,2.4375 c 2.54825,0 4.79647,1.27639 6.875,3.625 l 0,10.875 c -1.98458,2.16072 -4.14667,3.625 -6.90625,3.625 -3.85171,0 -6.8125,-2.85461 -6.8125,-8.9375 0,-6.24729 2.68673,-9.1875 6.84375,-9.1875 z m 70.21875,0 c 2.54825,0 4.78475,1.27639 6.875,3.625 l 0,10.875 c -1.99631,2.16072 -4.14664,3.625 -6.90625,3.625 -3.85171,0 -6.8125,-2.85461 -6.8125,-8.9375 0,-6.24729 2.68673,-9.1875 6.84375,-9.1875 z m -116.75,8.15625 0,6.65625 c -2.21943,2.17246 -4.92316,3.46875 -8.09375,3.46875 -2.47778,0 -4.03125,-1.22962 -4.03125,-3.53125 0,-2.97098 3.02414,-5.14936 12.125,-6.59375 z m 78.75,0 0,6.65625 c -2.20767,2.17246 -4.95438,3.46875 -8.125,3.46875 -2.48951,0 -4.03125,-1.22962 -4.03125,-3.53125 0,-2.97098 3.05542,-5.14936 12.15625,-6.59375 z m -189.4375,0.34375 0,6.65625 c -2.21946,2.14897 -4.934882,3.46875 -8.093752,3.46875 -2.48954,0 -4.03125,-1.19837 -4.03125,-3.5 0,-2.97098 3.02414,-5.18061 12.125002,-6.625 z"
       id="path666"
       style="fill:#211c1e;fill-opacity:1;fill-rule:nonzero;stroke:none" />
    <path
       d="m 388.71423,495.93265 0,33.125 3.96875,0 0,-33.125 -3.96875,0 z m 78.59375,0.6875 0,3.78125 4.03125,0 0,-3.78125 -4.03125,0 z m -15.4375,0.375 0,8.4375 -4.125,0 0,3.1875 4.125,0 0,14.65625 c 0,4.16877 1.63423,6.0625 6.625,6.0625 1.23303,0 2.70165,-0.13255 3.40625,-0.25 l 0,-3.15625 c -0.64589,0.17613 -1.58802,0.28125 -2.46875,0.28125 -2.87704,0 -3.6875,-1.22525 -3.6875,-3.75 l 0,-13.84375 6.15625,0 0,-3.1875 -6.15625,0 0,-8.4375 -3.875,0 z m 28.21875,0 0,8.4375 -4.125,0 0,3.1875 4.125,0 0,14.65625 c 0,4.16877 1.63423,6.0625 6.625,6.0625 1.23303,0 2.70168,-0.13255 3.40625,-0.25 l 0,-3.15625 c -0.64586,0.17613 -1.58802,0.28125 -2.46875,0.28125 -2.87704,0 -3.6875,-1.22525 -3.6875,-3.75 l 0,-13.84375 6.15625,0 0,-3.1875 -6.15625,0 0,-8.4375 -3.875,0 z m 43.4375,0 0,8.4375 -4.125,0 0,3.1875 4.125,0 0,14.65625 c 0,4.16877 1.6342,6.0625 6.625,6.0625 1.233,0 2.70165,-0.13255 3.40625,-0.25 l 0,-3.15625 c -0.64586,0.17613 -1.58802,0.28125 -2.46875,0.28125 -2.87704,0 -3.6875,-1.22525 -3.6875,-3.75 l 0,-13.84375 6.15625,0 0,-3.1875 -6.15625,0 0,-8.4375 -3.875,0 z m -110.03125,7.90625 c -3.87519,0 -6.88245,2.06618 -8.9375,4.0625 l 0,-3.53125 -3.9375,0 0,23.625 3.9375,0 0,-17.03125 c 2.46606,-2.28989 4.86917,-3.78125 7.6875,-3.78125 3.05317,0 4.40625,1.48185 4.40625,4.59375 l 0,16.21875 3.875,0 0,-17.03125 c 0,-4.52106 -2.51017,-7.125 -7.03125,-7.125 z m 21.125,0 c -5.22564,0 -8.34375,2.88713 -8.34375,6.46875 0,4.57978 3.48174,5.91944 8.53125,7.09375 4.05136,0.93944 6.09375,1.84268 6.09375,4.25 0,2.40732 -2.04715,3.6875 -5.6875,3.6875 -3.28805,0 -5.64858,-1.34365 -7.46875,-3.28125 l -2.34375,2.34375 c 1.9376,2.34861 5.4638,4.0625 9.75,4.0625 5.40178,0 9.5,-2.47515 9.5,-6.9375 0,-4.93207 -3.69197,-6.23952 -9.09375,-7.53125 -3.69906,-0.82201 -5.59375,-1.64004 -5.59375,-3.8125 0,-1.64402 1.37957,-3.15625 4.84375,-3.15625 2.64219,0 5.02358,1.10976 6.84375,2.8125 l 2.0625,-2.59375 c -2.23118,-2.05503 -4.92497,-3.40625 -9.09375,-3.40625 z m 112.875,0 c -5.04951,0 -10.8125,3.77134 -10.8125,12.34375 0,8.22012 5.17585,12.28125 10.8125,12.28125 4.46233,0 7.45253,-1.8881 9.625,-5 l -2.25,-1.9375 c -1.82017,2.40732 -3.75078,3.8125 -7.15625,3.8125 -3.9339,0 -6.98012,-2.87189 -7.15625,-8.15625 l 16.78125,0 0,-0.8125 c 0,-8.57241 -4.26584,-12.53125 -9.84375,-12.53125 z m -80.09375,0.53125 0,23.625 3.875,0 0,-23.625 -3.875,0 z m 27.71875,0 0,17.03125 c 0,4.46235 2.51017,7.0625 7.03125,7.0625 3.87519,0 6.88245,-2.00369 8.9375,-4 l 0,3.53125 3.9375,0 0,-23.625 -3.9375,0 0,17.03125 c -2.46606,2.34861 -4.81046,3.8125 -7.6875,3.8125 -3.05317,0 -4.40625,-1.45438 -4.40625,-4.625 l 0,-16.21875 -3.875,0 z m 51.6875,2.71875 c 0.19945,-0.0171 0.42317,0 0.625,0 3.93393,0 5.92516,2.86626 6.21875,7.09375 l -12.96875,0 c 0.49541,-4.62382 3.13321,-6.83701 6.125,-7.09375 z"
       id="path686"
       style="fill:#a3232b;fill-opacity:1;fill-rule:nonzero;stroke:none" />
    <path
       d="m 629.58717,577.18916 68.87283,0 0.24651,-42.6859 35.0999,42.6859 31.31865,0 0,-91.21982 -31.08378,0 0,42.81507 -0.23478,0 -33.62027,-42.81507 -70.59906,0"
       id="path690"
       style="fill:#bac2ca;fill-opacity:1;fill-rule:evenodd;stroke:none" />
    <path
       d="m 580.20773,531.57925 c 0,-26.72713 21.78333,-48.38127 48.66309,-48.38127 26.86805,0 48.6631,21.65414 48.6631,48.38127 0,26.72712 -21.79505,48.38126 -48.6631,48.38126 -26.87976,0 -48.66309,-21.65414 -48.66309,-48.38126"
       id="path692"
       style="fill:#ffffff;fill-opacity:1;fill-rule:evenodd;stroke:none" />
    <path
       d="m 609.89409,531.57925 c 0,-10.41607 8.50197,-18.8593 18.98849,-18.8593 10.46304,0 18.96497,8.44323 18.96497,18.8593 0,10.41606 -8.50193,18.87104 -18.96497,18.87104 -10.48652,0 -18.98849,-8.45498 -18.98849,-18.87104"
       id="path694"
       style="fill:#a3232b;fill-opacity:1;fill-rule:evenodd;stroke:none" />
  </g>
</svg>
