<?xml version="1.0" encoding="utf-8"?>
<!-- Generator: Adobe Illustrator 28.0.0, SVG Export Plug-In . SVG Version: 6.00 Build 0)  -->
<svg version="1.1" id="Calque_1" xmlns="http://www.w3.org/2000/svg" xmlns:xlink="http://www.w3.org/1999/xlink" x="0px" y="0px"
	 viewBox="0 0 438 206" style="enable-background:new 0 0 438 206;" xml:space="preserve">
<style type="text/css">
	.st0{fill:#FFFFFF;}
</style>
<g>
	<path class="st0" d="M199.3,166.8h5.1c5.3,0,8.8-2.3,8.8-5.7s-3.7-5.6-9-5.6s-4.1,0.2-5,0.3v10.9h0.1L199.3,166.8z M194.2,153.2
		c2.5-0.4,6.3-0.6,9.6-0.6c5.3,0,8.9,0.8,11.3,2.5c1.9,1.3,3,3.4,3,5.7c0,3.9-3.4,6.6-7.3,7.6l0,0c2.9,0.9,4.7,3,5.8,6.2
		c1.3,4.2,2.2,7.1,2.9,8.3h-5.2c-0.6-0.8-1.5-3.5-2.5-7.2c-1.2-4.2-3.4-5.7-7.9-5.9h-4.7v13h-5L194.2,153.2L194.2,153.2L194.2,153.2
		z"/>
	<path class="st0" d="M250.2,180.1c8,0,12.5-5.7,12.5-12.5s-4.1-12.3-12.5-12.3s-12.6,6-12.6,12.6S242.1,180.1,250.2,180.1
		L250.2,180.1L250.2,180.1z M249.9,183.2c-10.4,0-17.6-6.2-17.6-15.3s7.6-15.8,18.1-15.8s17.6,6.3,17.6,15.2s-8.2,15.8-18.1,15.8
		l0,0V183.2z"/>
	<path class="st0" d="M333.2,167.5c1,0.2,2.5,0.3,4.2,0.3c6.2,0,9.7-2.3,9.7-6.4s-3.7-6-9.2-6s-3.9,0.2-4.7,0.3V167.5L333.2,167.5z
		 M328.2,153.2c2.4-0.3,5.7-0.6,9.6-0.6s8.6,0.9,11,2.5c2.1,1.5,3.5,3.6,3.5,6.3s-1,4.8-3,6.4c-2.6,2.2-7,3.4-11.9,3.4
		s-2.9,0-4.1-0.3v12h-5v-29.6l0,0L328.2,153.2z"/>
	<path class="st0" d="M288.3,152.8v17.8c0,6.7,3.9,9.5,9.1,9.5s9.5-2.9,9.5-9.5v-17.8h5.1v17.6c0,9.2-6.3,13-14.8,13
		s-14-3.5-14-12.9v-17.7L288.3,152.8L288.3,152.8L288.3,152.8z"/>
	<path class="st0" d="M178.1,181.5c-2.3,0.6-6.8,1.7-12,1.7s-10.8-1.2-14.6-4c-3.4-2.5-5.4-6.5-5.4-11.2c0-9,8.1-15.5,21.2-15.5
		s8.1,0.7,9.7,1.4l-1.3,3.1c-2.1-0.7-4.7-1.3-8.6-1.3c-9.5,0-15.7,4.5-15.7,12s5.9,12.2,15.1,12.2s5.6-0.3,6.7-0.8v-9h-7.9V167h12.9
		L178.1,181.5L178.1,181.5L178.1,181.5z"/>
	<polygon class="st0" points="385.9,168.7 370.9,168.7 370.9,179.6 387.7,179.6 387.7,182.8 365.8,182.8 365.8,152.8 386.8,152.8 
		386.8,156 370.9,156 370.9,165.4 385.9,165.4 	"/>
	<path class="st0" d="M232,71.4c-8-3.6-17.8-4.5-31.3-4.7h-2.6c-13.6,0.1-23.6,1-32.3,4.7c-10,4-13.9,10.9-14.7,18.8l-3.1,37.6h22.3
		l3.2-38.7c0.4-4.6,2.9-7.6,7.6-9.3c4.2-1.5,10-2.3,17.2-2.5c7.2,0.1,12.8,0.9,16.8,2.5c4.4,1.7,6.4,4.7,6,9.3l-3.2,38.7h22.3
		l3.1-37.6C244,82.2,241.2,75.4,232,71.4"/>
	<path class="st0" d="M419.7,41.4L419.7,41.4c-15,0-25.6,0.9-34.7,4.7c-10,4-13.9,10.9-14.7,18.8l-5.7,63H387l5.8-63.9
		c0.4-4.6,2.9-7.6,7.6-9.3s11.2-2.5,19.7-2.5h5c4.5-2.3,5.6-6.6,5.9-10.6h-11.4L419.7,41.4z"/>
	<path class="st0" d="M330.1,83.2l-2,23.3c-0.4,4.6-2.9,7.6-7.6,9.3c-4.2,1.5-10,2.3-17.2,2.5c-7.2-0.1-12.8-0.9-16.8-2.5
		c-4.4-1.7-6.4-4.7-6-9.3l2-23.3c0.4-4.6,2.9-7.6,7.6-9.3c4.2-1.5,10-2.3,17.2-2.5c7.2,0.2,12.8,0.9,16.8,2.5
		C328.5,75.6,330.5,78.6,330.1,83.2 M341,65.5c-8-3.6-17.8-4.5-31.3-4.7h-2.6c-13.6,0.1-23.6,1-32.3,4.7c-10,4-13.9,10.9-14.7,18.8
		l-1.9,21.3c-0.7,8,2.1,14.8,11.4,18.8c8,3.6,17.8,4.5,31.3,4.6h2.6c13.6-0.1,23.6-1,32.2-4.6c10-4,13.9-10.9,14.7-18.8l1.9-21.3
		C353,76.3,350.1,69.5,341,65.5"/>
	<path class="st0" d="M137.3,51.9l1.4-16.3c0.4-4.6,1.2-7.6,5.9-9.3s11.3-2.5,19.7-2.5h19.4c4.5-2.3,5.6-6.6,5.9-10.6h-25.7
		c-15,0-23.8,0.9-32.9,4.7c-10,4-13.9,10.9-14.7,18.8l-1.7,19.8c-3.1,0.6-6.9,1.4-10.1,2.2c-3.9,3.7-4.4,8-4.1,12.5l0,0
		c4.3-1,9-2,13.2-2.9l-4.7,59.6h22.3l5.1-64.5C192.9,52.2,240,49.5,351.9,48.9c2.9-1.7,4.1-4.6,4.5-7.4
		c-93.7,0.1-165.7,0.6-219.3,10.5"/>
	<path class="st0" d="M47.9,85.9c6.8-2.9,15.2-5.7,24.2-7.9l-3.4,40.1H48.5c-5.6-0.3-10-1.2-13.2-2.4c-4-1.5-6-4.2-6-8
		c-0.2-2.3,0.2-7.6,2.7-11.3c4.1-6.1,15.9-10.6,15.9-10.6 M84.2,46.1c-7.1-3.1-16.6-4.8-35.9-4.7H31.5c0.3,3.9,1.5,8.3,5.9,10.6
		h10.4c12,0,17.6,1.8,19.5,2.5c4.4,1.7,6.4,4.7,6.1,9.3l-0.2,2.6c-23.9,6.7-45,14.5-55.9,22.3c-6.6,4.1-9.3,9.6-10.1,16.4
		c-0.8,8.2,2.1,15.1,11.3,19.2c8.5,3.8,19,4.7,33.9,4.7H65c4.8-0.3,10.6-1,14.6-2.7c10-4,12.2-12.9,12.8-20.7L96,60.7
		c-0.6-6.5-4.4-11.3-11.7-14.5"/>
</g>
</svg>
