<svg width="250" height="61" xmlns="http://www.w3.org/2000/svg"><g fill-rule="nonzero" fill="none"><path fill="#007DA6" d="M50.15 49.27h-2.06v-1.86h6.26v1.86h-2.06v10.56h-2.13V49.27zM55.35 59.83V47.42h5.71v1.86h-3.58v3.19h2.75v1.86h-2.75V58h3.82v1.86h-5.95zM74.83 47.41v12.41H73v-9.69l-2 9.69h-1l-1.92-9.69v9.69h-1.91V47.41H69l1.51 7.26L72 47.41zM77.77 59.83h-2.06L78 47.42h2.65l2.29 12.41h-2.08l-.37-2.75h-2.34l-.38 2.75Zm.69-4.61h1.72l-.84-5.33-.88 5.33ZM83.91 59.83V47.42h2l2.6 7.1v-7.1h1.92v12.41h-1.86l-2.72-7.76v7.76zM93.49 59.83h-2.07l2.29-12.41h2.65l2.28 12.41h-2.06l-.38-2.75h-2.34l-.37 2.75Zm.68-4.61h1.72l-.84-5.33-.88 5.33ZM104.42 49.27h-2.06v-1.86h6.26v1.86h-2.06v10.56h-2.13V49.27zM110.54 59.83h-2.06l2.29-12.41h2.65l2.28 12.41h-2.06l-.38-2.75h-2.34l-.38 2.75Zm.69-4.61H113l-.84-5.33-.93 5.33ZM116.68 47.41h2.13v9.37c0 .91.36 1.36 1.14 1.36.78 0 1.13-.45 1.13-1.36v-9.37h2.13v9.29a3.27 3.27 0 1 1-6.53 0v-9.29ZM126.26 49.27h-2.06v-1.86h6.26v1.86h-2.06v10.56h-2.13V49.27zM131.75 59.83V47.42h2.13v12.41zM135.88 59.83V47.42H138V52l2.24-4.59h2.13L140.11 52l2.59 7.79h-2.17l-1.73-5.77-.8 1.41v4.4zM145.32 59.83h-2.06l2.28-12.41h2.65l2.28 12.41h-2.06l-.41-2.75h-2.3l-.38 2.75Zm.69-4.61h1.72l-.84-5.33-.88 5.33ZM151.46 59.83V47.42h2l2.59 7.1v-7.1H158v12.41h-1.86l-2.72-7.76v7.76zM162.45 53.53h3.49v6.29h-1l-.39-.92a2.49 2.49 0 0 1-2.15 1.1c-1.68 0-2.86-1.2-2.86-3.18v-6.4a3 3 0 0 1 3.13-3.18 3.1 3.1 0 0 1 3.2 3.4v.79h-2c0-1.86-.38-2.34-1.22-2.34-.52 0-1 .31-1 1.36v6.38c0 .78.25 1.3 1 1.3s1.17-.48 1.17-1.72v-1.2h-1.36v-1.68h-.01ZM169.09 59.83H167l2.29-12.41H172l2.29 12.41h-2.06l-.38-2.75h-2.34l-.42 2.75Zm.69-4.61h1.72l-.84-5.33-.88 5.33ZM178.79 50.42a3.27 3.27 0 0 1 6.53 0v6.4a3.27 3.27 0 0 1-6.53 0v-6.4Zm2.13 6.35c0 .92.28 1.37 1.13 1.37.85 0 1.14-.45 1.14-1.37v-6.3c0-.92-.28-1.37-1.14-1.37-.86 0-1.13.45-1.13 1.37v6.3ZM191.93 59.83h-2.07l2.29-12.41h2.65l2.28 12.41H195l-.38-2.75h-2.32l-.37 2.75Zm.68-4.61h1.72l-.84-5.33-.88 5.33ZM198 50.42a3.27 3.27 0 0 1 6.53 0v6.4a3.27 3.27 0 0 1-6.53 0v-6.4Zm2.13 6.35c0 .92.28 1.37 1.14 1.37.86 0 1.13-.45 1.13-1.37v-6.3c0-.92-.28-1.37-1.13-1.37-.85 0-1.14.45-1.14 1.37v6.3ZM207.32 49.27h-2.06v-1.86h6.26v1.86h-2.06v10.56h-2.13V49.27zM212.51 59.83V47.42h5.71v1.86h-3.57v3.19h2.75v1.86h-2.75V58h3.82v1.86h-6zM221.13 59.83h-2.06l2.28-12.41H224l2.28 12.41h-2.06l-.38-2.75h-2.33l-.38 2.75Zm.68-4.61h1.73l-.85-5.33-.88 5.33ZM229.39 59.83h-2.13V47.42h3c2.39 0 3.61 1 3.61 3.66 0 2-.77 2.8-1.5 3.12l1.81 5.62H232l-1.51-5.14c-.28 0-.73.06-1.11.06l.01 5.09Zm0-6.85h.76c1.15 0 1.58-.43 1.58-1.9s-.43-1.91-1.58-1.91h-.76v3.81ZM235.12 50.42a3.27 3.27 0 0 1 6.53 0v6.4a3.27 3.27 0 0 1-6.53 0v-6.4Zm2.13 6.35c0 .92.28 1.37 1.14 1.37.86 0 1.13-.45 1.13-1.37v-6.3c0-.92-.28-1.37-1.13-1.37-.85 0-1.14.45-1.14 1.37v6.3ZM244.7 59.83h-2.06l2.28-12.41h2.65l2.29 12.41h-2.06l-.38-2.75h-2.34l-.38 2.75Zm.69-4.61h1.72l-.84-5.33-.88 5.33Z"/><path fill="#45BFD3" d="M36.56 14.06V.26H0v36.56h13.66V14.06z"/><path fill="#007DA6" d="M0 46.07v13.8h36.56V23.3H22.91v22.77z"/><path d="m46.63 12.54 3.44-1.44a3.08 3.08 0 0 0 3.24 2.37c1.29 0 2.37-.55 2.37-1.68 0-2.82-8.45-.64-8.45-6.7 0-3.21 2.84-5.09 6.19-5.09C56.77 0 59 1.34 59.6 4L56 5a2.42 2.42 0 0 0-2.58-2c-1.35 0-2.18.7-2.18 1.66 0 2.82 8.45.59 8.45 6.8 0 3.32-3 5.05-6.44 5.05-3.44 0-5.9-1.46-6.62-3.97ZM66.06 16.27V3.64H61V.29h14.15v3.35H70.1v12.63zM85 12.94h-5.9L78 16.27h-4l5.81-16h4.57l5.82 16h-4.09L85 12.94Zm-4.85-3h3.82l-1.92-5.49-1.9 5.49ZM102.05.29h3.86v16h-3.57l-6.56-9.88v9.86h-3.9V.29h3.81L102 10.1zM109 .29h6c4.76 0 8.11 2.48 8.11 8s-3.37 8-8.11 8h-6v-16Zm4 12.63h1.8c2.35 0 4.16-1.32 4.16-4.67 0-3.35-1.82-4.61-4.14-4.61H113v9.28ZM134.28 12.94h-5.87l-1.15 3.33h-4l5.81-16h4.57l5.82 16h-4.09l-1.09-3.33Zm-4.86-3h3.83l-1.89-5.53-1.94 5.53ZM150.93 16.27a3.17 3.17 0 0 1-.76-1.74l-.44-2.13a1.92 1.92 0 0 0-2.22-1.75h-2.37v5.63h-3.95V.29h7.28c3.68 0 5.93 1.5 5.93 4.74A3.86 3.86 0 0 1 151 9v.05a3 3 0 0 1 2.66 2.56l.64 2.76a4.15 4.15 0 0 0 1 1.89h-4.32l-.05.01ZM148 3.54h-2.9v4h2.92c1.43 0 2.18-.65 2.18-2s-.66-2-2.2-2ZM157.09.29h6c4.76 0 8.11 2.48 8.11 8s-3.37 8-8.11 8h-6v-16Zm4 12.63h1.8c2.35 0 4.16-1.32 4.16-4.67 0-3.35-1.82-4.61-4.14-4.61h-1.82v9.28ZM172.13 12.54l3.44-1.44a3.06 3.06 0 0 0 3.23 2.37c1.29 0 2.37-.55 2.37-1.68 0-2.82-8.45-.64-8.45-6.7 0-3.21 2.85-5.09 6.2-5.09s5.55 1.34 6.17 4l-3.56 1a2.43 2.43 0 0 0-2.59-2c-1.34 0-2.17.7-2.17 1.66 0 2.82 8.45.59 8.45 6.8 0 3.32-3 5.05-6.44 5.05-3.44 0-5.94-1.46-6.65-3.97ZM58.16 23.44H62v16h-3.55l-6.56-9.86v9.86H48v-16h3.8l6.33 9.81zM76.43 39.43H65.08v-16h11.29v3.35H69v3.07h6.59v3H69v3.2h7.47v3.35zM90.17 23.44l2.3 10.75 2.37-10.75h3.85l-4 16h-4l-2.37-10.56h-.07l-2.32 10.55h-4.14l-4-16h4l2.37 10.75 2.27-10.75zM118.33 36.08v3.35h-12.7v-3l7.44-9.6h-7.33v-3.39h12.4v3l-7.59 9.65h7.78zM132.1 39.43h-11.35v-16H132v3.35h-7.42v3.07h6.59v3h-6.59v3.2h7.47v3.35zM144.51 36.1h-5.87l-1.15 3.33h-4l5.81-16h4.57l5.81 16h-4.09l-1.08-3.33Zm-4.87-3h3.83l-1.89-5.53-1.94 5.53ZM155.43 23.44v12.64h7.09v3.35h-11.11v-16zM174.74 36.1h-5.87l-1.15 3.33h-3.95l5.81-16h4.57l5.81 16h-4.09l-1.13-3.33Zm-4.86-3h3.83l-1.89-5.53-1.94 5.53ZM191.82 23.44h3.85v16h-3.57l-6.56-9.86v9.86h-3.86v-16h3.81l6.32 9.81zM198.73 23.44h6c4.77 0 8.12 2.49 8.12 8s-3.38 8-8.12 8h-6v-16Zm4 12.64h1.8c2.34 0 4.16-1.32 4.16-4.67 0-3.35-1.82-4.62-4.14-4.62h-1.82v9.29Z" fill="#151842"/></g></svg>
