<?xml version="1.0" encoding="UTF-8"?>
<svg xmlns="http://www.w3.org/2000/svg" xmlns:xlink="http://www.w3.org/1999/xlink" width="793.701pt" height="152.501pt" viewBox="0 0 793.701 152.501" version="1.1">
<defs>
<clipPath id="clip1">
  <path d="M 772 74 L 793.699219 74 L 793.699219 114 L 772 114 Z M 772 74 "/>
</clipPath>
<clipPath id="clip2">
  <path d="M 0 110 L 43 110 L 43 152.5 L 0 152.5 Z M 0 110 "/>
</clipPath>
<clipPath id="clip3">
  <path d="M 0 0 L 153 0 L 153 152.5 L 0 152.5 Z M 0 0 "/>
</clipPath>
</defs>
<g id="surface1">
<path style=" stroke:none;fill-rule:nonzero;fill:rgb(32.940674%,33.724976%,35.68573%);fill-opacity:1;" d="M 201.148438 52.820312 L 207.546875 38.667969 L 212.289062 38.667969 L 204.734375 52.820312 Z M 200.554688 57 L 204.589844 57 L 204.589844 113.101562 L 200.554688 113.101562 Z M 200.554688 57 "/>
<path style=" stroke:none;fill-rule:nonzero;fill:rgb(32.940674%,33.724976%,35.68573%);fill-opacity:1;" d="M 236.160156 113.835938 C 233.640625 113.835938 231.425781 113.535156 229.582031 112.945312 C 227.75 112.359375 226.191406 111.566406 224.953125 110.582031 C 223.71875 109.605469 222.726562 108.449219 222.011719 107.152344 C 221.378906 106.011719 220.914062 104.808594 220.617188 103.5625 L 224.75 103.039062 C 225.351562 105.226562 226.480469 107.011719 228.113281 108.355469 C 229.808594 109.753906 232.375 110.464844 235.742188 110.464844 L 236.09375 110.460938 C 237.492188 110.410156 238.898438 110.273438 240.28125 110.050781 C 241.703125 109.824219 243.003906 109.410156 244.148438 108.824219 C 245.324219 108.226562 246.289062 107.417969 247.015625 106.425781 C 247.769531 105.402344 248.152344 104.085938 248.152344 102.503906 C 248.152344 100.980469 247.847656 99.765625 247.25 98.894531 C 246.65625 98.03125 245.8125 97.351562 244.746094 96.871094 C 243.726562 96.410156 242.453125 96.074219 240.964844 95.875 C 239.527344 95.679688 237.90625 95.4375 236.101562 95.144531 C 234.777344 94.945312 233.261719 94.714844 231.550781 94.445312 C 229.898438 94.1875 228.316406 93.71875 226.855469 93.058594 C 225.421875 92.410156 224.203125 91.488281 223.238281 90.3125 C 222.296875 89.175781 221.824219 87.601562 221.824219 85.636719 C 221.824219 83.601562 222.25 81.871094 223.097656 80.5 C 223.957031 79.109375 225.0625 77.953125 226.382812 77.074219 C 227.710938 76.1875 229.242188 75.550781 230.925781 75.175781 C 232.640625 74.792969 234.328125 74.601562 235.941406 74.601562 C 238.367188 74.601562 240.496094 74.875 242.269531 75.417969 C 244.03125 75.960938 245.542969 76.707031 246.753906 77.640625 C 247.960938 78.566406 248.933594 79.703125 249.648438 81.023438 C 250.289062 82.199219 250.78125 83.492188 251.113281 84.875 L 246.992188 85.398438 C 246.394531 83.074219 245.273438 81.234375 243.65625 79.929688 C 242.039062 78.625 239.644531 77.964844 236.542969 77.964844 C 236.316406 77.964844 236.085938 77.96875 235.851562 77.976562 L 235.847656 77.976562 C 234.8125 77.976562 233.695312 78.078125 232.546875 78.277344 C 231.375 78.480469 230.285156 78.84375 229.304688 79.359375 C 228.300781 79.890625 227.457031 80.636719 226.796875 81.582031 C 226.125 82.554688 225.785156 83.816406 225.785156 85.34375 C 225.785156 86.640625 226.082031 87.679688 226.671875 88.433594 C 227.242188 89.164062 228.042969 89.75 229.054688 90.179688 C 230.019531 90.582031 231.1875 90.894531 232.523438 91.09375 C 233.816406 91.289062 235.222656 91.511719 236.734375 91.753906 C 238.453125 92 240.234375 92.269531 242.089844 92.5625 C 243.894531 92.847656 245.585938 93.339844 247.121094 94.023438 C 248.617188 94.691406 249.863281 95.679688 250.828125 96.96875 C 251.777344 98.234375 252.257812 100.023438 252.257812 102.285156 C 252.257812 104.371094 251.792969 106.160156 250.878906 107.601562 C 249.949219 109.0625 248.726562 110.261719 247.242188 111.167969 C 245.738281 112.082031 243.992188 112.765625 242.058594 113.191406 C 240.101562 113.617188 238.117188 113.835938 236.160156 113.835938 "/>
<path style=" stroke:none;fill-rule:nonzero;fill:rgb(32.940674%,33.724976%,35.68573%);fill-opacity:1;" d="M 266.710938 55.53125 L 270.449219 55.53125 L 270.449219 113.101562 L 266.710938 113.101562 Z M 266.710938 55.53125 "/>
<path style=" stroke:none;fill-rule:nonzero;fill:rgb(32.940674%,33.724976%,35.68573%);fill-opacity:1;" d="M 302.742188 77.902344 C 299.058594 77.902344 295.988281 79.011719 293.621094 81.203125 C 291.25 83.394531 289.917969 86.953125 289.667969 91.769531 L 289.636719 92.347656 L 314.464844 92.347656 L 314.453125 91.785156 C 314.351562 87.386719 313.378906 83.925781 311.554688 81.496094 C 309.765625 79.105469 306.957031 77.894531 303.207031 77.894531 C 303.054688 77.894531 302.742188 77.902344 302.742188 77.902344 M 302.757812 113.835938 C 297.511719 113.835938 293.300781 112.207031 290.246094 108.984375 C 287.183594 105.757812 285.632812 100.789062 285.632812 94.21875 C 285.632812 87.648438 287.183594 82.679688 290.246094 79.453125 C 293.300781 76.234375 297.511719 74.597656 302.757812 74.597656 C 308.21875 74.597656 312.265625 76.292969 314.785156 79.625 C 317.339844 83.007812 318.632812 87.890625 318.632812 94.144531 L 318.632812 95.578125 L 289.636719 95.578125 L 289.667969 96.152344 C 289.917969 101.167969 291.261719 104.84375 293.652344 107.085938 C 296.046875 109.328125 299.132812 110.460938 302.832031 110.460938 L 303.183594 110.464844 C 306.59375 110.464844 309.171875 109.753906 310.84375 108.355469 C 312.453125 107.011719 313.570312 105.222656 314.171875 103.039062 L 318.300781 103.5625 C 318.003906 104.808594 317.535156 106.015625 316.90625 107.152344 C 316.191406 108.449219 315.199219 109.601562 313.964844 110.582031 C 312.726562 111.5625 311.167969 112.359375 309.335938 112.945312 C 307.492188 113.539062 305.277344 113.835938 302.757812 113.835938 "/>
<path style=" stroke:none;fill-rule:nonzero;fill:rgb(32.940674%,33.724976%,35.68573%);fill-opacity:1;" d="M 360.21875 113.101562 L 360.21875 87.617188 C 360.21875 84.527344 359.199219 82.132812 357.191406 80.515625 C 355.214844 78.925781 352.597656 78.121094 349.402344 78.121094 C 347.523438 78.121094 345.769531 78.484375 344.191406 79.199219 C 342.625 79.90625 341.25 80.828125 340.109375 81.945312 C 338.964844 83.0625 338.054688 84.320312 337.394531 85.695312 C 336.726562 87.078125 336.367188 88.429688 336.3125 89.722656 L 336.3125 113.101562 L 332.570312 113.101562 L 332.570312 83.804688 L 332.160156 75.332031 L 335.5 75.332031 L 336.527344 83.03125 L 337.335938 81.664062 C 338.550781 79.605469 340.300781 77.894531 342.53125 76.578125 C 344.757812 75.265625 347.316406 74.597656 350.136719 74.597656 C 352.074219 74.597656 353.917969 74.875 355.617188 75.417969 C 357.300781 75.957031 358.78125 76.738281 360.019531 77.742188 C 361.242188 78.734375 362.21875 79.976562 362.914062 81.4375 C 363.609375 82.898438 363.960938 84.605469 363.960938 86.515625 L 363.960938 113.101562 Z M 360.21875 113.101562 "/>
<path style=" stroke:none;fill-rule:nonzero;fill:rgb(32.940674%,33.724976%,35.68573%);fill-opacity:1;" d="M 391.941406 113.835938 C 389.417969 113.835938 387.203125 113.535156 385.363281 112.945312 C 383.527344 112.359375 381.96875 111.566406 380.730469 110.582031 C 379.5 109.605469 378.507812 108.453125 377.789062 107.152344 C 377.160156 106.011719 376.691406 104.808594 376.398438 103.5625 L 380.527344 103.039062 C 381.128906 105.226562 382.257812 107.011719 383.890625 108.355469 C 385.589844 109.753906 388.15625 110.464844 391.519531 110.464844 L 391.875 110.460938 C 393.273438 110.410156 394.675781 110.273438 396.0625 110.050781 C 397.480469 109.824219 398.78125 109.410156 399.925781 108.824219 C 401.097656 108.226562 402.066406 107.417969 402.796875 106.425781 C 403.546875 105.402344 403.929688 104.085938 403.929688 102.503906 C 403.929688 100.980469 403.625 99.765625 403.027344 98.894531 C 402.433594 98.03125 401.589844 97.351562 400.527344 96.871094 C 399.503906 96.410156 398.230469 96.074219 396.746094 95.875 C 395.304688 95.679688 393.683594 95.4375 391.882812 95.144531 C 390.554688 94.945312 389.042969 94.714844 387.332031 94.445312 C 385.675781 94.1875 384.09375 93.71875 382.632812 93.058594 C 381.203125 92.410156 379.984375 91.488281 379.015625 90.3125 C 378.078125 89.171875 377.601562 87.597656 377.601562 85.636719 C 377.601562 83.601562 378.03125 81.871094 378.875 80.5 C 379.738281 79.105469 380.84375 77.953125 382.160156 77.074219 C 383.492188 76.1875 385.019531 75.550781 386.707031 75.175781 C 388.417969 74.792969 390.105469 74.601562 391.71875 74.601562 C 394.148438 74.601562 396.277344 74.875 398.050781 75.417969 C 399.8125 75.960938 401.320312 76.707031 402.53125 77.640625 C 403.738281 78.566406 404.710938 79.703125 405.429688 81.023438 C 406.066406 82.199219 406.558594 83.492188 406.894531 84.875 L 402.773438 85.398438 C 402.175781 83.074219 401.050781 81.234375 399.4375 79.929688 C 397.816406 78.625 395.425781 77.964844 392.320312 77.964844 C 392.09375 77.964844 391.867188 77.96875 391.628906 77.976562 C 390.589844 77.976562 389.476562 78.078125 388.328125 78.277344 C 387.152344 78.480469 386.0625 78.84375 385.085938 79.359375 C 384.078125 79.886719 383.238281 80.636719 382.578125 81.582031 C 381.90625 82.554688 381.5625 83.820312 381.5625 85.34375 C 381.5625 86.636719 381.859375 87.675781 382.449219 88.433594 C 383.019531 89.164062 383.820312 89.75 384.835938 90.179688 C 385.796875 90.582031 386.964844 90.894531 388.300781 91.09375 C 389.597656 91.289062 391 91.511719 392.511719 91.753906 C 394.230469 92 396.011719 92.269531 397.867188 92.5625 C 399.671875 92.847656 401.363281 93.339844 402.898438 94.023438 C 404.398438 94.691406 405.640625 95.683594 406.605469 96.96875 C 407.558594 98.234375 408.035156 100.023438 408.035156 102.285156 C 408.035156 104.367188 407.574219 106.160156 406.65625 107.601562 C 405.730469 109.0625 404.503906 110.261719 403.023438 111.167969 C 401.515625 112.082031 399.773438 112.765625 397.835938 113.191406 C 395.878906 113.617188 393.898438 113.835938 391.941406 113.835938 "/>
<path style=" stroke:none;fill-rule:nonzero;fill:rgb(32.940674%,33.724976%,35.68573%);fill-opacity:1;" d="M 447.785156 113.101562 L 431.289062 93.707031 L 424.613281 100.21875 L 424.613281 113.101562 L 420.875 113.101562 L 420.875 55.535156 L 424.613281 55.535156 L 424.613281 95.636719 L 432.964844 87.125 L 444.753906 75.332031 L 450.140625 75.332031 L 433.792969 91.253906 L 452.992188 113.101562 Z M 447.785156 113.101562 "/>
<path style=" stroke:none;fill-rule:nonzero;fill:rgb(32.940674%,33.724976%,35.68573%);fill-opacity:1;" d="M 464.660156 60.007812 L 469.867188 60.007812 L 469.867188 65.214844 L 464.660156 65.214844 Z M 465.394531 75.335938 L 469.132812 75.335938 L 469.132812 113.105469 L 465.394531 113.105469 Z M 465.394531 75.335938 "/>
<path style=" stroke:none;fill-rule:nonzero;fill:rgb(32.940674%,33.724976%,35.68573%);fill-opacity:1;" d="M 485.78125 113.101562 L 485.78125 83.804688 L 485.367188 75.332031 L 488.707031 75.332031 L 489.746094 83.457031 L 490.554688 81.9375 C 491.632812 79.925781 493.296875 78.183594 495.503906 76.75 C 497.699219 75.324219 500.21875 74.597656 502.980469 74.597656 C 503.640625 74.597656 504.394531 74.648438 505.226562 74.742188 C 505.820312 74.8125 506.316406 74.902344 506.714844 75.015625 L 506.316406 78.90625 C 506.082031 78.84375 505.8125 78.769531 505.5 78.691406 C 504.796875 78.507812 503.953125 78.414062 502.980469 78.414062 C 500.957031 78.414062 499.097656 78.773438 497.445312 79.484375 C 495.800781 80.195312 494.386719 81.121094 493.246094 82.238281 C 492.101562 83.355469 491.199219 84.621094 490.5625 85.996094 C 489.925781 87.375 489.574219 88.726562 489.523438 90.015625 L 489.519531 113.101562 Z M 485.78125 113.101562 "/>
<path style=" stroke:none;fill-rule:nonzero;fill:rgb(32.940674%,33.724976%,35.68573%);fill-opacity:1;" d="M 552.191406 113.835938 C 549.671875 113.835938 547.457031 113.535156 545.613281 112.945312 C 543.78125 112.359375 542.21875 111.566406 540.980469 110.582031 C 539.75 109.605469 538.757812 108.449219 538.039062 107.152344 C 537.410156 106.011719 536.941406 104.808594 536.648438 103.5625 L 540.777344 103.039062 C 541.382812 105.226562 542.511719 107.011719 544.140625 108.355469 C 545.839844 109.753906 548.40625 110.464844 551.769531 110.464844 L 552.125 110.460938 C 553.523438 110.410156 554.929688 110.273438 556.3125 110.050781 C 557.730469 109.824219 559.03125 109.410156 560.179688 108.824219 C 561.351562 108.226562 562.316406 107.417969 563.046875 106.425781 C 563.800781 105.402344 564.183594 104.085938 564.183594 102.503906 C 564.183594 100.980469 563.878906 99.765625 563.277344 98.894531 C 562.683594 98.03125 561.84375 97.351562 560.777344 96.871094 C 559.757812 96.410156 558.484375 96.074219 556.996094 95.875 C 555.558594 95.679688 553.9375 95.4375 552.132812 95.144531 C 550.808594 94.945312 549.292969 94.714844 547.582031 94.445312 C 545.925781 94.1875 544.347656 93.71875 542.882812 93.058594 C 541.453125 92.410156 540.238281 91.488281 539.269531 90.3125 C 538.332031 89.175781 537.855469 87.601562 537.855469 85.636719 C 537.855469 83.601562 538.28125 81.871094 539.128906 80.5 C 539.988281 79.109375 541.09375 77.953125 542.410156 77.074219 C 543.742188 76.1875 545.269531 75.550781 546.957031 75.175781 C 548.667969 74.792969 550.359375 74.601562 551.972656 74.601562 C 554.398438 74.601562 556.527344 74.875 558.300781 75.417969 C 560.0625 75.960938 561.570312 76.707031 562.78125 77.640625 C 563.988281 78.566406 564.964844 79.703125 565.679688 81.023438 C 566.320312 82.199219 566.8125 83.492188 567.144531 84.875 L 563.027344 85.398438 C 562.425781 83.074219 561.304688 81.234375 559.6875 79.929688 C 558.070312 78.625 555.675781 77.964844 552.574219 77.964844 C 552.347656 77.964844 552.117188 77.96875 551.882812 77.976562 L 551.878906 77.976562 C 550.84375 77.976562 549.726562 78.078125 548.578125 78.277344 C 547.402344 78.480469 546.3125 78.84375 545.339844 79.359375 C 544.332031 79.886719 543.488281 80.636719 542.828125 81.582031 C 542.15625 82.554688 541.8125 83.820312 541.8125 85.34375 C 541.8125 86.636719 542.113281 87.675781 542.699219 88.433594 C 543.269531 89.164062 544.074219 89.75 545.085938 90.179688 C 546.050781 90.582031 547.21875 90.894531 548.550781 91.09375 C 549.847656 91.289062 551.25 91.511719 552.765625 91.753906 C 554.484375 92 556.265625 92.269531 558.117188 92.5625 C 559.921875 92.847656 561.617188 93.339844 563.148438 94.023438 C 564.644531 94.691406 565.894531 95.679688 566.859375 96.96875 C 567.808594 98.234375 568.289062 100.023438 568.289062 102.285156 C 568.289062 104.371094 567.824219 106.160156 566.910156 107.601562 C 565.980469 109.0625 564.757812 110.261719 563.273438 111.167969 C 561.765625 112.082031 560.023438 112.765625 558.089844 113.191406 C 556.132812 113.617188 554.148438 113.835938 552.191406 113.835938 "/>
<path style=" stroke:none;fill-rule:nonzero;fill:rgb(32.940674%,33.724976%,35.68573%);fill-opacity:1;" d="M 597.738281 113.835938 C 594.949219 113.835938 592.695312 113.433594 591.042969 112.644531 C 589.40625 111.859375 588.121094 110.785156 587.230469 109.457031 C 586.324219 108.117188 585.726562 106.550781 585.445312 104.804688 C 585.15625 103 585.011719 101.09375 585.011719 99.132812 L 585.011719 78.78125 L 577.972656 78.78125 L 577.972656 75.332031 L 585.011719 75.332031 L 585.011719 65.28125 L 588.753906 64.03125 L 588.753906 75.332031 L 600.707031 75.332031 L 600.707031 78.78125 L 588.753906 78.78125 L 588.753906 99.132812 C 588.753906 101.367188 588.917969 103.222656 589.246094 104.644531 C 589.582031 106.125 590.144531 107.304688 590.914062 108.152344 C 591.691406 109.015625 592.671875 109.601562 593.824219 109.894531 C 594.914062 110.175781 596.230469 110.316406 597.738281 110.316406 C 598.660156 110.316406 599.460938 110.222656 600.121094 110.039062 C 600.402344 109.960938 600.652344 109.890625 600.867188 109.824219 L 601.3125 113.414062 C 600.898438 113.53125 600.414062 113.625 599.867188 113.695312 C 599.109375 113.789062 598.394531 113.835938 597.738281 113.835938 "/>
<path style=" stroke:none;fill-rule:nonzero;fill:rgb(32.940674%,33.724976%,35.68573%);fill-opacity:1;" d="M 626.546875 95.144531 C 625.167969 95.339844 623.863281 95.601562 622.675781 95.925781 C 621.460938 96.253906 620.375 96.707031 619.453125 97.269531 C 618.5 97.851562 617.734375 98.632812 617.175781 99.589844 C 616.613281 100.550781 616.332031 101.78125 616.332031 103.242188 C 616.332031 105.761719 617.148438 107.625 618.757812 108.78125 C 620.316406 109.898438 622.570312 110.460938 625.460938 110.460938 C 627.574219 110.460938 629.570312 110.089844 631.386719 109.359375 C 633.1875 108.632812 634.777344 107.703125 636.113281 106.59375 C 637.457031 105.484375 638.535156 104.207031 639.324219 102.8125 C 640.121094 101.398438 640.550781 100.019531 640.601562 98.714844 L 640.605469 92.914062 Z M 625.460938 113.835938 C 621.023438 113.835938 617.703125 112.894531 615.59375 111.039062 C 613.5 109.203125 612.441406 106.578125 612.441406 103.242188 C 612.441406 101.332031 612.777344 99.714844 613.445312 98.429688 C 614.109375 97.148438 615.058594 96.070312 616.277344 95.21875 C 617.515625 94.355469 619.039062 93.664062 620.804688 93.171875 C 622.613281 92.664062 624.625 92.238281 626.792969 91.902344 L 640.605469 89.851562 L 640.605469 87.542969 C 640.605469 83.988281 639.496094 81.476562 637.308594 80.078125 C 635.199219 78.734375 632.328125 78.027344 628.769531 77.972656 C 628.550781 77.96875 628.328125 77.964844 628.109375 77.964844 C 625.039062 77.964844 622.726562 78.644531 621.242188 79.988281 C 619.773438 81.308594 618.738281 83.152344 618.148438 85.460938 L 614.171875 84.882812 C 614.496094 83.492188 614.957031 82.1875 615.539062 81.003906 C 616.1875 79.6875 617.078125 78.550781 618.183594 77.625 C 619.296875 76.699219 620.726562 75.957031 622.433594 75.417969 C 624.15625 74.875 626.285156 74.597656 628.761719 74.597656 C 633.644531 74.597656 637.488281 75.707031 640.1875 77.886719 C 642.847656 80.042969 644.199219 83.390625 644.199219 87.835938 L 644.199219 104.558594 L 644.609375 113.105469 L 641.417969 113.105469 L 640.378906 105.238281 L 639.570312 106.714844 C 639.019531 107.730469 638.242188 108.695312 637.265625 109.578125 C 636.28125 110.46875 635.152344 111.230469 633.910156 111.839844 C 632.65625 112.453125 631.289062 112.945312 629.839844 113.300781 C 628.398438 113.65625 626.925781 113.835938 625.460938 113.835938 "/>
<path style=" stroke:none;fill-rule:nonzero;fill:rgb(32.940674%,33.724976%,35.68573%);fill-opacity:1;" d="M 674.746094 78.050781 C 670.789062 78.050781 667.59375 79.34375 665.246094 81.894531 C 662.914062 84.429688 661.730469 88.578125 661.730469 94.21875 C 661.730469 99.808594 662.914062 103.945312 665.246094 106.507812 C 667.59375 109.082031 670.789062 110.390625 674.746094 110.390625 C 678.703125 110.390625 681.898438 109.082031 684.246094 106.507812 C 686.578125 103.945312 687.761719 99.808594 687.761719 94.21875 C 687.761719 88.578125 686.578125 84.429688 684.242188 81.894531 C 681.898438 79.34375 678.699219 78.050781 674.746094 78.050781 M 674.746094 113.835938 C 669.550781 113.835938 665.378906 112.203125 662.347656 108.984375 C 659.308594 105.757812 657.769531 100.789062 657.769531 94.21875 C 657.769531 87.648438 659.308594 82.679688 662.347656 79.449219 C 665.378906 76.234375 669.550781 74.601562 674.746094 74.601562 C 676.679688 74.601562 678.535156 74.898438 680.25 75.488281 C 681.960938 76.074219 683.59375 77.015625 685.097656 78.285156 L 686.621094 79.570312 L 685.972656 77.6875 C 684.9375 74.675781 683.710938 72.035156 682.324219 69.835938 C 680.941406 67.636719 679.414062 65.695312 677.777344 64.054688 L 677.523438 63.804688 L 666.496094 68.042969 L 666.496094 65.261719 L 675.289062 61.886719 L 674.488281 61.289062 C 672.367188 59.710938 670.179688 58.363281 667.984375 57.277344 C 666.710938 56.648438 665.46875 56.066406 664.261719 55.53125 L 670.667969 55.53125 C 671.835938 56.050781 673.085938 56.703125 674.394531 57.472656 C 675.730469 58.261719 677.113281 59.242188 678.5 60.394531 L 678.75 60.601562 L 687.394531 57.25 L 687.394531 60.035156 L 680.886719 62.542969 L 681.464844 63.140625 C 682.804688 64.527344 684.101562 66.191406 685.320312 68.078125 C 686.539062 69.96875 687.632812 72.1875 688.566406 74.683594 C 689.503906 77.179688 690.273438 80.070312 690.851562 83.277344 C 691.429688 86.484375 691.722656 90.164062 691.722656 94.21875 C 691.722656 100.789062 690.183594 105.757812 687.140625 108.984375 C 684.113281 112.203125 679.941406 113.835938 674.746094 113.835938 "/>
<path style=" stroke:none;fill-rule:nonzero;fill:rgb(32.940674%,33.724976%,35.68573%);fill-opacity:1;" d="M 706.90625 55.53125 L 710.644531 55.53125 L 710.644531 113.101562 L 706.90625 113.101562 Z M 706.90625 55.53125 "/>
<path style=" stroke:none;fill-rule:nonzero;fill:rgb(32.940674%,33.724976%,35.68573%);fill-opacity:1;" d="M 740.082031 95.144531 C 738.703125 95.339844 737.398438 95.601562 736.207031 95.925781 C 734.992188 96.253906 733.90625 96.707031 732.984375 97.269531 C 732.03125 97.851562 731.265625 98.632812 730.707031 99.589844 C 730.148438 100.550781 729.863281 101.78125 729.863281 103.242188 C 729.863281 105.761719 730.679688 107.625 732.292969 108.78125 C 733.847656 109.898438 736.105469 110.460938 738.992188 110.460938 C 741.109375 110.460938 743.101562 110.089844 744.917969 109.359375 C 746.71875 108.632812 748.3125 107.703125 749.648438 106.59375 C 750.988281 105.484375 752.066406 104.207031 752.855469 102.8125 C 753.652344 101.398438 754.085938 100.019531 754.136719 98.714844 L 754.136719 92.914062 Z M 738.992188 113.835938 C 734.554688 113.835938 731.234375 112.894531 729.125 111.039062 C 727.035156 109.203125 725.976562 106.578125 725.976562 103.242188 C 725.976562 101.332031 726.3125 99.714844 726.976562 98.429688 C 727.640625 97.148438 728.59375 96.070312 729.8125 95.21875 C 731.050781 94.355469 732.570312 93.664062 734.335938 93.171875 C 736.144531 92.664062 738.160156 92.238281 740.324219 91.902344 L 754.136719 89.851562 L 754.136719 87.542969 C 754.136719 83.988281 753.027344 81.476562 750.839844 80.078125 C 748.734375 78.734375 745.859375 78.027344 742.300781 77.972656 C 742.082031 77.96875 741.859375 77.964844 741.640625 77.964844 C 738.574219 77.964844 736.261719 78.644531 734.773438 79.988281 C 733.308594 81.308594 732.269531 83.152344 731.679688 85.460938 L 727.703125 84.882812 C 728.03125 83.492188 728.492188 82.1875 729.074219 81.003906 C 729.71875 79.6875 730.609375 78.550781 731.71875 77.625 C 732.832031 76.699219 734.261719 75.957031 735.964844 75.417969 C 737.691406 74.875 739.820312 74.597656 742.292969 74.597656 C 747.175781 74.597656 751.019531 75.707031 753.71875 77.886719 C 756.382812 80.042969 757.730469 83.390625 757.730469 87.835938 L 757.730469 104.558594 L 758.144531 113.105469 L 754.949219 113.105469 L 753.910156 105.238281 L 753.105469 106.714844 C 752.550781 107.730469 751.773438 108.695312 750.796875 109.578125 C 749.8125 110.46875 748.683594 111.230469 747.441406 111.839844 C 746.1875 112.453125 744.820312 112.945312 743.371094 113.300781 C 741.929688 113.65625 740.457031 113.835938 738.992188 113.835938 "/>
<g clip-path="url(#clip1)" clip-rule="nonzero">
<path style=" stroke:none;fill-rule:nonzero;fill:rgb(32.940674%,33.724976%,35.68573%);fill-opacity:1;" d="M 772.769531 113.101562 L 772.769531 83.804688 L 772.355469 75.332031 L 775.695312 75.332031 L 776.730469 83.457031 L 777.542969 81.9375 C 778.617188 79.925781 780.28125 78.183594 782.488281 76.75 C 784.6875 75.324219 787.203125 74.597656 789.964844 74.597656 C 790.625 74.597656 791.382812 74.648438 792.214844 74.742188 C 792.804688 74.8125 793.304688 74.902344 793.699219 75.015625 L 793.300781 78.90625 C 793.070312 78.84375 792.796875 78.769531 792.484375 78.691406 C 791.785156 78.507812 790.9375 78.414062 789.964844 78.414062 C 787.945312 78.414062 786.082031 78.773438 784.433594 79.484375 C 782.785156 80.195312 781.375 81.121094 780.230469 82.238281 C 779.085938 83.355469 778.1875 84.621094 777.550781 85.996094 C 776.910156 87.375 776.558594 88.726562 776.507812 90.015625 L 776.507812 113.101562 Z M 772.769531 113.101562 "/>
</g>
<g clip-path="url(#clip2)" clip-rule="nonzero">
<path style=" stroke:none;fill-rule:nonzero;fill:rgb(32.940674%,33.724976%,35.68573%);fill-opacity:1;" d="M 25.417969 110.140625 L 0 110.140625 L 0 135.558594 L 16.945312 135.558594 L 16.945312 152.5 L 42.359375 152.5 L 42.359375 110.140625 Z M 25.417969 110.140625 "/>
</g>
<g clip-path="url(#clip3)" clip-rule="nonzero">
<path style=" stroke:none;fill-rule:nonzero;fill:rgb(63.137817%,16.862488%,18.431091%);fill-opacity:1;" d="M 135.554688 0 L 0 0 L 0 67.777344 L 84.722656 67.777344 L 84.722656 152.5 L 152.5 152.5 L 152.5 0 Z M 135.554688 0 "/>
</g>
</g>
</svg>
