<?xml version="1.0" encoding="UTF-8"?><svg id="uuid-3ea2e65a-1970-476d-b212-14ba5be4d1f5" xmlns="http://www.w3.org/2000/svg" width="343.03" height="251.35" viewBox="0 0 343.03 251.35"><path d="m31.1,67.13c5.33,1.33,10.66,2.66,16.12,4.02,1.6-3.81,4.12-6.83,7.62-9.11-.23-.58-.43-1.14-.67-1.67-.82-1.82-1.7-3.61-2.47-5.45-.35-.83-.8-1.12-1.7-1.07-3.99.22-7.44-2.64-8.49-6.12-1.48-4.93,1.46-9.93,6.55-11.09,4.79-1.09,9.63,2.24,10.4,7.16.45,2.83-.34,5.28-2.27,7.39-.21.23-.42.47-.67.75,1.23,2.69,2.46,5.37,3.72,8.12,2.75-.83,5.48-.89,8.3-.65.55-1.86,1.08-3.65,1.6-5.45,2.2-7.66,4.4-15.33,6.6-22.99.38-1.34.7-2.71,1.15-4.02.23-.66.07-1.02-.45-1.41-1.62-1.23-2.64-2.89-3.07-4.86-.96-4.33,1.32-8.7,5.9-10.32,4.79-1.7,10.54,1.82,11.25,7.05.67,4.89-2.59,9.39-7.76,9.98-.89.1-1.19.39-1.42,1.21-2.93,10.32-5.9,20.62-8.86,30.93-.11.38-.18.76-.27,1.14,1.25.77,2.48,1.43,3.6,2.26,3.96,2.93,6.39,6.86,7.29,11.7.14.75.38,1,1.13,1,7.32-.02,14.64-.02,21.96,0,.62,0,.89-.23,1.13-.8,2.4-5.77,9.29-7.45,13.97-3.33,2.62,2.31,3.48,5.35,2.59,8.71-.88,3.31-3.08,5.5-6.45,6.25-4.39.97-8.35-1.14-10.08-5.32-.31-.76-.78-.77-1.4-.77-6.72,0-13.44,0-20.16,0-.6,0-1.2-.05-1.79-.08-.47-.02-.75.15-.83.65-.87,5.48-3.78,9.66-8.29,12.79-.03.02-.04.07-.15.23.29.67.62,1.43.95,2.18,1.23,2.73,2.5,5.44,3.7,8.18.31.71.74.87,1.47.86,3.96-.01,6.84,1.8,8.38,5.45,2.13,5.06-.99,10.94-6.69,11.87-4.65.76-9.03-2.3-9.91-6.82-.56-2.9.04-5.58,2.19-7.74.54-.54.6-.96.28-1.65-1.48-3.14-2.92-6.3-4.33-9.47-.29-.65-.57-.94-1.34-.74-4.77,1.21-9.33.63-13.69-1.64-.14-.07-.3-.11-.56-.2-.24.26-.53.52-.77.83-4.69,6.02-9.36,12.06-14.06,18.07-.58.74-.65,1.27-.18,2.19,3.11,6.01-1.3,12.71-7.62,12.75-3.67.02-7.73-2.41-8.62-6.9-1.22-6.11,3.56-10.48,8.21-10.49.95,0,1.93.09,2.84.35.69.2,1,0,1.39-.49,3.54-4.58,7.11-9.15,10.66-13.72,1.42-1.83,2.84-3.66,4.34-5.59-4.03-4.33-5.84-9.44-5.3-15.42-1.59-.39-3.09-.76-4.59-1.14-3.52-.88-7.05-1.74-10.56-2.66-.78-.21-1.21-.08-1.69.59-2.23,3.09-6.47,4.46-10.26,2.89-3.31-1.37-5.15-3.92-5.43-7.41-.28-3.45,1.14-6.27,4.14-8.09,5.74-3.49,12.46.41,13.18,6.16.04.31.14.62.23,1.01Zm33.6,21.25c5.16.18,10.46-4.24,10.47-10.4,0-5.78-4.74-10.49-10.55-10.47-5.66.03-10.27,4.73-10.33,10.43-.06,5.69,4.73,10.53,10.41,10.44Zm-18.79-43.26c-.03,2.17,1.72,4,3.87,4.07,2.12.06,3.96-1.75,4.05-3.89.08-1.84-1.31-4.01-3.94-4.12-2.13-.09-3.96,1.78-3.98,3.95Zm-13.36,78.22c2.08,0,3.96-1.92,3.95-4.02-.01-2.04-1.98-4-4.02-3.99-2.07,0-3.99,1.92-4,4-.01,2.16,1.87,4.01,4.07,4.01ZM81.82,22.66c2.25.03,3.96-1.62,4-3.85.04-2.21-1.66-4.02-3.81-4.07-2.19-.05-4.08,1.76-4.11,3.94-.03,2.14,1.76,3.95,3.92,3.98Zm33.62,59.26c2.23.01,3.94-1.66,3.96-3.9.02-2.21-1.68-3.98-3.86-4.02-2.22-.03-4.07,1.78-4.06,3.97.01,2.17,1.78,3.93,3.96,3.94Zm-34.2,35.93c2.11-.02,4.01-1.94,3.95-4-.06-2.24-1.87-3.96-4.13-3.91-2.15.04-3.92,1.88-3.88,4.04.04,2.13,1.89,3.9,4.05,3.88ZM22.32,63.41c-2.19-.02-3.99,1.74-4.01,3.91-.02,2.2,1.72,3.99,3.91,4,2.23,0,3.98-1.69,4.01-3.9.02-2.19-1.74-3.99-3.9-4.01Z" style="fill:#959ca0; stroke-width:0px;"/><path d="m130.51,132.76c0-9.56,0-19.11,0-28.67,0-.36-.02-.72.02-1.08.08-.91.41-1.26,1.32-1.43.31-.06.64-.09.95-.08,6.52,0,13.04-.03,19.55.06,3.61.05,7.17.54,10.58,1.79,5.97,2.19,9.64,6.35,10.87,12.62.81,4.1.74,8.19-.28,12.24-1.61,6.43-5.74,10.44-12.02,12.33-2.77.84-5.62,1.2-8.51,1.21-3.4.01-6.8,0-10.2,0-1.69,0-1.83.14-1.83,1.86,0,5.8,0,11.6,0,17.4,0,.6-.03,1.2-.13,1.79-.15.88-.56,1.3-1.44,1.31-2.52.04-5.04.05-7.56,0-.92-.02-1.25-.42-1.33-1.37-.03-.36-.01-.72-.01-1.08,0-9.64,0-19.27,0-28.91Zm10.43-11.25c0,3.24,0,6.48,0,9.71,0,.32-.01.64.02.96.11,1.13.35,1.41,1.49,1.41,3.88.01,7.76.08,11.63-.05,4.29-.14,7.48-2.67,8.83-6.74.87-2.62,1.07-5.33.69-8.04-.56-3.91-2.71-6.66-6.38-8.19-1.75-.73-3.59-1.13-5.48-1.17-2.88-.06-5.76-.04-8.63-.04-1.79,0-2.17.39-2.17,2.2,0,3.32,0,6.64,0,9.95Z" style="fill:#373c74; stroke-width:0px;"/><path d="m314.78,149.99h-21.18c-.76,2.53-1.52,5.04-2.27,7.56-.49,1.64-.97,3.29-1.47,4.93-.42,1.37-.78,1.68-2.22,1.71-1.88.04-3.76.03-5.64,0-1.32-.02-1.55-.28-1.24-1.63.3-1.32.71-2.62,1.11-3.91,5.46-17.95,10.93-35.89,16.4-53.83.93-3.05,1.32-3.32,4.48-3.32,1.8,0,3.6,0,5.4,0,2.22,0,2.92.47,3.59,2.59,1.06,3.31,2.05,6.64,3.06,9.96,3.89,12.79,7.78,25.58,11.68,38.37.89,2.94,1.81,5.87,2.69,8.82.73,2.46.38,2.94-2.14,2.96-2.04.02-4.08.02-6.12,0-1.66-.02-1.77-.17-2.24-1.73-1.19-3.98-2.42-7.94-3.63-11.91-.06-.19-.16-.36-.25-.56Zm-2.27-7.74c-2.73-9.4-5.44-18.72-8.15-28.03-.07.02-.14.03-.21.05-2.73,9.31-5.46,18.62-8.21,27.99h16.57Z" style="fill:#373c74; stroke-width:0px;"/><path d="m250.61,165.35c-5.29-.02-9.86-.4-14.3-1.75-1.14-.35-2.23-.87-3.33-1.32-.65-.27-.99-.74-1.01-1.48-.05-2.22.23-4.39,1.06-6.46.35-.88.56-.95,1.46-.58,2.89,1.19,5.85,2.14,8.96,2.54,4.19.53,8.37.64,12.51-.37.89-.21,1.76-.53,2.59-.91,3.84-1.75,5.07-4.81,4.6-8.71-.34-2.82-1.9-4.86-4.16-6.44-2.21-1.55-4.65-2.64-7.13-3.65-3.67-1.49-7.32-3.02-10.57-5.33-3.51-2.49-6.07-5.68-6.95-9.98-1.04-5.11-.38-9.88,3.22-13.92,2.07-2.33,4.7-3.82,7.62-4.81,4.15-1.4,8.43-1.74,12.77-1.55,2.12.09,4.25.1,6.34.37,2.01.26,3.98.81,5.97,1.23.92.2,1.32.8,1.33,1.72.02,2.04-.46,3.96-1.48,5.73-.51.89-.86.97-1.89.69-3.91-1.06-7.88-1.79-11.95-1.68-1.94.05-3.92.28-5.81.72-2.86.66-5.06,2.23-5.7,5.32-.71,3.39.14,6.33,3.01,8.38,1.65,1.17,3.47,2.13,5.3,3,2.7,1.29,5.51,2.35,8.21,3.64,3.08,1.47,5.89,3.38,8.25,5.88,3.8,4.01,5.16,8.79,4.56,14.22-.53,4.82-2.68,8.64-6.72,11.36-2.25,1.52-4.74,2.47-7.36,3.1-3.32.81-6.7,1.09-9.44,1.02Z" style="fill:#373c74; stroke-width:0px;"/><path d="m220.32,111.25c-.59-.25-1.22-.5-1.84-.77-3.76-1.62-7.7-2.01-11.74-1.74-2.04.14-4.05.42-5.99,1.11-4.1,1.45-6.51,4.37-7.31,8.59-.3,1.56-.44,3.17-.45,4.76-.05,7.36-.05,14.71,0,22.07,0,1.34.19,2.72.54,4.02.97,3.6,3.43,5.85,6.87,7.1,3.36,1.22,6.82,1.18,10.3.85,3.13-.29,6.11-1.17,8.96-2.47.36-.16.74-.29,1.25-.49.27.44.65.83.77,1.29.44,1.73.81,3.49,1.18,5.24.18.88-.23,1.41-1.04,1.77-2.62,1.14-5.38,1.77-8.2,2.17-4.01.57-8.04.74-12.07.28-4.67-.53-9.1-1.77-12.85-4.77-3.7-2.96-5.59-6.9-6.08-11.55-.13-1.23-.15-2.47-.16-3.71-.01-7.56-.02-15.11,0-22.67,0-2.6.23-5.19.89-7.72,1.49-5.66,5-9.53,10.39-11.72,2.87-1.17,5.88-1.78,8.96-2.05,4.71-.41,9.42-.42,14.07.61,2.04.45,3.99,1.14,5.74,2.31.47.31.79.66.68,1.27-.4,2.19-1.19,4.22-2.56,5.99-.07.09-.2.13-.35.23Z" style="fill:#373c74; stroke-width:0px;"/><path d="m116.84,133c0,9.55,0,19.11,0,28.66,0,.28,0,.56,0,.84-.04,1.22-.36,1.59-1.56,1.62-1.68.05-3.36.03-5.04.03-.68,0-1.36.01-2.04-.02-1.24-.07-1.6-.44-1.7-1.69-.03-.36-.02-.72-.02-1.08,0-19.15,0-38.3,0-57.44,0-2.13.26-2.41,2.4-2.43,1.96-.02,3.92-.01,5.88,0,1.75.01,2.08.35,2.08,2.13,0,9.79,0,19.59,0,29.38Z" style="fill:#373c74; stroke-width:0px;"/><path d="m107.04,192.85v-15.18h1.36v15.18h-1.36Z" style="fill:#373c74; stroke-width:0px;"/><path d="m119.18,192.85v-5.99c0-.49-.02-.96-.07-1.4-.05-.44-.16-.83-.35-1.17s-.45-.6-.81-.8c-.36-.2-.84-.29-1.44-.29s-1.11.11-1.52.33-.75.51-1,.88c-.25.37-.43.8-.55,1.28-.11.48-.17.98-.17,1.5v5.65h-1.28v-7.6c0-.5-.01-1-.03-1.5s-.03-1-.03-1.5h1.26l.08,1.76c.43-.64.92-1.12,1.47-1.42.55-.3,1.21-.45,2-.45.71,0,1.31.1,1.8.29s.86.48,1.14.84c.28.36.48.81.6,1.32s.18,1.11.18,1.76v6.49h-1.28Z" style="fill:#373c74; stroke-width:0px;"/><path d="m127.25,192.91c-.25.02-.49.03-.75.03-1.5,0-2.25-.76-2.25-2.27v-7.48h-2.1v-.95h2.1v-2.18l1.28-.57v2.75h2.37v.95h-2.37v6.91c0,.29.01.55.04.78.03.22.09.41.2.56.1.15.26.26.45.33.2.07.46.1.8.1.13,0,.28-.01.45-.04.17-.03.35-.06.51-.08v1.09c-.25.03-.5.05-.75.07Z" style="fill:#373c74; stroke-width:0px;"/><path d="m130.55,187.75v.25c0,.53.07,1.05.22,1.54.15.5.37.94.66,1.32.29.38.66.69,1.11.92.44.23.96.35,1.55.35.84,0,1.52-.24,2.03-.72.51-.48.84-1.12.98-1.92h1.2c-.22,1.19-.71,2.09-1.46,2.69-.75.6-1.72.9-2.92.9-.81,0-1.51-.14-2.1-.42-.59-.28-1.07-.66-1.45-1.14-.38-.48-.66-1.05-.84-1.7-.18-.65-.27-1.35-.27-2.09s.09-1.48.28-2.16c.19-.69.48-1.29.88-1.81.4-.52.9-.93,1.5-1.23.6-.3,1.32-.45,2.16-.45s1.53.16,2.08.48c.55.32.99.75,1.32,1.28s.56,1.14.68,1.82c.13.68.19,1.38.19,2.09h-7.81Zm6.53-1.16c0-.46-.07-.91-.2-1.33-.13-.43-.33-.8-.58-1.13-.25-.33-.57-.59-.96-.78-.39-.19-.83-.28-1.34-.28-.53,0-1,.11-1.41.32-.41.21-.75.49-1.03.83-.28.34-.5.74-.66,1.2-.16.46-.26.92-.31,1.4h6.49v-.21Z" style="fill:#373c74; stroke-width:0px;"/><path d="m145.26,183.43c-.57,0-1.05.08-1.43.24s-.68.39-.91.68-.4.65-.49,1.08c-.1.43-.15.9-.15,1.42v6.01h-1.28v-7.5c0-.52,0-1.04-.02-1.55-.01-.52-.03-1.04-.04-1.55h1.26l.08,1.66c.39-.62.85-1.06,1.39-1.32.53-.27,1.15-.4,1.87-.4.1,0,.2,0,.29.01.1,0,.2.02.29.03v1.28c-.27-.06-.55-.08-.86-.08Z" style="fill:#373c74; stroke-width:0px;"/><path d="m155.36,192.85v-5.99c0-.49-.02-.96-.07-1.4-.05-.44-.16-.83-.35-1.17s-.45-.6-.81-.8c-.36-.2-.84-.29-1.44-.29s-1.11.11-1.52.33-.75.51-1,.88c-.25.37-.43.8-.55,1.28-.11.48-.17.98-.17,1.5v5.65h-1.28v-7.6c0-.5-.01-1-.03-1.5s-.03-1-.03-1.5h1.26l.08,1.76c.43-.64.92-1.12,1.47-1.42.55-.3,1.21-.45,2-.45.71,0,1.31.1,1.8.29s.86.48,1.14.84c.28.36.48.81.6,1.32s.18,1.11.18,1.76v6.49h-1.28Z" style="fill:#373c74; stroke-width:0px;"/><path d="m166.55,192.85c-.03-.25-.06-.51-.08-.77-.03-.26-.06-.51-.08-.77-.45.67-.95,1.13-1.51,1.39-.56.25-1.24.38-2.04.38-.49,0-.96-.06-1.4-.19s-.83-.32-1.18-.57-.62-.57-.82-.97c-.2-.39-.3-.85-.3-1.39,0-.56.1-1.04.3-1.43.2-.39.48-.72.82-.98s.74-.46,1.18-.61c.44-.15.91-.25,1.4-.33.49-.07.98-.11,1.47-.13s.95-.02,1.39-.02h.55c.01-.13.02-.25.02-.37v-.37c0-.91-.2-1.59-.59-2.05-.39-.46-1.06-.68-2-.68-.69,0-1.25.14-1.69.41-.44.27-.7.79-.78,1.54h-1.26c0-.53.11-.98.33-1.35s.5-.67.84-.9c.34-.23.74-.4,1.19-.5.45-.1.91-.16,1.37-.16,1.32,0,2.29.29,2.92.87.62.58.94,1.53.94,2.85v3.15c0,.67.02,1.33.05,1.96.03.64.09,1.29.16,1.96h-1.18Zm-.27-5.42c-.18-.01-.36-.02-.53-.03-.17,0-.34-.01-.53-.01-.45,0-.95.02-1.51.05-.56.04-1.08.14-1.56.3-.48.17-.9.42-1.23.77-.34.34-.51.82-.51,1.42,0,.36.07.69.22.97.15.28.34.51.59.7.25.19.53.33.84.42.32.09.64.14.98.14.76,0,1.35-.14,1.78-.41.43-.27.75-.63.97-1.08.22-.45.35-.95.4-1.51.05-.56.07-1.13.07-1.72Z" style="fill:#373c74; stroke-width:0px;"/><path d="m174.39,192.91c-.25.02-.49.03-.75.03-1.5,0-2.25-.76-2.25-2.27v-7.48h-2.1v-.95h2.1v-2.18l1.28-.57v2.75h2.37v.95h-2.37v6.91c0,.29.01.55.04.78.03.22.09.41.2.56.11.15.26.26.45.33.2.07.46.1.8.1.13,0,.28-.01.45-.04.17-.03.35-.06.51-.08v1.09c-.25.03-.5.05-.75.07Z" style="fill:#373c74; stroke-width:0px;"/><path d="m177.19,179.27v-1.6h1.53v1.6h-1.53Zm.13,13.59v-10.61h1.28v10.61h-1.28Z" style="fill:#373c74; stroke-width:0px;"/><path d="m191.11,187.48c0,.74-.11,1.45-.33,2.13-.22.68-.54,1.28-.96,1.79-.42.52-.94.93-1.55,1.23-.62.3-1.32.45-2.12.45s-1.55-.15-2.17-.44-1.14-.69-1.55-1.2-.72-1.09-.93-1.77c-.21-.68-.32-1.41-.32-2.19s.11-1.48.33-2.14c.22-.66.54-1.23.96-1.72.42-.49.94-.88,1.55-1.15.62-.28,1.33-.42,2.14-.42s1.53.14,2.15.41c.62.27,1.14.65,1.55,1.14s.72,1.07.93,1.73.32,1.38.32,2.15Zm-1.37-.01c0-.56-.07-1.11-.2-1.64-.13-.53-.35-1-.64-1.41-.29-.41-.67-.73-1.12-.98-.46-.25-1-.37-1.63-.37s-1.17.12-1.63.37c-.46.25-.83.57-1.12.98-.29.41-.51.87-.65,1.4s-.21,1.08-.21,1.65.07,1.12.2,1.67c.13.55.35,1.05.64,1.48.29.44.67.79,1.12,1.06.46.27,1,.41,1.65.41s1.17-.14,1.63-.41c.46-.27.83-.63,1.11-1.07.29-.44.5-.94.64-1.49s.21-1.11.21-1.65Z" style="fill:#373c74; stroke-width:0px;"/><path d="m200.88,192.85v-5.99c0-.49-.02-.96-.07-1.4-.05-.44-.17-.83-.35-1.17s-.45-.6-.81-.8c-.36-.2-.84-.29-1.44-.29s-1.11.11-1.52.33-.75.51-1,.88-.43.8-.55,1.28c-.11.48-.17.98-.17,1.5v5.65h-1.28v-7.6c0-.5-.01-1-.03-1.5-.02-.5-.03-1-.03-1.5h1.26l.08,1.76c.43-.64.92-1.12,1.47-1.42.55-.3,1.21-.45,2-.45.71,0,1.31.1,1.79.29.48.2.86.48,1.14.84.28.36.48.81.6,1.32s.18,1.11.18,1.76v6.49h-1.28Z" style="fill:#373c74; stroke-width:0px;"/><path d="m212.06,192.85c-.03-.25-.06-.51-.08-.77-.03-.26-.06-.51-.08-.77-.45.67-.95,1.13-1.51,1.39-.56.25-1.24.38-2.04.38-.49,0-.96-.06-1.4-.19-.44-.13-.83-.32-1.18-.57-.34-.25-.62-.57-.82-.97-.2-.39-.3-.85-.3-1.39,0-.56.1-1.04.3-1.43.2-.39.48-.72.82-.98.34-.26.73-.46,1.18-.61.44-.15.91-.25,1.4-.33s.98-.11,1.47-.13.95-.02,1.39-.02h.55c.01-.13.02-.25.02-.37v-.37c0-.91-.2-1.59-.59-2.05-.39-.46-1.06-.68-2-.68-.69,0-1.25.14-1.69.41-.44.27-.7.79-.78,1.54h-1.26c0-.53.11-.98.33-1.35.22-.37.5-.67.84-.9.34-.23.74-.4,1.19-.5.45-.1.91-.16,1.37-.16,1.32,0,2.29.29,2.92.87.62.58.94,1.53.94,2.85v3.15c0,.67.02,1.33.05,1.96.04.64.09,1.29.16,1.96h-1.18Zm-.27-5.42c-.18-.01-.36-.02-.53-.03s-.34-.01-.53-.01c-.45,0-.95.02-1.51.05-.55.04-1.07.14-1.56.3-.48.17-.9.42-1.23.77-.34.34-.51.82-.51,1.42,0,.36.07.69.22.97.15.28.34.51.59.7.25.19.53.33.84.42s.64.14.98.14c.76,0,1.35-.14,1.78-.41s.75-.63.97-1.08.35-.95.4-1.51c.05-.56.07-1.13.07-1.72Z" style="fill:#373c74; stroke-width:0px;"/><path d="m216.27,192.85v-15.18h1.28v15.18h-1.28Z" style="fill:#373c74; stroke-width:0px;"/><path d="m237.12,181.89c0,.92-.25,1.72-.74,2.39s-1.18,1.16-2.06,1.45c-.45.15-.93.25-1.46.29-.52.04-1.05.06-1.58.06h-2.46v6.76h-1.37v-15.18h4.26c1.65,0,2.88.26,3.7.78.62.39,1.05.87,1.31,1.44.26.57.39,1.24.39,2.01Zm-1.47-.13c0-.63-.1-1.14-.3-1.52-.2-.38-.48-.69-.84-.9-.36-.22-.77-.36-1.24-.43-.47-.07-.96-.1-1.48-.1h-2.96v6.15h2.27c.41,0,.87-.02,1.4-.05.53-.04.98-.12,1.38-.26.59-.21,1.03-.59,1.33-1.14s.45-1.13.45-1.73Z" style="fill:#373c74; stroke-width:0px;"/><path d="m248.35,187.48c0,.74-.11,1.45-.33,2.13-.22.68-.54,1.28-.96,1.79-.42.52-.94.93-1.55,1.23s-1.32.45-2.12.45-1.55-.15-2.17-.44-1.14-.69-1.55-1.2-.72-1.09-.93-1.77c-.21-.68-.31-1.41-.31-2.19s.11-1.48.33-2.14.54-1.23.96-1.72c.42-.49.94-.88,1.55-1.15.62-.28,1.33-.42,2.14-.42s1.53.14,2.15.41c.62.27,1.14.65,1.55,1.14.41.49.72,1.07.93,1.73.21.67.31,1.38.31,2.15Zm-1.37-.01c0-.56-.07-1.11-.2-1.64s-.35-1-.64-1.41c-.29-.41-.67-.73-1.12-.98-.46-.25-1-.37-1.63-.37s-1.17.12-1.63.37c-.46.25-.83.57-1.12.98-.29.41-.51.87-.65,1.4-.14.53-.21,1.08-.21,1.65s.07,1.12.2,1.67c.13.55.35,1.05.64,1.48.29.44.67.79,1.12,1.06.46.27,1,.41,1.65.41s1.17-.14,1.63-.41c.45-.27.83-.63,1.11-1.07.29-.44.5-.94.64-1.49s.21-1.11.21-1.65Z" style="fill:#373c74; stroke-width:0px;"/><path d="m255.19,183.43c-.57,0-1.05.08-1.43.24s-.68.39-.91.68c-.23.29-.4.65-.49,1.08-.1.43-.15.9-.15,1.42v6.01h-1.28v-7.5c0-.52,0-1.04-.02-1.55s-.03-1.04-.04-1.55h1.26l.08,1.66c.39-.62.85-1.06,1.39-1.32.53-.27,1.16-.4,1.87-.4.1,0,.2,0,.29.01.1,0,.2.02.29.03v1.28c-.27-.06-.55-.08-.86-.08Z" style="fill:#373c74; stroke-width:0px;"/><path d="m262.47,192.91c-.25.02-.49.03-.75.03-1.5,0-2.25-.76-2.25-2.27v-7.48h-2.1v-.95h2.1v-2.18l1.28-.57v2.75h2.37v.95h-2.37v6.91c0,.29.01.55.04.78.03.22.09.41.2.56.1.15.25.26.45.33.2.07.46.1.8.1.13,0,.28-.01.45-.04.17-.03.35-.06.51-.08v1.09c-.25.03-.5.05-.75.07Z" style="fill:#373c74; stroke-width:0px;"/><path d="m115.82,214.05c-.93.68-2.07,1.02-3.41,1.02-1.15,0-2.13-.2-2.94-.61-.81-.41-1.48-.96-2-1.66-.52-.7-.9-1.52-1.13-2.45-.24-.93-.36-1.91-.36-2.95s.13-2.08.4-3.03c.27-.96.67-1.8,1.22-2.53.55-.73,1.23-1.31,2.05-1.74.82-.43,1.78-.65,2.89-.65.8,0,1.58.13,2.33.4.76.27,1.38.73,1.87,1.41.22.31.41.63.55.98.14.34.22.7.23,1.08h-1.47c-.04-.46-.17-.86-.39-1.2-.22-.34-.49-.61-.81-.83-.32-.22-.69-.38-1.09-.48-.41-.1-.82-.16-1.24-.16-.91,0-1.68.2-2.32.59-.64.39-1.16.9-1.56,1.53-.41.63-.7,1.34-.89,2.12s-.28,1.57-.28,2.35.08,1.61.24,2.4c.16.79.44,1.5.83,2.13s.91,1.14,1.54,1.52,1.43.58,2.38.58c.41,0,.81-.06,1.22-.18.41-.12.78-.29,1.11-.53.34-.23.62-.52.84-.86.22-.34.37-.74.44-1.19h1.51c-.24,1.27-.82,2.25-1.75,2.93Z" style="fill:#373c74; stroke-width:0px;"/><path d="m129.6,209.48c0,.74-.11,1.45-.33,2.13-.22.68-.54,1.28-.96,1.79-.42.52-.94.93-1.55,1.23-.62.3-1.32.45-2.12.45s-1.55-.15-2.17-.44c-.62-.29-1.14-.69-1.55-1.2s-.72-1.09-.93-1.77c-.21-.68-.32-1.41-.32-2.19s.11-1.48.33-2.14c.22-.66.54-1.23.96-1.72.42-.49.94-.88,1.55-1.15.62-.28,1.33-.42,2.14-.42s1.53.14,2.15.41c.62.27,1.14.65,1.55,1.14s.72,1.07.93,1.73.31,1.38.31,2.15Zm-1.36-.01c0-.56-.07-1.11-.2-1.64-.13-.53-.35-1-.64-1.41-.29-.41-.67-.73-1.12-.98-.46-.25-1-.37-1.63-.37s-1.17.12-1.63.37c-.46.25-.83.57-1.12.98-.29.41-.51.87-.65,1.4-.14.53-.21,1.08-.21,1.65s.07,1.12.2,1.67c.13.55.35,1.05.64,1.48.29.44.67.79,1.12,1.06.46.27,1,.41,1.65.41s1.17-.14,1.63-.41c.46-.27.83-.63,1.11-1.07.29-.44.5-.94.64-1.49.14-.55.21-1.11.21-1.65Z" style="fill:#373c74; stroke-width:0px;"/><path d="m146.08,214.85v-6.41c0-.46-.04-.89-.12-1.28-.08-.39-.22-.73-.42-1.02s-.48-.51-.82-.68c-.34-.17-.77-.25-1.29-.25-.6,0-1.1.1-1.48.29-.39.2-.69.46-.92.8-.23.34-.39.73-.48,1.19-.09.46-.14.94-.14,1.46v5.9h-1.28v-6.26c0-.46-.04-.9-.1-1.31-.07-.41-.2-.77-.39-1.08-.19-.31-.46-.55-.8-.72-.34-.17-.79-.26-1.33-.26s-1.01.1-1.4.31-.7.49-.94.84c-.25.35-.42.75-.54,1.2-.11.45-.17.91-.17,1.39v5.9h-1.28v-8.06c0-.42-.01-.84-.03-1.27-.02-.43-.03-.85-.03-1.27h1.26l.08,1.85c.71-1.3,1.81-1.95,3.28-1.95.88,0,1.59.17,2.12.51s.96.93,1.28,1.75c.36-.8.84-1.38,1.44-1.73.59-.36,1.33-.54,2.19-.54.77,0,1.39.12,1.87.36.48.24.84.57,1.09.99s.42.91.5,1.48c.08.57.13,1.17.13,1.82v6.07h-1.28Z" style="fill:#373c74; stroke-width:0px;"/><path d="m164.45,214.85v-6.41c0-.46-.04-.89-.12-1.28-.08-.39-.22-.73-.42-1.02s-.48-.51-.82-.68c-.34-.17-.77-.25-1.29-.25-.6,0-1.1.1-1.48.29-.39.2-.69.46-.92.8-.23.34-.39.73-.48,1.19-.09.46-.14.94-.14,1.46v5.9h-1.28v-6.26c0-.46-.04-.9-.1-1.31-.07-.41-.2-.77-.39-1.08-.19-.31-.46-.55-.8-.72-.34-.17-.79-.26-1.33-.26s-1.01.1-1.4.31-.7.49-.94.84c-.25.35-.42.75-.54,1.2-.11.45-.17.91-.17,1.39v5.9h-1.28v-8.06c0-.42-.01-.84-.03-1.27-.02-.43-.03-.85-.03-1.27h1.26l.08,1.85c.71-1.3,1.81-1.95,3.28-1.95.88,0,1.59.17,2.12.51s.96.93,1.28,1.75c.36-.8.84-1.38,1.44-1.73.59-.36,1.33-.54,2.19-.54.77,0,1.39.12,1.87.36.48.24.84.57,1.09.99s.42.91.5,1.48c.08.57.13,1.17.13,1.82v6.07h-1.28Z" style="fill:#373c74; stroke-width:0px;"/><path d="m176.11,214.85l-.04-1.7c-.45.63-.94,1.09-1.47,1.38s-1.19.43-1.97.43c-.71,0-1.31-.09-1.8-.28-.48-.19-.87-.46-1.17-.83s-.5-.8-.63-1.32c-.13-.52-.19-1.11-.19-1.79v-6.49h1.28v5.99c0,.49.03.96.1,1.4.07.44.21.83.41,1.17.2.34.48.6.83.8.35.2.8.29,1.37.29.6,0,1.11-.12,1.51-.35s.74-.54.99-.91.43-.81.54-1.3c.11-.49.16-1,.16-1.53v-5.54h1.28v7.43c0,1.06.02,2.12.06,3.17h-1.26Z" style="fill:#373c74; stroke-width:0px;"/><path d="m187.76,214.85v-5.99c0-.49-.02-.96-.07-1.4-.05-.44-.16-.83-.35-1.17-.18-.34-.45-.6-.81-.8-.36-.2-.84-.29-1.44-.29s-1.11.11-1.52.33-.75.51-1,.88-.43.8-.55,1.28c-.11.48-.17.98-.17,1.5v5.65h-1.28v-7.6c0-.5-.01-1-.03-1.5-.02-.5-.03-1-.03-1.5h1.26l.08,1.76c.43-.64.92-1.12,1.47-1.42.55-.3,1.21-.45,2-.45.71,0,1.31.1,1.8.29.48.2.86.48,1.14.84.28.36.48.81.6,1.32s.18,1.11.18,1.76v6.49h-1.28Z" style="fill:#373c74; stroke-width:0px;"/><path d="m192.09,201.27v-1.6h1.53v1.6h-1.53Zm.12,13.59v-10.61h1.28v10.61h-1.28Z" style="fill:#373c74; stroke-width:0px;"/><path d="m200.65,214.91c-.25.02-.49.03-.75.03-1.5,0-2.25-.76-2.25-2.27v-7.48h-2.1v-.95h2.1v-2.18l1.28-.57v2.75h2.37v.95h-2.37v6.91c0,.29.01.55.04.78.03.22.09.41.2.56.1.15.25.26.45.33.2.07.46.1.8.1.13,0,.28-.01.45-.04.17-.03.35-.06.51-.08v1.09c-.25.03-.5.05-.75.07Z" style="fill:#373c74; stroke-width:0px;"/><path d="m206.91,218.84h-1.3l1.68-4.05-4.45-10.54h1.53l3.55,8.88,3.53-8.88h1.28l-5.82,14.6Z" style="fill:#373c74; stroke-width:0px;"/><path d="m230.67,210.72c0,.76-.15,1.41-.46,1.95-.3.55-.71.99-1.21,1.34s-1.08.61-1.73.78c-.65.17-1.31.25-1.98.25s-1.34-.08-1.93-.23-1.1-.4-1.54-.74c-.44-.34-.8-.77-1.08-1.29-.28-.53-.46-1.15-.52-1.88h1.43c.01.55.13,1.02.34,1.4.21.38.48.69.82.93.34.24.72.41,1.17.52.44.11.91.16,1.4.16.46,0,.93-.05,1.4-.16.47-.1.89-.27,1.27-.5s.69-.54.92-.92.36-.83.36-1.37c0-.41-.08-.76-.24-1.07-.16-.31-.39-.58-.67-.82-.29-.24-.63-.45-1.03-.63-.4-.18-.84-.35-1.33-.5l-1.11-.36c-.62-.2-1.18-.41-1.7-.63-.52-.22-.97-.49-1.34-.8-.38-.31-.68-.68-.89-1.1-.22-.43-.33-.94-.33-1.52,0-.71.14-1.33.42-1.83.28-.5.66-.92,1.12-1.25.47-.33,1-.57,1.6-.73.6-.15,1.22-.23,1.85-.23.57,0,1.14.06,1.71.18.57.12,1.07.31,1.51.59.44.27.8.64,1.08,1.09.28.46.43,1.02.44,1.69h-1.41c-.04-.46-.16-.85-.35-1.15-.19-.31-.43-.56-.72-.75-.29-.19-.63-.32-1.01-.4-.38-.08-.78-.12-1.2-.12s-.87.05-1.31.16c-.44.1-.84.27-1.19.48-.35.22-.64.5-.86.86-.22.36-.34.79-.34,1.29,0,.74.28,1.33.85,1.77.57.44,1.44.85,2.61,1.23l1.26.4c.62.2,1.16.4,1.64.62.48.22.88.47,1.22.77s.59.64.78,1.05c.18.41.28.9.29,1.47Z" style="fill:#373c74; stroke-width:0px;"/><path d="m235.88,218.84h-1.3l1.68-4.05-4.45-10.54h1.53l3.55,8.88,3.53-8.88h1.28l-5.82,14.6Z" style="fill:#373c74; stroke-width:0px;"/><path d="m250.77,211.83c0,.57-.12,1.06-.35,1.47-.23.41-.53.74-.9,1-.37.26-.8.45-1.28.58-.48.13-.98.19-1.48.19-.55,0-1.05-.06-1.52-.19-.47-.13-.87-.33-1.21-.6-.34-.27-.6-.62-.8-1.03-.2-.41-.29-.91-.29-1.5h1.26c0,.8.24,1.39.72,1.77.48.39,1.11.58,1.89.58.31,0,.62-.04.94-.13s.61-.21.87-.38.47-.38.64-.64c.17-.26.25-.57.25-.93,0-.56-.22-.98-.65-1.26s-1-.52-1.7-.71l-1.11-.32c-.41-.11-.78-.25-1.13-.4-.35-.15-.65-.34-.91-.56-.26-.22-.46-.47-.61-.77s-.22-.65-.22-1.07c0-.52.11-.96.33-1.33.22-.37.5-.67.84-.91s.74-.41,1.18-.53c.44-.11.89-.17,1.35-.17.52,0,.99.06,1.43.18.43.12.82.3,1.14.56.33.25.59.57.78.97.19.39.29.86.3,1.41h-1.28c-.04-.73-.26-1.26-.66-1.59-.4-.33-.96-.49-1.67-.49-.27,0-.54.03-.83.09-.29.06-.55.17-.8.31-.25.15-.44.33-.6.56-.15.22-.23.5-.23.82,0,.52.2.91.6,1.19.4.27.93.5,1.59.68l1.2.34c1.01.28,1.75.63,2.21,1.06s.7,1.01.7,1.75Z" style="fill:#373c74; stroke-width:0px;"/><path d="m257.23,214.91c-.25.02-.49.03-.75.03-1.5,0-2.25-.76-2.25-2.27v-7.48h-2.1v-.95h2.1v-2.18l1.28-.57v2.75h2.37v.95h-2.37v6.91c0,.29.01.55.04.78.03.22.09.41.2.56.1.15.25.26.45.33.2.07.46.1.8.1.13,0,.28-.01.45-.04.17-.03.35-.06.51-.08v1.09c-.25.03-.5.05-.75.07Z" style="fill:#373c74; stroke-width:0px;"/><path d="m260.53,209.75v.25c0,.53.07,1.05.22,1.54s.37.94.66,1.32.66.69,1.11.92c.44.23.96.35,1.55.35.84,0,1.52-.24,2.03-.72.51-.48.84-1.12.98-1.92h1.2c-.22,1.19-.71,2.09-1.46,2.69s-1.72.9-2.92.9c-.81,0-1.51-.14-2.09-.42-.59-.28-1.07-.66-1.45-1.14-.38-.48-.66-1.05-.84-1.7-.18-.65-.27-1.35-.27-2.09s.09-1.48.28-2.16c.19-.69.48-1.29.88-1.81.4-.52.9-.93,1.5-1.23s1.32-.45,2.16-.45,1.53.16,2.08.48.99.75,1.32,1.28.55,1.14.68,1.82c.12.68.19,1.38.19,2.09h-7.81Zm6.53-1.16c0-.46-.07-.91-.2-1.33-.13-.43-.33-.8-.58-1.13s-.57-.59-.96-.78c-.39-.19-.83-.28-1.34-.28-.53,0-1,.11-1.41.32s-.75.49-1.03.83c-.28.34-.5.74-.66,1.2-.16.46-.26.92-.31,1.4h6.49v-.21Z" style="fill:#373c74; stroke-width:0px;"/><path d="m284.88,214.85v-6.41c0-.46-.04-.89-.12-1.28-.08-.39-.22-.73-.42-1.02s-.48-.51-.82-.68c-.34-.17-.77-.25-1.29-.25-.6,0-1.1.1-1.48.29-.39.2-.69.46-.92.8-.23.34-.39.73-.48,1.19s-.14.94-.14,1.46v5.9h-1.28v-6.26c0-.46-.04-.9-.11-1.31s-.2-.77-.39-1.08c-.19-.31-.46-.55-.8-.72-.34-.17-.79-.26-1.33-.26s-1.01.1-1.4.31c-.39.21-.7.49-.95.84-.25.35-.42.75-.54,1.2-.11.45-.17.91-.17,1.39v5.9h-1.28v-8.06c0-.42-.01-.84-.03-1.27-.02-.43-.03-.85-.03-1.27h1.26l.08,1.85c.71-1.3,1.81-1.95,3.28-1.95.88,0,1.59.17,2.12.51s.96.93,1.28,1.75c.36-.8.84-1.38,1.44-1.73.59-.36,1.33-.54,2.19-.54.77,0,1.39.12,1.87.36.48.24.84.57,1.09.99s.42.91.5,1.48c.08.57.13,1.17.13,1.82v6.07h-1.28Z" style="fill:#373c74; stroke-width:0px;"/><path d="m296.52,211.83c0,.57-.12,1.06-.35,1.47-.23.41-.53.74-.9,1-.37.26-.8.45-1.28.58-.48.13-.98.19-1.48.19-.55,0-1.05-.06-1.52-.19-.47-.13-.87-.33-1.21-.6-.34-.27-.6-.62-.8-1.03-.2-.41-.29-.91-.29-1.5h1.26c0,.8.24,1.39.72,1.77.48.39,1.11.58,1.89.58.31,0,.62-.04.94-.13s.61-.21.87-.38.47-.38.64-.64c.17-.26.25-.57.25-.93,0-.56-.22-.98-.65-1.26s-1-.52-1.7-.71l-1.11-.32c-.41-.11-.78-.25-1.13-.4-.35-.15-.65-.34-.91-.56-.26-.22-.46-.47-.61-.77s-.22-.65-.22-1.07c0-.52.11-.96.33-1.33.22-.37.5-.67.84-.91s.74-.41,1.18-.53c.44-.11.89-.17,1.35-.17.52,0,.99.06,1.43.18.43.12.82.3,1.14.56.33.25.59.57.78.97.19.39.29.86.3,1.41h-1.28c-.04-.73-.26-1.26-.66-1.59-.4-.33-.96-.49-1.67-.49-.27,0-.54.03-.83.09-.29.06-.55.17-.8.31-.25.15-.44.33-.6.56-.15.22-.23.5-.23.82,0,.52.2.91.6,1.19.4.27.93.5,1.59.68l1.2.34c1.01.28,1.75.63,2.21,1.06s.7,1.01.7,1.75Z" style="fill:#373c74; stroke-width:0px;"/><path d="m117.56,236.85l-1.72-4.24h-7.69l-1.64,4.24h-1.45l6.19-15.18h1.45l6.45,15.18h-1.6Zm-5.67-13.86l-3.3,8.48h6.76l-3.46-8.48Z" style="fill:#373c74; stroke-width:0px;"/><path d="m128.29,233.83c0,.57-.12,1.06-.35,1.47s-.53.74-.9,1c-.37.26-.8.45-1.28.58-.48.13-.98.19-1.48.19-.55,0-1.05-.06-1.52-.19-.47-.13-.87-.33-1.21-.6-.34-.27-.6-.62-.8-1.03-.2-.41-.29-.91-.29-1.5h1.26c0,.8.24,1.39.72,1.77.48.39,1.11.58,1.89.58.31,0,.62-.04.94-.13s.61-.21.87-.38.47-.38.64-.64.25-.57.25-.93c0-.56-.22-.98-.65-1.26-.43-.28-1-.52-1.7-.71l-1.11-.32c-.4-.11-.78-.25-1.13-.4-.35-.15-.65-.34-.91-.56-.26-.22-.46-.47-.61-.77-.15-.29-.22-.65-.22-1.07,0-.52.11-.96.33-1.33.22-.37.5-.67.84-.91.34-.24.74-.41,1.18-.53.44-.11.89-.17,1.35-.17.52,0,.99.06,1.43.18.43.12.82.3,1.14.56s.59.57.78.97c.19.39.29.86.3,1.41h-1.28c-.04-.73-.26-1.26-.66-1.59-.4-.33-.96-.49-1.67-.49-.27,0-.54.03-.83.09-.29.06-.55.17-.8.31-.25.15-.44.33-.6.56-.15.22-.23.5-.23.82,0,.52.2.91.6,1.19.4.27.93.5,1.59.68l1.2.34c1.01.28,1.75.63,2.22,1.06.47.43.7,1.01.7,1.75Z" style="fill:#373c74; stroke-width:0px;"/><path d="m138.22,233.83c0,.57-.12,1.06-.35,1.47s-.53.74-.9,1c-.37.26-.8.45-1.28.58-.48.13-.98.19-1.48.19-.55,0-1.05-.06-1.52-.19-.47-.13-.87-.33-1.21-.6-.34-.27-.6-.62-.8-1.03-.2-.41-.29-.91-.29-1.5h1.26c0,.8.24,1.39.72,1.77.48.39,1.11.58,1.89.58.31,0,.62-.04.94-.13s.61-.21.87-.38.47-.38.64-.64.25-.57.25-.93c0-.56-.22-.98-.65-1.26-.43-.28-1-.52-1.7-.71l-1.11-.32c-.4-.11-.78-.25-1.13-.4-.35-.15-.65-.34-.91-.56-.26-.22-.46-.47-.61-.77-.15-.29-.22-.65-.22-1.07,0-.52.11-.96.33-1.33.22-.37.5-.67.84-.91.34-.24.74-.41,1.18-.53.44-.11.89-.17,1.35-.17.52,0,.99.06,1.43.18.43.12.82.3,1.14.56s.59.57.78.97c.19.39.29.86.3,1.41h-1.28c-.04-.73-.26-1.26-.66-1.59-.4-.33-.96-.49-1.67-.49-.27,0-.54.03-.83.09-.29.06-.55.17-.8.31-.25.15-.44.33-.6.56-.15.22-.23.5-.23.82,0,.52.2.91.6,1.19.4.27.93.5,1.59.68l1.2.34c1.01.28,1.75.63,2.22,1.06.47.43.7,1.01.7,1.75Z" style="fill:#373c74; stroke-width:0px;"/><path d="m150.12,231.48c0,.74-.11,1.45-.33,2.13-.22.68-.54,1.28-.96,1.79-.42.52-.94.93-1.55,1.23-.62.3-1.32.45-2.12.45s-1.55-.15-2.17-.44c-.62-.29-1.14-.69-1.55-1.2s-.72-1.09-.93-1.77c-.21-.68-.32-1.41-.32-2.19s.11-1.48.33-2.14c.22-.66.54-1.23.96-1.72.42-.49.94-.88,1.55-1.15.62-.28,1.33-.42,2.14-.42s1.53.14,2.15.41c.62.27,1.14.65,1.55,1.14s.72,1.07.93,1.73.31,1.38.31,2.15Zm-1.36-.01c0-.56-.07-1.11-.2-1.64-.13-.53-.35-1-.64-1.41-.29-.41-.67-.73-1.12-.98-.46-.25-1-.37-1.63-.37s-1.17.12-1.63.37c-.46.25-.83.57-1.12.98-.29.41-.51.87-.65,1.4-.14.53-.21,1.08-.21,1.65s.07,1.12.2,1.67c.13.55.35,1.05.64,1.48.29.44.67.79,1.12,1.06.46.27,1,.41,1.65.41s1.17-.14,1.63-.41c.46-.27.83-.63,1.11-1.07.29-.44.5-.94.64-1.49.14-.55.21-1.11.21-1.65Z" style="fill:#373c74; stroke-width:0px;"/><path d="m159.95,236.15c-.75.62-1.71.93-2.89.93-.83,0-1.55-.14-2.16-.41-.62-.27-1.13-.65-1.54-1.13s-.72-1.05-.93-1.71c-.21-.66-.32-1.38-.32-2.16s.1-1.54.32-2.24c.21-.69.52-1.29.94-1.81s.94-.92,1.57-1.22c.63-.3,1.37-.45,2.23-.45,1.16,0,2.11.3,2.83.91.73.61,1.14,1.51,1.24,2.7h-1.24c-.07-.83-.35-1.46-.84-1.91-.49-.45-1.15-.67-1.97-.67-.69,0-1.26.13-1.73.39-.47.26-.85.6-1.14,1.03-.29.43-.51.92-.64,1.48-.13.56-.2,1.14-.2,1.74,0,.56.07,1.11.21,1.64.14.54.36,1.02.65,1.45s.67.77,1.12,1.03c.46.26,1,.39,1.63.39.81,0,1.49-.24,2.04-.72.55-.48.85-1.14.92-1.96h1.2c-.11,1.19-.54,2.1-1.29,2.72Z" style="fill:#373c74; stroke-width:0px;"/><path d="m163.59,223.27v-1.6h1.53v1.6h-1.53Zm.13,13.59v-10.61h1.28v10.61h-1.28Z" style="fill:#373c74; stroke-width:0px;"/><path d="m174.92,236.85c-.03-.25-.06-.51-.08-.77-.03-.26-.06-.51-.08-.77-.45.67-.95,1.13-1.51,1.39-.56.25-1.24.38-2.04.38-.49,0-.96-.06-1.4-.19s-.83-.32-1.18-.57-.62-.57-.82-.97c-.2-.39-.3-.85-.3-1.39,0-.56.1-1.04.3-1.43.2-.39.48-.72.82-.98s.74-.46,1.18-.61c.44-.15.91-.25,1.4-.33s.98-.11,1.47-.13.95-.02,1.39-.02h.55c.01-.13.02-.25.02-.37v-.37c0-.91-.2-1.59-.59-2.05s-1.06-.68-2-.68c-.69,0-1.25.14-1.69.41-.44.27-.7.79-.78,1.54h-1.26c0-.53.11-.98.33-1.35s.5-.67.84-.9c.34-.23.74-.4,1.19-.5.45-.1.91-.16,1.37-.16,1.32,0,2.29.29,2.92.87.62.58.94,1.53.94,2.85v3.15c0,.67.02,1.33.05,1.96.04.64.09,1.29.16,1.96h-1.18Zm-.27-5.42c-.18-.01-.36-.02-.53-.03s-.34-.01-.53-.01c-.45,0-.95.02-1.51.05-.56.04-1.08.14-1.56.3-.48.17-.9.42-1.23.77-.34.34-.51.82-.51,1.42,0,.36.07.69.22.97.15.28.34.51.59.7.25.19.53.33.84.42.32.09.64.14.98.14.76,0,1.35-.14,1.78-.41.43-.27.75-.63.97-1.08s.35-.95.4-1.51c.05-.56.07-1.13.07-1.72Z" style="fill:#373c74; stroke-width:0px;"/><path d="m182.77,236.91c-.25.02-.49.03-.75.03-1.5,0-2.25-.76-2.25-2.27v-7.48h-2.1v-.95h2.1v-2.18l1.28-.57v2.75h2.37v.95h-2.37v6.91c0,.29.01.55.04.78.03.22.09.41.2.56.11.15.26.26.45.33.2.07.46.1.8.1.13,0,.28-.01.45-.04.17-.03.35-.06.51-.08v1.09c-.25.03-.5.05-.75.07Z" style="fill:#373c74; stroke-width:0px;"/><path d="m185.56,223.27v-1.6h1.53v1.6h-1.53Zm.13,13.59v-10.61h1.28v10.61h-1.28Z" style="fill:#373c74; stroke-width:0px;"/><path d="m199.48,231.48c0,.74-.11,1.45-.33,2.13-.22.68-.54,1.28-.96,1.79-.42.52-.94.93-1.55,1.23s-1.32.45-2.12.45-1.55-.15-2.17-.44-1.14-.69-1.55-1.2-.72-1.09-.93-1.77c-.21-.68-.32-1.41-.32-2.19s.11-1.48.33-2.14.54-1.23.96-1.72c.42-.49.94-.88,1.55-1.15.62-.28,1.33-.42,2.14-.42s1.53.14,2.15.41c.62.27,1.14.65,1.55,1.14.41.49.72,1.07.93,1.73.21.67.31,1.38.31,2.15Zm-1.37-.01c0-.56-.07-1.11-.2-1.64s-.35-1-.64-1.41c-.29-.41-.67-.73-1.12-.98-.46-.25-1-.37-1.63-.37s-1.17.12-1.63.37c-.46.25-.83.57-1.12.98-.29.41-.51.87-.65,1.4-.14.53-.21,1.08-.21,1.65s.07,1.12.2,1.67c.13.55.35,1.05.64,1.48.29.44.67.79,1.12,1.06.46.27,1,.41,1.65.41s1.17-.14,1.63-.41c.45-.27.83-.63,1.11-1.07.29-.44.5-.94.64-1.49s.21-1.11.21-1.65Z" style="fill:#373c74; stroke-width:0px;"/><path d="m209.25,236.85v-5.99c0-.49-.02-.96-.07-1.4-.05-.44-.17-.83-.35-1.17s-.45-.6-.81-.8c-.36-.2-.84-.29-1.44-.29s-1.11.11-1.52.33-.75.51-1,.88-.43.8-.55,1.28c-.11.48-.17.98-.17,1.5v5.65h-1.28v-7.6c0-.5-.01-1-.03-1.5-.02-.5-.03-1-.03-1.5h1.26l.08,1.76c.43-.64.92-1.12,1.47-1.42.55-.3,1.21-.45,2-.45.71,0,1.31.1,1.79.29.48.2.86.48,1.14.84.28.36.48.81.6,1.32s.18,1.11.18,1.76v6.49h-1.28Z" style="fill:#373c74; stroke-width:0px;"/></svg>