<svg height="304.354364" viewBox="0 0 94.832123 88.220726" width="328.56437" xmlns="http://www.w3.org/2000/svg" xmlns:xlink="http://www.w3.org/1999/xlink"><clipPath id="a"><path d="m0 842h595.22v-842h-595.22z"/></clipPath><g clip-path="url(#a)" transform="matrix(1.25 0 0 -1.25 -324.5965 570.36063)"><path d="m0 0c-.201-.086-4.337-5.26-5.763-8.571 27.123 11.102 50.521-38.542 30.215-54.805 2.094-.341 7.332-.404 9.767.473.336.204.947.601 1.272.968 16.131 18.146-6.972 67.581-34.799 62.169-.317-.061-.621-.204-.692-.234" fill="#006f9e" transform="translate(269.3838 449.3501)"/><path d="m0 0c-.174.799-5.172 5.65-7.978 6.831 8.28-21.135-39.163-51.302-60.344-39.711 0 0 2.158-2.336 9.218-4.333-2.116-.017-5.84.892-9.543 2.532 2.808-1.924 4.679-3.233 9.642-4.383-2.679-.254-5.892.731-9.155 2.436 1.363-1.218 4.331-3.538 9.155-4.579-2.766-.457-9.545 2.826-9.545 2.826 1.51-1.364 5.315-3.615 8.862-4.286-4.285-.097-8.862 2.532-8.862 2.532 18.406-17.433 72.809 20.555 68.55 40.135" fill="#006f9e" transform="translate(328.3242 449.4575)"/><path d="m0 0c3.084 13.36 16.415 21.69 29.774 18.605 13.361-3.084 21.692-16.416 18.607-29.775-3.084-13.36-16.415-21.689-29.776-18.606-13.36 3.085-21.69 16.416-18.605 29.776" fill="#1a171b" transform="translate(273.3281 429.3169)"/><path d="m0 0c9.171-2.532 21.645-11.993 18.495-22.848m-31.052 23.154c.733-5.923 12.774-5.098 12.661.876-.744 5.912-12.74 5.07-12.661-.876zm-16.997-17.956c-.538 9.376 8.797 15.994 17 17.908m.326-1.08c-9.049-3.972-19.822-15.024-14.993-25.613m4.291-6.294c-8.078 9.468 3.144 25.382 11.37 30.834m1.088-.857c-6.126-6.044-15.751-24.939-8.542-33.155m6.961-3.676c-9.634 3.492-.621 31.005 2.961 36.244m1.55-.328c-1.459-4.685-5.326-33.859-.381-36.772m4.638-.1-2.617 36.8m1.614.297c2.368-5.485 9.62-31.183 5.748-36.366m4.413 1.745c7.588 5.829-4.217 30.092-8.672 35.143m1.284.788c6.93-5.264 19.048-22.414 13.106-31.658m4.289 5.192c4.394 10.642-7.89 23.228-16.487 27.494m20.01-13.34c-.408 9.42-10.987 14.82-19.314 15.608m-.313 1.129c6.258.579 14.784-1.63 17.367-8.016m-4.307 6.542c-3.504 3.672-9.133 3.77-13.727 2.531m-1.071.842c2.777 1.569 6.718 2.561 9.645.792m-5.071 2.337c-2.259.665-4.442-1.056-5.957-2.525m-1.533.328.635 1.365.547.863.533.61.491.329.508.082m-4.602.117.231-3.278m-1.646-.284-.804 1.233-.661.777-.615.534-.563.256-.483.013m-4.583-1.701c2.041.968 4.595-.435 6.205-1.651m-1.25-.818c-3.1 1.122-6.896 1.655-9.678-.546m-4.503-4.951c2.559 4.176 8.765 5.15 13.239 4.515m-.559-1.142c-6.537-.388-14.065-3.547-16.134-10.33m39.122-25.848c-8.632-6.386-23.357-6.809-31.695.292m-6.074 7.954c8.078-15.957 40.708-13.515 45.632 3.655m.988 8.508c.704-11.598-13.21-18.488-23.22-18.918-10.165-.897-24.564 3.847-25.737 15.59m.522 4.51c1.325-12.452 17.683-16.712 28.13-14.648 10.241 1.243 23.74 11.051 17.797 22.623" style="fill:none;stroke:#fff;stroke-width:.216;stroke-linecap:round;stroke-linejoin:round;stroke-miterlimit:3.864" transform="translate(302.5859 439.772)"/><path d="m0 0-.271-1.014-.197-1.179-.089-1.171.006-1.18" style="fill:none;stroke:#fff;stroke-width:.214;stroke-linecap:round;stroke-linejoin:round;stroke-miterlimit:3.864" transform="translate(274.1045 431.1763)"/><path d="m0 0c-.299 3.685 1.508 7.239 4.048 9.805m33.865 1.505c10.105-9.272 1.825-20.519-9.151-23.643-9.973-3.327-27.303-.19-28.762 12.333m3.638 3.842c2.157-16.133 34.73-13.899 34.633 2.395-2.195 16.146-34.713 13.937-34.633-2.395zm4.872 3.101c-.053 11.533 22.935 13.108 24.499 1.697.049-11.578-22.992-13.086-24.499-1.697z" style="fill:none;stroke:#fff;stroke-width:.216;stroke-linecap:round;stroke-linejoin:round;stroke-miterlimit:3.864" transform="translate(275.7217 430.9917)"/><path d="m0 0-.024.106-.115.321-.225.543-.592 1.544.117.318.023.343-.025.573-.225.544-.404.423-.183.826-.349.753-.108.21-.103.134c-1.537 1.582-1.183 5.095-1.037 7.182l.048.205.039.097.228.745.56 1.546.819.755.307.069.484-.246.625.634.494-.153.417.278.186-1.106.661-.312 1.084-1.463.224-.093.151-.363-.253-.172-.092-.457-.471-.159.088-.598.559-1.066-.059-.484.507-1.006.253-.06.246.483.614-.098.556-1.033 2.388-1.622-.016-.87-.402-.479-.199 1.042-.067-.595.419-2.176-.12-.288.324-.616-.023-1.213.317-.506.375-1.138 1.018-1.406.115-.302-.322-.07.288-.105.412-.546 2.588-.256-.093-.457-.386-.711-.905-1.072-.674-.357-1.532-.604-.693-.545-.114-.381.793-1.297.35-1.203-1.524-.043.701-.883-.418-.03-.094-.209c-2.906 1.729-4.836 3.486-6.591 6.444" fill="#fff" transform="translate(276.5879 412.5635)"/><path d="m0 0-.024.106-.115.321-.225.543-.592 1.544.117.318.023.343-.025.573-.225.544-.404.423-.183.826-.349.753-.108.21-.103.134c-1.537 1.582-1.183 5.095-1.037 7.182l.048.205.039.097.228.745.56 1.546.819.755.307.069.484-.246.625.634.494-.153.417.278.186-1.106.661-.312 1.084-1.463.224-.093.151-.363-.253-.172-.092-.457-.471-.159.088-.598.559-1.066-.059-.484.507-1.006.253-.06.246.483.614-.098.556-1.033 2.388-1.622-.016-.87-.402-.479-.199 1.042-.067-.595.419-2.176-.12-.288.324-.616-.023-1.213.317-.506.375-1.138 1.018-1.406.115-.302-.322-.07.288-.105.412-.546 2.588-.256-.093-.457-.386-.711-.905-1.072-.674-.357-1.532-.604-.693-.545-.114-.381.793-1.297.35-1.203-1.524-.043.701-.883-.418-.03-.094-.209c-2.906 1.729-4.836 3.486-6.591 6.444z" style="fill:none;stroke:#fff;stroke-width:.046;stroke-linecap:round;stroke-linejoin:round;stroke-miterlimit:3.864" transform="translate(276.5879 412.5635)"/><path d="m0 0 .41-.516 1.288.711.21-.094.519.813-.107.194.458 1.229.285.159-.318.087-.185.64.433.698-.706.076-.5-1.077-.363-.367-.309-.72-1.008-.925.011-.154-.178-.121" fill="#fff" transform="translate(312.3438 410.3301)"/><path d="m0 0 .41-.516 1.288.711.21-.094.519.813-.107.194.458 1.229.285.159-.318.087-.185.64.433.698-.706.076-.5-1.077-.363-.367-.309-.72-1.008-.925.011-.154-.178-.121z" style="fill:none;stroke:#fff;stroke-width:.046;stroke-linecap:round;stroke-linejoin:round;stroke-miterlimit:3.864" transform="translate(312.3438 410.3301)"/><path d="m0 0 .12.941-.669-.668-.107.21-.221-.419-.41.081.276.718.369.289.061-.43.202.014.467 1.322.536.564.84.898.145-.285-.256-.763-.308-.301-.509-1.388" fill="#fff" transform="translate(319.8477 414.9814)"/><path d="m0 0 .12.941-.669-.668-.107.21-.221-.419-.41.081.276.718.369.289.061-.43.202.014.467 1.322.536.564.84.898.145-.285-.256-.763-.308-.301-.509-1.388z" style="fill:none;stroke:#fff;stroke-width:.046;stroke-linecap:round;stroke-linejoin:round;stroke-miterlimit:3.864" transform="translate(319.8477 414.9814)"/><path d="m0 0c-5.319.954-13.2-.401-17.235-4.021l1.474.725 1.076.866-.443-.558-1.214-.893-.279-.453.131-.085 2.169 1.052 1.157.141-.202.219.836.509.358-.239 1.627.562-.433.391-1.258.191.585.321.856-.003 2.529.565.645-.08.081-.26-.6-.352-.438-.605-.35-.148-.2-.232.248-.216.731.02.512.456.508-.137.477-.34.046.003.05.376-.54.165.153.259 1.145.111.652-.188.625.183.84-.004.121-.163 1.456-.535 1.208.084.642-.501 1.019-.738.202-.435 1.882-.617.143.369.902-.405.199.263-.647.546.451.015 1.222-.552.431.526-.869.624 2.016-.761-.577.425-1.57.654-1.812.496-.253.278-1.069.826-.451-.015-.021.279-.334.333.12.056-.311.242-.946.369.953-.042" fill="#fff" transform="translate(301.3174 448.0356)"/><path d="m0 0c-5.319.954-13.2-.401-17.235-4.021l1.474.725 1.076.866-.443-.558-1.214-.893-.279-.453.131-.085 2.169 1.052 1.157.141-.202.219.836.509.358-.239 1.627.562-.433.391-1.258.191.585.321.856-.003 2.529.565.645-.08.081-.26-.6-.352-.438-.605-.35-.148-.2-.232.248-.216.731.02.512.456.508-.137.477-.34.046.003.05.376-.54.165.153.259 1.145.111.652-.188.625.183.84-.004.121-.163 1.456-.535 1.208.084.642-.501 1.019-.738.202-.435 1.882-.617.143.369.902-.405.199.263-.647.546.451.015 1.222-.552.431.526-.869.624 2.016-.761-.577.425-1.57.654-1.812.496-.253.278-1.069.826-.451-.015-.021.279-.334.333.12.056-.311.242-.946.369.953-.042z" style="fill:none;stroke:#fff;stroke-width:.046;stroke-linecap:round;stroke-linejoin:round;stroke-miterlimit:3.864" transform="translate(301.3174 448.0356)"/><path d="m0 0 .07-.104-.261-.5-.213-.062-.101-.332" fill="#fff" transform="translate(285.668 430.8267)"/><path d="m0 0 .07-.104-.261-.5-.213-.062-.101-.332z" fill="none" stroke="#fff" stroke-miterlimit="3.864" stroke-width=".162" transform="translate(285.668 430.8267)"/><path d="m0 0 .07-.104-.261-.5-.213-.062-.101-.332" style="fill:none;stroke:#fff;stroke-width:.046;stroke-linecap:round;stroke-linejoin:round;stroke-miterlimit:3.864" transform="translate(285.668 430.8267)"/><path d="m0 0-.146-.384-.646-.309-.235-.203.048-.246.386-.391.441-.064-.027-.716-.228-.512.297-.244-.528-.472-.491-.313.005-.296.049-.477-.325.194-.491-.111.093.239-.306.352-.182-.276-.295.414-.333-.568.192-.514-.095-.194-.16.487-.33.256.048.657-.03.432.308.488-.07.337-.169.828.166.756-.191.049.121.274-.248.2-.28-.44-.11-1.094.253-1.367-.292.384-.196-.525-.441-.187.394.835-.224 1.617.233.684-.091.413-.314.04-.363.053-.339.599-.2-.231-.16-.167-.965-.006-.118-.318-.647-.091-.208.514-.253.059.146.803-.115.303.362.599.823.679.284.407.252-.044.365-1.42.871.683.33 1.28.59-.207.098-.507.741.099.114-.069.749.207.188-.251.667.248.565.629.47-.061-.37-.259-.001-.217-.327-.006-.265-.205.26-.605-.016-.435.824-.193.15-.361.443-.544" fill="#fff" transform="translate(285.1631 429.8286)"/><path d="m0 0-.146-.384-.646-.309-.235-.203.048-.246.386-.391.441-.064-.027-.716-.228-.512.297-.244-.528-.472-.491-.313.005-.296.049-.477-.325.194-.491-.111.093.239-.306.352-.182-.276-.295.414-.333-.568.192-.514-.095-.194-.16.487-.33.256.048.657-.03.432.308.488-.07.337-.169.828.166.756-.191.049.121.274-.248.2-.28-.44-.11-1.094.253-1.367-.292.384-.196-.525-.441-.187.394.835-.224 1.617.233.684-.091.413-.314.04-.363.053-.339.599-.2-.231-.16-.167-.965-.006-.118-.318-.647-.091-.208.514-.253.059.146.803-.115.303.362.599.823.679.284.407.252-.044.365-1.42.871.683.33 1.28.59-.207.098-.507.741.099.114-.069.749.207.188-.251.667.248.565.629.47-.061-.37-.259-.001-.217-.327-.006-.265-.205.26-.605-.016-.435.824-.193.15-.361.443-.544z" fill="none" stroke="#fff" stroke-miterlimit="3.864" stroke-width=".162" transform="translate(285.1631 429.8286)"/><path d="m0 0-.146-.384-.646-.309-.235-.203.048-.246.386-.391.441-.064-.027-.716-.228-.512.297-.244-.528-.472-.491-.313.005-.296.049-.477-.325.194-.491-.111.093.239-.306.352-.182-.276-.295.414-.333-.568.192-.514-.095-.194-.16.487-.33.256.048.657-.03.432.308.488-.07.337-.169.828.166.756-.191.049.121.274-.248.2-.28-.44-.11-1.094.253-1.367-.292.384-.196-.525-.441-.187.394.835-.224 1.617.233.684-.091.413-.314.04-.363.053-.339.599-.2-.231-.16-.167-.965-.006-.118-.318-.647-.091-.208.514-.253.059.146.803-.115.303.362.599.823.679.284.407.252-.044.365-1.42.871.683.33 1.28.59-.207.098-.507.741.099.114-.069.749.207.188-.251.667.248.565.629.47-.061-.37-.259-.001-.217-.327-.006-.265-.205.26-.605-.016-.435.824-.193.15-.361.443-.544" style="fill:none;stroke:#fff;stroke-width:.046;stroke-linecap:round;stroke-linejoin:round;stroke-miterlimit:3.864" transform="translate(285.1631 429.8286)"/><path d="m0 0-.443.544.543.255-.037-.158.248.25.407.417.158-.037.032-.449.29.302.146.133-.132.1.198.293.44-.062.318-.32.455-.046-.175.284.1.131-.175.05-.874.25.127.178-.128.272.713.717 1.01.242.108.458-.321.133-.423-.403-1.034-.134-.534-.596-.067-.377-.192-.154-.448-.046-.797-.615-.23.17-.237-.171-.152.175.917 1.339.164.321-.266-.205-.613.082.044.486 1.101.946.903-.234 1.963.665.859.168.424-.25.743.051.015-.651.228-.14.554-1.22-.625-.416.063-.228.712-.168.417.929.438-.467 1.008.271.083-.289 1.101.512 1.014-.691.139.243-.301.941.392.634.394-.066-.09-.489-.319-1.871.386-.175.425.589-.129 1.171.482.671.832-.751-.074.602-.499.665.653.231-.205.249.561.678.685.435-.018.465 1.237-.086.179-.33-.241-1.213.831 1.022.69.141-.077.429.703.189.559.039.617.291-.001.232-.492.356.546.643.679.094.017.638.678.11-.453 1.553.628 1.472.88-.342.134-.785.32-.349.804.086-.091-.255 1.374-1.149-.199-.261c.916-1.757 2.099-.679 3.559-3.437l-2.092.959-1.518 1.868-.233-.015.366-.549-.463-.281.645-.748.263.033.025-.588-.439-.17-.236-1.073.815-2.276.652.247.011.297.48.034 1.459-1.485.83-2.49-.051-.595-.418-.027.085-.555.001-.014-.083.086-.087.336-.4.376-.01.341.205.201-.731 1.317-.295-.907-.424.283-.665-.294-.965.662-.285.073-.459-.125-.356-.474-.008-.312.289-.135.231-.853-.143-.383-.4-.075-.044-.034-.365-.133-.172-.434-.557-.487-.047-.004-1.38-.08-.427-.339-.443.324-.733.013-.189-.417.181-.577-.712-.283-.229.155-.629-.121-.868-.947-.147-.119-.34-.257.039-.555-.179-.121-.577.022-.034-.842-.684-.264.278-.604-.032-.436-.034-.173-1.156-.825-.453.013-.282-.205-.044-.252-.043-.266.369-.161.019-.48-.426.064-.597-.353-.053.524-.219.234-.535-.581-.479-.048-.415.141-.336.118-.257-.112-.159-.383-.471-.172-.153-.245-.43.126-.058.152-.024.355-1.279.906-1.03-.197-.029-.25-.782.039-.745.632-.014.418-.246.186.136.056-.068.307-.475-.126-.136-.041-.297.444-.051.061-.202.652-.111.258-.339.162.107.489-.231.388-.621 1.075.596.152-.082.289.43.092-.205.032-.706.076-.243-.095-.309.197.16-.517.399-.128-.098-.147-.245.154-.475-.112-.165.58.382.105-.38.299.109.225-.47.03-.306-.285-.297.244.228.512.027.716-.441.064-.386.391-.048.246.235.203.647.309.145.384.101.332.213.062.261.5" fill="#fff" transform="translate(285.668 430.8267)"/><path d="m0 0-.443.544.543.255-.037-.158.248.25.407.417.158-.037.032-.449.29.302.146.133-.132.1.198.293.44-.062.318-.32.455-.046-.175.284.1.131-.175.05-.874.25.127.178-.128.272.713.717 1.01.242.108.458-.321.133-.423-.403-1.034-.134-.534-.596-.067-.377-.192-.154-.448-.046-.797-.615-.23.17-.237-.171-.152.175.917 1.339.164.321-.266-.205-.613.082.044.486 1.101.946.903-.234 1.963.665.859.168.424-.25.743.051.015-.651.228-.14.554-1.22-.625-.416.063-.228.712-.168.417.929.438-.467 1.008.271.083-.289 1.101.512 1.014-.691.139.243-.301.941.392.634.394-.066-.09-.489-.319-1.871.386-.175.425.589-.129 1.171.482.671.832-.751-.074.602-.499.665.653.231-.205.249.561.678.685.435-.018.465 1.237-.086.179-.33-.241-1.213.831 1.022.69.141-.077.429.703.189.559.039.617.291-.001.232-.492.356.546.643.679.094.017.638.678.11-.453 1.553.628 1.472.88-.342.134-.785.32-.349.804.086-.091-.255 1.374-1.149-.199-.261c.916-1.757 2.099-.679 3.559-3.437l-2.092.959-1.518 1.868-.233-.015.366-.549-.463-.281.645-.748.263.033.025-.588-.439-.17-.236-1.073.815-2.276.652.247.011.297.48.034 1.459-1.485.83-2.49-.051-.595-.418-.027.085-.555.001-.014-.083.086-.087.336-.4.376-.01.341.205.201-.731 1.317-.295-.907-.424.283-.665-.294-.965.662-.285.073-.459-.125-.356-.474-.008-.312.289-.135.231-.853-.143-.383-.4-.075-.044-.034-.365-.133-.172-.434-.557-.487-.047-.004-1.38-.08-.427-.339-.443.324-.733.013-.189-.417.181-.577-.712-.283-.229.155-.629-.121-.868-.947-.147-.119-.34-.257.039-.555-.179-.121-.577.022-.034-.842-.684-.264.278-.604-.032-.436-.034-.173-1.156-.825-.453.013-.282-.205-.044-.252-.043-.266.369-.161.019-.48-.426.064-.597-.353-.053.524-.219.234-.535-.581-.479-.048-.415.141-.336.118-.257-.112-.159-.383-.471-.172-.153-.245-.43.126-.058.152-.024.355-1.279.906-1.03-.197-.029-.25-.782.039-.745.632-.014.418-.246.186.136.056-.068.307-.475-.126-.136-.041-.297.444-.051.061-.202.652-.111.258-.339.162.107.489-.231.388-.621 1.075.596.152-.082.289.43.092-.205.032-.706.076-.243-.095-.309.197.16-.517.399-.128-.098-.147-.245.154-.475-.112-.165.58.382.105-.38.299.109.225-.47.03-.306-.285-.297.244.228.512.027.716-.441.064-.386.391-.048.246.235.203.647.309.145.384.101.332.213.062.261.5z" style="fill:none;stroke:#fff;stroke-width:.046;stroke-linecap:round;stroke-linejoin:round;stroke-miterlimit:3.864" transform="translate(285.668 430.8267)"/><path d="m0 0-.087.336-.399.376-.01.341.204.201-.73 1.316-.295-.906-.424.282-.665-.294-.966.662-.284.074-.459-.125-.357-.474-.007-.312.289-.135.23-.854-.143-.383-.4-.075-.044-.033-.364-.134-.173-.433-.557-.488-.047-.004-1.379-.08-.427-.338-.444.324-.733.012-.188-.417.18-.577-.712-.283-.228.155-.63-.121-.867-.946-.148-.119-.34-.257.04-.556-.179-.121-.577.023-.034-.842-.684-.265.277-.603-.032-.437-.033-.173-1.156-.825-.454.014-.282-.205-.044-.252-.043-.267.369-.161.019-.479-.426.063-.596-.352-.053.524-.22.233-.535-.581-.479-.048-.415.142-.336.117-.256-.111-.16-.384-.47-.171-.154-.245-.429.126-.059.152-.023.355-1.28.905-1.03-.196-.028-.25-.782.039-.746.632-.013.418-.246.185.135.057-.068.307-.475-.126-.135-.041-.297.444-.052.06-.202.653-.11.258-.339.162-.409-.153-1.023.582-.19.485-.513.212-.648-.091-.414.345.052-.291-.937.275-.329-.643.17-.222-.175-.587.539-.569.3.162.465-.652.975-.119c-.594-1.985-1.482-.932-1.284-2.76l.03.002-.231-.467.145-.084.684-2.175.038-1.192.486-.713.486-1.38-.065-.408.262-1.039.492-.154 1.478.026 1.371.22.336.318.749-.026 1.125.607.846 1.237-1.248 1.142-.021.31.091.224-.153-.026-.825-.663-.79.162-.129.27.106.49-.102.118-.228-.513-.651 1.726-.013.62.206-.047.113.178.746-1.316 1.067-.78.692.14.325-.63 1.586-.418 1.855-.042.609-.658.954-1.162.808.446.653-2.395 1.375-2.282.47-.263.826.865.016 1.99.721.391 1.016 1.252.472.359.177.602.743.27.605.695.297-.012.403-.625.968-.709.124-.878.433.046.411.789.42-.203.596-1.154.206-.95-.043-.717.802-.304.23-.636.334-.318.834-.113.262.266-.349.302-.071.556-.51.166-.646.127-.366.534-.139 1.544 1.121-.234.284-.276.334.117.222-.031.111-.489.481.918.716.874-.395 1.199-1.41.773.167.741.348.552.505.345.311-.412-.033.464.699.686.078.44.796.63.47 1.508-.157.455.216.901-.146.752-.34.628-.914.589-.343-.007-.048.679.363.6-.08.26-.456-.172-.303-.55-.669.435.46 1.43.225-.124.166-.797.38 1.021.322.069.186-.64.433.248.663-1.212.332.597-.019.682-.803.567-.328.023-.141.24.116.784-.22.669" fill="#fff" transform="translate(312.1025 429.3921)"/><path d="m0 0-.087.336-.399.376-.01.341.204.201-.73 1.316-.295-.906-.424.282-.665-.294-.966.662-.284.074-.459-.125-.357-.474-.007-.312.289-.135.23-.854-.143-.383-.4-.075-.044-.033-.364-.134-.173-.433-.557-.488-.047-.004-1.379-.08-.427-.338-.444.324-.733.012-.188-.417.18-.577-.712-.283-.228.155-.63-.121-.867-.946-.148-.119-.34-.257.04-.556-.179-.121-.577.023-.034-.842-.684-.265.277-.603-.032-.437-.033-.173-1.156-.825-.454.014-.282-.205-.044-.252-.043-.267.369-.161.019-.479-.426.063-.596-.352-.053.524-.22.233-.535-.581-.479-.048-.415.142-.336.117-.256-.111-.16-.384-.47-.171-.154-.245-.429.126-.059.152-.023.355-1.28.905-1.03-.196-.028-.25-.782.039-.746.632-.013.418-.246.185.135.057-.068.307-.475-.126-.135-.041-.297.444-.052.06-.202.653-.11.258-.339.162-.409-.153-1.023.582-.19.485-.513.212-.648-.091-.414.345.052-.291-.937.275-.329-.643.17-.222-.175-.587.539-.569.3.162.465-.652.975-.119c-.594-1.985-1.482-.932-1.284-2.76l.03.002-.231-.467.145-.084.684-2.175.038-1.192.486-.713.486-1.38-.065-.408.262-1.039.492-.154 1.478.026 1.371.22.336.318.749-.026 1.125.607.846 1.237-1.248 1.142-.021.31.091.224-.153-.026-.825-.663-.79.162-.129.27.106.49-.102.118-.228-.513-.651 1.726-.013.62.206-.047.113.178.746-1.316 1.067-.78.692.14.325-.63 1.586-.418 1.855-.042.609-.658.954-1.162.808.446.653-2.395 1.375-2.282.47-.263.826.865.016 1.99.721.391 1.016 1.252.472.359.177.602.743.27.605.695.297-.012.403-.625.968-.709.124-.878.433.046.411.789.42-.203.596-1.154.206-.95-.043-.717.802-.304.23-.636.334-.318.834-.113.262.266-.349.302-.071.556-.51.166-.646.127-.366.534-.139 1.544 1.121-.234.284-.276.334.117.222-.031.111-.489.481.918.716.874-.395 1.199-1.41.773.167.741.348.552.505.345.311-.412-.033.464.699.686.078.44.796.63.47 1.508-.157.455.216.901-.146.752-.34.628-.914.589-.343-.007-.048.679.363.6-.08.26-.456-.172-.303-.55-.669.435.46 1.43.225-.124.166-.797.38 1.021.322.069.186-.64.433.248.663-1.212.332.597-.019.682-.803.567-.328.023-.141.24.116.784-.22.669z" style="fill:none;stroke:#fff;stroke-width:.046;stroke-linecap:round;stroke-linejoin:round;stroke-miterlimit:3.864" transform="translate(312.1025 429.3921)"/><path d="m0 0 .062-.214-.155-.025-.089.366" fill="#fff" transform="translate(306.2803 443.2524)"/><path d="m0 0 .062-.214-.155-.025-.089.366z" fill="none" stroke="#fff" stroke-miterlimit="3.864" stroke-width=".162" transform="translate(306.2803 443.2524)"/><path d="m0 0 .062-.214-.155-.025-.089.366" fill="#fff" transform="translate(306.2803 443.2524)"/><path d="m0 0 .062-.214-.155-.025-.089.366z" style="fill:none;stroke:#fff;stroke-width:.046;stroke-linecap:round;stroke-linejoin:round;stroke-miterlimit:3.864" transform="translate(306.2803 443.2524)"/><path d="m0 0 .457.356-.233.217-1.221-.348.643-.297" fill="#fff" transform="translate(298.2871 445.0776)"/><path d="m0 0 .457.356-.233.217-1.221-.348.643-.297z" fill="none" stroke="#fff" stroke-miterlimit="3.864" stroke-width=".162" transform="translate(298.2871 445.0776)"/><path d="m0 0 .457.356-.233.217-1.221-.348.643-.297" fill="#fff" transform="translate(298.2871 445.0776)"/><path d="m0 0 .457.356-.233.217-1.221-.348.643-.297z" style="fill:none;stroke:#fff;stroke-width:.046;stroke-linecap:round;stroke-linejoin:round;stroke-miterlimit:3.864" transform="translate(298.2871 445.0776)"/><path d="m0 0 .339-.163.086-.336-.683-.265-.566.085-.401-.057-.293.398-.571.148.326.24.534-.072 1.032.164" fill="#fff" transform="translate(297.4668 446.1069)"/><path d="m0 0 .339-.163.086-.336-.683-.265-.566.085-.401-.057-.293.398-.571.148.326.24.534-.072 1.032.164z" fill="none" stroke="#fff" stroke-miterlimit="3.864" stroke-width=".162" transform="translate(297.4668 446.1069)"/><path d="m0 0 .339-.163.086-.336-.683-.265-.566.085-.401-.057-.293.398-.571.148.326.24.534-.072 1.032.164" fill="#fff" transform="translate(297.4668 446.1069)"/><path d="m0 0 .339-.163.086-.336-.683-.265-.566.085-.401-.057-.293.398-.571.148.326.24.534-.072 1.032.164z" style="fill:none;stroke:#fff;stroke-width:.046;stroke-linecap:round;stroke-linejoin:round;stroke-miterlimit:3.864" transform="translate(297.4668 446.1069)"/><path d="m0 0 .37-.161-.234-.218-.371-.041-.227.357.239.141" fill="#fff" transform="translate(295.3408 445.5562)"/><path d="m0 0 .37-.161-.234-.218-.371-.041-.227.357.239.141z" fill="none" stroke="#fff" stroke-miterlimit="3.864" stroke-width=".162" transform="translate(295.3408 445.5562)"/><path d="m0 0 .37-.161-.234-.218-.371-.041-.227.357.239.141" fill="#fff" transform="translate(295.3408 445.5562)"/><path d="m0 0 .37-.161-.234-.218-.371-.041-.227.357.239.141z" style="fill:none;stroke:#fff;stroke-width:.046;stroke-linecap:round;stroke-linejoin:round;stroke-miterlimit:3.864" transform="translate(295.3408 445.5562)"/><path d="m0 0 .363.165-.512-.005-.136-.07" fill="#fff" transform="translate(294.7705 445.9048)"/><path d="m0 0 .363.165-.512-.005-.136-.07z" fill="none" stroke="#fff" stroke-miterlimit="3.864" stroke-width=".162" transform="translate(294.7705 445.9048)"/><path d="m0 0 .363.165-.512-.005-.136-.07" fill="#fff" transform="translate(294.7705 445.9048)"/><path d="m0 0 .363.165-.512-.005-.136-.07z" style="fill:none;stroke:#fff;stroke-width:.046;stroke-linecap:round;stroke-linejoin:round;stroke-miterlimit:3.864" transform="translate(294.7705 445.9048)"/><path d="m0 0-.016.216.264.018.271-.089-.08-.193-.121-.055" fill="#fff" transform="translate(295.3252 444.6851)"/><path d="m0 0-.016.216.264.018.271-.089-.08-.193-.121-.055z" fill="none" stroke="#fff" stroke-miterlimit="3.864" stroke-width=".162" transform="translate(295.3252 444.6851)"/><path d="m0 0-.016.216.264.018.271-.089-.08-.193-.121-.055" fill="#fff" transform="translate(295.3252 444.6851)"/><path d="m0 0-.016.216.264.018.271-.089-.08-.193-.121-.055z" style="fill:none;stroke:#fff;stroke-width:.046;stroke-linecap:round;stroke-linejoin:round;stroke-miterlimit:3.864" transform="translate(295.3252 444.6851)"/><path d="m0 0 .184.06.172-.237" fill="#fff" transform="translate(295.2168 444.2271)"/><path d="m0 0 .184.06.172-.237z" fill="none" stroke="#fff" stroke-miterlimit="3.864" stroke-width=".162" transform="translate(295.2168 444.2271)"/><path d="m0 0 .184.06.172-.237" fill="#fff" transform="translate(295.2168 444.2271)"/><path d="m0 0 .184.06.172-.237z" style="fill:none;stroke:#fff;stroke-width:.046;stroke-linecap:round;stroke-linejoin:round;stroke-miterlimit:3.864" transform="translate(295.2168 444.2271)"/><path d="m0 0-.047.213.428-.094.106-.179" fill="#fff" transform="translate(295.709 444.106)"/><path d="m0 0-.047.213.428-.094.106-.179z" fill="none" stroke="#fff" stroke-miterlimit="3.864" stroke-width=".162" transform="translate(295.709 444.106)"/><path d="m0 0-.047.213.428-.094.106-.179" fill="#fff" transform="translate(295.709 444.106)"/><path d="m0 0-.047.213.428-.094.106-.179z" style="fill:none;stroke:#fff;stroke-width:.046;stroke-linecap:round;stroke-linejoin:round;stroke-miterlimit:3.864" transform="translate(295.709 444.106)"/><path d="m0 0-.134-.087-.294.197.093.224.787.102.387-.192-.34-.256" fill="#fff" transform="translate(296.5869 444.6792)"/><path d="m0 0-.134-.087-.294.197.093.224.787.102.387-.192-.34-.256z" fill="none" stroke="#fff" stroke-miterlimit="3.864" stroke-width=".162" transform="translate(296.5869 444.6792)"/><path d="m0 0-.134-.087-.294.197.093.224.787.102.387-.192-.34-.256" fill="#fff" transform="translate(296.5869 444.6792)"/><path d="m0 0-.134-.087-.294.197.093.224.787.102.387-.192-.34-.256z" style="fill:none;stroke:#fff;stroke-width:.046;stroke-linecap:round;stroke-linejoin:round;stroke-miterlimit:3.864" transform="translate(296.5869 444.6792)"/><path d="m0 0-.435-.03.571.302.226-.124" fill="#fff" transform="translate(297.5342 444.4966)"/><path d="m0 0-.435-.03.571.302.226-.124z" fill="none" stroke="#fff" stroke-miterlimit="3.864" stroke-width=".162" transform="translate(297.5342 444.4966)"/><path d="m0 0-.435-.03.571.302.226-.124" fill="#fff" transform="translate(297.5342 444.4966)"/><path d="m0 0-.435-.03.571.302.226-.124z" style="fill:none;stroke:#fff;stroke-width:.046;stroke-linecap:round;stroke-linejoin:round;stroke-miterlimit:3.864" transform="translate(297.5342 444.4966)"/><path d="m0 0-.187.003.222.156.101-.103" fill="#fff" transform="translate(296.7207 444.3306)"/><path d="m0 0-.187.003.222.156.101-.103z" fill="none" stroke="#fff" stroke-miterlimit="3.864" stroke-width=".162" transform="translate(296.7207 444.3306)"/><path d="m0 0-.187.003.222.156.101-.103" fill="#fff" transform="translate(296.7207 444.3306)"/><path d="m0 0-.187.003.222.156.101-.103z" style="fill:none;stroke:#fff;stroke-width:.046;stroke-linecap:round;stroke-linejoin:round;stroke-miterlimit:3.864" transform="translate(296.7207 444.3306)"/><path d="m0 0 .029-.185-.893.296.178.121-.077.212.275.081.407-.252" fill="#fff" transform="translate(295.4629 443.6069)"/><path d="m0 0 .029-.185-.893.296.178.121-.077.212.275.081.407-.252z" fill="none" stroke="#fff" stroke-miterlimit="3.864" stroke-width=".162" transform="translate(295.4629 443.6069)"/><path d="m0 0 .029-.185-.893.296.178.121-.077.212.275.081.407-.252" fill="#fff" transform="translate(295.4629 443.6069)"/><path d="m0 0 .029-.185-.893.296.178.121-.077.212.275.081.407-.252z" style="fill:none;stroke:#fff;stroke-width:.046;stroke-linecap:round;stroke-linejoin:round;stroke-miterlimit:3.864" transform="translate(295.4629 443.6069)"/><path d="m0 0 .165.088-.405.019-.32.32-1.249-.382.354-.177.693.328.138-.178" fill="#fff" transform="translate(295.1406 444.4243)"/><path d="m0 0 .165.088-.405.019-.32.32-1.249-.382.354-.177.693.328.138-.178z" fill="none" stroke="#fff" stroke-miterlimit="3.864" stroke-width=".162" transform="translate(295.1406 444.4243)"/><path d="m0 0 .165.088-.405.019-.32.32-1.249-.382.354-.177.693.328.138-.178" fill="#fff" transform="translate(295.1406 444.4243)"/><path d="m0 0 .165.088-.405.019-.32.32-1.249-.382.354-.177.693.328.138-.178z" style="fill:none;stroke:#fff;stroke-width:.046;stroke-linecap:round;stroke-linejoin:round;stroke-miterlimit:3.864" transform="translate(295.1406 444.4243)"/><path d="m0 0-.228.156.343-.009" fill="#fff" transform="translate(295.0107 444.7095)"/><path d="m0 0-.228.156.343-.009z" fill="none" stroke="#fff" stroke-miterlimit="3.864" stroke-width=".162" transform="translate(295.0107 444.7095)"/><path d="m0 0-.228.156.343-.009" fill="#fff" transform="translate(295.0107 444.7095)"/><path d="m0 0-.228.156.343-.009z" style="fill:none;stroke:#fff;stroke-width:.046;stroke-linecap:round;stroke-linejoin:round;stroke-miterlimit:3.864" transform="translate(295.0107 444.7095)"/><path d="m0 0-.554-.085.371.477" fill="#fff" transform="translate(294.8936 445.0435)"/><path d="m0 0-.554-.085.371.477z" fill="none" stroke="#fff" stroke-miterlimit="3.864" stroke-width=".162" transform="translate(294.8936 445.0435)"/><path d="m0 0-.554-.085.371.477" fill="#fff" transform="translate(294.8936 445.0435)"/><path d="m0 0-.554-.085.371.477z" style="fill:none;stroke:#fff;stroke-width:.046;stroke-linecap:round;stroke-linejoin:round;stroke-miterlimit:3.864" transform="translate(294.8936 445.0435)"/><path d="m0 0-1.239-.101 1.153.437" fill="#fff" transform="translate(292.6738 446.0552)"/><path d="m0 0-1.239-.101 1.153.437z" fill="none" stroke="#fff" stroke-miterlimit="3.864" stroke-width=".162" transform="translate(292.6738 446.0552)"/><path d="m0 0-1.239-.101 1.153.437" fill="#fff" transform="translate(292.6738 446.0552)"/><path d="m0 0-1.239-.101 1.153.437z" style="fill:none;stroke:#fff;stroke-width:.046;stroke-linecap:round;stroke-linejoin:round;stroke-miterlimit:3.864" transform="translate(292.6738 446.0552)"/><path d="m0 0-.345.023.24.14" fill="#fff" transform="translate(291.6934 445.1792)"/><path d="m0 0-.345.023.24.14z" fill="none" stroke="#fff" stroke-miterlimit="3.864" stroke-width=".162" transform="translate(291.6934 445.1792)"/><path d="m0 0-.345.023.24.14" fill="#fff" transform="translate(291.6934 445.1792)"/><path d="m0 0-.345.023.24.14z" style="fill:none;stroke:#fff;stroke-width:.046;stroke-linecap:round;stroke-linejoin:round;stroke-miterlimit:3.864" transform="translate(291.6934 445.1792)"/><path d="m0 0 .403.463-1.119.403.394.168-.019.247-.239.093.154.243-.825-.227-.188-.184.296-.244-.136-.258.405-.019-.309-.254.054-.541.22-.263" fill="#fff" transform="translate(294.9736 442.8276)"/><path d="m0 0 .403.463-1.119.403.394.168-.019.247-.239.093.154.243-.825-.227-.188-.184.296-.244-.136-.258.405-.019-.309-.254.054-.541.22-.263z" style="fill:none;stroke:#fff;stroke-width:.046;stroke-linecap:round;stroke-linejoin:round;stroke-miterlimit:3.864" transform="translate(294.9736 442.8276)"/><path d="m0 0-.45-.03.39.198.273-.091" fill="#fff" transform="translate(293.0283 444.5718)"/><path d="m0 0-.45-.03.39.198.273-.091z" fill="none" stroke="#fff" stroke-miterlimit="3.864" stroke-width=".162" transform="translate(293.0283 444.5718)"/><path d="m0 0-.45-.03.39.198.273-.091" fill="#fff" transform="translate(293.0283 444.5718)"/><path d="m0 0-.45-.03.39.198.273-.091z" style="fill:none;stroke:#fff;stroke-width:.046;stroke-linecap:round;stroke-linejoin:round;stroke-miterlimit:3.864" transform="translate(293.0283 444.5718)"/><path d="m0 0-.233.232.221-.062" fill="#fff" transform="translate(307.0078 443.52)"/><path d="m0 0-.233.232.221-.062z" fill="none" stroke="#fff" stroke-miterlimit="3.864" stroke-width=".162" transform="translate(307.0078 443.52)"/><path d="m0 0-.233.232.221-.062" fill="#fff" transform="translate(307.0078 443.52)"/><path d="m0 0-.233.232.221-.062z" style="fill:none;stroke:#fff;stroke-width:.046;stroke-linecap:round;stroke-linejoin:round;stroke-miterlimit:3.864" transform="translate(307.0078 443.52)"/><path d="m0 0-.192.281-.2-.044-1.323-1.101.742.301.6.538" fill="#fff" transform="translate(284.623 443.6489)"/><path d="m0 0-.192.281-.2-.044-1.323-1.101.742.301.6.538z" fill="none" stroke="#fff" stroke-miterlimit="3.864" stroke-width=".162" transform="translate(284.623 443.6489)"/><path d="m0 0-.192.281-.2-.044-1.323-1.101.742.301.6.538" fill="#fff" transform="translate(284.623 443.6489)"/><path d="m0 0-.192.281-.2-.044-1.323-1.101.742.301.6.538z" style="fill:none;stroke:#fff;stroke-width:.046;stroke-linecap:round;stroke-linejoin:round;stroke-miterlimit:3.864" transform="translate(284.623 443.6489)"/><path d="m0 0 .673.403.696.065.724.345.041-.136-.292-.285-.06-.269.627-.05.237.188.446-.141.355.243 1.122.218.287-.104.125-.225-.077-.224-.317-.145-.257.105-.154-.227-.361.255-.521-.347-.226.108-2.843-.506-.123.193.903.42" fill="#fff" transform="translate(289.1416 444.9097)"/><path d="m0 0 .673.403.696.065.724.345.041-.136-.292-.285-.06-.269.627-.05.237.188.446-.141.355.243 1.122.218.287-.104.125-.225-.077-.224-.317-.145-.257.105-.154-.227-.361.255-.521-.347-.226.108-2.843-.506-.123.193.903.42z" fill="none" stroke="#fff" stroke-miterlimit="3.864" stroke-width=".162" transform="translate(289.1416 444.9097)"/><path d="m0 0 .673.403.696.065.724.345.041-.136-.292-.285-.06-.269.627-.05.237.188.446-.141.355.243 1.122.218.287-.104.125-.225-.077-.224-.317-.145-.257.105-.154-.227-.361.255-.521-.347-.226.108-2.843-.506-.123.193.903.42" fill="#fff" transform="translate(289.1416 444.9097)"/><path d="m0 0 .673.403.696.065.724.345.041-.136-.292-.285-.06-.269.627-.05.237.188.446-.141.355.243 1.122.218.287-.104.125-.225-.077-.224-.317-.145-.257.105-.154-.227-.361.255-.521-.347-.226.108-2.843-.506-.123.193.903.42z" style="fill:none;stroke:#fff;stroke-width:.046;stroke-linecap:round;stroke-linejoin:round;stroke-miterlimit:3.864" transform="translate(289.1416 444.9097)"/><path d="m0 0-.473-.126.297.207" fill="#fff" transform="translate(289.7666 443.3374)"/><path d="m0 0-.473-.126.297.207z" fill="none" stroke="#fff" stroke-miterlimit="3.864" stroke-width=".162" transform="translate(289.7666 443.3374)"/><path d="m0 0-.473-.126.297.207" fill="#fff" transform="translate(289.7666 443.3374)"/><path d="m0 0-.473-.126.297.207z" style="fill:none;stroke:#fff;stroke-width:.046;stroke-linecap:round;stroke-linejoin:round;stroke-miterlimit:3.864" transform="translate(289.7666 443.3374)"/><path d="m0 0 .145.383.266-.028.373.461.347-.07-.338-.721.319-.103-.462-.529-.375.02-.353.38" fill="#fff" transform="translate(285.542 439.2222)"/><path d="m0 0 .145.383.266-.028.373.461.347-.07-.338-.721.319-.103-.462-.529-.375.02-.353.38z" fill="none" stroke="#fff" stroke-miterlimit="3.864" stroke-width=".162" transform="translate(285.542 439.2222)"/><path d="m0 0 .145.383.266-.028.373.461.347-.07-.338-.721.319-.103-.462-.529-.375.02-.353.38" fill="#fff" transform="translate(285.542 439.2222)"/><path d="m0 0 .145.383.266-.028.373.461.347-.07-.338-.721.319-.103-.462-.529-.375.02-.353.38z" style="fill:none;stroke:#fff;stroke-width:.046;stroke-linecap:round;stroke-linejoin:round;stroke-miterlimit:3.864" transform="translate(285.542 439.2222)"/><path d="m0 0 .17.012-.179-.541-1.021-.32.209.358.477.063.05.191-.325-.024.303.332" fill="#fff" transform="translate(292.6719 439.0327)"/><path d="m0 0 .17.012-.179-.541-1.021-.32.209.358.477.063.05.191-.325-.024.303.332z" fill="none" stroke="#fff" stroke-miterlimit="3.864" stroke-width=".162" transform="translate(292.6719 439.0327)"/><path d="m0 0 .17.012-.179-.541-1.021-.32.209.358.477.063.05.191-.325-.024.303.332" fill="#fff" transform="translate(292.6719 439.0327)"/><path d="m0 0 .17.012-.179-.541-1.021-.32.209.358.477.063.05.191-.325-.024.303.332z" style="fill:none;stroke:#fff;stroke-width:.046;stroke-linecap:round;stroke-linejoin:round;stroke-miterlimit:3.864" transform="translate(292.6719 439.0327)"/><path d="m0 0-.045-.252-.294-.019.149.305" fill="#fff" transform="translate(292.583 438.311)"/><path d="m0 0-.045-.252-.294-.019.149.305z" fill="none" stroke="#fff" stroke-miterlimit="3.864" stroke-width=".162" transform="translate(292.583 438.311)"/><path d="m0 0-.045-.252-.294-.019.149.305" fill="#fff" transform="translate(292.583 438.311)"/><path d="m0 0-.045-.252-.294-.019.149.305z" style="fill:none;stroke:#fff;stroke-width:.046;stroke-linecap:round;stroke-linejoin:round;stroke-miterlimit:3.864" transform="translate(292.583 438.311)"/><path d="m0 0-.119-.101.175-.035-.035-.188-.416-.061-.065.26.093.239" fill="#fff" transform="translate(293.2744 438.9028)"/><path d="m0 0-.119-.101.175-.035-.035-.188-.416-.061-.065.26.093.239z" fill="none" stroke="#fff" stroke-miterlimit="3.864" stroke-width=".162" transform="translate(293.2744 438.9028)"/><path d="m0 0-.119-.101.175-.035-.035-.188-.416-.061-.065.26.093.239" fill="#fff" transform="translate(293.2744 438.9028)"/><path d="m0 0-.119-.101.175-.035-.035-.188-.416-.061-.065.26.093.239z" style="fill:none;stroke:#fff;stroke-width:.046;stroke-linecap:round;stroke-linejoin:round;stroke-miterlimit:3.864" transform="translate(293.2744 438.9028)"/><path d="m0 0-.035-.157-.317.087" fill="#fff" transform="translate(289.0527 436.2495)"/><path d="m0 0-.035-.157-.317.087z" fill="none" stroke="#fff" stroke-miterlimit="3.864" stroke-width=".162" transform="translate(289.0527 436.2495)"/><path d="m0 0-.035-.157-.317.087" fill="#fff" transform="translate(289.0527 436.2495)"/><path d="m0 0-.035-.157-.317.087z" style="fill:none;stroke:#fff;stroke-width:.046;stroke-linecap:round;stroke-linejoin:round;stroke-miterlimit:3.864" transform="translate(289.0527 436.2495)"/><path d="m0 0-.086.555-.553.335.038.56-1.514.067.713.702 1.459.505 1.082.121.27-.091.071-.336.296-.011.539.318.71-.138 1.198.021.485.173.198.279.575.023.64-.686.053-.742-.51-.284.537-.101-.09-.49-.504-.361-.403-.463-1.767.111-1.584-.28-.253.495-.447-.512-.517-.161.307.705" fill="#fff" transform="translate(287.5625 440.605)"/><path d="m0 0-.086.555-.553.335.038.56-1.514.067.713.702 1.459.505 1.082.121.27-.091.071-.336.296-.011.539.318.71-.138 1.198.021.485.173.198.279.575.023.64-.686.053-.742-.51-.284.537-.101-.09-.49-.504-.361-.403-.463-1.767.111-1.584-.28-.253.495-.447-.512-.517-.161.307.705z" style="fill:none;stroke:#fff;stroke-width:.046;stroke-linecap:round;stroke-linejoin:round;stroke-miterlimit:3.864" transform="translate(287.5625 440.605)"/><path d="m0 0 .4.275-.025.372.76 1.357.551.132-.061.431.418.044-.269.261-1.167-.904.19-.251-.469-.405-.292.167-.348-.149-.029-.469-.581.069" fill="#fff" transform="translate(282.1201 433.2222)"/><path d="m0 0 .4.275-.025.372.76 1.357.551.132-.061.431.418.044-.269.261-1.167-.904.19-.251-.469-.405-.292.167-.348-.149-.029-.469-.581.069z" style="fill:none;stroke:#fff;stroke-width:.046;stroke-linecap:round;stroke-linejoin:round;stroke-miterlimit:3.864" transform="translate(282.1201 433.2222)"/><path d="m0 0-.001.233-.136-.056.069.129-.505.089-.223-.372-.36.021-.189-.184.349-.535.611.399" fill="#fff" transform="translate(282.8311 435.5083)"/><path d="m0 0-.001.233-.136-.056.069.129-.505.089-.223-.372-.36.021-.189-.184.349-.535.611.399z" style="fill:none;stroke:#fff;stroke-width:.046;stroke-linecap:round;stroke-linejoin:round;stroke-miterlimit:3.864" transform="translate(282.8311 435.5083)"/><path d="m0 0-.158-.196-.018.262" fill="#fff" transform="translate(279.2197 429.5239)"/><path d="m0 0-.158-.196-.018.262z" fill="none" stroke="#fff" stroke-miterlimit="3.864" stroke-width=".162" transform="translate(279.2197 429.5239)"/><path d="m0 0-.158-.196-.018.262" fill="#fff" transform="translate(279.2197 429.5239)"/><path d="m0 0-.158-.196-.018.262z" style="fill:none;stroke:#fff;stroke-width:.046;stroke-linecap:round;stroke-linejoin:round;stroke-miterlimit:3.864" transform="translate(279.2197 429.5239)"/><path d="m0 0 .099-.071-.318-.348-.019.263" fill="#fff" transform="translate(284.5801 433.0034)"/><path d="m0 0 .099-.071-.318-.348-.019.263z" fill="none" stroke="#fff" stroke-miterlimit="3.864" stroke-width=".162" transform="translate(284.5801 433.0034)"/><path d="m0 0 .099-.071-.318-.348-.019.263" fill="#fff" transform="translate(284.5801 433.0034)"/><path d="m0 0 .099-.071-.318-.348-.019.263z" style="fill:none;stroke:#fff;stroke-width:.046;stroke-linecap:round;stroke-linejoin:round;stroke-miterlimit:3.864" transform="translate(284.5801 433.0034)"/><path d="m0 0-.333.304.187-.439.414-.14" fill="#fff" transform="translate(282.2012 423.7026)"/><path d="m0 0-.333.304.187-.439.414-.14z" fill="none" stroke="#fff" stroke-miterlimit="3.864" stroke-width=".162" transform="translate(282.2012 423.7026)"/><path d="m0 0-.333.304.187-.439.414-.14" fill="#fff" transform="translate(282.2012 423.7026)"/><path d="m0 0-.333.304.187-.439.414-.14z" style="fill:none;stroke:#fff;stroke-width:.046;stroke-linecap:round;stroke-linejoin:round;stroke-miterlimit:3.864" transform="translate(282.2012 423.7026)"/><path d="m0 0-.291-.051-.049-.408.263-.416.257.328" fill="#fff" transform="translate(282.0078 425.3208)"/><path d="m0 0-.291-.051-.049-.408.263-.416.257.328z" fill="none" stroke="#fff" stroke-miterlimit="3.864" stroke-width=".162" transform="translate(282.0078 425.3208)"/><path d="m0 0-.291-.051-.049-.408.263-.416.257.328" fill="#fff" transform="translate(282.0078 425.3208)"/><path d="m0 0-.291-.051-.049-.408.263-.416.257.328z" style="fill:none;stroke:#fff;stroke-width:.046;stroke-linecap:round;stroke-linejoin:round;stroke-miterlimit:3.864" transform="translate(282.0078 425.3208)"/><path d="m0 0-.418-.465-.239.946" fill="#fff" transform="translate(280.7422 426.4927)"/><path d="m0 0-.418-.465-.239.946z" fill="none" stroke="#fff" stroke-miterlimit="3.864" stroke-width=".162" transform="translate(280.7422 426.4927)"/><path d="m0 0-.418-.465-.239.946" fill="#fff" transform="translate(280.7422 426.4927)"/><path d="m0 0-.418-.465-.239.946z" style="fill:none;stroke:#fff;stroke-width:.046;stroke-linecap:round;stroke-linejoin:round;stroke-miterlimit:3.864" transform="translate(280.7422 426.4927)"/><path d="m0 0-.354-.74-.251.03.396.788" fill="#fff" transform="translate(280.3193 428.7476)"/><path d="m0 0-.354-.74-.251.03.396.788z" fill="none" stroke="#fff" stroke-miterlimit="3.864" stroke-width=".162" transform="translate(280.3193 428.7476)"/><path d="m0 0-.354-.74-.251.03.396.788" fill="#fff" transform="translate(280.3193 428.7476)"/><path d="m0 0-.354-.74-.251.03.396.788z" style="fill:none;stroke:#fff;stroke-width:.046;stroke-linecap:round;stroke-linejoin:round;stroke-miterlimit:3.864" transform="translate(280.3193 428.7476)"/><path d="m0 0-.398-.524.109.427" fill="#fff" transform="translate(280.7637 429.2739)"/><path d="m0 0-.398-.524.109.427z" fill="none" stroke="#fff" stroke-miterlimit="3.864" stroke-width=".162" transform="translate(280.7637 429.2739)"/><path d="m0 0-.398-.524.109.427" fill="#fff" transform="translate(280.7637 429.2739)"/><path d="m0 0-.398-.524.109.427z" style="fill:none;stroke:#fff;stroke-width:.046;stroke-linecap:round;stroke-linejoin:round;stroke-miterlimit:3.864" transform="translate(280.7637 429.2739)"/><path d="m0 0 1.219-.057-.126.241.328-.009.096.209.298-.275.355-.628-.419-1.334-.642.048-1.025.847.249.219-.396.532" fill="#fff" transform="translate(286.8867 403.877)"/><path d="m0 0 1.219-.057-.126.241.328-.009.096.209.298-.275.355-.628-.419-1.334-.642.048-1.025.847.249.219-.396.532z" fill="none" stroke="#fff" stroke-miterlimit="3.864" stroke-width=".162" transform="translate(286.8867 403.877)"/><path d="m0 0 1.219-.057-.126.241.328-.009.096.209.298-.275.355-.628-.419-1.334-.642.048-1.025.847.249.219-.396.532" fill="#fff" transform="translate(286.8867 403.877)"/><path d="m0 0 1.219-.057-.126.241.328-.009.096.209.298-.275.355-.628-.419-1.334-.642.048-1.025.847.249.219-.396.532z" style="fill:none;stroke:#fff;stroke-width:.046;stroke-linecap:round;stroke-linejoin:round;stroke-miterlimit:3.864" transform="translate(286.8867 403.877)"/><path d="m0 0 .294-.197-.205-.185-.192.049" fill="#fff" transform="translate(297.8203 438.4722)"/><path d="m0 0 .294-.197-.205-.185-.192.049z" fill="none" stroke="#fff" stroke-miterlimit="3.864" stroke-width=".162" transform="translate(297.8203 438.4722)"/><path d="m0 0 .294-.197-.205-.185-.192.049" fill="#fff" transform="translate(297.8203 438.4722)"/><path d="m0 0 .294-.197-.205-.185-.192.049z" style="fill:none;stroke:#fff;stroke-width:.046;stroke-linecap:round;stroke-linejoin:round;stroke-miterlimit:3.864" transform="translate(297.8203 438.4722)"/><path d="m0 0 .32.1.213-.389-.565.07" fill="#fff" transform="translate(298 438.1274)"/><path d="m0 0 .32.1.213-.389-.565.07z" fill="none" stroke="#fff" stroke-miterlimit="3.864" stroke-width=".162" transform="translate(298 438.1274)"/><path d="m0 0 .32.1.213-.389-.565.07" fill="#fff" transform="translate(298 438.1274)"/><path d="m0 0 .32.1.213-.389-.565.07z" style="fill:none;stroke:#fff;stroke-width:.046;stroke-linecap:round;stroke-linejoin:round;stroke-miterlimit:3.864" transform="translate(298 438.1274)"/><path d="m0 0-.06.4.451-.202-.303-.332" fill="#fff" transform="translate(298.665 437.7378)"/><path d="m0 0-.06.4.451-.202-.303-.332z" fill="none" stroke="#fff" stroke-miterlimit="3.864" stroke-width=".162" transform="translate(298.665 437.7378)"/><path d="m0 0-.06.4.451-.202-.303-.332" fill="#fff" transform="translate(298.665 437.7378)"/><path d="m0 0-.06.4.451-.202-.303-.332z" style="fill:none;stroke:#fff;stroke-width:.046;stroke-linecap:round;stroke-linejoin:round;stroke-miterlimit:3.864" transform="translate(298.665 437.7378)"/><path d="m0 0 .089-.149-.171-.012" fill="#fff" transform="translate(300.6699 437.1313)"/><path d="m0 0 .089-.149-.171-.012z" fill="none" stroke="#fff" stroke-miterlimit="3.864" stroke-width=".162" transform="translate(300.6699 437.1313)"/><path d="m0 0 .089-.149-.171-.012" fill="#fff" transform="translate(300.6699 437.1313)"/><path d="m0 0 .089-.149-.171-.012z" style="fill:none;stroke:#fff;stroke-width:.046;stroke-linecap:round;stroke-linejoin:round;stroke-miterlimit:3.864" transform="translate(300.6699 437.1313)"/><path d="m0 0-.01.124.47-.016-.174-.415-.462.14" fill="#fff" transform="translate(301.9443 439.1616)"/><path d="m0 0-.01.124.47-.016-.174-.415-.462.14z" fill="none" stroke="#fff" stroke-miterlimit="3.864" stroke-width=".162" transform="translate(301.9443 439.1616)"/><path d="m0 0-.01.124.47-.016-.174-.415-.462.14" fill="#fff" transform="translate(301.9443 439.1616)"/><path d="m0 0-.01.124.47-.016-.174-.415-.462.14z" style="fill:none;stroke:#fff;stroke-width:.046;stroke-linecap:round;stroke-linejoin:round;stroke-miterlimit:3.864" transform="translate(301.9443 439.1616)"/><path d="m0 0 .375.197.17-.191" fill="#fff" transform="translate(301.8555 439.311)"/><path d="m0 0 .375.197.17-.191z" fill="none" stroke="#fff" stroke-miterlimit="3.864" stroke-width=".162" transform="translate(301.8555 439.311)"/><path d="m0 0 .375.197.17-.191" fill="#fff" transform="translate(301.8555 439.311)"/><path d="m0 0 .375.197.17-.191z" style="fill:none;stroke:#fff;stroke-width:.046;stroke-linecap:round;stroke-linejoin:round;stroke-miterlimit:3.864" transform="translate(301.8555 439.311)"/><path d="m0 0 .405.229-.066-.174" fill="#fff" transform="translate(302.2568 439.5718)"/><path d="m0 0 .405.229-.066-.174z" fill="none" stroke="#fff" stroke-miterlimit="3.864" stroke-width=".162" transform="translate(302.2568 439.5718)"/><path d="m0 0 .405.229-.066-.174" fill="#fff" transform="translate(302.2568 439.5718)"/><path d="m0 0 .405.229-.066-.174z" style="fill:none;stroke:#fff;stroke-width:.046;stroke-linecap:round;stroke-linejoin:round;stroke-miterlimit:3.864" transform="translate(302.2568 439.5718)"/><path d="m0 0 .356.041-.201-.247" fill="#fff" transform="translate(302.7227 438.9351)"/><path d="m0 0 .356.041-.201-.247z" fill="none" stroke="#fff" stroke-miterlimit="3.864" stroke-width=".162" transform="translate(302.7227 438.9351)"/><path d="m0 0 .356.041-.201-.247" fill="#fff" transform="translate(302.7227 438.9351)"/><path d="m0 0 .356.041-.201-.247z" style="fill:none;stroke:#fff;stroke-width:.046;stroke-linecap:round;stroke-linejoin:round;stroke-miterlimit:3.864" transform="translate(302.7227 438.9351)"/><path d="m0 0 .078.208.256-.309" fill="#fff" transform="translate(303.7725 442.146)"/><path d="m0 0 .078.208.256-.309z" fill="none" stroke="#fff" stroke-miterlimit="3.864" stroke-width=".162" transform="translate(303.7725 442.146)"/><path d="m0 0 .078.208.256-.309" fill="#fff" transform="translate(303.7725 442.146)"/><path d="m0 0 .078.208.256-.309z" style="fill:none;stroke:#fff;stroke-width:.046;stroke-linecap:round;stroke-linejoin:round;stroke-miterlimit:3.864" transform="translate(303.7725 442.146)"/><path d="m0 0-.295-.02-.062-.222" fill="#fff" transform="translate(294.9375 438.272)"/><path d="m0 0-.295-.02-.062-.222z" fill="none" stroke="#fff" stroke-miterlimit="3.864" stroke-width=".162" transform="translate(294.9375 438.272)"/><path d="m0 0-.295-.02-.062-.222" fill="#fff" transform="translate(294.9375 438.272)"/><path d="m0 0-.295-.02-.062-.222z" style="fill:none;stroke:#fff;stroke-width:.046;stroke-linecap:round;stroke-linejoin:round;stroke-miterlimit:3.864" transform="translate(294.9375 438.272)"/><path d="m0 0-.114-.147.212.077" fill="#fff" transform="translate(295.5693 438.145)"/><path d="m0 0-.114-.147.212.077z" fill="none" stroke="#fff" stroke-miterlimit="3.864" stroke-width=".162" transform="translate(295.5693 438.145)"/><path d="m0 0-.114-.147.212.077" fill="#fff" transform="translate(295.5693 438.145)"/><path d="m0 0-.114-.147.212.077z" style="fill:none;stroke:#fff;stroke-width:.046;stroke-linecap:round;stroke-linejoin:round;stroke-miterlimit:3.864" transform="translate(295.5693 438.145)"/><path d="m0 0-.032-.204.149.087" fill="#fff" transform="translate(295.793 438.2856)"/><path d="m0 0-.032-.204.149.087z" fill="none" stroke="#fff" stroke-miterlimit="3.864" stroke-width=".162" transform="translate(295.793 438.2856)"/><path d="m0 0-.032-.204.149.087" fill="#fff" transform="translate(295.793 438.2856)"/><path d="m0 0-.032-.204.149.087z" style="fill:none;stroke:#fff;stroke-width:.046;stroke-linecap:round;stroke-linejoin:round;stroke-miterlimit:3.864" transform="translate(295.793 438.2856)"/><path d="m0 0 .187-.22-.324-.039" fill="#fff" transform="translate(292.9609 434.2827)"/><path d="m0 0 .187-.22-.324-.039z" fill="none" stroke="#fff" stroke-miterlimit="3.864" stroke-width=".162" transform="translate(292.9609 434.2827)"/><path d="m0 0 .187-.22-.324-.039" fill="#fff" transform="translate(292.9609 434.2827)"/><path d="m0 0 .187-.22-.324-.039z" style="fill:none;stroke:#fff;stroke-width:.046;stroke-linecap:round;stroke-linejoin:round;stroke-miterlimit:3.864" transform="translate(292.9609 434.2827)"/><path d="m0 0 .287-.104-.236-.405.056-.587-.417.174.109.24-.29.119" fill="#fff" transform="translate(294.165 435.5464)"/><path d="m0 0 .287-.104-.236-.405.056-.587-.417.174.109.24-.29.119z" fill="none" stroke="#fff" stroke-miterlimit="3.864" stroke-width=".162" transform="translate(294.165 435.5464)"/><path d="m0 0 .287-.104-.236-.405.056-.587-.417.174.109.24-.29.119" fill="#fff" transform="translate(294.165 435.5464)"/><path d="m0 0 .287-.104-.236-.405.056-.587-.417.174.109.24-.29.119z" style="fill:none;stroke:#fff;stroke-width:.046;stroke-linecap:round;stroke-linejoin:round;stroke-miterlimit:3.864" transform="translate(294.165 435.5464)"/><path d="m0 0 .372.461.677.343.784.147-.062-.253-1.163-.501-.309-.456-.287.089" fill="#fff" transform="translate(294.1982 435.7349)"/><path d="m0 0 .372.461.677.343.784.147-.062-.253-1.163-.501-.309-.456-.287.089z" fill="none" stroke="#fff" stroke-miterlimit="3.864" stroke-width=".162" transform="translate(294.1982 435.7349)"/><path d="m0 0 .372.461.677.343.784.147-.062-.253-1.163-.501-.309-.456-.287.089" fill="#fff" transform="translate(294.1982 435.7349)"/><path d="m0 0 .372.461.677.343.784.147-.062-.253-1.163-.501-.309-.456-.287.089z" style="fill:none;stroke:#fff;stroke-width:.046;stroke-linecap:round;stroke-linejoin:round;stroke-miterlimit:3.864" transform="translate(294.1982 435.7349)"/><path d="m0 0 .065.175.176-.282" fill="#fff" transform="translate(294.4609 434.2153)"/><path d="m0 0 .065.175.176-.282z" fill="none" stroke="#fff" stroke-miterlimit="3.864" stroke-width=".162" transform="translate(294.4609 434.2153)"/><path d="m0 0 .065.175.176-.282" fill="#fff" transform="translate(294.4609 434.2153)"/><path d="m0 0 .065.175.176-.282z" style="fill:none;stroke:#fff;stroke-width:.046;stroke-linecap:round;stroke-linejoin:round;stroke-miterlimit:3.864" transform="translate(294.4609 434.2153)"/><path d="m0 0 2.05-1.022-.298-.193.967-.679-.037-.36-2.076 1.597" fill="#fff" transform="translate(310.0293 434.9351)"/><path d="m0 0 2.05-1.022-.298-.193.967-.679-.037-.36-2.076 1.597z" fill="none" stroke="#fff" stroke-miterlimit="3.864" stroke-width=".162" transform="translate(310.0293 434.9351)"/><path d="m0 0 2.05-1.022-.298-.193.967-.679-.037-.36-2.076 1.597" fill="#fff" transform="translate(310.0293 434.9351)"/><path d="m0 0 2.05-1.022-.298-.193.967-.679-.037-.36-2.076 1.597z" style="fill:none;stroke:#fff;stroke-width:.046;stroke-linecap:round;stroke-linejoin:round;stroke-miterlimit:3.864" transform="translate(310.0293 434.9351)"/><path d="m0 0-.007.107.324-.179-.04-.532.166-.376-.303-.114.096-.708-.331.288-.056.571-.561.66.513.02" fill="#fff" transform="translate(313.5459 432.7554)"/><path d="m0 0-.007.107.324-.179-.04-.532.166-.376-.303-.114.096-.708-.331.288-.056.571-.561.66.513.02z" fill="none" stroke="#fff" stroke-miterlimit="3.864" stroke-width=".162" transform="translate(313.5459 432.7554)"/><path d="m0 0-.007.107.324-.179-.04-.532.166-.376-.303-.114.096-.708-.331.288-.056.571-.561.66.513.02" fill="#fff" transform="translate(313.5459 432.7554)"/><path d="m0 0-.007.107.324-.179-.04-.532.166-.376-.303-.114.096-.708-.331.288-.056.571-.561.66.513.02z" style="fill:none;stroke:#fff;stroke-width:.046;stroke-linecap:round;stroke-linejoin:round;stroke-miterlimit:3.864" transform="translate(313.5459 432.7554)"/><path d="m0 0 .665-.373.893-1.819-.154-.493-.168-.259.047-.665-.236.045-.097.257-.382-.988-.248-.236.013.918.453.653-.275.804.225.342-.226.777-.54.801" fill="#fff" transform="translate(313.9385 431.1665)"/><path d="m0 0 .665-.373.893-1.819-.154-.493-.168-.259.047-.665-.236.045-.097.257-.382-.988-.248-.236.013.918.453.653-.275.804.225.342-.226.777-.54.801z" fill="none" stroke="#fff" stroke-miterlimit="3.864" stroke-width=".162" transform="translate(313.9385 431.1665)"/><path d="m0 0 .665-.373.893-1.819-.154-.493-.168-.259.047-.665-.236.045-.097.257-.382-.988-.248-.236.013.918.453.653-.275.804.225.342-.226.777-.54.801" fill="#fff" transform="translate(313.9385 431.1665)"/><path d="m0 0 .665-.373.893-1.819-.154-.493-.168-.259.047-.665-.236.045-.097.257-.382-.988-.248-.236.013.918.453.653-.275.804.225.342-.226.777-.54.801z" style="fill:none;stroke:#fff;stroke-width:.046;stroke-linecap:round;stroke-linejoin:round;stroke-miterlimit:3.864" transform="translate(313.9385 431.1665)"/><path d="m0 0-.104-.504-.27.074.103.738.252-.03" fill="#fff" transform="translate(315.002 427.1382)"/><path d="m0 0-.104-.504-.27.074.103.738.252-.03z" fill="none" stroke="#fff" stroke-miterlimit="3.864" stroke-width=".162" transform="translate(315.002 427.1382)"/><path d="m0 0-.104-.504-.27.074.103.738.252-.03" fill="#fff" transform="translate(315.002 427.1382)"/><path d="m0 0-.104-.504-.27.074.103.738.252-.03z" style="fill:none;stroke:#fff;stroke-width:.046;stroke-linecap:round;stroke-linejoin:round;stroke-miterlimit:3.864" transform="translate(315.002 427.1382)"/><path d="m0 0-.058-.501.153-.177.106.256.24-.543.186.014-.185.856-.232.202" fill="#fff" transform="translate(314.2637 426.5747)"/><path d="m0 0-.058-.501.153-.177.106.256.24-.543.186.014-.185.856-.232.202z" fill="none" stroke="#fff" stroke-miterlimit="3.864" stroke-width=".162" transform="translate(314.2637 426.5747)"/><path d="m0 0-.058-.501.153-.177.106.256.24-.543.186.014-.185.856-.232.202" fill="#fff" transform="translate(314.2637 426.5747)"/><path d="m0 0-.058-.501.153-.177.106.256.24-.543.186.014-.185.856-.232.202z" style="fill:none;stroke:#fff;stroke-width:.046;stroke-linecap:round;stroke-linejoin:round;stroke-miterlimit:3.864" transform="translate(314.2637 426.5747)"/><path d="m0 0 .205-.049-.049-.406-.191-.371-.309-.053-.142.254" fill="#fff" transform="translate(311.4043 417.459)"/><path d="m0 0 .205-.049-.049-.406-.191-.371-.309-.053-.142.254z" fill="none" stroke="#fff" stroke-miterlimit="3.864" stroke-width=".162" transform="translate(311.4043 417.459)"/><path d="m0 0 .205-.049-.049-.406-.191-.371-.309-.053-.142.254" fill="#fff" transform="translate(311.4043 417.459)"/><path d="m0 0 .205-.049-.049-.406-.191-.371-.309-.053-.142.254z" style="fill:none;stroke:#fff;stroke-width:.046;stroke-linecap:round;stroke-linejoin:round;stroke-miterlimit:3.864" transform="translate(311.4043 417.459)"/><path d="m0 0-.214-.512.093-.429.186-.22.236-.015.397.322-.004.281-.665.59" fill="#fff" transform="translate(300.7773 409.8408)"/><path d="m0 0-.214-.512.093-.429.186-.22.236-.015.397.322-.004.281-.665.59z" fill="none" stroke="#fff" stroke-miterlimit="3.864" stroke-width=".162" transform="translate(300.7773 409.8408)"/><path d="m0 0-.214-.512.093-.429.186-.22.236-.015.397.322-.004.281-.665.59" style="fill:none;stroke:#fff;stroke-width:.046;stroke-linecap:round;stroke-linejoin:round;stroke-miterlimit:3.864" transform="translate(300.7773 409.8408)"/><path d="m0 0 .037-.09.155.228" fill="#fff" transform="translate(312.1709 418.9561)"/><path d="m0 0 .037-.09.155.228z" fill="none" stroke="#fff" stroke-miterlimit="3.864" stroke-width=".162" transform="translate(312.1709 418.9561)"/><path d="m0 0 .037-.09.155.228z" style="fill:none;stroke:#fff;stroke-width:.046;stroke-linecap:round;stroke-linejoin:round;stroke-miterlimit:3.864" transform="translate(312.1709 418.9561)"/><path d="m0 0 .197-.158.127-1.141-.417.406" fill="#fff" transform="translate(313.8408 421.5425)"/><path d="m0 0 .197-.158.127-1.141-.417.406z" fill="none" stroke="#fff" stroke-miterlimit="3.864" stroke-width=".162" transform="translate(313.8408 421.5425)"/><path d="m0 0 .197-.158.127-1.141-.417.406" fill="#fff" transform="translate(313.8408 421.5425)"/><path d="m0 0 .197-.158.127-1.141-.417.406z" style="fill:none;stroke:#fff;stroke-width:.046;stroke-linecap:round;stroke-linejoin:round;stroke-miterlimit:3.864" transform="translate(313.8408 421.5425)"/><path d="m0 0-.178.098-.141-.213" fill="#fff" transform="translate(286.8379 432.3511)"/><path d="m0 0-.178.098-.141-.213z" fill="none" stroke="#fff" stroke-miterlimit="3.864" stroke-width=".162" transform="translate(286.8379 432.3511)"/><path d="m0 0-.178.098-.141-.213" fill="#fff" transform="translate(286.8379 432.3511)"/><path d="m0 0-.178.098-.141-.213z" style="fill:none;stroke:#fff;stroke-width:.046;stroke-linecap:round;stroke-linejoin:round;stroke-miterlimit:3.864" transform="translate(286.8379 432.3511)"/><path d="m0 0 .203-.002-.281-.206-.279-.005-.145.271" fill="#fff" transform="translate(284.5088 422.3257)"/><path d="m0 0 .203-.002-.281-.206-.279-.005-.145.271z" fill="none" stroke="#fff" stroke-miterlimit="3.864" stroke-width=".162" transform="translate(284.5088 422.3257)"/><path d="m0 0 .203-.002-.281-.206-.279-.005-.145.271" fill="#fff" transform="translate(284.5088 422.3257)"/><path d="m0 0 .203-.002-.281-.206-.279-.005-.145.271z" style="fill:none;stroke:#fff;stroke-width:.046;stroke-linecap:round;stroke-linejoin:round;stroke-miterlimit:3.864" transform="translate(284.5088 422.3257)"/><path d="m0 0 .936.188 1.264-.487 1.158-.09.462-.59.451.032-.083-.831-.388-.212-.787.116-2.19 1.448-.651.188" fill="#fff" transform="translate(307.0293 409.9629)"/><path d="m0 0 .936.188 1.264-.487 1.158-.09.462-.59.451.032-.083-.831-.388-.212-.787.116-2.19 1.448-.651.188z" fill="none" stroke="#fff" stroke-miterlimit="3.864" stroke-width=".162" transform="translate(307.0293 409.9629)"/><path d="m0 0 .936.188 1.264-.487 1.158-.09.462-.59.451.032-.083-.831-.388-.212-.787.116-2.19 1.448-.651.188" fill="#fff" transform="translate(307.0293 409.9629)"/><path d="m0 0 .936.188 1.264-.487 1.158-.09.462-.59.451.032-.083-.831-.388-.212-.787.116-2.19 1.448-.651.188z" style="fill:none;stroke:#fff;stroke-width:.046;stroke-linecap:round;stroke-linejoin:round;stroke-miterlimit:3.864" transform="translate(307.0293 409.9629)"/><path d="m0 0 .277.268.279-.183-.036-.158" fill="#fff" transform="translate(310.9766 409.1787)"/><path d="m0 0 .277.268.279-.183-.036-.158z" fill="none" stroke="#fff" stroke-miterlimit="3.864" stroke-width=".162" transform="translate(310.9766 409.1787)"/><path d="m0 0 .277.268.279-.183-.036-.158" fill="#fff" transform="translate(310.9766 409.1787)"/><path d="m0 0 .277.268.279-.183-.036-.158z" style="fill:none;stroke:#fff;stroke-width:.046;stroke-linecap:round;stroke-linejoin:round;stroke-miterlimit:3.864" transform="translate(310.9766 409.1787)"/><path d="m0 0h.218l-.206-.17" fill="#fff" transform="translate(311.876 409.459)"/><path d="m0 0h.218l-.206-.17z" fill="none" stroke="#fff" stroke-miterlimit="3.864" stroke-width=".162" transform="translate(311.876 409.459)"/><path d="m0 0h.218l-.206-.17" fill="#fff" transform="translate(311.876 409.459)"/><path d="m0 0h.218l-.206-.17z" style="fill:none;stroke:#fff;stroke-width:.046;stroke-linecap:round;stroke-linejoin:round;stroke-miterlimit:3.864" transform="translate(311.876 409.459)"/><path d="m0 0-1.706-.77-.6-.104.347.382.901.233.696.53 1.098.324.017-.232" fill="#fff" transform="translate(313.3301 408.7197)"/><path d="m0 0-1.706-.77-.6-.104.347.382.901.233.696.53 1.098.324.017-.232z" fill="none" stroke="#fff" stroke-miterlimit="3.864" stroke-width=".162" transform="translate(313.3301 408.7197)"/><path d="m0 0-1.706-.77-.6-.104.347.382.901.233.696.53 1.098.324.017-.232" fill="#fff" transform="translate(313.3301 408.7197)"/><path d="m0 0-1.706-.77-.6-.104.347.382.901.233.696.53 1.098.324.017-.232z" style="fill:none;stroke:#fff;stroke-width:.046;stroke-linecap:round;stroke-linejoin:round;stroke-miterlimit:3.864" transform="translate(313.3301 408.7197)"/><path d="m0 0 .112-.271-.54-1.171" fill="#fff" transform="translate(314.9756 416.2754)"/><path d="m0 0 .112-.271-.54-1.171z" fill="none" stroke="#fff" stroke-miterlimit="3.864" stroke-width=".162" transform="translate(314.9756 416.2754)"/><path d="m0 0 .112-.271-.54-1.171" fill="#fff" transform="translate(314.9756 416.2754)"/><path d="m0 0 .112-.271-.54-1.171z" style="fill:none;stroke:#fff;stroke-width:.046;stroke-linecap:round;stroke-linejoin:round;stroke-miterlimit:3.864" transform="translate(314.9756 416.2754)"/><path d="m0 0 .33.161.066-.26-.053-.128" fill="#fff" transform="translate(315.0664 417.2002)"/><path d="m0 0 .33.161.066-.26-.053-.128z" fill="none" stroke="#fff" stroke-miterlimit="3.864" stroke-width=".162" transform="translate(315.0664 417.2002)"/><path d="m0 0 .33.161.066-.26-.053-.128" fill="#fff" transform="translate(315.0664 417.2002)"/><path d="m0 0 .33.161.066-.26-.053-.128z" style="fill:none;stroke:#fff;stroke-width:.046;stroke-linecap:round;stroke-linejoin:round;stroke-miterlimit:3.864" transform="translate(315.0664 417.2002)"/><path d="m0 0 .22-.465-.084-.799.211-.343.58.398.177-.33-1.013-.411-.514.648.184.059-.193.95" fill="#fff" transform="translate(315.0244 419.3398)"/><path d="m0 0 .22-.465-.084-.799.211-.343.58.398.177-.33-1.013-.411-.514.648.184.059-.193.95z" fill="none" stroke="#fff" stroke-miterlimit="3.864" stroke-width=".162" transform="translate(315.0244 419.3398)"/><path d="m0 0 .22-.465-.084-.799.211-.343.58.398.177-.33-1.013-.411-.514.648.184.059-.193.95" fill="#fff" transform="translate(315.0244 419.3398)"/><path d="m0 0 .22-.465-.084-.799.211-.343.58.398.177-.33-1.013-.411-.514.648.184.059-.193.95z" style="fill:none;stroke:#fff;stroke-width:.046;stroke-linecap:round;stroke-linejoin:round;stroke-miterlimit:3.864" transform="translate(315.0244 419.3398)"/><path d="m0 0 .287-.089-.255-.126" fill="#fff" transform="translate(315.9248 417.6006)"/><path d="m0 0 .287-.089-.255-.126z" fill="none" stroke="#fff" stroke-miterlimit="3.864" stroke-width=".162" transform="translate(315.9248 417.6006)"/><path d="m0 0 .287-.089-.255-.126" fill="#fff" transform="translate(315.9248 417.6006)"/><path d="m0 0 .287-.089-.255-.126z" style="fill:none;stroke:#fff;stroke-width:.046;stroke-linecap:round;stroke-linejoin:round;stroke-miterlimit:3.864" transform="translate(315.9248 417.6006)"/><path d="m0 0 .25.204.242-.341-.132-.118" fill="#fff" transform="translate(316.1885 417.8369)"/><path d="m0 0 .25.204.242-.341-.132-.118z" fill="none" stroke="#fff" stroke-miterlimit="3.864" stroke-width=".162" transform="translate(316.1885 417.8369)"/><path d="m0 0 .25.204.242-.341-.132-.118" fill="#fff" transform="translate(316.1885 417.8369)"/><path d="m0 0 .25.204.242-.341-.132-.118z" style="fill:none;stroke:#fff;stroke-width:.046;stroke-linecap:round;stroke-linejoin:round;stroke-miterlimit:3.864" transform="translate(316.1885 417.8369)"/><path d="m0 0 .368.073-.224-.575" fill="#fff" transform="translate(315.6221 417.0508)"/><path d="m0 0 .368.073-.224-.575z" fill="none" stroke="#fff" stroke-miterlimit="3.864" stroke-width=".162" transform="translate(315.6221 417.0508)"/><path d="m0 0 .368.073-.224-.575" fill="#fff" transform="translate(315.6221 417.0508)"/><path d="m0 0 .368.073-.224-.575z" style="fill:none;stroke:#fff;stroke-width:.046;stroke-linecap:round;stroke-linejoin:round;stroke-miterlimit:3.864" transform="translate(315.6221 417.0508)"/><path d="m0 0 .163.104.017-.667-.223.079" fill="#fff" transform="translate(315.9893 416.9209)"/><path d="m0 0 .163.104.017-.667-.223.079z" fill="none" stroke="#fff" stroke-miterlimit="3.864" stroke-width=".162" transform="translate(315.9893 416.9209)"/><path d="m0 0 .163.104.017-.667-.223.079" fill="#fff" transform="translate(315.9893 416.9209)"/><path d="m0 0 .163.104.017-.667-.223.079z" style="fill:none;stroke:#fff;stroke-width:.046;stroke-linecap:round;stroke-linejoin:round;stroke-miterlimit:3.864" transform="translate(315.9893 416.9209)"/><path d="m0 0 .197.075.089-.382" fill="#fff" transform="translate(316.293 417.4707)"/><path d="m0 0 .197.075.089-.382z" fill="none" stroke="#fff" stroke-miterlimit="3.864" stroke-width=".162" transform="translate(316.293 417.4707)"/><path d="m0 0 .197.075.089-.382" fill="#fff" transform="translate(316.293 417.4707)"/><path d="m0 0 .197.075.089-.382z" style="fill:none;stroke:#fff;stroke-width:.046;stroke-linecap:round;stroke-linejoin:round;stroke-miterlimit:3.864" transform="translate(316.293 417.4707)"/><path d="m0 0 .234-.015.232-.419-.015-.436-.232-.032.093-.412-1.014-.428.247.902.15-.144" fill="#fff" transform="translate(316.7188 417.1738)"/><path d="m0 0 .234-.015.232-.419-.015-.436-.232-.032.093-.412-1.014-.428.247.902.15-.144z" fill="none" stroke="#fff" stroke-miterlimit="3.864" stroke-width=".162" transform="translate(316.7188 417.1738)"/><path d="m0 0 .234-.015.232-.419-.015-.436-.232-.032.093-.412-1.014-.428.247.902.15-.144" fill="#fff" transform="translate(316.7188 417.1738)"/><path d="m0 0 .234-.015.232-.419-.015-.436-.232-.032.093-.412-1.014-.428.247.902.15-.144z" style="fill:none;stroke:#fff;stroke-width:.046;stroke-linecap:round;stroke-linejoin:round;stroke-miterlimit:3.864" transform="translate(316.7188 417.1738)"/><path d="m0 0 .364.601.3.143" fill="#fff" transform="translate(317.8799 413.7275)"/><path d="m0 0 .364.601.3.143z" fill="none" stroke="#fff" stroke-miterlimit="3.864" stroke-width=".162" transform="translate(317.8799 413.7275)"/><path d="m0 0 .364.601.3.143" fill="#fff" transform="translate(317.8799 413.7275)"/><path d="m0 0 .364.601.3.143z" style="fill:none;stroke:#fff;stroke-width:.046;stroke-linecap:round;stroke-linejoin:round;stroke-miterlimit:3.864" transform="translate(317.8799 413.7275)"/><path d="m0 0-.412-.557.348.583.013.033.631.774-.568-.785" fill="#fff" transform="translate(317.041 411.292)"/><path d="m0 0-.412-.557.348.583.013.033.631.774-.568-.785z" style="fill:none;stroke:#fff;stroke-width:.046;stroke-linecap:round;stroke-linejoin:round;stroke-miterlimit:3.864" transform="translate(317.041 411.292)"/><path d="m0 0 .816.803-.528-.674" fill="#fff" transform="translate(315.7188 410.377)"/><path d="m0 0 .816.803-.528-.674z" fill="none" stroke="#fff" stroke-miterlimit="3.864" stroke-width=".162" transform="translate(315.7188 410.377)"/><path d="m0 0 .816.803-.528-.674" fill="#fff" transform="translate(315.7188 410.377)"/><path d="m0 0 .816.803-.528-.674z" style="fill:none;stroke:#fff;stroke-width:.046;stroke-linecap:round;stroke-linejoin:round;stroke-miterlimit:3.864" transform="translate(315.7188 410.377)"/><path d="m0 0h.218l-.1-.133-.379-.15" fill="#fff" transform="translate(315.6885 410.1582)"/><path d="m0 0h.218l-.1-.133-.379-.15z" fill="none" stroke="#fff" stroke-miterlimit="3.864" stroke-width=".162" transform="translate(315.6885 410.1582)"/><path d="m0 0h.218l-.1-.133-.379-.15" fill="#fff" transform="translate(315.6885 410.1582)"/><path d="m0 0h.218l-.1-.133-.379-.15z" style="fill:none;stroke:#fff;stroke-width:.046;stroke-linecap:round;stroke-linejoin:round;stroke-miterlimit:3.864" transform="translate(315.6885 410.1582)"/><path d="m0 0 .577.43-.551-.567-.106-.039" fill="#fff" transform="translate(314.877 409.7275)"/><path d="m0 0 .577.43-.551-.567-.106-.039z" fill="none" stroke="#fff" stroke-miterlimit="3.864" stroke-width=".162" transform="translate(314.877 409.7275)"/><path d="m0 0 .577.43-.551-.567-.106-.039" fill="#fff" transform="translate(314.877 409.7275)"/><path d="m0 0 .577.43-.551-.567-.106-.039z" style="fill:none;stroke:#fff;stroke-width:.046;stroke-linecap:round;stroke-linejoin:round;stroke-miterlimit:3.864" transform="translate(314.877 409.7275)"/><path d="m0 0 .18.091-.124-.227-.216-.013" fill="#fff" transform="translate(314.25 409.3584)"/><path d="m0 0 .18.091-.124-.227-.216-.013z" fill="none" stroke="#fff" stroke-miterlimit="3.864" stroke-width=".162" transform="translate(314.25 409.3584)"/><path d="m0 0 .18.091-.124-.227-.216-.013" fill="#fff" transform="translate(314.25 409.3584)"/><path d="m0 0 .18.091-.124-.227-.216-.013z" style="fill:none;stroke:#fff;stroke-width:.046;stroke-linecap:round;stroke-linejoin:round;stroke-miterlimit:3.864" transform="translate(314.25 409.3584)"/><path d="m0 0 1.112 1.008-.973-1.868.402-.409-.328-.425-.37.175.047-.665-.281-.22-.147.533.258 1.432" fill="#fff" transform="translate(316.0156 413.459)"/><path d="m0 0 1.112 1.008-.973-1.868.402-.409-.328-.425-.37.175.047-.665-.281-.22-.147.533.258 1.432z" fill="none" stroke="#fff" stroke-miterlimit="3.864" stroke-width=".162" transform="translate(316.0156 413.459)"/><path d="m0 0 1.112 1.008-.973-1.868.402-.409-.328-.425-.37.175.047-.665-.281-.22-.147.533.258 1.432" fill="#fff" transform="translate(316.0156 413.459)"/><path d="m0 0 1.112 1.008-.973-1.868.402-.409-.328-.425-.37.175.047-.665-.281-.22-.147.533.258 1.432z" style="fill:none;stroke:#fff;stroke-width:.046;stroke-linecap:round;stroke-linejoin:round;stroke-miterlimit:3.864" transform="translate(316.0156 413.459)"/><path d="m0 0 .264.221-.091-.256" fill="#fff" transform="translate(317.4248 413.3535)"/><path d="m0 0 .264.221-.091-.256z" fill="none" stroke="#fff" stroke-miterlimit="3.864" stroke-width=".162" transform="translate(317.4248 413.3535)"/><path d="m0 0 .264.221-.091-.256" fill="#fff" transform="translate(317.4248 413.3535)"/><path d="m0 0 .264.221-.091-.256z" style="fill:none;stroke:#fff;stroke-width:.046;stroke-linecap:round;stroke-linejoin:round;stroke-miterlimit:3.864" transform="translate(317.4248 413.3535)"/><path d="m0 0 .206-.063-.071-.3.14-.005-.121-.49-.259.37" fill="#fff" transform="translate(317.7754 415.4443)"/><path d="m0 0 .206-.063-.071-.3.14-.005-.121-.49-.259.37z" fill="none" stroke="#fff" stroke-miterlimit="3.864" stroke-width=".162" transform="translate(317.7754 415.4443)"/><path d="m0 0 .206-.063-.071-.3.14-.005-.121-.49-.259.37" fill="#fff" transform="translate(317.7754 415.4443)"/><path d="m0 0 .206-.063-.071-.3.14-.005-.121-.49-.259.37z" style="fill:none;stroke:#fff;stroke-width:.046;stroke-linecap:round;stroke-linejoin:round;stroke-miterlimit:3.864" transform="translate(317.7754 415.4443)"/><path d="m0 0c-1.96-4.416-4.233-7.745-8.238-10.591l1.016 1.702 2.368 2.2 1.536 2.296.781.614.715 1.572.876 1.038 1.002 1.92.083.145-.153-.943" fill="#fff" transform="translate(320.3643 414.7373)"/><path d="m0 0c-1.96-4.416-4.233-7.745-8.238-10.591l1.016 1.702 2.368 2.2 1.536 2.296.781.614.715 1.572.876 1.038 1.002 1.92.083.145-.153-.943z" style="fill:none;stroke:#fff;stroke-width:.046;stroke-linecap:round;stroke-linejoin:round;stroke-miterlimit:3.864" transform="translate(320.3643 414.7373)"/><path d="m0 0-.197-.06.312-.025" fill="#fff" transform="translate(294.6475 438.3921)"/><path d="m0 0-.197-.06.312-.025z" fill="none" stroke="#fff" stroke-miterlimit="3.864" stroke-width=".162" transform="translate(294.6475 438.3921)"/><path d="m0 0-.197-.06.312-.025" fill="#fff" transform="translate(294.6475 438.3921)"/><path d="m0 0-.197-.06.312-.025z" style="fill:none;stroke:#fff;stroke-width:.046;stroke-linecap:round;stroke-linejoin:round;stroke-miterlimit:3.864" transform="translate(294.6475 438.3921)"/><path d="m0 0 .38-.968-.319-.986-.343-.21.327.878" fill="#fff" transform="translate(304.9463 430.606)"/><path d="m0 0 .38-.968-.319-.986-.343-.21.327.878z" fill="none" stroke="#fff" stroke-miterlimit="3.864" stroke-width=".162" transform="translate(304.9463 430.606)"/><path d="m0 0 .38-.968-.319-.986-.343-.21.327.878" fill="#fff" transform="translate(304.9463 430.606)"/><path d="m0 0 .38-.968-.319-.986-.343-.21.327.878z" style="fill:none;stroke:#fff;stroke-width:.046;stroke-linecap:round;stroke-linejoin:round;stroke-miterlimit:3.864" transform="translate(304.9463 430.606)"/><path d="m0 0 1.231-.008-1.407-.361.05-.493-.28.446" fill="#fff" transform="translate(297.4756 424.604)"/><path d="m0 0 1.231-.008-1.407-.361.05-.493-.28.446z" fill="none" stroke="#fff" stroke-miterlimit="3.864" stroke-width=".162" transform="translate(297.4756 424.604)"/><path d="m0 0 1.231-.008-1.407-.361.05-.493-.28.446" fill="#fff" transform="translate(297.4756 424.604)"/><path d="m0 0 1.231-.008-1.407-.361.05-.493-.28.446z" style="fill:none;stroke:#fff;stroke-width:.046;stroke-linecap:round;stroke-linejoin:round;stroke-miterlimit:3.864" transform="translate(297.4756 424.604)"/><path d="m0 0 .25-.013-.411.748-.137.613-.064.694.404.665.189-.252.224.14-.069.119.136.026.555.085.478-.137.394-.968-.686.248-.276-.299-.394.081.2-.639.362-.269-.04-.314-.02-.141.257.111.329-.475-.191-.184-.393.284-.09-.489.297-.445-.096-.644-.028-.25-.783.039-.745.632-.013.418" fill="#fff" transform="translate(289.5566 422.5181)"/><path d="m0 0 .25-.013-.411.748-.137.613-.064.694.404.665.189-.252.224.14-.069.119.136.026.555.085.478-.137.394-.968-.686.248-.276-.299-.394.081.2-.639.362-.269-.04-.314-.02-.141.257.111.329-.475-.191-.184-.393.284-.09-.489.297-.445-.096-.644-.028-.25-.783.039-.745.632-.013.418z" style="fill:none;stroke:#fff;stroke-width:.046;stroke-linecap:round;stroke-linejoin:round;stroke-miterlimit:3.864" transform="translate(289.5566 422.5181)"/><path d="m0 0 .543.473-.135.581.2.262-.372-.025-.689-.608-.022-.56" fill="#fff" transform="translate(292.9717 423.3296)"/><path d="m0 0 .543.473-.135.581.2.262-.372-.025-.689-.608-.022-.56z" fill="none" stroke="#fff" stroke-miterlimit="3.864" stroke-width=".162" transform="translate(292.9717 423.3296)"/><path d="m0 0 .543.473-.135.581.2.262-.372-.025-.689-.608-.022-.56" fill="#fff" transform="translate(292.9717 423.3296)"/><path d="m0 0 .543.473-.135.581.2.262-.372-.025-.689-.608-.022-.56z" style="fill:none;stroke:#fff;stroke-width:.046;stroke-linecap:round;stroke-linejoin:round;stroke-miterlimit:3.864" transform="translate(292.9717 423.3296)"/><path d="m0 0 .05-.492-.443-.141.106.504" fill="#fff" transform="translate(288.8164 432.5659)"/><path d="m0 0 .05-.492-.443-.141.106.504z" fill="none" stroke="#fff" stroke-miterlimit="3.864" stroke-width=".162" transform="translate(288.8164 432.5659)"/><path d="m0 0 .05-.492-.443-.141.106.504" fill="#fff" transform="translate(288.8164 432.5659)"/><path d="m0 0 .05-.492-.443-.141.106.504z" style="fill:none;stroke:#fff;stroke-width:.046;stroke-linecap:round;stroke-linejoin:round;stroke-miterlimit:3.864" transform="translate(288.8164 432.5659)"/><path d="m0 0 .963.036-.502.276-.696-.064-.131-.133" fill="#fff" transform="translate(298.4414 446.4233)"/><path d="m0 0 .963.036-.502.276-.696-.064-.131-.133z" fill="none" stroke="#fff" stroke-miterlimit="3.864" stroke-width=".162" transform="translate(298.4414 446.4233)"/><path d="m0 0 .963.036-.502.276-.696-.064-.131-.133" fill="#fff" transform="translate(298.4414 446.4233)"/><path d="m0 0 .963.036-.502.276-.696-.064-.131-.133z" style="fill:none;stroke:#fff;stroke-width:.046;stroke-linecap:round;stroke-linejoin:round;stroke-miterlimit:3.864" transform="translate(298.4414 446.4233)"/><path d="m0 0-1.283.082 1.512.198.459-.108" fill="#fff" transform="translate(298.0068 447.061)"/><path d="m0 0-1.283.082 1.512.198.459-.108z" fill="none" stroke="#fff" stroke-miterlimit="3.864" stroke-width=".162" transform="translate(298.0068 447.061)"/><path d="m0 0-1.283.082 1.512.198.459-.108" fill="#fff" transform="translate(298.0068 447.061)"/><path d="m0 0-1.283.082 1.512.198.459-.108z" style="fill:none;stroke:#fff;stroke-width:.046;stroke-linecap:round;stroke-linejoin:round;stroke-miterlimit:3.864" transform="translate(298.0068 447.061)"/><path d="m0 0-.629.081.87.013" fill="#fff" transform="translate(294.1123 447.7554)"/><path d="m0 0-.629.081.87.013z" fill="none" stroke="#fff" stroke-miterlimit="3.864" stroke-width=".162" transform="translate(294.1123 447.7554)"/><path d="m0 0-.629.081.87.013" fill="#fff" transform="translate(294.1123 447.7554)"/><path d="m0 0-.629.081.87.013z" style="fill:none;stroke:#fff;stroke-width:.046;stroke-linecap:round;stroke-linejoin:round;stroke-miterlimit:3.864" transform="translate(294.1123 447.7554)"/><path d="m0 0-.389.438-.153.611-.019.06.451-.652" fill="#fff" transform="translate(283.3828 405.8721)"/><path d="m0 0-.389.438-.153.611-.019.06.451-.652z" style="fill:none;stroke:#fff;stroke-width:.046;stroke-linecap:round;stroke-linejoin:round;stroke-miterlimit:3.864" transform="translate(283.3828 405.8721)"/><path d="m0 0-.454.699-.171.873.15-.362.153-.611.539-.802" fill="#fff" transform="translate(281.5996 407.9697)"/><path d="m0 0-.454.699-.171.873.15-.362.153-.611.539-.802z" style="fill:none;stroke:#fff;stroke-width:.046;stroke-linecap:round;stroke-linejoin:round;stroke-miterlimit:3.864" transform="translate(281.5996 407.9697)"/><path d="m0 0 .019.172.625-.252.062.005.27-.292-.188.018.024-.108.001-.015-.285-.174.15-.13-.261-.049-.379.3-.035.479" fill="#fff" transform="translate(281.7031 409.8096)"/><path d="m0 0 .019.172.625-.252.062.005.27-.292-.188.018.024-.108.001-.015-.285-.174.15-.13-.261-.049-.379.3-.035.479z" style="fill:none;stroke:#fff;stroke-width:.046;stroke-linecap:round;stroke-linejoin:round;stroke-miterlimit:3.864" transform="translate(281.7031 409.8096)"/><path d="m0 0 .258-.791-.3.508" fill="#fff" transform="translate(283.0566 410.7119)"/><path d="m0 0 .258-.791-.3.508z" fill="none" stroke="#fff" stroke-miterlimit="3.864" stroke-width=".162" transform="translate(283.0566 410.7119)"/><path d="m0 0 .258-.791-.3.508" fill="#fff" transform="translate(283.0566 410.7119)"/><path d="m0 0 .258-.791-.3.508z" style="fill:none;stroke:#fff;stroke-width:.046;stroke-linecap:round;stroke-linejoin:round;stroke-miterlimit:3.864" transform="translate(283.0566 410.7119)"/><path d="m0 0 .011-.153-.234-.001" fill="#fff" transform="translate(281.4609 410.8184)"/><path d="m0 0 .011-.153-.234-.001z" fill="none" stroke="#fff" stroke-miterlimit="3.864" stroke-width=".162" transform="translate(281.4609 410.8184)"/><path d="m0 0 .011-.153-.234-.001" style="fill:none;stroke:#fff;stroke-width:.046;stroke-linecap:round;stroke-linejoin:round;stroke-miterlimit:3.864" transform="translate(281.4609 410.8184)"/><path d="m0 0 .163-.548-.031-.67-.111.474" fill="#fff" transform="translate(274.0889 420.8267)"/><path d="m0 0 .163-.548-.031-.67-.111.474z" style="fill:none;stroke:#fff;stroke-width:.046;stroke-linecap:round;stroke-linejoin:round;stroke-miterlimit:3.864" transform="translate(274.0889 420.8267)"/><path d="m0 0-.124.659.069.13.312-.678-.145-.15" fill="#fff" transform="translate(276.9707 417.9346)"/><path d="m0 0-.124.659.069.13.312-.678-.145-.15z" style="fill:none;stroke:#fff;stroke-width:.046;stroke-linecap:round;stroke-linejoin:round;stroke-miterlimit:3.864" transform="translate(276.9707 417.9346)"/><path d="m0 0c-3.349 6.602-11.073 9.943-18.09 10.727" style="fill:none;stroke:#fff;stroke-width:.216;stroke-linecap:round;stroke-linejoin:round;stroke-miterlimit:3.864" transform="translate(320.7646 430.2095)"/><path d="m0 0c2.202.034 7.795-6.04 7.922-6.819-17.459 5.314-44.267-44.766-26.186-61.759.48-.449 1.805-1.088 1.764-1.066-1.362-.956-7.117-1.106-9.747-.692-.637.099-1.06.412-1.466.896-19.393 23.07 7.612 69.119 27.713 69.44" fill="#007baf" transform="translate(320.3975 456.2651)"/><path d="m0 0c.139 2.008 3.735 7.459 5.973 8.842-.163-.177-.321-.503-.355-.699-2.158-14.695 26.7-38.049 54.192-33.915.366.174 1.268 2.924 1.268 2.924 2.822-2.778 6.669-3.265 11.003-2.048-7.791-9.252-21.231-12.854-21.231-12.854s1.85 1.363 3.214 3.31c-35.06-3.506-54.919 22.108-54.064 34.44" fill="#0087c0" transform="translate(263.4619 440.5483)"/><g fill="#fff"><path d="m0 0c.453-.758 1.313-1.46 1.898-1.995.415.558.78 1.339 1.168 1.776 1.219-1.169 2.071-1.679 3.264-2.532.444.278.603.798 1.042 1.334-1.339.925-2.314 1.729-3.482 2.873.268.413.631.9.9 1.266 1.243-1.243 2.314-2.093 3.677-3.141.365.486.681.877 1.071 1.412-1.85 1.46-4.022 3.412-5.723 5.186-1.216-1.851-2.549-4.231-3.815-6.179" transform="translate(271.54 424.9097)"/><path d="m0 0c.853-.681 2.192-1.533 2.192-1.533l3.786 6.662s-1.533.986-2.155 1.446c-.315-.493-3.823-6.575-3.823-6.575" transform="translate(279.5439 417.4297)"/><path d="m0 0s1.797-.506 2.775-.682c.076.232 1.972 5.309 1.972 5.309 1.023-.342 2.946-.804 2.946-.804l.536 1.703s-4.916 1.104-8.692 2.639c-.059-.276-.634-1.615-.634-1.615 1.339-.561 3.044-1.119 3.044-1.119" transform="translate(297.4004 408.5752)"/><path d="m0 0c-.97-.019-2.425-.027-3.432.05.754.803 2.352 2.442 2.352 2.442s.691-1.566 1.08-2.492m1.065-2.563s1.704-.048 2.896.047c-1.679 3.995-2.405 5.314-2.843 6.555-1.096 0-1.766.067-3.219.238-1.655-1.777-5.016-5.039-6.452-6.353.999-.172 1.598-.266 2.67-.357.365.439 1.018 1.058 1.018 1.058 1.852-.174 5.515-.165 5.515-.165" fill-rule="evenodd" transform="translate(311.877 409.3223)"/><path d="m0 0s-1.911.943-2.896 1.516c.706.603 2.531 1.991 2.531 1.991zm.561-3.384 2.58-.9s-.828 5.6-1.072 8.668c-.699.267-2.069.917-2.918 1.387-.428-.298-4.045-2.727-7.041-4.764 1.001-.647 2.169-1.286 2.169-1.286l.925.743c1.927-1.098 5.284-2.654 5.284-2.654" fill-rule="evenodd" transform="translate(291.6201 413.7773)"/></g></g></svg>