<?xml version="1.0" encoding="UTF-8"?><svg id="uuid-ff37eeef-5405-44c5-8118-37004ff5b7bb" xmlns="http://www.w3.org/2000/svg" width="354.76" height="136.36" viewBox="0 0 354.76 136.36"><path d="m30.15,68.18c0-26.78,19.25-45.78,46.34-45.78s46.34,19,46.34,45.78-19.31,45.78-46.34,45.78-46.34-19-46.34-45.78Zm67.95,0c0-13.39-9.03-22.8-21.61-22.8s-21.61,9.41-21.61,22.8,9.03,22.73,21.61,22.73,21.61-9.41,21.61-22.73Z" style="stroke-width:0px;"/><path d="m117.11,111.97l33.01-87.57h25.79l33.01,87.57h-25.79l-5.23-15.14h-29.77l-5.23,15.14h-25.79Zm37-34.63h17.75l-8.84-25.35-8.91,25.35Z" style="stroke-width:0px;"/><path d="m203.19,68.18c0-26.78,19.31-45.78,46.34-45.78,21.74,0,38.68,12.52,44.16,31.02l-23.67,7.1c-3.05-10.09-11.09-15.63-20.49-15.63-12.58,0-21.68,9.03-21.68,23.3s9.09,23.29,21.68,23.29c11.52,0,16.07-3.67,17.88-7.91h-19.93v-18h47.28c0,31.7-15.38,48.4-45.22,48.4-27.16,0-46.34-19-46.34-45.78Z" style="stroke-width:0px;"/><path d="m324.61,35.11c0,7.02-5.69,12.71-12.71,12.71s-12.71-5.69-12.71-12.71,5.69-12.71,12.71-12.71,12.71,5.69,12.71,12.71Z" style="fill:#0078b7; stroke-width:0px;"/><rect x="300.72" y="51.99" width="22.36" height="59.98" style="stroke-width:0px;"/></svg>