<?xml version="1.0" encoding="utf-8"?>
<!-- Generator: Adobe Illustrator 28.0.0, SVG Export Plug-In . SVG Version: 6.00 Build 0)  -->
<svg version="1.1" id="Group_28011" xmlns="http://www.w3.org/2000/svg" xmlns:xlink="http://www.w3.org/1999/xlink" x="0px"
	 y="0px" viewBox="0 0 330.6 60" style="enable-background:new 0 0 330.6 60;" xml:space="preserve">
<style type="text/css">
	.st0{fill:#2E3091;}
	.st1{fill:#2E3092;}
	.st2{fill:none;}
	.st3{fill:none;stroke:#FFFFFF;stroke-width:9.000000e-03;stroke-miterlimit:10;}
	.st4{fill:#FEF200;}
</style>
<g id="Group_28011-2">
	<path id="Path_23712" class="st0" d="M46.2,5C38.9,0.7,30,0.5,22.6,4.5C9,11.4,8.7,24.1,8.7,24.1c-0.8,6.7,1.2,13.4,5.5,18.7
		c1,1.3,1.5,2.8,1.4,4.4c-0.1,1.2-0.7,2.3-1.7,3c-2.3,1.2-5.1,0.7-6.8-1.2C4.8,46.7,0.6,41,0,30.7C-0.3,22.3,3,14.1,9,8.2
		C9,8.2,25.4-7.9,46.2,5C46.5,5.2,46.8,5.3,46.2,5"/>
	<path id="Path_23713" class="st0" d="M14,55c7.2,4.3,16.2,4.5,23.6,0.5c13.6-6.9,13.9-19.7,13.9-19.7c0.8-6.7-1.2-13.4-5.5-18.7
		c-1-1.3-1.5-2.8-1.4-4.4c0.1-1.2,0.7-2.3,1.7-3c2.3-1.2,5.1-0.7,6.8,1.2c2.2,2.3,6.4,8,6.9,18.3c0.4,8.4-2.9,16.6-9,22.4
		C51.1,51.8,34.8,67.9,14,55C13.7,54.8,13.4,54.7,14,55"/>
	<path id="Path_23714" class="st0" d="M68.2,50.5l-0.7,2.2h-0.9l2.4-7H70l2.4,7h-1l-0.8-2.2H68.2z M70.5,49.8l-0.7-2
		c-0.2-0.5-0.3-0.9-0.4-1.3h0c-0.1,0.4-0.2,0.8-0.4,1.3l-0.7,2L70.5,49.8z"/>
	<path id="Path_23715" class="st0" d="M73.2,51.8c0.4,0.2,0.8,0.4,1.2,0.4c0.7,0,1-0.3,1-0.8c0-0.4-0.3-0.7-0.9-0.9
		c-0.9-0.3-1.3-0.8-1.3-1.4c0-0.9,0.8-1.5,1.6-1.5c0,0,0.1,0,0.1,0c0.4,0,0.9,0.1,1.2,0.3l-0.2,0.7c-0.3-0.2-0.7-0.3-1-0.3
		c-0.5,0-0.8,0.3-0.8,0.7c0,0.4,0.3,0.6,1,0.9c0.9,0.3,1.3,0.8,1.3,1.5c0,0.9-0.7,1.5-1.9,1.5c-0.5,0-1-0.1-1.4-0.3L73.2,51.8z"/>
	<path id="Path_23716" class="st0" d="M78.5,46.2c0,0.3-0.3,0.6-0.6,0.5c-0.3,0-0.5-0.2-0.5-0.5c0-0.3,0.2-0.6,0.5-0.6c0,0,0,0,0,0
		C78.2,45.7,78.4,45.9,78.5,46.2C78.5,46.2,78.5,46.2,78.5,46.2 M77.4,47.7h0.9v5h-0.9V47.7z"/>
	<path id="Path_23717" class="st0" d="M82.7,52.7l-0.1-0.6h0c-0.4,0.5-0.9,0.8-1.5,0.8c-0.8,0.1-1.5-0.5-1.5-1.3c0,0,0-0.1,0-0.1
		c0-1.2,1.1-1.9,3-1.9v-0.1c0.1-0.6-0.3-1.1-0.9-1.2c-0.1,0-0.2,0-0.2,0c-0.5,0-0.9,0.1-1.3,0.4L79.8,48c0.5-0.3,1.1-0.5,1.7-0.4
		c1.5,0,1.9,1.1,1.9,2.1v1.9c0,0.4,0,0.8,0.1,1.2L82.7,52.7z M82.5,50.1c-1,0-2.1,0.2-2.1,1.1c0,0.4,0.3,0.8,0.7,0.9
		c0,0,0.1,0,0.1,0c0.5,0,1-0.3,1.2-0.8c0-0.1,0-0.2,0.1-0.3V50.1z"/>
	<path id="Path_23718" class="st0" d="M87.1,45.8c0.6-0.1,1.2-0.1,1.7-0.1c0.7-0.1,1.4,0.2,2,0.6c0.4,0.4,0.6,0.9,0.6,1.5
		c0,0.6-0.2,1.1-0.5,1.5c-0.6,0.5-1.4,0.8-2.1,0.8c-0.2,0-0.5,0-0.7-0.1v2.8h-0.9L87.1,45.8z M88,49.1c0.2,0.1,0.5,0.1,0.8,0.1
		c1.1,0,1.8-0.5,1.8-1.5c0-0.9-0.7-1.4-1.7-1.4c-0.3,0-0.6,0-0.9,0.1L88,49.1z"/>
	<path id="Path_23719" class="st0" d="M95.2,52.7l-0.1-0.6h0c-0.4,0.5-0.9,0.8-1.5,0.8c-0.8,0.1-1.5-0.5-1.5-1.3c0,0,0-0.1,0-0.1
		c0-1.2,1.1-1.9,3-1.9v-0.1c0.1-0.6-0.3-1.1-0.9-1.2c-0.1,0-0.2,0-0.2,0c-0.5,0-0.9,0.1-1.3,0.4L92.3,48c0.5-0.3,1.1-0.5,1.7-0.4
		c1.5,0,1.9,1.1,1.9,2.1v1.9c0,0.4,0,0.8,0.1,1.2L95.2,52.7z M95,50.1c-1,0-2.1,0.2-2.1,1.1c0,0.4,0.3,0.8,0.7,0.9c0,0,0.1,0,0.1,0
		c0.5,0,1-0.3,1.2-0.8c0-0.1,0-0.2,0.1-0.3V50.1z"/>
	<path id="Path_23720" class="st0" d="M101,52.5c-0.5,0.2-0.9,0.3-1.4,0.3c-1.3,0.1-2.4-1-2.5-2.3c0-0.1,0-0.2,0-0.3
		c-0.1-1.4,1-2.6,2.4-2.7c0.1,0,0.2,0,0.3,0c0.4,0,0.9,0.1,1.3,0.3l-0.2,0.7c-0.3-0.2-0.7-0.3-1.1-0.2c-1,0.1-1.8,1-1.8,2
		c0.1,0.9,0.8,1.7,1.8,1.8c0.4,0,0.8-0.1,1.1-0.2L101,52.5z"/>
	<path id="Path_23721" class="st0" d="M103.1,46.2c0,0.3-0.3,0.6-0.6,0.5c-0.3,0-0.5-0.2-0.5-0.5c0-0.3,0.2-0.6,0.5-0.6c0,0,0,0,0,0
		C102.8,45.7,103.1,45.9,103.1,46.2C103.1,46.2,103.1,46.2,103.1,46.2 M102,47.7h0.9v5H102V47.7z"/>
	<path id="Path_23722" class="st0" d="M104.6,52.7v-4.3h-0.7v-0.7h0.7v-0.3c-0.1-1.1,0.7-2.1,1.8-2.2c0.1,0,0.3,0,0.4,0
		c0.4,0,0.9,0.1,1.3,0.3l-0.3,0.7c-0.3-0.2-0.7-0.3-1.1-0.3c-1,0-1.2,0.7-1.2,1.5v0.2h2.9v5h-0.9v-4.3h-2v4.3L104.6,52.7z"/>
	<path id="Path_23723" class="st0" d="M113.5,52.5c-0.5,0.2-0.9,0.3-1.4,0.3c-1.3,0.1-2.4-1-2.5-2.3c0-0.1,0-0.2,0-0.3
		c-0.1-1.4,1-2.6,2.4-2.7c0.1,0,0.2,0,0.3,0c0.4,0,0.9,0.1,1.3,0.3l-0.2,0.7c-0.3-0.2-0.7-0.3-1.1-0.2c-1,0.1-1.8,1-1.8,2
		c0.1,0.9,0.8,1.7,1.8,1.8c0.4,0,0.8-0.1,1.1-0.2L113.5,52.5z"/>
	<path id="Path_23724" class="st0" d="M121.7,52.5c-0.6,0.2-1.2,0.4-1.9,0.3c-1.8,0.1-3.4-1.3-3.5-3.1c0-0.2,0-0.3,0-0.5
		c-0.1-1.9,1.4-3.6,3.3-3.7c0.1,0,0.3,0,0.4,0c0.6,0,1.1,0.1,1.7,0.3l-0.2,0.7c-0.4-0.2-0.9-0.3-1.4-0.3c-1.4-0.1-2.7,1-2.8,2.5
		c0,0.1,0,0.3,0,0.4c-0.2,1.4,0.9,2.7,2.3,2.8c0.1,0,0.3,0,0.4,0c0.5,0,1-0.1,1.5-0.3L121.7,52.5z"/>
	<path id="Path_23725" class="st0" d="M127.3,50.1c0.1,1.4-0.9,2.5-2.2,2.7c-0.1,0-0.2,0-0.3,0c-1.3,0-2.4-1.1-2.4-2.4
		c0-0.1,0-0.1,0-0.2c-0.1-1.4,0.9-2.5,2.2-2.7c0.1,0,0.2,0,0.3,0c1.3,0,2.4,1,2.4,2.3C127.3,50,127.3,50.1,127.3,50.1 M123.3,50.2
		c0,1.1,0.6,1.9,1.5,1.9c0.9,0,1.5-0.8,1.5-2c0-0.9-0.4-1.9-1.5-1.9S123.3,49.2,123.3,50.2"/>
	<path id="Path_23726" class="st0" d="M132.7,51.3c0,0.5,0,1,0,1.4h-0.8l-0.1-0.8h0c-0.3,0.6-1,0.9-1.7,0.9c-0.8,0-1.7-0.4-1.7-2.2
		v-2.9h0.9v2.8c0,1,0.3,1.6,1.1,1.6c0.5,0,1-0.3,1.2-0.8c0.1-0.2,0.1-0.3,0.1-0.5v-3.1h0.9L132.7,51.3z"/>
	<path id="Path_23727" class="st0" d="M134.2,49c0-0.5,0-0.9,0-1.4h0.8l0.1,0.8h0c0.3-0.6,1-1,1.7-0.9c0.7,0,1.8,0.4,1.8,2.1v3h-0.9
		v-2.9c0-0.8-0.3-1.5-1.2-1.5c-0.7,0-1.3,0.6-1.3,1.4v3h-0.9L134.2,49z"/>
	<path id="Path_23728" class="st0" d="M145.1,46.2c0,0.3-0.3,0.6-0.6,0.5c-0.3,0-0.5-0.2-0.5-0.5c0-0.3,0.2-0.6,0.5-0.6c0,0,0,0,0,0
		C144.8,45.7,145.1,45.9,145.1,46.2C145.1,46.2,145.1,46.2,145.1,46.2 M144.1,47.7h0.9v5h-0.9V47.7z"/>
	<rect id="Rectangle_11378" x="146.5" y="45.3" class="st0" width="0.9" height="7.4"/>
	<path id="Path_23729" class="st0" d="M151.3,52.7v-4.3h-0.7v-0.7h0.7v-0.2c-0.1-0.6,0.2-1.3,0.6-1.8c0.3-0.3,0.8-0.5,1.2-0.5
		c0.3,0,0.5,0,0.8,0.1l-0.1,0.7c-0.2-0.1-0.4-0.1-0.6-0.1c-0.8,0-1,0.7-1,1.5v0.3h1.2v0.7h-1.2v4.3L151.3,52.7z"/>
	<path id="Path_23730" class="st0" d="M158.6,50.1c0.1,1.4-0.9,2.5-2.2,2.7c-0.1,0-0.2,0-0.3,0c-1.3,0-2.4-1.1-2.4-2.4
		c0-0.1,0-0.1,0-0.2c-0.1-1.4,0.9-2.5,2.2-2.7c0.1,0,0.2,0,0.3,0c1.3,0,2.4,1,2.4,2.3C158.7,50,158.6,50.1,158.6,50.1 M154.6,50.2
		c0,1.1,0.6,1.9,1.5,1.9c0.9,0,1.5-0.8,1.5-2c0-0.9-0.4-1.9-1.5-1.9S154.6,49.2,154.6,50.2"/>
	<path id="Path_23731" class="st0" d="M159.8,49.2c0-0.6,0-1.1,0-1.6h0.8l0,1h0c0.2-0.6,0.7-1.1,1.4-1.1c0.1,0,0.2,0,0.3,0v0.9
		c-0.1,0-0.2,0-0.3,0c-0.6,0-1.2,0.5-1.2,1.2c0,0.1,0,0.3,0,0.4v2.7h-0.9V49.2z"/>
	<path id="Path_23732" class="st0" d="M166.3,46.5h-2.1v-0.8h5.2v0.8h-2.1v6.2h-0.9L166.3,46.5z"/>
	<path id="Path_23733" class="st0" d="M169.7,49.2c0-0.6,0-1.1,0-1.6h0.8l0,1h0c0.2-0.6,0.7-1.1,1.4-1.1c0.1,0,0.2,0,0.3,0v0.9
		c-0.1,0-0.2,0-0.3,0c-0.6,0-1.2,0.5-1.2,1.2c0,0.1,0,0.3,0,0.4v2.7h-0.9V49.2z"/>
	<path id="Path_23734" class="st0" d="M175.8,52.7l-0.1-0.6h0c-0.4,0.5-0.9,0.8-1.5,0.8c-0.8,0.1-1.5-0.5-1.5-1.3c0,0,0-0.1,0-0.1
		c0-1.2,1.1-1.9,3-1.9v-0.1c0.1-0.6-0.3-1.1-0.9-1.2c-0.1,0-0.2,0-0.2,0c-0.5,0-0.9,0.1-1.3,0.4L173,48c0.5-0.3,1.1-0.5,1.7-0.4
		c1.5,0,1.9,1.1,1.9,2.1v1.9c0,0.4,0,0.8,0.1,1.2L175.8,52.7z M175.7,50.1c-1,0-2.1,0.2-2.1,1.1c0,0.4,0.3,0.8,0.7,0.9
		c0,0,0.1,0,0.1,0c0.5,0,1-0.3,1.2-0.8c0-0.1,0-0.2,0.1-0.3V50.1z"/>
	<path id="Path_23735" class="st0" d="M182.4,45.3v6.1c0,0.4,0,1,0,1.3h-0.8l0-0.9h0c-0.3,0.6-1,1-1.7,1c-1.3-0.1-2.2-1.2-2.2-2.4
		c0,0,0-0.1,0-0.1c-0.2-1.3,0.8-2.5,2.1-2.7c0.1,0,0.1,0,0.2,0c0.6,0,1.2,0.3,1.5,0.8h0v-3L182.4,45.3z M181.5,49.7
		c0-0.1,0-0.3,0-0.4c-0.1-0.6-0.7-1.1-1.3-1.1c-0.9,0-1.5,0.8-1.5,1.9c0,1,0.5,1.9,1.5,1.9c0.6,0,1.2-0.5,1.3-1.1c0-0.1,0-0.3,0-0.4
		V49.7z"/>
	<path id="Path_23736" class="st0" d="M184.4,50.3c-0.1,0.9,0.6,1.7,1.5,1.7c0.1,0,0.2,0,0.3,0c0.5,0,1-0.1,1.4-0.3l0.2,0.7
		c-0.5,0.2-1.1,0.3-1.7,0.3c-1.3,0.1-2.4-0.9-2.5-2.2c0-0.1,0-0.2,0-0.4c-0.2-1.3,0.8-2.6,2.2-2.7c0.1,0,0.1,0,0.2,0
		c1.2,0,2.1,1,2.1,2.2c0,0.1,0,0.1,0,0.2c0,0.1,0,0.3,0,0.4H184.4z M187.1,49.7c0.1-0.7-0.4-1.4-1.1-1.5c-0.1,0-0.1,0-0.2,0
		c-0.8,0.1-1.4,0.7-1.4,1.5H187.1z"/>
	<path id="Path_23737" class="st0" d="M191.4,45.7h3.8v0.8h-2.9v2.3h2.7v0.8h-2.7v3.2h-0.9V45.7z"/>
	<path id="Path_23738" class="st0" d="M198.7,52.7l-0.1-0.6h0c-0.4,0.5-0.9,0.8-1.5,0.8c-0.8,0.1-1.5-0.5-1.5-1.3c0,0,0-0.1,0-0.1
		c0-1.2,1.1-1.9,3-1.9v-0.1c0.1-0.6-0.3-1.1-0.9-1.2c-0.1,0-0.2,0-0.2,0c-0.5,0-0.9,0.1-1.3,0.4l-0.2-0.6c0.5-0.3,1.1-0.5,1.7-0.4
		c1.5,0,1.9,1.1,1.9,2.1v1.9c0,0.4,0,0.8,0.1,1.2L198.7,52.7z M198.6,50.1c-1,0-2.1,0.2-2.1,1.1c0,0.4,0.3,0.8,0.7,0.9
		c0,0,0.1,0,0.1,0c0.5,0,1-0.3,1.2-0.8c0-0.1,0-0.2,0.1-0.3V50.1z"/>
	<path id="Path_23739" class="st0" d="M204.6,52.5c-0.5,0.2-0.9,0.3-1.4,0.3c-1.3,0.1-2.4-0.9-2.5-2.3c0-0.1,0-0.2,0-0.3
		c-0.1-1.4,1-2.6,2.4-2.7c0.1,0,0.2,0,0.3,0c0.4,0,0.9,0.1,1.3,0.3l-0.2,0.7c-0.3-0.2-0.7-0.3-1.1-0.2c-1,0.1-1.8,1-1.8,2
		c0.1,0.9,0.8,1.7,1.8,1.8c0.4,0,0.8-0.1,1.1-0.2L204.6,52.5z"/>
	<path id="Path_23740" class="st0" d="M206.7,46.2c0,0.3-0.3,0.6-0.6,0.5c-0.3,0-0.5-0.2-0.5-0.5c0-0.3,0.2-0.6,0.5-0.6c0,0,0,0,0,0
		C206.4,45.7,206.6,45.9,206.7,46.2C206.7,46.2,206.7,46.2,206.7,46.2 M205.6,47.7h0.9v5h-0.9V47.7z"/>
	<rect id="Rectangle_11379" x="208.1" y="45.3" class="st0" width="0.9" height="7.4"/>
	<path id="Path_23741" class="st0" d="M211.5,46.2c0,0.3-0.3,0.6-0.6,0.5c-0.3,0-0.5-0.2-0.5-0.5c0-0.3,0.2-0.6,0.5-0.6c0,0,0,0,0,0
		C211.3,45.7,211.5,45.9,211.5,46.2C211.5,46.2,211.5,46.2,211.5,46.2 M210.5,47.7h0.9v5h-0.9V47.7z"/>
	<path id="Path_23742" class="st0" d="M214.1,46.2v1.4h1.3v0.7h-1.3v2.7c0,0.6,0.2,1,0.7,1c0.2,0,0.4,0,0.5-0.1l0,0.7
		c-0.3,0.1-0.5,0.1-0.8,0.1c-0.4,0-0.7-0.1-1-0.4c-0.3-0.4-0.4-0.8-0.4-1.3v-2.7h-0.8v-0.7h0.8v-1.2L214.1,46.2z"/>
	<path id="Path_23743" class="st0" d="M219.2,52.7l-0.1-0.6h0c-0.4,0.5-0.9,0.8-1.5,0.8c-0.8,0.1-1.5-0.5-1.5-1.3c0,0,0-0.1,0-0.1
		c0-1.2,1.1-1.9,3-1.9v-0.1c0.1-0.6-0.3-1.1-0.9-1.2c-0.1,0-0.2,0-0.2,0c-0.5,0-0.9,0.1-1.3,0.4l-0.2-0.6c0.5-0.3,1.1-0.5,1.7-0.4
		c1.5,0,1.9,1.1,1.9,2.1v1.9c0,0.4,0,0.8,0.1,1.2L219.2,52.7z M219.1,50.1c-1,0-2.1,0.2-2.1,1.1c0,0.4,0.3,0.8,0.7,0.9
		c0,0,0.1,0,0.1,0c0.5,0,1-0.3,1.2-0.8c0-0.1,0-0.2,0.1-0.3L219.1,50.1z"/>
	<path id="Path_23744" class="st0" d="M222.5,46.2v1.4h1.3v0.7h-1.3v2.7c0,0.6,0.2,1,0.7,1c0.2,0,0.4,0,0.5-0.1l0,0.7
		c-0.3,0.1-0.5,0.1-0.8,0.1c-0.4,0-0.7-0.1-1-0.4c-0.3-0.4-0.4-0.8-0.4-1.3v-2.7h-0.8v-0.7h0.8v-1.2L222.5,46.2z"/>
	<path id="Path_23745" class="st0" d="M225.9,46.2c0,0.3-0.3,0.6-0.6,0.5c-0.3,0-0.5-0.2-0.5-0.5c0-0.3,0.2-0.6,0.5-0.6c0,0,0,0,0,0
		C225.6,45.7,225.8,45.9,225.9,46.2C225.9,46.2,225.9,46.2,225.9,46.2 M224.8,47.7h0.9v5h-0.9V47.7z"/>
	<path id="Path_23746" class="st0" d="M231.8,50.1c0.1,1.4-0.9,2.5-2.2,2.7c-0.1,0-0.2,0-0.3,0c-1.3,0-2.4-1.1-2.4-2.4
		c0-0.1,0-0.1,0-0.2c-0.1-1.4,0.9-2.5,2.2-2.7c0.1,0,0.2,0,0.3,0c1.3,0,2.4,1,2.4,2.3C231.8,50,231.8,50.1,231.8,50.1 M227.8,50.2
		c0,1.1,0.6,1.9,1.5,1.9c0.9,0,1.5-0.8,1.5-2c0-0.9-0.4-1.9-1.5-1.9S227.8,49.2,227.8,50.2"/>
	<path id="Path_23747" class="st0" d="M233,49c0-0.5,0-0.9,0-1.4h0.8l0.1,0.8h0c0.3-0.6,1-1,1.7-0.9c0.7,0,1.8,0.4,1.8,2.1v3h-0.9
		v-2.9c0-0.8-0.3-1.5-1.2-1.5c-0.6,0-1.1,0.4-1.2,0.9c0,0.1-0.1,0.3-0.1,0.4v3H233L233,49z"/>
	<path id="Path_23748" class="st0" d="M245.4,52.7c-0.2-0.2-0.4-0.4-0.7-0.7c-0.6,0.5-1.3,0.8-2.1,0.8c-1.1,0.1-2.1-0.7-2.1-1.8
		c0-0.1,0-0.1,0-0.2c0-0.9,0.6-1.7,1.4-2.1v0c-0.4-0.4-0.6-0.9-0.6-1.5c0-0.9,0.7-1.7,1.7-1.7c0,0,0.1,0,0.1,0
		c0.8-0.1,1.5,0.6,1.5,1.4c0,0,0,0.1,0,0.1c0,0.7-0.4,1.3-1.5,1.9v0c0.6,0.7,1.3,1.5,1.7,2c0.4-0.6,0.6-1.3,0.7-2.1h0.8
		c-0.1,0.9-0.5,1.8-1,2.6c0.4,0.4,0.7,0.8,1.2,1.2L245.4,52.7z M244.3,51.5c-0.4-0.5-1.2-1.3-2-2.2c-0.5,0.3-0.9,0.8-0.9,1.4
		c0,0.8,0.6,1.4,1.4,1.4c0,0,0.1,0,0.1,0C243.4,52.1,243.9,51.9,244.3,51.5 M242.2,47.2c0,0.5,0.2,0.9,0.5,1.3
		c0.7-0.4,1.2-0.8,1.2-1.4c0-0.5-0.3-0.9-0.7-0.9c0,0,0,0-0.1,0C242.5,46.2,242.1,46.6,242.2,47.2C242.2,47.2,242.2,47.2,242.2,47.2
		"/>
	<path id="Path_23749" class="st0" d="M253.1,49.4h-2.7v2.5h3v0.8h-3.9v-7h3.8v0.8h-2.9v2.2h2.7V49.4z"/>
	<rect id="Rectangle_11380" x="254.6" y="45.3" class="st0" width="0.9" height="7.4"/>
	<path id="Path_23750" class="st0" d="M257.6,50.3c-0.1,0.9,0.6,1.7,1.5,1.7c0.1,0,0.2,0,0.3,0c0.5,0,1-0.1,1.4-0.3l0.2,0.7
		c-0.5,0.2-1.1,0.3-1.7,0.3c-1.3,0.1-2.4-0.9-2.5-2.2c0-0.1,0-0.2,0-0.4c-0.2-1.3,0.8-2.6,2.2-2.7c0.1,0,0.1,0,0.2,0
		c1.2,0,2.1,1,2.1,2.2c0,0.1,0,0.1,0,0.2c0,0.1,0,0.3,0,0.4H257.6z M260.3,49.7c0.1-0.7-0.4-1.4-1.1-1.5c-0.1,0-0.1,0-0.2,0
		c-0.8,0.1-1.4,0.7-1.4,1.5H260.3z"/>
	<path id="Path_23751" class="st0" d="M265.9,52.5c-0.5,0.2-0.9,0.3-1.4,0.3c-1.3,0.1-2.4-0.9-2.5-2.3c0-0.1,0-0.2,0-0.3
		c-0.1-1.4,1-2.6,2.4-2.7c0.1,0,0.2,0,0.3,0c0.4,0,0.9,0.1,1.3,0.3l-0.2,0.7c-0.3-0.2-0.7-0.3-1.1-0.2c-1,0.1-1.8,1-1.8,2
		c0.1,0.9,0.8,1.7,1.8,1.8c0.4,0,0.8-0.1,1.1-0.2L265.9,52.5z"/>
	<path id="Path_23752" class="st0" d="M268.2,46.2v1.4h1.3v0.7h-1.3v2.7c0,0.6,0.2,1,0.7,1c0.2,0,0.4,0,0.5-0.1l0,0.7
		c-0.3,0.1-0.5,0.1-0.8,0.1c-0.4,0-0.7-0.1-1-0.4c-0.3-0.4-0.4-0.8-0.4-1.3v-2.7h-0.8v-0.7h0.8v-1.2L268.2,46.2z"/>
	<path id="Path_23753" class="st0" d="M270.5,49.2c0-0.6,0-1.1,0-1.6h0.8l0,1h0c0.2-0.6,0.7-1.1,1.4-1.1c0.1,0,0.2,0,0.3,0v0.9
		c-0.1,0-0.2,0-0.3,0c-0.6,0-1.2,0.5-1.2,1.2c0,0.1,0,0.3,0,0.4v2.7h-0.9L270.5,49.2z"/>
	<path id="Path_23754" class="st0" d="M278.4,50.1c0.1,1.4-0.9,2.5-2.2,2.7c-0.1,0-0.2,0-0.3,0c-1.3,0-2.4-1.1-2.4-2.4
		c0-0.1,0-0.1,0-0.2c-0.1-1.4,0.9-2.5,2.2-2.7c0.1,0,0.2,0,0.3,0c1.3,0,2.4,1,2.4,2.3C278.4,50,278.4,50.1,278.4,50.1 M274.4,50.2
		c0,1.1,0.6,1.9,1.5,1.9c0.9,0,1.5-0.8,1.5-2c0-0.9-0.4-1.9-1.5-1.9S274.4,49.2,274.4,50.2"/>
	<path id="Path_23755" class="st0" d="M279.5,49c0-0.5,0-0.9,0-1.4h0.8l0.1,0.8h0c0.3-0.6,1-1,1.7-0.9c0.7,0,1.8,0.4,1.8,2.1v3h-0.9
		v-2.9c0-0.8-0.3-1.5-1.2-1.5c-0.6,0-1.1,0.4-1.2,0.9c0,0.1-0.1,0.3-0.1,0.4v3h-0.9V49z"/>
	<path id="Path_23756" class="st0" d="M286.3,46.2c0,0.3-0.3,0.6-0.6,0.5c-0.3,0-0.5-0.2-0.5-0.5c0-0.3,0.2-0.6,0.5-0.6c0,0,0,0,0,0
		C286.1,45.7,286.3,45.9,286.3,46.2C286.3,46.2,286.3,46.2,286.3,46.2 M285.3,47.7h0.9v5h-0.9V47.7z"/>
	<path id="Path_23757" class="st0" d="M291.3,52.5c-0.5,0.2-0.9,0.3-1.4,0.3c-1.3,0.1-2.4-0.9-2.5-2.3c0-0.1,0-0.2,0-0.3
		c-0.1-1.4,1-2.6,2.4-2.7c0.1,0,0.2,0,0.3,0c0.4,0,0.9,0.1,1.3,0.3l-0.2,0.7c-0.3-0.2-0.7-0.3-1.1-0.2c-1,0.1-1.8,1-1.8,2
		c0.1,0.9,0.8,1.7,1.8,1.8c0.4,0,0.8-0.1,1.1-0.2L291.3,52.5z"/>
	<path id="Path_23758" class="st0" d="M294.7,45.8c0.5-0.1,1.1-0.1,1.7-0.1c0.7-0.1,1.4,0.1,1.9,0.5c0.4,0.3,0.6,0.8,0.6,1.2
		c0,0.7-0.5,1.3-1.2,1.5v0c0.8,0.2,1.4,0.9,1.4,1.8c0,0.5-0.2,1-0.6,1.4c-0.7,0.5-1.6,0.7-2.4,0.7c-0.5,0-0.9,0-1.4-0.1V45.8z
		 M295.6,48.6h0.8c1,0,1.5-0.5,1.5-1.2c0-0.8-0.6-1.1-1.5-1.1c-0.3,0-0.5,0-0.8,0.1L295.6,48.6z M295.6,52c0.3,0,0.5,0,0.8,0
		c0.9,0,1.8-0.3,1.8-1.4c0-1-0.8-1.4-1.8-1.4h-0.8L295.6,52z"/>
	<path id="Path_23759" class="st0" d="M304.5,51.3c0,0.5,0,1,0,1.4h-0.8l-0.1-0.8h0c-0.3,0.6-1,0.9-1.7,0.9c-0.8,0-1.7-0.4-1.7-2.2
		v-2.9h0.9v2.8c0,1,0.3,1.6,1.1,1.6c0.7,0,1.3-0.6,1.3-1.3c0,0,0,0,0,0v-3.1h0.9V51.3z"/>
	<path id="Path_23760" class="st0" d="M305.9,51.8c0.4,0.2,0.8,0.4,1.2,0.4c0.7,0,1-0.3,1-0.8c0-0.4-0.3-0.7-0.9-0.9
		c-0.9-0.3-1.3-0.8-1.3-1.4c0-0.9,0.8-1.5,1.6-1.5c0,0,0.1,0,0.1,0c0.4,0,0.9,0.1,1.2,0.3l-0.2,0.7c-0.3-0.2-0.7-0.3-1-0.3
		c-0.5,0-0.8,0.3-0.8,0.7c0,0.4,0.3,0.6,1,0.9c0.9,0.3,1.3,0.8,1.3,1.5c0,0.9-0.7,1.5-1.9,1.5c-0.5,0-1-0.1-1.4-0.3L305.9,51.8z"/>
	<path id="Path_23761" class="st0" d="M311.1,46.2c0,0.3-0.3,0.6-0.6,0.5c-0.3,0-0.5-0.2-0.5-0.5c0-0.3,0.2-0.6,0.5-0.6c0,0,0,0,0,0
		C310.9,45.7,311.1,45.9,311.1,46.2C311.1,46.2,311.1,46.2,311.1,46.2 M310.1,47.7h0.9v5h-0.9V47.7z"/>
	<path id="Path_23762" class="st0" d="M312.6,49c0-0.5,0-0.9,0-1.4h0.8l0.1,0.8h0c0.3-0.6,1-1,1.7-0.9c0.7,0,1.8,0.4,1.8,2.1v3h-0.9
		v-2.9c0-0.8-0.3-1.5-1.2-1.5c-0.6,0-1.1,0.4-1.2,0.9c0,0.1-0.1,0.3-0.1,0.4v3h-0.9L312.6,49z"/>
	<path id="Path_23763" class="st0" d="M318.9,50.3c-0.1,0.9,0.6,1.7,1.5,1.7c0.1,0,0.2,0,0.3,0c0.5,0,1-0.1,1.4-0.3l0.2,0.7
		c-0.5,0.2-1.1,0.3-1.7,0.3c-1.3,0.1-2.4-0.9-2.5-2.2c0-0.1,0-0.2,0-0.4c-0.2-1.3,0.8-2.6,2.2-2.7c0.1,0,0.1,0,0.2,0
		c1.2,0,2.1,1,2.1,2.2c0,0.1,0,0.1,0,0.2c0,0.1,0,0.3,0,0.4H318.9z M321.5,49.7c0.1-0.7-0.4-1.4-1.1-1.5c-0.1,0-0.1,0-0.2,0
		c-0.8,0.1-1.4,0.7-1.4,1.5H321.5z"/>
	<path id="Path_23764" class="st0" d="M323.4,51.8c0.4,0.2,0.8,0.4,1.2,0.4c0.7,0,1-0.3,1-0.8c0-0.4-0.3-0.7-0.9-0.9
		c-0.9-0.3-1.3-0.8-1.3-1.4c0-0.9,0.8-1.5,1.6-1.5c0,0,0.1,0,0.1,0c0.4,0,0.9,0.1,1.2,0.3l-0.2,0.7c-0.3-0.2-0.7-0.3-1-0.3
		c-0.5,0-0.8,0.3-0.8,0.7c0,0.4,0.3,0.6,1,0.9c0.9,0.3,1.3,0.8,1.3,1.5c0,0.9-0.7,1.5-1.9,1.5c-0.5,0-1-0.1-1.4-0.3L323.4,51.8z"/>
	<path id="Path_23765" class="st0" d="M327.5,51.8c0.4,0.2,0.8,0.4,1.2,0.4c0.7,0,1-0.3,1-0.8c0-0.4-0.3-0.7-0.9-0.9
		c-0.9-0.3-1.3-0.8-1.3-1.4c0-0.9,0.8-1.5,1.6-1.5c0,0,0.1,0,0.1,0c0.4,0,0.9,0.1,1.2,0.3l-0.2,0.7c-0.3-0.2-0.7-0.3-1-0.3
		c-0.5,0-0.8,0.3-0.8,0.7c0,0.4,0.3,0.6,1,0.9c0.9,0.3,1.3,0.8,1.3,1.5c0,0.9-0.7,1.5-1.9,1.5c-0.5,0-1-0.1-1.4-0.3L327.5,51.8z"/>
	<path id="Path_23766" class="st0" d="M143.1,52.4c-0.5,0.2-0.9,0.3-1.4,0.3c-1.3,0.1-2.4-0.9-2.5-2.3c0-0.1,0-0.2,0-0.3
		c-0.1-1.4,1-2.6,2.4-2.7c0.1,0,0.2,0,0.3,0c0.4,0,0.9,0.1,1.3,0.3l-0.2,0.7c-0.3-0.2-0.7-0.3-1.1-0.2c-1,0.1-1.8,1-1.8,2
		c0.1,0.9,0.8,1.7,1.8,1.8c0.4,0,0.8-0.1,1.1-0.2L143.1,52.4z"/>
	<path id="Path_23767" class="st0" d="M49.2,29.8C49.2,40.4,40.6,49,30,49s-19.2-8.6-19.2-19.2S19.4,10.6,30,10.6
		S49.2,19.2,49.2,29.8L49.2,29.8"/>
</g>
<g id="Group_28019">
	<path id="Path_23773" class="st0" d="M72.3,22.1h4.3l5.3,15.5H78c-0.6-0.8-0.5-2-1.1-2.9h-5l-1,2.9c-1.3,0.1-2.6,0.1-3.9,0.1
		L72.3,22.1 M72.8,31.6H76l-1.6-5.1L72.8,31.6"/>
	<path id="Path_23774" class="st0" d="M99.3,34.7l-1,2.9h-3.9c1.8-5.2,3.5-10.3,5.3-15.5h4.3l5.3,15.4c-1.3,0.1-2.7,0.2-4,0.1
		l-1-2.9H99.3z M101.8,26.5c-0.6,1.7-1.2,3.3-1.6,5.1h3.2L101.8,26.5"/>
	<path id="Path_23775" class="st1" d="M122.9,23.1v3.6c-0.6,0.1-0.8-0.3-1.1-0.5c-0.7-0.5-1.4-0.9-2.2-1.2c-2.1-0.8-4.4,0.2-5.2,2.3
		c-0.5,1.3-0.6,2.7-0.3,4.1c0.6,3,3.4,4.3,6.2,3c0.9-0.4,1.5-1.1,2.5-1.7c0.2,1.2,0.2,2.5,0.1,3.7c-2.6,1.5-5.7,1.8-8.5,0.8
		c-1.5-0.5-2.7-1.5-3.4-2.8c-1.6-2.9-1.6-6.4,0-9.3c1.6-3,4.7-3.8,7.9-3.4C120.3,21.9,121.7,22.4,122.9,23.1"/>
	<path id="Path_23776" class="st0" d="M83.6,22.1h10.3V25h-6.4c-0.1,1-0.2,2-0.1,3h6.1V31h-6.1v6.5c-1.3,0.1-2.5,0.2-3.8,0.1
		L83.6,22.1z"/>
	<path id="Path_23777" class="st1" d="M132.3,37.6h-4V25.1h-4.6v-3h13.1V25h-4.5V37.6z"/>
</g>
<path class="st2" d="M10.8,29.8C10.8,40.4,19.4,49,30,49s19.2-8.6,19.2-19.2S40.6,10.6,30,10.6S10.8,19.2,10.8,29.8L10.8,29.8"/>
<g id="Group_28013">
	<path id="Path_23768" class="st3" d="M11.9,35.6l0.5-0.4L12,34.9l-0.1-0.7l0.9-0.7l1-0.3l1,0.8c0,0,0.3,0.8,0.3,1
		c-0.1,0.3-0.1,0.6-0.2,0.9l0.1,0.9l0.4,0.2l0.5,1c0,0,0.6,0.8,0.3,1c-0.2,0.2-0.3,0.3-0.4,0.5L15.2,40l0.4,0.7c0,0-0.2,0.4,0.1,0.3
		c0.2,0,0.4,0,0.5,0.1l0.2,1l-0.2,1l-0.1,0.4l-2,0l-3.8-6.8L11.9,35.6z"/>
	<path id="Path_23769" class="st4" d="M17.9,44.4l-0.5-0.6c0,0,0-0.5,0-0.6s0.1-0.8,0.1-0.8l-0.8-0.8l0.1-0.5l0.5-0.7l0.5-0.6
		l0.5-0.2l0.9,0.2l0.2-0.8v-0.6l-0.2-0.8L19.2,37L19,36.5l1.6-0.3h0.8l1.1-0.8l0.8-0.2l0.1-1.6l0.7-0.2l0.3-1v-2.6l1.1-0.5L26,30
		l-0.2,0.9l0.6,0.7l0.4,0.8l1.6,0.2c0,0,0.8-0.2,0.8-0.5S29,31.6,29,31.3V31l0.5-0.4l0.3-1l0.5-0.7l-1,0.2L29,29.7l0,0.4l-0.3,0.3
		V31l-0.3,0.5c-0.3,0-0.7,0.1-0.7,0.1l-0.4,0l-0.5,0.1l0-0.4l0.2-0.2c0,0,0-0.8,0-0.9s0-0.6,0-0.6l0.1-0.5c0,0-0.3-0.7,0-0.9
		c0.3-0.1,0.7-0.2,1-0.3c0.2-0.2,0.3-0.3,0.4-0.5l0.8-0.6c0.2,0.1,0.4,0.1,0.6,0.1c0.1,0,0.7-0.5,0.7-0.5c0.1-0.1,0.2-0.2,0.2-0.3
		c0.1-0.2,0.3-0.4,0.5-0.6c0.2,0,0.3,0.1,0.5,0.1c0,0,0.6-0.1,0.6-0.2c0-0.2,0-0.5,0-0.7l-0.3-0.3l-0.5-0.3l0-0.5c0,0-0.1,0-0.2-0.1
		c-0.1-0.1-0.2-0.2-0.2-0.3L30.7,23h-0.5l-0.2-1l0.4-0.4L30.2,21c0,0,1-0.2,1.1-0.2s0.9-0.4,0.9-0.4s0.8-0.1,0.8-0.1
		c0.1,0,1.7-0.5,1.7-0.5s0.2-0.1,0.2,0.2c0,0.3-0.2,0.1-0.2,0.5c0.1,0.4,0.4,0.4,0.5,0.7c0.1,0.2,0.1,0.4,0.1,0.6c0,0.1,0,0.1,0,0.3
		c0,0.2,0,0.4,0.1,0.6c0,0,0,0.2,0.4,0.1c0.2,0,0.5-0.1,0.7-0.3c0,0,0.1-0.3,0-0.4c-0.1-0.1-0.2-0.3-0.2-0.3s0.4-0.2,0.4-0.3v-1.3
		l0.3-0.8l0.3-0.4c0.1-0.2,0.2-0.4,0.3-0.6c0-0.1-0.2-0.3-0.2-0.4s0.3-0.3,0.3-0.3v-0.5l-0.6-0.5c-0.3-0.1-0.6-0.2-1-0.2
		c-0.6,0-0.4-0.1-0.6,0c-0.4,0.1-0.8,0.1-1.3,0.1c-0.1,0-0.3-0.1-0.4-0.1c0,0-0.2-0.2-0.3-0.1c-0.1,0-0.2,0.1-0.3,0.1
		c-0.1,0.1-0.2,0.1-0.3,0.1c-0.2,0.1-0.4,0.1-0.7,0.2c-0.2-0.1-0.3-0.2-0.4-0.2c-0.1-0.1-0.3-0.1-0.4-0.1c-0.2,0-0.3,0.1-0.5,0.1
		l-0.3-0.1l-0.3-0.1l-0.3-0.1l-0.5-0.5l-0.4-0.2h-0.6l-0.7,0.1l-0.3,0.1l-0.2-0.3l-0.2-0.1l-0.4,0c-0.2,0-0.4,0.1-0.5,0.1
		c-0.1,0.1-0.2,0.1-0.3,0.1l-0.2,0.1c-0.1,0-0.2-0.1-0.3-0.2c0-0.1-0.2-0.3-0.2-0.3L25,14.6l0-0.2L24.5,14l-0.2-0.3l0-0.5l0.6-0.5
		l1.1,0c0,0,0,0.2,0.3,0.2s0,0,0.3,0c0.2,0,0.5,0,0.7-0.1c0.1,0,0.2-0.2,0.4-0.1c0.3,0.1,0.6,0.2,0.9,0.3c0,0,0,0.1,0.2,0.1s1,0,1,0
		s0.2-0.1,0.3-0.1s0.1,0,0.3,0.1s0,0.1,0.2,0.2c0.4,0,0.7,0,1.1,0l0.1-0.2l0.5-0.2l0.8,0l0.7,0.1l0.4,0.2c0.3,0,0.5,0.1,0.8,0
		l0.2-0.1l0.2,0l0.8,0.1c0,0.1,0,0.2,0,0.3c0,0.1,0,0.2,0.2,0.2c0.2,0,0.4,0.1,0.6,0.1c0.1,0.1,0.1,0.1,0.2,0.2s0.1,0.1,0.1,0.3
		s0.3,0.6,0.3,0.6l0.1,0.2c0.1,0.1,0.1,0.2,0.1,0.2c0,0.1,0,0.3,0,0.4c0,0.1,0.1,0.3,0.1,0.3c0.1,0.1,0.1,0.1,0.2,0.2
		c0.1,0.1,0.3,0.3,0.3,0.3s0.1,0,0,0.2c0,0.2-0.1,0.3-0.2,0.6s-0.2,0.3-0.2,0.4s0,0.7,0,0.7s-0.3-0.1,0.2,0c0.6,0.1,1.1,0.1,1.7,0.1
		l0.4,0l1.1-0.1c0,0-0.1-0.2,0-0.2c0.1,0,0.2-0.2,0.3-0.1s0.9,0.1,0.9,0.1c0-0.1,0.1-0.1,0.1-0.2c0-0.1,0.1-0.2,0.1-0.2l-0.3-0.4
		c0.1-0.1,0.1-0.2,0.1-0.3c0-0.1,0-0.5,0-0.5c0-0.1,0-0.2,0-0.3c0-0.2,0-0.4,0-0.5c0-0.1-0.4-1-0.4-1.1s0.9,0.4,0.9,0.4
		s1.9,2.3,2,2.4s0.8,0.6,0.8,0.8s0,0.5,0,0.6c0.1,0.2,0.3,0.4,0.5,0.6c0.1,0.1,0.6,0.4,0.6,0.5s0.3,0.6,0.4,0.8s0.3,1,0.3,1
		s0.6,1.2,0.7,1.3s0.3,1,0.3,1.1s0,0.7,0,0.8c0,0.1,0,0.2,0,0.3c0,0.1,0.2,0.4,0.2,0.4s0,0.1,0.1,0.2s0.3,1.1,0.3,1.1l0.1,0.4
		l0.1,3.4c0,0-0.1,0.9-0.1,1s-0.2,2.6-0.2,2.6l-0.7,2.2l-0.4,1.6l-0.7,0.3l0-0.3l-0.1-0.3c-0.2-0.1-0.4-0.2-0.6-0.3
		c-0.1,0-0.6,0-0.6,0.1s0.2,0.3,0.2,0.3L46,38.3c0,0-0.1,0,0.1,0.2s0.4,0.2,0.4,0.4s0.1,0,0,0.3c-0.1,0.2-0.1,0.5-0.1,0.7
		c0,0.2,0,0.4,0,0.5s0.1,0,0,0.3c-0.1,0.3-0.2,0.6-0.4,0.9c-0.1,0.1-0.6,0.2-0.7,0.3c-0.1,0.1-0.2,0.2-0.3,0.2
		c-0.1,0.1,0-0.3-0.7,1.1s-1.3,1.2-1.4,1.2s-2.2,2.3-2.4,2.3c-1.6,0.5-3.2,1.1-4.8,1.8c-0.6-0.1-1.2-0.3-1.8-0.6
		c0.3-0.2,0.6-0.4,0.8-0.7c0-0.1,0-0.1-0.2-0.3c-0.2-0.1-0.4-0.2-0.6-0.2l-0.6-0.3l-0.3-0.8l-0.7-0.1c0,0-0.3,0-0.3-0.1
		c0-0.1-0.7-0.9-0.7-0.9c-0.3,0-0.5-0.1-0.8-0.1c-0.2-0.1-0.4-0.1-0.6-0.2C29.5,44,29.1,44,28.7,44c-0.3,0-0.4,0.2-0.7,0.3
		s-0.8,0.2-0.8,0.3s-0.2,0-0.2,0.2s-0.4,0.3,0.2,0.4c0.4,0.1,0.8,0.1,1.2,0.1c0.3,0,0.4-0.1,0.4,0.1c0,0.2-0.1,0.3-0.2,0.5
		c0,0.1,0,0.5-0.1,0.5c-0.2,0-0.3,0-0.5,0c-0.1,0-0.2,0-0.2,0.1c0,0.1-0.2,0-0.1,0.2s-0.6,0.7-0.6,0.7s0.2,0.3,0,0.2
		s-0.5-0.1-0.6-0.3s0.3-0.3-0.3-0.4s-0.9-0.1-0.9-0.1s0.6-0.8,0.5-0.9s-0.6-0.5-0.7-0.7S25,45,24.9,45c-0.1,0-0.2,0-0.3,0l-0.1,0.3
		l0,0.3c0,0,0,0.1-0.2,0c-0.2-0.1-0.3-0.2-0.4-0.3c0,0-0.2-0.5-0.2-0.5s0.2-0.4,0.2-0.4s0.1-0.3,0-0.4s-0.4-0.4-0.4-0.4l-0.2-0.1
		L22.9,43c0,0-0.3-0.3-0.3-0.4c0-0.1,0-0.3,0.1-0.4c0.1-0.1,0.3-0.9,0.4-0.9s-0.6,0,0.1,0c0.4,0,0.7,0,1.1,0c0-0.4,0.1-0.9,0.2-1.3
		c0.1-0.2,0.3-0.2,0.3-0.3s-0.1-0.2-0.3-0.2s-0.2,0-0.4,0s-0.4,0.1-0.5,0.1s0.1,0-0.3,0s-1,0.1-1,0.3c0,0.1,0,0.2,0,0.4
		c0,0.2,0,0.5-0.1,0.7c-0.1,0.2-0.1,0.2-0.3,0.3s-0.6,0.2-0.8,0.3c-0.1,0.1-0.2,0.2-0.3,0.3c-0.5,0.1-0.9,0.2-1.4,0.2
		c-0.3,0-0.6,0.1-0.6,0.1s0.1,1.2,0.1,1.4s0,0.7,0.1,0.8s0.3,0.3,0.2,0.4c-0.1,0.1-0.2,0.2-0.3,0.3c-0.2,0-0.4,0.1-0.6,0.1
		C18.2,45.2,17.9,44.4,17.9,44.4"/>
	<path id="Path_23770" class="st4" d="M21.8,47.3c-0.1-0.1-0.2-0.2-0.4-0.2c-0.1,0-0.1-0.1-0.3-0.2s-0.2-0.5-0.2-0.6
		s-0.1-0.7,0.1-0.8s-0.3,0,0.3,0s0.6-0.6,0.6,0s0.1,0.3,0,0.6s-0.1,0.5,0.2,0.4c0.2-0.1,0.3-0.1,0.5-0.2c0.1,0,1,0.2,1,0.2
		s0.3,0.4,0.2,0.5s0.4-0.1-0.1,0.1s-0.4,0.3-0.6,0.2c-0.2,0-0.4,0-0.5-0.1c-0.1-0.1-0.4-0.1-0.5,0S21.8,47.3,21.8,47.3"/>
	<path id="Path_23771" class="st4" d="M15.9,43l0.5-0.7c0-0.3,0-0.5-0.1-0.8c0,0-0.4-0.5-0.6-0.5c-0.3,0-0.5-0.4-0.5-0.5
		s0.4-0.9,0.5-1c0,0,0.3,0,0.4-0.2c0.1-0.2,0.1-0.4,0.1-0.7l-0.6-1.1L15.3,37l-0.4-0.2c0,0-0.2-0.2-0.1-0.4s0-0.6,0-0.6
		c-0.2-0.3-0.3-0.6-0.4-0.9c0-0.1-0.2-0.6,0-0.7c0.1-0.1,0.3-0.2,0.3-0.3c-0.1-0.2-0.2-0.3-0.3-0.4c-0.3-0.2-0.7-0.3-1-0.5
		c-0.3,0.1-0.2,0.4-0.6,0.4s-0.8-0.1-0.9,0.1s-0.3,0.2-0.3,0.5s-0.1-0.1,0,0.5s0.3,0.6,0.3,1c0,0.4,0,0.7,0,1.1
		c-0.1,0.1-0.1,0-0.1,0.3c0.1,0.4,0.2,0.8,0.5,1.1c0.1,0.3,0.2,0.6,0.3,0.8s1.1,1.8,1.2,2s0.6,0.8,0.7,1.1c0.2,0.3,0.4,0.6,0.6,0.9
		c0.1,0.2,0.6,0.6,0.6,0.6L15.9,43z"/>
</g>
<image style="overflow:visible;enable-background:new    ;" width="364" height="364" id="Rectangle_11382" xlink:href="EB6C68452839E47C.png"  transform="matrix(0.1057 0 0 0.1057 10.794 10.574)">
</image>
</svg>
