<?xml version="1.0" encoding="UTF-8"?><svg id="uuid-393fd01b-8897-446d-875e-d58a5d99f35d" xmlns="http://www.w3.org/2000/svg" width="153.98" height="70" viewBox="0 0 153.98 70"><path d="m85.81,19.14c-2.07,0-4.03,1.55-4.03,4.45s1.95,4.56,4.03,4.56,4.06-1.6,4.06-4.51-1.93-4.51-4.06-4.51m-.97-3.4c1.94-.03,3.79.85,4.99,2.38v-7.27h3.92v20.46h-3.92v-2.27c-1.13,1.65-3.02,2.6-5.02,2.52-3.89,0-6.98-3.18-6.98-7.96s3.09-7.85,7.01-7.85m18.9.42c3.38-.22,6.38,2.13,6.99,5.46h-4.04c-.36-1.32-1.6-2.22-2.97-2.14-2.09,0-3.48,1.64-3.48,4.65s1.39,4.62,3.48,4.62c1.37.11,2.63-.78,2.97-2.12h4.04c-.66,3.29-3.63,5.61-6.99,5.46-4.28,0-7.34-3.12-7.34-7.96s3.05-7.97,7.34-7.97m15.53,15.93c-3.69,0-6.26-2.25-6.42-5.12h3.74c.21,1.28,1.36,2.18,2.65,2.06,1.46,0,2.26-.7,2.26-1.59,0-2.76-8.3-1-8.3-6.66,0-2.56,2.18-4.62,5.81-4.62s5.7,2.03,5.92,5.1h-3.56c-.11-1.22-1.19-2.12-2.41-2.01-.02,0-.04,0-.06,0-1.38,0-2.1.59-2.1,1.48,0,2.81,8.14,1.06,8.25,6.71,0,2.64-2.2,4.65-5.78,4.65m15.48-13.21c-2.14,0-4.17,1.62-4.17,4.66s2.03,4.78,4.17,4.78,4.2-1.68,4.2-4.72-2-4.72-4.2-4.72m-1.03-3.56c2.06-.07,4.01.89,5.23,2.55v-2.29h4.03v16.04h-4.03v-2.34c-1.21,1.69-3.18,2.67-5.26,2.61-4,0-7.2-3.33-7.2-8.34s3.19-8.22,7.23-8.22" style="fill:#f8f7f7; stroke-width:0px;"/><path d="m16.3,22.2l-1.91,1.91-.74-.74,1.91-1.91.74.74Z" style="fill:#f8f7f7; stroke-width:0px;"/><path d="m40.18,30.28l-7.64,7.64-2.97-2.97,7.64-7.65,2.97,2.98Z" style="fill:#f3e300; stroke-width:0px;"/><path d="m52.38,49.86l-6.11,6.12-2.38-2.38,6.11-6.12,2.38,2.38Z" style="fill:#f3e305; stroke-width:0px;"/><path d="m71.48,29.23l-4.97,4.97-1.93-1.93,4.96-4.97,1.94,1.93Z" style="fill:#009093; stroke-width:0px;"/><path d="m63.52,25.07l-3.82,3.82-1.49-1.49,3.82-3.82,1.49,1.49Z" style="fill:#f8f7f7; stroke-width:0px;"/><path d="m62.46,17.11l-3.82,3.82-1.49-1.49,3.82-3.82,1.49,1.49Z" style="fill:#de5141; stroke-width:0px;"/><path d="m58.74,10.2l-3.82,3.82-1.49-1.49,3.82-3.82,1.49,1.49Zm10.08,10.94l-1.91,1.91-.74-.74,1.91-1.91.74.74Z" style="fill:#f8f7f7; stroke-width:0px;"/><path d="m32.75,45.61l-6.11,6.12-2.38-2.38,6.11-6.12,2.38,2.38Z" style="fill:#de5141; stroke-width:0px;"/><path d="m52.91,27.64l-4.97,4.97-1.93-1.93,4.97-4.97,1.93,1.93Z" style="fill:#f8f7f7; stroke-width:0px;"/><path d="m69.88,47.37l-3.82,3.82-1.49-1.49,3.82-3.82,1.49,1.49Z" style="fill:#f3e300; stroke-width:0px;"/><path d="m56.09,53l-1.91,1.91-.74-.74,1.91-1.91.74.74ZM29.57,16.41l-6.11,6.12-2.38-2.38,6.11-6.12,2.38,2.38Zm33.95,40.52l-3.82,3.82-1.49-1.49,3.82-3.82,1.49,1.49Zm9.55-19.86l-1.91,1.91-.74-.74,1.91-1.91.74.74Z" style="fill:#f8f7f7; stroke-width:0px;"/><path d="m58.21,35.52l-6.11,6.12-2.38-2.38,6.11-6.12,2.38,2.38Z" style="fill:#de5141; stroke-width:0px;"/><path d="m29.04,27.64l-4.97,4.97-1.93-1.93,4.96-4.97,1.94,1.93Z" style="fill:#f8f7f7; stroke-width:0px;"/><path d="m53.44,61.18l-3.82,3.82-1.49-1.49,3.82-3.82,1.49,1.49Z" style="fill:#009093; stroke-width:0px;"/><path d="m23.2,11.58l-1.91,1.91-.74-.74,1.91-1.91.74.74Zm26.53,7.03l-4.97,4.97-1.93-1.93,4.97-4.97,1.93,1.93Zm-6.37,18.14l-3.82,3.82-1.49-1.49,3.82-3.82,1.49,1.49Zm-4.24-18.05l-3.82,3.82-1.49-1.49,3.82-3.82,1.49,1.49Zm-9.55,38.23l-3.82,3.82-1.49-1.49,3.82-3.82,1.49,1.49Zm13.26,3.72l-3.82,3.82-1.49-1.49,3.82-3.82,1.49,1.49Zm-23.34-9.77l-1.91,1.91-.74-.74,1.91-1.91.74.74Z" style="fill:#f8f7f7; stroke-width:0px;"/><path d="m17.9,31.36l-4.97,4.97-1.93-1.93,4.97-4.97,1.93,1.93Z" style="fill:#009093; stroke-width:0px;"/><path d="m44.42,45.78l-3.82,3.82-1.49-1.49,3.82-3.82,1.49,1.49Z" style="fill:#f8f7f7; stroke-width:0px;"/><path d="m33.28,61.5l-1.91,1.91-.74-.74,1.91-1.91.74.74Z" style="fill:#f3e300; stroke-width:0px;"/><path d="m48.14,7.99l-4.97,4.97-1.93-1.93,4.97-4.97,1.93,1.93Z" style="fill:#de5141; stroke-width:0px;"/><path d="m65.11,41.45l-4.97,4.97-1.93-1.93,4.97-4.97,1.93,1.93Zm-46.69-.45l-3.82,3.82-1.49-1.49,3.82-3.82,1.48,1.49Zm18.04,12.53l-1.91,1.91-.74-.74,1.91-1.91.74.74Zm-11.14-12.74l-1.91,1.91-.74-.74,1.91-1.91.74.74Z" style="fill:#f8f7f7; stroke-width:0px;"/><path d="m38.05,6.49l-3.82,3.82-1.49-1.49,3.82-3.82,1.49,1.49Z" style="fill:#f3e300; stroke-width:0px;"/></svg>