<?xml version="1.0" encoding="utf-8"?>
<!-- Generator: Adobe Illustrator 15.1.0, SVG Export Plug-In . SVG Version: 6.00 Build 0)  -->
<!DOCTYPE svg PUBLIC "-//W3C//DTD SVG 1.1//EN" "http://www.w3.org/Graphics/SVG/1.1/DTD/svg11.dtd">
<svg version="1.1" id="Calque_1" xmlns="http://www.w3.org/2000/svg" xmlns:xlink="http://www.w3.org/1999/xlink" x="0px" y="0px"
	 width="319px" height="157.5px" viewBox="0 0 319 157.5" enable-background="new 0 0 319 157.5" xml:space="preserve">
<g>
	<g>
		<linearGradient id="SVGID_1_" gradientUnits="userSpaceOnUse" x1="5.0801" y1="67.7646" x2="316.4728" y2="67.7646">
			<stop  offset="0" style="stop-color:#0090D7"/>
			<stop  offset="0.0057" style="stop-color:#0091D6"/>
			<stop  offset="0.1861" style="stop-color:#009CC1"/>
			<stop  offset="0.3647" style="stop-color:#00A5AB"/>
			<stop  offset="0.5381" style="stop-color:#2AAD98"/>
			<stop  offset="0.7049" style="stop-color:#4BB288"/>
			<stop  offset="0.8621" style="stop-color:#59B67E"/>
			<stop  offset="1" style="stop-color:#5DB77A"/>
		</linearGradient>
		<path fill="url(#SVGID_1_)" d="M148.756,35.524c-11.118,5.712-20.998,12.714-28.303,17.438V98.63c0,0.754,0.615,1.367,1.363,1.367
			v0.008h26.028h4.175c0.463-0.055,0.832-0.469,0.832-0.955c0-0.25-0.089-0.463-0.242-0.631c-3.352-2.965-3.787-4.586-3.827-10.67
			L148.756,35.524z"/>
		<linearGradient id="SVGID_2_" gradientUnits="userSpaceOnUse" x1="5.0801" y1="23.9224" x2="316.4725" y2="23.9224">
			<stop  offset="0" style="stop-color:#0090D7"/>
			<stop  offset="0.0057" style="stop-color:#0091D6"/>
			<stop  offset="0.1861" style="stop-color:#009CC1"/>
			<stop  offset="0.3647" style="stop-color:#00A5AB"/>
			<stop  offset="0.5381" style="stop-color:#2AAD98"/>
			<stop  offset="0.7049" style="stop-color:#4BB288"/>
			<stop  offset="0.8621" style="stop-color:#59B67E"/>
			<stop  offset="1" style="stop-color:#5DB77A"/>
		</linearGradient>
		<path fill="url(#SVGID_2_)" d="M206.011,4.213c-0.026-0.267-0.288-0.48-1.412-0.217c-16.2,3.756-48.509,15.647-65.263,23.198
			H121.27c-0.482,0-0.816,0.702-0.816,1.25v15.524c23.727-14.207,52.176-27.75,85.144-39.285
			C205.972,4.556,206.029,4.349,206.011,4.213z"/>
		<linearGradient id="SVGID_3_" gradientUnits="userSpaceOnUse" x1="5.0801" y1="73.9907" x2="316.4721" y2="73.9907">
			<stop  offset="0" style="stop-color:#0090D7"/>
			<stop  offset="0.0057" style="stop-color:#0091D6"/>
			<stop  offset="0.1861" style="stop-color:#009CC1"/>
			<stop  offset="0.3647" style="stop-color:#00A5AB"/>
			<stop  offset="0.5381" style="stop-color:#2AAD98"/>
			<stop  offset="0.7049" style="stop-color:#4BB288"/>
			<stop  offset="0.8621" style="stop-color:#59B67E"/>
			<stop  offset="1" style="stop-color:#5DB77A"/>
		</linearGradient>
		<path fill="url(#SVGID_3_)" d="M142.547,146.964c8.971-1.01,37.87-13.301,55.651-21.609
			c78.345-36.625,129.927-87.947,118.274-112.37c-2.902-6.095-9.345-10.051-18.892-11.968c-0.708-0.097-0.862,0.271-0.367,0.486
			c3.041,1.389,6.898,4.644,8.635,8.029c7.107,13.79-6.762,36.492-34.188,60.739c-5.618,4.712-22.063,16.361-22.063,16.361
			c-6.529,2.406-14.328,3.133-20.609,2.699c-27.287-1.908-32.023-16.817-31.079-26.709c1.009-10.764,11.38-20.96,31.368-20.96
			c6.66,0,11.457,1.028,15.023,2.256c0.12,0.051,0.429,0.096,0.541,0.094c0.682,0,1.244-0.51,1.353-1.151h0.007l1.805-12.513
			c0.04-0.495,0.094-1.35-0.922-1.663c-2.477-0.571-12.811-2.48-22.13-2.468c-38.637,0.073-53.462,19.412-54.177,38.408
			c-0.709,18.909,12.51,35.131,46.523,36.53c6.409,0.258,9.981-0.217,13.233-1.021c0.494-0.137,1.813-0.697,1.985-0.807
			c0.195-0.121,0.604-0.107,0.142,0.336c-2.4,2.338-26.877,16.607-41.836,24.322c-16.937,8.725-33.013,15.844-48.907,21.793
			C141.068,146.12,141.076,147.128,142.547,146.964z"/>
		<linearGradient id="SVGID_4_" gradientUnits="userSpaceOnUse" x1="5.0801" y1="91.9629" x2="316.4723" y2="91.9629">
			<stop  offset="0" style="stop-color:#0090D7"/>
			<stop  offset="0.0057" style="stop-color:#0091D6"/>
			<stop  offset="0.1861" style="stop-color:#009CC1"/>
			<stop  offset="0.3647" style="stop-color:#00A5AB"/>
			<stop  offset="0.5381" style="stop-color:#2AAD98"/>
			<stop  offset="0.7049" style="stop-color:#4BB288"/>
			<stop  offset="0.8621" style="stop-color:#59B67E"/>
			<stop  offset="1" style="stop-color:#5DB77A"/>
		</linearGradient>
		<path fill="url(#SVGID_4_)" d="M1.844,27.208C1.368,27.268,1,27.664,1,28.148c0,0.242,0.1,0.471,0.24,0.633
			c3.365,2.969,3.814,4.567,3.84,10.66l0,0v30.801c0,30.786,33.482,31.137,40.551,28.823c0.256-0.082,0.615,0.281,0.26,0.535
			l-0.084,0.051c-0.684,0.498-1.434,1.135-2.095,1.895c-19.245,22.9-22.034,50.434-0.008,55.1c0.008,0,0.008,0,0.015,0
			c1.369,0.293,1.531-0.205,0.682-0.787c-3.467-2.008-6.025-4.588-7.564-7.771c-6.242-12.92,6.314-36.863,29.854-55.318v5.869l0,0
			c0,0.742,0.607,1.357,1.344,1.367h24.518c0.75-0.01,1.412-0.625,1.412-1.367V28.565c0-0.749-0.662-1.356-1.412-1.371H68.033
			c-0.736,0.015-1.344,0.623-1.344,1.371l0,0v57.721c-6.289,1.883-32.832,7.969-32.832-17.965V28.565h-0.006
			c0-0.739-0.59-1.336-1.324-1.356H1.844z"/>
	</g>
</g>
</svg>
