<?xml version="1.0" encoding="utf-8"?>
<!-- Generator: Adobe Illustrator 18.0.0, SVG Export Plug-In . SVG Version: 6.00 Build 0)  -->
<!DOCTYPE svg PUBLIC "-//W3C//DTD SVG 1.1//EN" "http://www.w3.org/Graphics/SVG/1.1/DTD/svg11.dtd">
<svg version="1.1" id="Layer_1" xmlns="http://www.w3.org/2000/svg" xmlns:xlink="http://www.w3.org/1999/xlink" x="0px" y="0px"
	 viewBox="0 0 433.9 278.1" enable-background="new 0 0 433.9 278.1" xml:space="preserve">
<path fill="#004E81" d="M61.8,278.1l17.7-88.3h28.8l-17.6,88.3H61.8L61.8,278.1z M148.7,249.2H167l-4.7-32.4L148.7,249.2
	L148.7,249.2z M108.3,278.1l43.6-88.3h28.4l17.9,88.3h-26.7l-1.6-10.5h-28.4l-4.5,10.5H108.3L108.3,278.1z M224.7,278.1l9.9-66.4
	h-25.2l4.3-22.3h77.4l-4.3,22.3h-24l-9.7,66.4H224.7L224.7,278.1z M321.5,249.2h18.3l-4.7-32.4L321.5,249.2L321.5,249.2z
	 M281.2,278.1l43.5-88.3h28.4l17.9,88.3h-26.9l-1.3-10.5h-28.4l-4.5,10.5H281.2L281.2,278.1z M433.9,90H298.4
	c-5,24.8-22.2,45.5-56.5,59.8c3.9,11.8,17.2,22.7,31,22.7h73.5c11.2,0,20.1-9.4,23.7-17h-74.7c-4.6-0.8-4.8-4.5-0.2-4.9h73.4
	c9.5,0,18.1-8.1,23.1-16.9h-85.5c-4.3-0.7-4.3-4.3,0-5h86.2c8.7,0,16.6-10.1,19.9-16.9h-94.6c-4.7-0.6-4.7-5,0-5.1H414
	C421.5,106.7,428.8,98.5,433.9,90L433.9,90z M0,90h135.5c4.9,24.8,22.2,45.5,56.4,59.8c-3.9,11.8-17.2,22.7-31,22.7H87.5
	c-11.2,0-20.1-9.4-23.7-17h74.7c4.5-0.8,4.8-4.5,0.2-4.9H65.2c-9.5,0-18.1-8.1-23-16.9h85.6c4.3-0.7,4.3-4.3,0-5H41.6
	c-8.7,0-16.6-10.1-19.9-16.9h94.6c4.7-0.6,4.7-5,0-5.1H20C12.4,106.7,5.1,98.5,0,90L0,90z M173,15.6c5,4.3,10.6,8.1,16.6,10.5
	c5.1-10,12.2-18.6,20.4-26.2C196.5,1.7,183.8,6.8,173,15.6L173,15.6z M149,64.9h30.2c0.7-12.4,3.3-23.3,8.2-34.5
	c-6.7-3-12.5-6.6-18.1-11.4C156.8,31.5,149.9,47.6,149,64.9L149,64.9z M214.6,36.6v28.3h-30.2c0.2-11.1,2.8-22.5,7.5-32.8
	C199.1,34.7,206.9,36.4,214.6,36.6L214.6,36.6z M260.9,15.6c-4.9,4.3-10.7,8.1-16.6,10.5C238.9,15.9,232.2,7.7,223.8,0
	C237.4,1.7,250.1,6.8,260.9,15.6L260.9,15.6z M284.8,64.9h-30.1c-0.4-12.2-3.2-23.6-8-34.5c6.4-3,12.5-6.8,17.8-11.4
	C277.5,32,284.2,48,284.8,64.9L284.8,64.9z M219.5,36.6v28.3h30c0-11.4-2.8-22.3-7.5-32.8C234.8,34.7,227.1,36.4,219.5,36.6
	L219.5,36.6z M173,119.2c5-3.9,10.8-8.2,16.6-10.3c5.4,10.1,12.1,18.4,20.4,25.9C196.5,133,183.6,127.9,173,119.2L173,119.2z
	 M149,69.8h30.2c0.7,12.5,3.3,23.5,8.2,34.8c-6.7,3-12.5,6.6-18.1,11.3C157,103.5,149.9,87.4,149,69.8L149,69.8z M214.6,98.2V69.8
	h-30.2c0.2,11.4,2.8,22.7,7.5,32.8C199.1,100,206.9,98.4,214.6,98.2L214.6,98.2z M260.9,119.2c-4.7-4.1-10.7-7.9-16.6-10.3
	c-5.4,10.1-12.1,18.4-20.5,25.9C237.4,133,250.1,127.9,260.9,119.2L260.9,119.2z M284.8,69.8h-30.1c-0.4,12.5-3.1,23.6-8,34.8
	c6.4,3,12.2,6.6,17.8,11.3C276.9,103.5,284.2,87,284.8,69.8L284.8,69.8z M219.5,98.2V69.8h30c0,11.4-2.8,22.5-7.5,32.8
	C235,100,226.9,98.4,219.5,98.2L219.5,98.2z M214.6,2.8c-8.2,6.6-15.5,15.6-20.3,25c6.5,2.2,13.4,4,20.3,4V2.8L214.6,2.8z
	 M219.5,2.8c8,6.6,15.3,15.3,20.1,25c-6.5,2.4-13.4,4-20.1,4V2.8L219.5,2.8z M214.6,132c-8.2-6.5-15.5-15.5-20.3-25.1
	c6.5-2.3,13.4-3.6,20.3-3.6V132L214.6,132z M219.5,132.2c8-6.7,15.3-15.7,20.1-25.3c-6.5-2.1-13.4-3.6-20.1-3.6V132.2L219.5,132.2z"
	/>
</svg>
