<svg id="Layer_1" data-name="Layer 1" xmlns="http://www.w3.org/2000/svg" xmlns:xlink="http://www.w3.org/1999/xlink" viewBox="0 0 538.32 248.16"><defs><style>.cls-1{fill:url(#linear-gradient);}.cls-2{fill:url(#linear-gradient-2);}.cls-3{fill:#fff;}</style><linearGradient id="linear-gradient" x1="132.26" y1="15.76" x2="538.13" y2="15.76" gradientUnits="userSpaceOnUse"><stop offset="0" stop-color="#fff"/><stop offset="0.5" stop-color="#fff"/><stop offset="1" stop-color="#fff" stop-opacity="0"/></linearGradient><linearGradient id="linear-gradient-2" y1="14.2" x2="132.06" y2="14.2" gradientUnits="userSpaceOnUse"><stop offset="0" stop-color="#fff" stop-opacity="0"/><stop offset="0.5" stop-color="#fff"/><stop offset="1" stop-color="#fff"/></linearGradient></defs><title>BIMCO2016_Logo_WHITE</title><polygon class="cls-1" points="154.84 8.66 154.84 19.38 538.13 30.41 538.13 1.12 154.84 8.66"/><polygon class="cls-2" points="0 6.14 0 22.26 109.81 19.38 109.81 8.66 0 6.14"/><polygon class="cls-3" points="146.97 0 146.97 8.84 146.97 19.18 146.97 29.29 117.68 29.29 117.68 19.18 117.68 8.84 117.68 0 146.97 0"/><path class="cls-3" d="M533.91,71.8a47,47,0,0,0-11.66-16.06,50.28,50.28,0,0,0-16.14-9.53,52.15,52.15,0,0,0-36,0A50.22,50.22,0,0,0,454,55.75,47,47,0,0,0,442.36,71.8,53.38,53.38,0,0,0,438,94V197.15c0,8.49,1.49,16,4.42,22.36A47.25,47.25,0,0,0,454,235.41a50.1,50.1,0,0,0,16.14,9.53,51.93,51.93,0,0,0,36,0,50.19,50.19,0,0,0,16.14-9.53,47.26,47.26,0,0,0,11.65-15.9c2.93-6.35,4.42-13.87,4.42-22.36V94A53.37,53.37,0,0,0,533.91,71.8ZM503.79,197.15c0,5.81-1.46,9.89-4.47,12.46a17.56,17.56,0,0,1-22.35,0c-3-2.57-4.47-6.64-4.47-12.46V94c0-5.81,1.46-9.89,4.47-12.46a17.56,17.56,0,0,1,22.35,0c3,2.57,4.47,6.65,4.47,12.46Z"/><polygon class="cls-3" points="270.16 44.65 302.93 44.65 302.93 246.51 268.39 246.51 268.39 143.18 245.79 211.67 227.05 211.67 204.73 143.36 204.73 246.51 170.19 246.51 170.19 44.65 202.68 44.65 236.55 142.11 270.16 44.65"/><polygon class="cls-3" points="146.97 44.65 152.21 246.51 112.43 246.51 117.68 44.65 146.97 44.65"/><path class="cls-3" d="M85,60.84A46.73,46.73,0,0,0,68.36,49c-6.7-2.91-14.84-4.39-24.21-4.39H0V246.51H41.41c19.16,0,33.41-5,42.34-14.79S97.08,208,97.08,190V179c0-10.71-1.69-19.47-5-26a32.83,32.83,0,0,0-11.15-12.56A51.42,51.42,0,0,0,85,137.2a34.17,34.17,0,0,0,6.67-8,35.69,35.69,0,0,0,4.09-10.57,65.85,65.85,0,0,0,1.31-14.16V97.3a69.31,69.31,0,0,0-2.74-19.44A44.53,44.53,0,0,0,85,60.84ZM63.65,195.2A22.72,22.72,0,0,1,61,204.32a13.7,13.7,0,0,1-5.91,5.55c-2.72,1.4-6.69,2.11-11.8,2.11H34.54V156H43.6a30,30,0,0,1,11.09,1.67,12.85,12.85,0,0,1,5.84,4.48,18.1,18.1,0,0,1,2.87,7.79,85.32,85.32,0,0,1,.79,12.41C64.19,187,64,191.29,63.65,195.2Zm-3.69-76c-2.54,3.7-8,5.57-16.09,5.57H34.54V77.53h8.24c8.25,0,13.9,1.81,16.79,5.37,3.06,3.77,4.62,9.72,4.62,17.68C64.19,108.83,62.77,115.08,60,119.17Z"/><path class="cls-3" d="M371.19,43a49.39,49.39,0,0,1,19.09,3.68A46.19,46.19,0,0,1,405.63,57a47.8,47.8,0,0,1,10.17,15.89,54,54,0,0,1,3.66,20v14.25H384.92V94.56a19.3,19.3,0,0,0-4-12.26,11.9,11.9,0,0,0-10-4.76c-5.69,0-9.27,1.54-11,4.71-2,3.8-3,8.77-3,14.78v99.85c0,5,1.07,9.21,3.18,12.49,1.84,2.86,5.29,4.25,10.55,4.25a17.12,17.12,0,0,0,4.94-.82,12.17,12.17,0,0,0,8-7.34,21.39,21.39,0,0,0,1.38-8.31V184.27h34.54v15.35a48,48,0,0,1-3.68,18.54,48.84,48.84,0,0,1-10.14,15.43,50.33,50.33,0,0,1-15.11,10.56,44.79,44.79,0,0,1-18.78,4,66.32,66.32,0,0,1-17-2.3,42.71,42.71,0,0,1-16-8.17A44.09,44.09,0,0,1,327,222.44c-3-6.26-4.58-14.22-4.58-23.65V91.26a51.05,51.05,0,0,1,3.53-19A45.41,45.41,0,0,1,336,56.85a46.84,46.84,0,0,1,15.47-10.18A51.87,51.87,0,0,1,371.19,43"/></svg>