<?xml version="1.0" encoding="utf-8"?>
<!-- Generator: Adobe Illustrator 19.0.0, SVG Export Plug-In . SVG Version: 6.00 Build 0)  -->
<svg version="1.1" id="layer" xmlns="http://www.w3.org/2000/svg" xmlns:xlink="http://www.w3.org/1999/xlink" x="0px" y="0px"
	 viewBox="-153 -46 652 652" style="enable-background:new -153 -46 652 652;" xml:space="preserve">
<style type="text/css">
	.st0{fill:#D2D4D4;}
	.st1{fill:#AA322F;}
</style>
<path class="st0" d="M-5.8,346.9h-2.6v-25.2l-51-44.5h-72.3v-2.4v-2.4h72.3l51-44.3v-25.4h2.6H-3V228l51,44.3h72
	c0,0.9,0.1,1.7,0.1,2.4c0,0.9-0.1,1.7-0.1,2.4H48l-51,44.5v25.2H-5.8z"/>
<path class="st1" d="M-131.8,277.2L-131.8,277.2h72.3l51,44.5v25.2C-75.3,346.2-129.6,315.4-131.8,277.2 M-59.5,272.3L-59.5,272.3
	h-72.3c2.2-38.3,56.5-68.9,123.3-69.7V228L-59.5,272.3z M-3,346.9L-3,346.9v-25.2l51-44.5h72C117.8,315.4,63.8,346.2-3,346.9
	 M48,272.3L-3,228v-25.4c66.8,0.8,120.8,31.5,123,69.7H48z"/>
<path d="M369.2,304c-0.4,13.9-0.4,46.3,48,46c27.1,0,51-9.8,51-40.1c0-45.8-73.7-41.2-73.7-73.1c0-15.5,12.7-21.2,25.2-21.2
	c19.9,0,25.6,10.4,25.3,26.2h21.9c1.3-29.3-15.5-42.1-45.6-42.1c-27.5,0-48.3,13.6-48.3,39.2c0,43.4,73.9,39.8,73.9,71.8
	c0,17.2-12.9,23.4-29.4,23.4c-13.5,0-27.6-6.2-27.6-25.8V304H369.2z M327.2,202.7h-20.9V347h20.9V202.7z M180.7,218.8h29.5
	c17.6,0,25.3,9.8,25.3,21.7c0,14-8,22.9-24.4,23h-30.4V218.8z M180.7,279.5h22.2c21.4,0,37.6,4,37.6,27c0,10.7-8,24.7-30.3,24.7
	h-29.5V279.5z M212.4,347c18.7,0,49.4-3.6,49.4-40.6c0-19.8-10.2-32.2-33.6-34.5v-1c21.2-4.2,28.2-16.2,28.2-34.2
	c0-2.8-0.9-11.4-6.6-19.3c-6.1-8-13.9-14.8-36.7-14.8h-53.5V347H212.4z"/>
</svg>
