<?xml version="1.0" encoding="utf-8"?>
<!-- Generator: Adobe Illustrator 22.1.0, SVG Export Plug-In . SVG Version: 6.00 Build 0)  -->
<svg version="1.1" id="Layer_1" xmlns="http://www.w3.org/2000/svg" xmlns:xlink="http://www.w3.org/1999/xlink" x="0px" y="0px"
	 viewBox="0 0 852.8 261.2" style="enable-background:new 0 0 852.8 261.2;" xml:space="preserve">
<style type="text/css">
	.st0{fill:#009edb;}
	.st1{fill:none;stroke:#009edb;stroke-width:3;stroke-miterlimit:10;}
</style>
<title>Asset 1</title>
<g id="Layer_2_1_">
	<g id="Layer_1-2">
		<path class="st0" d="M398.4,84.7h28.4v54.9c0,5.2-0.8,10.4-2.5,15.4c-1.7,4.8-4.4,9.1-8,12.7c-3.2,3.3-7.1,5.9-11.4,7.6
			c-6.4,2.2-13.1,3.2-19.9,3.1c-4.9,0-9.8-0.3-14.7-0.9c-4.6-0.4-9.1-1.7-13.3-3.7c-3.7-2-7.1-4.7-9.8-8c-2.7-3.1-4.8-6.7-6.1-10.6
			c-1.6-5-2.5-10.3-2.6-15.6V84.7h28.4v56.2c0,5,1.4,9,4.2,11.8s6.7,4.2,11.6,4.2s8.7-1.4,11.5-4.2s4.2-6.7,4.2-11.8L398.4,84.7z"/>
		<path class="st0" d="M452.9,84.7h26.6l34.7,51v-51h26.9v92.2h-26.8l-34.5-50.6v50.6H453V84.7H452.9z"/>
		<path class="st0" d="M567.8,84.7h76.3v19.7h-47.8V119h44.3v18.8h-44.3V156h49.2v20.9h-77.7V84.7z"/>
		<path class="st0" d="M729.3,139.2l25,7.5c-1.4,6.3-4.1,12.3-7.9,17.5c-3.5,4.6-8.1,8.3-13.4,10.6c-5.3,2.4-12.1,3.6-20.4,3.6
			c-10,0-18.2-1.5-24.6-4.4s-11.9-8-16.4-15.4s-6.9-16.7-6.9-28.2c0-15.2,4.1-27,12.2-35.2s19.6-12.3,34.4-12.3
			c11.6,0,20.7,2.3,27.4,7s11.6,11.9,14.8,21.6l-25.2,5.6c-0.6-2.2-1.5-4.3-2.8-6.2c-1.5-2.1-3.5-3.8-5.8-5c-2.4-1.2-5-1.8-7.7-1.8
			c-6.5,0-11.4,2.6-14.8,7.8c-2.6,3.9-3.9,9.9-3.9,18.1c0,10.2,1.5,17.2,4.7,21s7.5,5.7,13.1,5.7c5.4,0,9.6-1.5,12.3-4.6
			S728,145,729.3,139.2z"/>
		<path class="st0" d="M775,84.7h76.4v19.7h-47.8V119H848v18.8h-44.3V156h49.2v20.9h-77.8L775,84.7z"/>
		<circle class="st1" cx="153.8" cy="109" r="22.1"/>
		<circle class="st1" cx="153.8" cy="109" r="42.5"/>
		<circle class="st1" cx="153.8" cy="109" r="64.6"/>
		<circle class="st1" cx="153.8" cy="109" r="85.1"/>
		<circle class="st1" cx="153.8" cy="109" r="107.5"/>
		<line class="st1" x1="153.8" y1="87.5" x2="153.8" y2="1.2"/>
		<line class="st1" x1="153.8" y1="216.4" x2="153.8" y2="130.1"/>
		<line class="st1" x1="175.4" y1="109" x2="261.9" y2="109"/>
		<line class="st1" x1="45.5" y1="109" x2="131.9" y2="109"/>
		<line class="st1" x1="168.6" y1="94" x2="229.8" y2="32.9"/>
		<line class="st1" x1="138.8" y1="94" x2="77.8" y2="32.9"/>
		<line class="st1" x1="138.8" y1="123.9" x2="77.8" y2="185"/>
		<line class="st1" x1="168.6" y1="123.9" x2="229.8" y2="185"/>
		<path id="Laurel" class="st0" d="M72.8,10.8C61.8,15.1,50.2,19.4,43,30.6c-4.1,6.5-4.7,14.3-8,21.1C41,46,48,41.8,53.2,35
			C59.3,26.9,64.8,17.9,72.8,10.8z M234.8,10.8c8,7,13.4,16.1,19.5,24.2c5.1,6.8,12.1,11,18.2,16.6c-3.3-6.8-3.9-14.5-8-21.1
			C257.4,19.4,245.6,15.1,234.8,10.8z M43.3,25.7c-5.6,1.4-10.2,5-14.4,9.6c-8.7,9.7-8,23.9-6.8,36.6c0.3,3.8,0.2,7.6-0.3,11.3
			c2.8-5.7,6.9-10.6,12-14.4c11.3-8.6,23.7-19.6,23.9-34.2C54,45.1,42.7,49.5,35,56.7c-3.9,3.6-6.9,8.1-8.9,13.1l-0.3-0.2
			c0.9-4.2,2.7-8,3.9-12C33,46.4,32.5,33.2,43.3,25.7z M264.1,25.7c10.8,7.4,10.2,20.7,13.5,31.8c1.2,4,3,7.9,3.9,12l-0.3,0.2
			c-1.9-5-5-9.5-8.9-13.1c-7.6-7.2-19-11.5-22.8-22c0.2,14.6,12.6,25.6,23.9,34.2c5.1,3.8,9.2,8.7,12,14.4
			c-0.5-3.7-0.6-7.5-0.3-11.3c1.2-12.7,1.9-27-6.8-36.6C274.4,30.6,269.7,27,264.1,25.7L264.1,25.7z M20.2,45.5
			c-0.3,0-0.4,0.2-0.7,0.3C12.1,55.4,7,65.9,7,78.8c0,15.9,9.2,27,10.3,42c2.3-15.6,15.4-26.7,22.2-40.4c2.6-5.5,4.3-11.3,5-17.3
			c-1,2.6-2.5,4.9-4.5,6.8c-8.8,8.4-19.2,16.6-21.2,28.4c-0.2,1.7-0.5,3.4-0.9,5.1c-0.4,0.2-0.4-0.3-0.5-0.4l1.1-14.7
			C19.6,74.1,12,58.2,20.2,45.5L20.2,45.5z M287.1,45.5c8.3,12.6,0.7,28.5,1.8,42.8L290,103c-0.2,0.1-0.2,0.5-0.5,0.4
			c-0.4-1.7-0.7-3.4-0.9-5.1c-2-11.8-12.4-20.1-21.2-28.4c-2-1.9-3.6-4.2-4.6-6.8c0.7,6,2.4,11.8,5,17.3
			c6.8,13.7,19.9,24.8,22.2,40.4c1.1-15,10.3-26.1,10.3-42c0-12.9-5-23.4-12.5-33C287.6,45.6,287.4,45.4,287.1,45.5L287.1,45.5z
			 M4.2,85.2C2.5,88.9,1.8,93,0.8,97.1c-2,10.4,0,21.5,2.8,31c3.5,12,15.3,20.5,21.2,31.5l0.8,0.7c-0.9-6-1.3-12.4,0.4-18
			c2.6-9.1,5.8-17.9,7.5-27.4c1.3-7.3,2.8-15.5,2-22.6c-1,3.8-2,7.6-4.1,10.9c-8,12.4-16.2,26.9-10.6,42.5c-0.1,0.2-0.3,0.4-0.5,0.3
			c-2.2-5.2-2.7-11.1-4.2-16.6C12.2,114.5,1,102.2,4.2,85.2z M303.2,85.2c3.3,17-8,29.3-11.9,44c-1.5,5.5-2,11.4-4.2,16.6
			c-0.2,0.1-0.4-0.1-0.5-0.3c5.6-15.7-2.6-30.2-10.6-42.5c-2.1-3.2-3.1-7-4.1-10.9c-0.9,7.1,0.6,15.3,2,22.6
			c1.7,9.4,4.9,18.3,7.5,27.4c1.7,5.7,1.2,12.1,0.4,18l0.8-0.7c5.9-11,17.7-19.5,21.2-31.5c2.8-9.6,4.8-20.6,2.8-31
			C305.7,93.1,305,88.9,303.2,85.2L303.2,85.2z M33.7,127.6c1.5,9.7-2.4,18.3-3.3,27.5c-0.7,7.3,0.5,14.6,3.5,21.3
			c0.9,1.9,2.4,3.6,2.9,5.5c-2.7-2.7-4.9-5.7-6.8-9C20.9,158,1.6,148.4,0.2,130.3c-0.7,8,0,16.5,2.7,23.7c3.7,9.9,10.9,17.5,19.1,24
			c8.5,6.7,18.7,12,26.4,17.8c-1.5-3.9-4-7.4-5-11.5C39,165.9,41.5,144.6,33.7,127.6z M273.9,127.6c-7.9,17-5.4,38.4-9.9,56.8
			c-1,4.1-3.5,7.6-5,11.5c7.8-5.9,17.9-11.1,26.4-17.8c8.2-6.5,15.4-14.1,19.1-24c2.7-7.1,3.4-15.6,2.7-23.7
			c-1.3,18.1-20.5,27.7-29.7,42.5c-1.9,3.3-4.1,6.3-6.8,9c0.4-1.9,2-3.6,2.9-5.5c3-6.7,4.3-14,3.5-21.3
			C276.3,145.8,272.5,137.2,273.9,127.6z M43.5,158.5c6.7,13.3,3.8,30.5,12.4,43c2.9,4,6.3,7.6,10,10.8l-0.2,0.2
			c-3.2-1.6-6.2-3.7-8.9-6.1c-15-12.6-37.8-14.2-46.8-34.7c2.4,15,14.4,28.4,27.3,36.8c12.3,8,28,7.1,41.6,11.6
			c-12.6-10.1-14.5-25.4-20.1-38.7C55.3,173.2,49.6,165.7,43.5,158.5L43.5,158.5z M263.9,158.5c-6,7.2-11.7,14.7-15.2,23
			c-5.6,13.3-7.5,28.6-20.1,38.7c13.6-4.5,29.3-3.6,41.6-11.6c12.9-8.4,24.8-21.8,27.3-36.8c-9,20.5-31.8,22.1-46.9,34.7
			c-2.7,2.4-5.7,4.4-8.9,6.1l-0.2-0.2c3.7-3.2,7.1-6.8,10-10.8C260.2,188.9,257.3,171.8,263.9,158.5z M65.2,190.9
			c8.2,11.1,10.6,27.1,25.6,32.8c2.7,1,5.7,1.2,8,2.6c-2.9,0.5-5.4-0.5-8.1-1c-19.4-4.1-43,1.2-57.5-15.3
			c5.5,10.8,16.8,19.3,27.7,22.9c16.9,5.6,34.5-0.7,50.3-4.6c2.3-0.6,5.1-0.4,7.2-1.2c-8.8-1.8-17.3-4.5-24.2-10.7
			C84.4,207.4,75.8,197.9,65.2,190.9z M242.2,190.9c-10.5,7-19.2,16.5-29,25.5c-6.8,6.2-15.4,8.9-24.2,10.7c2.1,0.8,4.9,0.6,7.2,1.2
			c15.9,3.9,33.4,10.2,50.3,4.6c10.9-3.6,22.2-12.1,27.7-22.9c-14.6,16.5-38.2,11.2-57.6,15.3c-2.7,0.6-5.2,1.5-8.1,1
			c2.3-1.5,5.4-1.6,8-2.6C231.6,218,233.9,201.9,242.2,190.9L242.2,190.9z M137.9,226.7c-14.9,0-28.1,7.2-41.2,12.6
			c-11.8,4.9-27.4,3.9-37.9-3.3c5.2,6.5,12.1,10.5,19.2,13.2c13.3,5.3,28.8,1.2,40.1-6c8.1-5.2,15.1-12.6,24.8-12.6
			c1.7,0,3.4,0.2,5.1,0.6c-13.6,5.5-26,15-35.6,24.3c1.9,2.1,4,4,6.2,5.7c10.8-11.1,23-23.2,35.2-28.2c12.2,5,24.4,17,35.1,28.2
			c2.2-1.7,4.3-3.6,6.2-5.7c-9.6-9.2-22-18.8-35.6-24.3c1.7-0.4,3.4-0.6,5.1-0.6c9.7,0,16.7,7.4,24.8,12.6
			c11.3,7.2,26.8,11.3,40.1,6c7.1-2.7,14.1-6.7,19.2-13.2c-10.5,7.2-26.1,8.2-37.9,3.3c-13-5.4-26.3-12.6-41.2-12.6
			c-5.4,0-10.8,0.9-16,2.5C148.5,227.6,143.2,226.7,137.9,226.7L137.9,226.7z"/>
		<path class="st0" d="M174.4,31.4l-0.8-0.5c0,0-1.2-0.1-1.2-0.5v-0.1l0,0c-0.1-0.1-0.7,0.8-1.1,1.1c0.4,0.2,0.8,0.4,1.2,0.6
			c0.6-0.1,1.2,0.4,1.4,1c0,0.3,1.2,0.2,1.2,0.2l0.1-0.8L174.4,31.4z"/>
		<path class="st0" d="M212.6,76L212.6,76C212.6,76.1,212.8,76,212.6,76z"/>
		<path class="st0" d="M171,31.4c0.1,0.1,0.2,0.1,0.3,0c0,0,0,0,0,0C170.8,31.1,170.4,31,171,31.4z"/>
		<polygon class="st0" points="170.1,34.9 170.1,34.9 170.1,35.9 171.2,36 170.9,35.1 		"/>
		<polygon class="st0" points="168.9,31.2 168.8,31.2 167.6,31 167.6,31.7 168.4,31.8 169.1,32.9 169.6,32.5 168.9,31.3 		"/>
		<path class="st0" d="M182.4,45.6c-0.5,0-1.5-0.7-1.3-1.1s-1.9-0.9-1.9-0.9s-1.8-1.8-1.2-1.6s0.3-0.8,0.3-0.8
			c-0.5,0.1-1.1,0.1-1.6,0.1c-0.3-0.1-0.2-1.1-0.2-1.1c-0.4-0.1-0.7-0.2-1.1-0.1l0,0c-0.1,0-0.1,0-0.2,0.1c0,0.3,0.5,0.3,0.7,1
			s0.1,1.8,1.1,2s1.2,0.5,1.3,0.9s1.3,0.5,1.3,0.5l0.9,0.5l2.6,2.2v-0.9C183.1,46.5,183.1,45.6,182.4,45.6z"/>
		<path class="st0" d="M204.1,30.4l1.6,0.5c0,0,2,2.4,2,1.2c-0.2-3.4-1.8-3.4-2.3-4.1c-0.2-0.2-0.4-0.3-0.7-0.3l0,0
			c-0.9,0-2.2,0.6-2,1.2C202.7,29.7,203.3,30.3,204.1,30.4z"/>
		<path class="st0" d="M210.1,68.2c-0.2,0.3-0.1,0.7,0.2,0.8c0.1,0,0.1,0.1,0.2,0.1c0.1,0,0.2,0.1,0.3,0.1c0.4,0,0.9,0.2,1.2,0.5
			c0.5,0.2,0.8,0.6,1.1,1l1.1-0.3c0,0,0.1-1.1-0.3-0.8s-0.8-0.8-1.2-0.7s-0.7-0.5-1.1-1s-0.3-0.7-0.9-1c-0.2-0.2-0.4-0.3-0.7-0.3
			l0,0c-0.2,0-0.3,0.1-0.3,0.3C209.9,67.4,210.4,67.6,210.1,68.2z"/>
		<polygon class="st0" points="170.9,29.5 170.2,29.3 170.2,29.3 169.9,30.2 170.4,30.5 		"/>
		<path class="st0" d="M213.4,71.5L213.4,71.5l-1.3,0.1c0.3,0.5,1,0.8,1,1.3s-0.2,0.8,0.5,0.9s1.1-0.1,1.3,0.5
			c0.2,0.6,0.2,1.3,0.1,1.9c-0.1,0.5,0.1,1.1,0.7,1.1s0.7,0.1,0.7,0.5s0.7-1.2,0.7-1.2c-0.4-0.4-0.7-0.9-1-1.5c0,0-0.5-1.6-0.5-1.8
			s-0.8-0.5-1.1-0.5C214,72.5,213.6,72,213.4,71.5z"/>
		<polygon class="st0" points="205.6,63.3 205.4,62.4 205.4,62.4 204.9,62.4 204.9,63.5 		"/>
		<polygon class="st0" points="219.6,98.2 220.1,98.5 220.4,97.8 219.9,97.5 		"/>
		<path class="st0" d="M217,80c-0.3,0.2-0.5,0.7-0.9,1s0.7,0.8,0.7,1.1s0.2,2,0.2,2s0.8,0.3,0.9,0.8s0,1.3,0.3,1.5s1,0.5,0.8,1
			c-0.1,0.4-0.2,0.9-0.2,1.3l0.5,1l0.9,0.5c0,0,0.3-2.6-0.2-2.8s-0.3-1.6-0.3-1.6s0.5-2.1-0.3-2.1s-0.2-1.1-0.8-1.5
			s-0.2-1.9-0.5-2.3s-0.2-1-0.8-1.3l-0.1-0.1l0,0C216.8,78.6,217.2,79.8,217,80z"/>
		<polygon class="st0" points="220.9,94.6 220.2,94.5 220.2,94.5 220.1,95.4 220.9,95.5 		"/>
		<path class="st0" d="M200.8,74.3c0,0-0.2,2.1-0.9,2.6h-1.5c0.2,0.3,0.4,0.6,0.7,0.9c0.3,0.3,1.1,1,0.3,1.5s0.1,0.3,0.1,0.3
			s-0.1,2.3-1.1,2s-1.3,1.3-1.3,1.6s3.9,0.6,3.3,0c-0.3-0.3,0.5-1.1,0.5-1.1s2.6,0.2,3.2,0.2s1-0.1,0.7-0.7s-1.3-0.5-1.3-0.5
			c-0.8,0.2-1.7,0.1-2.5-0.3c-1.2-0.7,0.2-0.9,0.5-0.9s1.2-0.8,0.8-1.3s0-1.6,0-1.1s1.2,0.7,1.5,0.3c0.2-0.6,0-1.2-0.5-1.6
			c-0.5-0.3,1-0.5,0.5-1.1c-0.3-0.4-0.5-0.8-0.7-1.2l0,0C202.4,74.4,201.5,74.5,200.8,74.3z"/>
		<path class="st0" d="M218.8,154.6l-0.2,0.7c0.1,0,0.1,0.1,0.2,0.1l0.1,0.6c-0.1,0.1-0.1,0.1-0.1,0.2l0.5,0.5
			c0.3-0.3,0.4-0.7,0.4-1.1C219.5,155.2,219.2,154.8,218.8,154.6z"/>
		<polygon class="st0" points="219.6,153.3 220.6,153.4 220.6,152.4 219.6,152.3 		"/>
		<path class="st0" d="M212.9,120.2c0.5,0.1,0.9,0.3,0.5-1c-0.1-0.4-0.5-0.6-0.9-0.6l0,0c-0.9-0.1-2,0.6-1.7,1.1
			C211.2,120.5,212.4,120.1,212.9,120.2z"/>
		<rect x="199.2" y="141" class="st0" width="0.8" height="2.1"/>
		<path class="st0" d="M142.1,35.4c0,0,1.6,0.1,1.8,0.5s1.2,0.5,1.3,0.1s0.5-1-0.5-1s-0.8-0.5-1.1-0.9c-0.1-0.2-0.8-0.3-1.4-0.2
			s-1.1,0.1-1.1,0.3C141.4,34.7,141.7,35.1,142.1,35.4z"/>
		<polygon class="st0" points="106.3,14.1 105.2,11.9 105.2,11.9 		"/>
		<polygon class="st0" points="115.2,40.9 114.8,41.4 115.3,42 115.8,41.6 		"/>
		<path class="st0" d="M116.7,33.8l-1.2-2.2l0,0L116.7,33.8z"/>
		<polygon class="st0" points="189.4,80.8 189.4,81.4 190.4,81.3 190.4,80.6 		"/>
		<polygon class="st0" points="212.9,105.3 214.1,105.6 214.1,104.9 213.1,104.7 		"/>
		<rect x="204.9" y="77.2" class="st0" width="0.7" height="0.8"/>
		<polygon class="st0" points="207.1,77.8 206.4,77.6 206.4,77.6 206.1,78.2 206.6,78.6 		"/>
		<polygon class="st0" points="202.9,72.6 202.9,72 201.9,72.1 201.9,72.7 		"/>
		<polygon class="st0" points="172.4,9.1 172.6,8.9 173.8,8.2 173.4,7.6 173.4,7.6 172.4,8.3 171.6,7.8 171.4,8.4 172.1,8.9 		"/>
		<rect x="203.6" y="72.8" class="st0" width="0.7" height="0.5"/>
		<polygon class="st0" points="192.6,82.4 192.2,83.2 192.9,83.5 193.1,82.7 		"/>
		<path class="st0" d="M194.4,84.2c-0.4,0-0.8,0.1-1.2,0.1s-0.5,0.5,0,1.1l1.3-0.2c0,0,1-0.5,0.8-0.8S194.9,84.2,194.4,84.2z"/>
		<polygon class="st0" points="210.2,105.6 209.9,105.8 209.1,106.3 208.4,105.8 208.1,106.4 208.9,106.9 209.1,107.1 209.2,106.9 
			209.9,106.6 209.9,106.8 210.6,106.5 210.4,106 		"/>
		<path class="st0" d="M147.4,124.3L147.4,124.3l-1,0.1l0.1,1.6l0.7,0.5l1.2,0.3c0,0,1.6-0.5,1.8-1.8l-2.5-0.1L147.4,124.3z"/>
		<path class="st0" d="M156.9,116.6c0.5,0.1,0.1-1.6,0.1-1.6l0,0l-2,1.5c1,0.1,1.1,1.1,1.2,1.6C156.4,119,156.4,116.5,156.9,116.6z"
			/>
		<polygon class="st0" points="162.6,147 163.4,145.7 162.8,145.5 162.8,145.5 161.9,146 162.4,146.4 		"/>
		<polygon class="st0" points="175.9,142.1 175.6,141.6 174.8,142.1 175.1,142.7 		"/>
		<path class="st0" d="M163.1,116.6c0.5,0.3,1.5-0.4,0.9-0.8c-1.6-1.1-1.5-2.6-2-3.6c-0.1-0.2-0.3-0.4-0.5-0.5l0,0
			c-0.2,0-0.4,0.1-0.5,0.5v1.5C161.6,114.7,162.3,115.7,163.1,116.6z"/>
		<polygon class="st0" points="145.4,104.1 144.2,104 144.2,104 143.9,104.6 143.4,104.6 143.4,105.4 143.9,105.4 144.1,106.1 
			143.6,106.5 143.4,107.1 142.6,107.3 140.6,109.2 140.4,110.1 139.9,110.9 139.2,112.5 136.9,112.7 136.6,114.7 136.9,116.4 
			138.9,117.2 139.1,116 139.6,115.7 139.9,114.6 140.2,113.8 140.9,113 141.1,112.1 142.2,111.5 143.6,111.2 144.1,110.6 
			144.4,109.2 144.4,108.2 144.9,107.6 146.2,107 146.2,104.9 145.6,104.9 		"/>
		<path class="st0" d="M108.2,120.1L108.2,120.1c-0.2,0-0.5,0.2-0.5,0.4l0,0c0,0.2,0.2,0.5,0.4,0.5l0,0c0.2,0,0.5-0.2,0.5-0.4l0,0
			C108.7,120.3,108.4,120.1,108.2,120.1z"/>
		<path class="st0" d="M151,133.2c0,0-0.4,0.7-1,0c-0.1-0.1-0.2-0.1-0.3-0.1l0,0c-0.5,0-1,1.7-1.2,2.1c0,0,0.3,0.9,0.7,0.9
			c0.4-0.1,0.8-0.2,1.2-0.4c0.5-0.1,0.6-0.7,0.7-1.5C151.3,133.9,151.2,133.5,151,133.2z"/>
		<path class="st0" d="M203,162.4c-0.5-0.3,0.5,0.5,0.8,1c0.2,0.3,0.5,0.4,0.8,0.3l0.3-0.3c0.1-0.4,0.2-0.9,0.2-1.3l-0.7-0.7
			C204.1,162.3,203.4,162.7,203,162.4z"/>
		<path class="st0" d="M213.2,164l-0.5-0.5l-0.1-2.8c0.5-1.5-2.1-3.6-2.3-3.1s-1.6,0.1-1.6,0.5s-0.9,2.6-0.5,3.4
			c0,0.1,0,0.1,0.1,0.1l-1,2.7c-0.3,0.6-0.6,1.1-0.5,1.5l0,0l1,0.5l0.1,1.9c0.7,0.7,2.4,0.7,3.7,0.5l1.8-1.9
			C213.4,165.6,213.2,164,213.2,164z"/>
		<path class="st0" d="M151.8,132.4L151.8,132.4c0,0.1-0.4,1,0.1,1.2s0.3,0.3,0.6,0.5l-0.3,0.6c-0.4-0.5-0.7,0.4-0.4,0.7
			s-0.6,0.1-0.6,0.4s-0.3,0.5,0,0.7s-0.1,0.3-0.4,0.5s1.4,0.3,1.4,0.3s-0.3-0.7,0.1-0.7h0.2l0.3-4.3L151.8,132.4z"/>
		<path class="st0" d="M180.1,78.6c0-0.5-1.1-1-1-0.3s-0.8,1-1,0.8s-0.9,0.6-0.9,0.6c0,0.3-0.2,0.8,0.5,0.9s1.8-0.5,2,0.2
			c0.1,0.2,0.1,0.4,0.1,0.6l1.8-1.9C181.4,79.2,180.1,79,180.1,78.6z"/>
		<path class="st0" d="M187.6,81.6c-0.1-0.4-1.3-2.1-2-2.2l2,2.4V81.6z"/>
		<path class="st0" d="M184.4,82L184.4,82c0.4,0.1,0.8,0.2,1.2,0.3l-1.9-2.2l-2,2.1h0.5C183,82.1,183.6,82.1,184.4,82z"/>
		<path class="st0" d="M142.4,153.4l-1,0.3l-0.7,1l-1.3,0.5l-0.2,2.3l-0.7,0.5v1l-0.8,0.2v0.5l-1.1,0.1l0.6,1.7l0.9,0.5
			c1.5,0.2,0.9,2.1,0.9,2.1l0.9,0.1l0.5,1.2l0.9,1.8c0.3,1.3,1.3,1,1.8,0.9s0.9,1.3,0.9,1.3l4.4,0.1c0,0-0.2,0.5,0.5,0.7
			c1.2,0.2,2.4,0.3,3.6,0.3l2.6-0.7c0.6-0.3,1.2-0.4,1.9-0.4c0.6,0,1.3,0.2,1.8,0.5c0.8,0.5,1.9,0.6,2.8,0.3l1.2,1.5l1.3,2.4l0,0
			l0.2,0.5l1.9,0.5l1.3,0.3l0.5,1.9l1,0.1l0.3,1.2c1.2,0.9-0.3,2.8-0.3,2.8v2.4l0.9,0.5l-0.1,0.9l1.4,1.5l1.6,0.1l2.7,2.9l2.8,2
			l1.9,0.6l0.5,1.8l0.9-0.1l0.7-0.5l2.6-0.1l1.3-1.2l1.5-0.2l10.4-8.8l0.7-3.6v-1.1c2-1.5,2.1-4,0.2-4.2c-1.4-0.2-0.8-1.7,0.5-1.9
			l0.8-0.3v-1l2.5-2.3V167l-5.5-4.5c-1.1-0.4-1.2-1.8-0.8-3.1l3-6.5c-0.1-1.6-0.4-3.2-0.7-4.7l-0.9-0.5l0.2-2.7h-1.2l-2,2.6
			l-0.2,0.7l-1.4,2.3c-2,0.7-4.2,0.8-6.3,0.3c-0.8-0.5-1.7-0.9-2.6-1.3c0,0-1.8-1.5-2.1-1s-1.9-0.5-1.9-0.2s-1.4-0.8-1.4-0.8
			l-2.2-0.8l1.6-0.3l-0.3-1.1c0.1-0.1,0.1-0.1,0.2-0.1l0,0l2.6,1.3c0.3,0.5,1.8,0.3,1.8,0.3l0.5,0.5c0.6-0.1,1.1,0.1,1.5,0.5
			c0.5,0.7,3.4,0.1,3.4,0.1l0.8,0.7l1.2,0.5l2,0.1l1.6-2.2l0.6-0.6l-0.1-1.3l0.8-0.7v-1.1l0.7-0.2l0.1-2.4l0.5-0.1v-5.3l-1.6-1.6
			c-0.1,0.5-1.9,0.5-1.9,0.5s-0.5,0.8-0.8,0.8s0.5,1,0.2,1.6c-0.2,0.4-0.6,0.6-1.1,0.7l-1.6,0.5l-0.5,0.5h-1.8l-0.1-1
			c0.2-0.2,0.3-0.5,0.5-0.7l1.4-0.4l1.1-0.5l0.5-1.1c0.1-1.1,1.5-1,1.5-1s2.5-2.1,2.6-3.1s1-3.8,2.5-3.8h2.9
			c1.1-0.5,0.8-1.9,0.8-1.9l1.5-0.2l0.2,0.8c0,0,2,0.2,2.2-0.1s0.7-1.1,1.2-0.8s2.3-0.8,2.3-0.8c0.1-0.8,2.8-0.5,2.8-0.5l0.3-1
			c-0.6-0.9-1.4-1.8-2.2-2.6c-0.3,0-2.1-1.6-2.3-1c-1.8-0.5-1.6-2.9-1.6-2.9l-0.7-1.6c0-0.9-1.6-2.8-2-2.6c-0.5-0.3-0.8-0.9-0.8-1.5
			l0,0l2.1-2.6c0.1-0.1,0.1-0.2,0.2-0.3l0.5-1.6l1.8-0.5l0.2-1.5l-0.8-0.1c0,0,1.1-2,1.6-2c1.5,0,3,0,4.5-0.2c0.5-0.7,0.8-1.5,1-2.3
			c0-0.3,0.9-0.5,1.2-0.5c0.5-0.4,1-0.9,1.3-1.5c0.2-0.5-0.5-3.2-1-2.8c-0.4,0.4-1,0.6-1.5,0.7l-0.3,1.2l-0.5,0.5
			c0.1,0.4,0.1,0.7,0,1.1c-0.1,0.8-1.1,1.2-1.1,1.2l-0.5,0.5c-1,0.1-2,0.1-3,0c-0.4-0.2-0.6-0.8-0.4-1.2c0.1-0.3,0.4-0.5,0.7-0.5
			c0.7,0.1-0.1-1.9-0.1-1.9l0.9-0.1c0,0,0.1-2,0.5-2s-0.1-0.7-0.5-1s-1-1.5-1.5-1.3c-0.7,0.1-1.5,0.1-2.2,0l-0.3,0.7l-1.2,0.2
			c0,0,0.1,0.9-0.1,1.1c-0.7,0.8-3.2,2.4-2.1-0.3l0.3-0.7v-1l-2-0.1c0,0-1-0.3-1-0.8c0-0.3-0.1-0.7-0.1-1l-2.3-2.6l-2.8-0.3
			l-0.2-0.5l-1.6-0.2c-0.2-0.1-0.5-0.2-0.7-0.3l-2.6,0.8c-0.2,0.3-0.2,0.7-0.1,1.1c0.3,1.6,0.9,2.3-0.2,2.3
			c-0.6,0.1-1.2-0.3-1.3-0.9c0,0-0.9-0.3-0.9,0.1s-0.3,1.3,0,1.8s-0.5,1.1-0.8,0.8s-1.2-1.3-1-1.6s-1.5-2.4,0.2-2.8
			s-0.1-1.3,0.5-1.6l0.9-0.5h0.9l0.5-0.5l0,0l-1.4-0.2l-0.9-0.1l-1.6-0.1c-0.9,0.6-1.6,1.4-2,2.4c-0.7,1.5-2.4-0.1-2.4-1.1l-3.8,0.1
			c-0.4,0-0.7,0-1.1-0.1c-0.3,1-1.8-0.1-1.4-0.8c0.3-0.3,0.4-0.7,0.5-1.1l-0.5-0.1l-0.7,1.2c-1.5,0-2,0.9-1.6,1.5s-0.5-0.1-0.7,0.7
			s0.1,0.8,0.8,1.1s-0.3,0.3,0.1,0.9c0.3,0.2,0.7,0.3,1.1,0.3l-0.9,0.9c-0.5,0.2-1.1,0.2-1.6,0.1c0,0.2-0.1,0.4-0.3,0.5
			c-1.8-1.4-3.7-2.6-5.8-3.5c0.3-0.3,0.9-0.3,1.2-1c0.3-1.1,0.5-2.1,0.7-3.2c0,0-1.8-0.1-1.8,0.5s-1.2,0.9-1.2,0.9s-0.9,0.3-0.5,0.8
			s-0.7,0.7-0.7,0.7c0,0.2,0.1,0.4,0.1,0.6l-6.8,1.7l0,0l0.2,2.6l-1.2-0.4h-0.8l-0.3-0.7l-0.7-0.1V92l0.7,0.5L152,93l1.1,0.1
			l0.2,1.3l2.8,0.1l0.3,0.5l1.6,0.1l3.2,3.2l-0.2,1l-0.5,0.3c0.2,0.8-1.5,0.3-1.5,0.3v0.7l0.8,0.1l0.8,0.5l1.1-1.9
			c1.2-0.8,1.8,0.3,1.8,1s-0.5,0.5-0.5,0.5v1.6l0.6,0.2c0.5,0.5,0.5,1.3,0,1.8c0,0,0,0,0,0c-0.1,0.1-0.3,0.2-0.4,0.3l-0.3,1.1
			c-0.3,1-1.5,0.8-1.5,0.8l-0.5,0.7l-1.3,0.3l2.6,0.3c0.3-0.9,0.9-1.1,1.2-0.7c0.2,0.4,0.3,0.8,0.3,1.2l0.7,0.1l-0.1,1.2l0.7,0.2
			v3.6l0.8,0.9c1.3-0.5,1.3,0.3,0.7,0.8s-0.2,2.4-0.2,2.4l-0.5,0.5v0.9l-0.7,0.5v1.3c-0.9-0.5-1.9-0.5-2.8,0c-1-0.7-3.1-0.5-3.1,0.1
			c0.6,0.9-0.8,1.1-0.8,1.1l-0.8,0.9c0.5,1.1-0.5,1.2-0.5,1.2v2.1l-1.3,1.3l0.1,2l3.4,2l0.2,0.2h1l0.1-0.5l-0.5-2.6v-2.4l1.1-1.2
			c0.1,0,0.1-0.1,0.2-0.1l0,0c0.9,0,0.7,2.2,0.6,3l0.1,2.8l0,0c0,0.2,0.1,0.4,0.1,0.6l0.5,0.2l-1,0.8l-0.9,1l-1.1-0.3l-1.3-0.1
			l-0.5-0.8l-0.8-0.1l-0.1,1.6l-0.5,0.7l-1.3,1.3c1.4,0,0.5,0.7-0.2,1l-2.6,0.9c-0.1-0.1-0.3-0.1-0.5-0.1v0.8l-0.9,0.1l0.8,0.9
			l0.6,0.1v2c0,1.5-3.6,0.5-4,0.1l-0.1,2l-0.7,0.1l0.1,1.3l-0.1,1.9l1.2-0.2v0.8l3,0.1l0.6-0.6l2.6-2.8l1.1-1.2l2.5-0.5
			c0.2-1.1,1.3,0.2,1.3,0.2c1.1-0.1,1.3,0.7,1.3,0.7l1.5,0.2c1.2,0.3,0.5,0.5,0.5,0.9c0,0.3,0.2,0.5,0.5,0.5c0.1,0,0.1,0,0.2,0
			l0.2-1.5l0.7,0.1l-0.7-0.8l-1.2-0.5l-1.3-0.5c-0.9-1.2,0.2-1,1.1-0.9h1.4c0.7,0.9,1.2,1.8,1.6,2.8c0,0.5,0.8,0.7,0.8,0.7l1-0.1
			l0.3,0.8h1l0.3,0.7h2l0.1-1l-1.8-0.3l-0.1-1.1l-1.2-0.2c-0.5-1.9,0.3-2.4,0.9-1.6l0.7,0.1l-0.2-1.6l0.8-0.2l-0.2-2.3l-0.7-0.2
			v-1.1l2.8,0.1c-0.2-0.7-0.1-1.4,0.1-2.1h0.8l0.1,0.5l3.4,0.3h0.1c1.3,0.8,0.7,1.8,0.2,2c-0.4,0.1-0.8,0.2-1.2,0.2l-0.2,0.5
			l-2.8,0.2l-0.2,1.1c-0.8-0.1-1.6,0.5-1.7,1.3c0,0,0,0.1,0,0.1c0,0.3,0,0.5,0.1,0.8c0.2,0.5,0.2,1,0,1.5l1.2,0.5l1.5-0.5
			c0.2-1.1,1.2-1.3,2.1-2s2.3,1.2,1.9,2.1c-0.1,0.1-0.1,0.2-0.1,0.3c-1.7,1.2-3.5,2.2-5.3,3.1l0,0c-2.9,1.4-6,2.5-9.2,3.2l-0.1-0.1
			l-1.2-0.3l-0.1-1.7c-0.2-1.1-2.3-1.1-2.2-0.3s-3.9,0.3-4,0.3l-2.6,1.9l-2,0.2l-0.9,0.5l-0.3-0.7h-0.9l-0.5,0.7l-4.3,1.8
			c-0.3,0.3-0.4,0.5-0.3,0.6C143.4,152.8,142.4,153.4,142.4,153.4z M177.1,130.4c0.1-0.6,0.1-1.2,0.1-1.8c-0.1-0.3,0.7-0.7,1.2-0.7
			l0,0c0.3,0,0.5,0.1,0.4,0.5c-0.2,0.5-0.2,1,0,1.5c0.5-0.6,1.3-0.8,2-0.3c0.3,0.2,0.4,0.5,0.5,0.8c-0.1,0.4,0.8,0.6,1.3,0.3
			s1.2,1,1,1.6s-2.2,0.5-2.3-0.1s-0.5-0.5-0.7-0.1c-0.4,0.3-0.9,0.4-1.4,0.3l-0.5-0.5c0.1-0.1,0.1-0.3,0-0.4
			c-0.1-0.1-0.3-0.1-0.6-0.1L177.1,130.4z"/>
		<path class="st0" d="M233.9,69.4c0,0-1.5-1.1-1.5-1.6s-1.5-1.6-1.5-2.1s-1.5-1.3-1.3-1.8s-0.8-1.6-0.8-1.6l-1.6-1.6l-0.2-1
			l-1.3-0.1l-2.6-3.2l0.1-0.9l-0.8-0.1V54l-0.8-0.5l-1.2-0.1l-2.3-2.6l-0.2-1.2h-1.2l0.2-1.9l-0.8-2.9c-0.4,0.1-0.7,0.1-1.1,0
			c-0.8-0.3,0.3-1.1,0.3-1.1v-0.9l-0.7-0.7c0,0-1.8,0.2-2-0.1c-0.2-0.6-0.4-1.2-0.5-1.8l-0.1-1.9l-0.8-0.3l-0.1-0.7l-1.2,0.1V36
			l-0.7-0.2l-0.7-0.3l-0.1-1.3l-2.4-0.1l-0.8-1.1l-0.9-1.3l-2.8-0.2l-0.7-0.7l-1.1-0.2l-0.8-0.3l-0.3,0.5l-2.1,0.1l-0.1,0.7
			c-1.2,0.3-2.5,0.4-3.8,0.3l-2.2,1.8c-0.1,0.4-0.3,0.7-0.5,0.7c-0.5,0-0.3,1.5-0.3,1.5c0.6,0,1.2,0,1.8,0.1
			c0.5,0.1,0.5,1.3,0.5,1.3c1.6-0.1,2.3,2.1,2.1,2.7s0.7,0.5,0.7,0.5c0,0.7-0.1,1.5-0.2,2.2c-0.2,0.5,1.5,0.8,1.8,1.5
			c0.2,1,0,2.1-0.5,3c-0.3,0.1,0.9,0.5,0.8,1s0.3,0,0.5,0.9c0.2,0.9,0.3,1.9,0.3,2.8l1.5,0.1c0.2-1.5,3-1.5,3.5-1.3
			c1.8,0.7,3.3,3.6,3.3,4.2s-1.2,0.8-1.2,0.8l0.1,0.7l0.9,2.8c1.5,0.9,2.7,3,2.5,3.4s1.3,0.3,1.3,0.3c0.2-2,2.1-1.3,2.2-0.7
			s0.5,2.1,0.5,2.1l0.5,1l0.8,0.8l1.2-0.1l0.3,0.7l1.5,0.2c0.5,0.5,0.9,1,1.3,1.6c0.1,0.3,1.8,0.2,2.2,0.3s1.1,0.5,1.2,1
			c0.2,0.5,0.5,1,0.8,1.5c0,0,1.3,0.3,1.5,0.8c0.2,0.5,0.4,1,0.7,1.5l1.1,0.9l0.1,1l1.2,0.1l0.3,1.3l2-0.1l1.1-0.8l0.9-0.6l1.8-2.4
			c0.2-0.6,0.5-1.2,1.3-1C234.6,72.2,233.9,69.4,233.9,69.4z"/>
		<path class="st0" d="M219,97.3c-0.3-0.3,0.3-1.9,0.3-1.9c0.3-0.6,0.3-1.2,0-1.8c-0.3-0.8-0.1-1.7,0.5-2.3l-0.9-0.5l-0.9-0.1
			l-0.7,0.1c-0.2-0.7-0.4-1.4-0.7-2.1l0,0l0.5,0.1v-0.7l-0.8-0.2c-0.1-0.5-0.3-1-0.5-1.4l-0.1-2.3l-0.8-0.5l0.2-0.9l-0.9-0.3
			l0.5-1.5l-0.8-1.6h-1.1c-0.5-1-1.1-2.1-1.6-3.1c0.1-0.1,0.3-0.2,0.5-0.2c0.6-0.1,0.8-0.2,0.9-0.2l0,0l-0.1-1.2l-1-0.7l-0.3-1.3
			c0,0-1.2,0.2-1.1,0.9c0,0.1-0.1,0.3-0.2,0.3l-2.4-3.6c0-0.1,0.1-0.1,0.1-0.2c0.5-0.8,0.2-1.3-0.5-1.5s-0.8-0.2-1-1.1
			c-0.2-0.5-0.6-0.9-1.1-1.1l-0.3-1.3l-0.8,0.5l-1.3-1.5l0.4-1.3c-0.3,0-0.6-0.3-0.8-0.6l-1.2-2.3c-0.4-0.3-0.8-0.4-1-0.2
			c-0.5,0.3-0.3-2.3-0.3-2.3s1-0.7,1.5-0.3s-3.7-5.5-4.6-5s-2.8-0.5-2.8-1.6s-4-4.4-4-4.4s-1.3-0.9-1.5-0.2s-0.7,1.1,0,1.5
			s0.5-0.5,1.3,0.2s2.2,1.8,1.6,2.4c-0.3,0.4-0.7,0.7-1.2,0.9l0.8,0.9h1.2l0.2,1.9c0,0,1.3,0.7,1.6,1.5c0.2,0.4,0.2,0.8,0.2,1.2
			l-1.1,2.5c0.1,0.5,0.5,0.9,1,1.1l0.5,0.1c0.3,0.3,0.7,0.6,1,0.9v1c1,0,1.8,0.6,2.2,1.5l1.9,1.9l0,0c0.5,0.5,0.4,0.6,1,1l0.6,0.3
			c0.3,0.4,0.7,0.8,1.1,1.2l-0.3,0.3c0,1.2,0.6,0.9,1.2,0.8c0.2,0.2,0.3,0.5,0.5,0.7c0.1,0.7,0.1,1.8,1.2,1.6h0.1
			c1.4,1.9,2.7,3.9,3.9,5.9l0.1,0.1l0,0c0.2,0.3,0.4,0.6,0.5,1c-0.2,0.1-0.3,0.3-0.4,0.5l-1.8,0.2v1.8l-0.9,0.3l0.1,1.1l1.2-0.1
			c0,0,0,1.3,0.3,0.8s3.1,0.1,2.8,1.5c-0.1,0.5,2.8,2,2.4,3.8c0.2,0.1,0.4,0.1,0.5,0.2c0.5,1.5,1,3.1,1.4,4.6l-0.2,0.4
			c0.1,0.1,0.3,0.2,0.4,0.3c0.3,1.4,0.7,2.8,0.9,4.1c-0.1,1.2-0.3,2.4-1,2.7c-1.3,0.8,0.1,0.3,0.1,0.3l-0.2,2.4
			c0.3,1.1,0.9,0.5,1.2,0c0.2-0.2,0.3-0.5,0.5-0.7l2.1-4.2C219.1,97.9,219.1,97.5,219,97.3z"/>
		<path class="st0" d="M186.1,50.8c-0.2-0.8,0.9-1.1,1.5-0.2l1.1-0.1l0.2-1l-1.5-1.2h-1.2c0,0-0.1,0.9-0.9,0.5
			c-0.3-0.2-0.6-0.3-1-0.3c-0.6-0.1-0.5,1.1-0.3,1.7l2.2,1.2C186.3,51.2,186.2,51,186.1,50.8z"/>
		<path class="st0" d="M155.8,32.6c0.1-0.5,0.2-0.5,0.9-0.7s-0.1-1.5-0.8-1.3c-0.4,0.1-0.9-0.1-1.2-0.4v3
			C155.1,33.2,155.5,33,155.8,32.6z"/>
		<path class="st0" d="M140.1,124.5c0.3-0.5,0.9-0.9,1.5-1l0.3-0.8l3,0.1c0-0.5,0.4-0.8,0.9-0.8c0.3,0,0.6,0.3,0.7,0.6
			c0,0.5,1.1,0.1,1.1,0.1l0.8-1.2h1.2l0.1-1.3l0.5-0.3v-2c1-0.2,1.7-1.2,1.5-2.2l0.5-0.5l-0.2-0.8c-0.9-0.3-0.5-1.1,0.1-0.9
			s-0.8-1-0.8-1c-0.7,0.5-1.2-0.7-1.2-0.7h-1.8v-1.5l-0.2-1.5l-1.6-0.8l-1.2,1.1l-0.2,1.6v1l-1.1,0.2l-0.2,3l-0.9,0.3l0.1,1.1
			l-1.2,0.3l-1.2,0.3l-0.2,1.5l-0.9,0.5l-0.5,1.3l-0.5,3.2l1.3,1.3C140,124.7,140.1,124.6,140.1,124.5z"/>
		<path class="st0" d="M150.1,93.7c-1.3,0,0-1,0-1l0.2-1.6h-1.2l-0.2-2.4l-3.2-1.8l-0.1-1.2l0.5-0.3l-0.9-0.3l-0.7,0.9l-0.2,1
			l-1.1,0.2v0.5h-0.7v0.6c-1.6,0.9-3.1,2-4.5,3.2h-3.7l-1.1-0.1c-0.5,1-1.5-0.1-1.5-0.1c-0.2-0.7-1.8,0-1.8,0c0,1.2-2.1-0.5-2.1-0.5
			L124,88c-2.2-2-5.5,0.5-5.6,1.1c0.1,0.9-0.7,0.9-1.4,0.7l-2.6-0.6c-0.5,0-0.9,0.1-1.1,0.5c-0.3,0.9-1.8,0.7-1.8,0.7l-0.2,0.5
			l-1.1,0.2l-0.2,0.7l-1.3,0.2l3.3-0.1c0.9-0.1-0.3,1.9-0.9,1.8l-1.5,0.1l-0.5,0.5h-1.4l-0.7,0.9l-2.1-0.1c0,0-1.2,1-1.1,1.3
			s-0.2,1.3-0.5,1.3s-1,1-0.8,1.3s-0.7,1.5-0.7,1.5l-0.2,1.1l-0.6,0.2v3l-1.3,0.9v1.3l-0.6,0.7l-1.2,2.6l0.1,0.6l-1.6,1.8l0.2,1.8
			l-1,0.3l-0.2,0.8l-0.5,2.3l1.1,0.1c0.5-0.2,0.5,1.5,0,1.6s-1.6,0.7-1,1.1s-1.8,0.3-1.8-0.3s-1.3-1.3-1.6-1s-0.5-0.2-0.7-0.5
			l-2.8-0.9c-0.8,0.1-1.6,0.3-2.4,0.5l-0.5,1.8c-1.2,0.2-2,2.2-2,2.2c-1,0.3-1.8,1.6-1.4,1.9s-0.5,0.5-0.5,0.5v2.5l-0.5,0.8l0.1,2.6
			c0.7,0,0.5,1.2,0.5,1.2c-1.1,0.1-0.9,1.6-0.9,1.6l-2.3,0.8l-0.5,0.7L75,135l-0.8,0.8l0,0l-3-0.8H68l-0.2-0.5l-1.1-0.2l-0.1-1.2
			l-1.6,0.1l-0.3,0.7l-1.8,0.1c0.1,1.1-1.8,2.8-2,2.3s-1.4-1.6-0.9-1.9c0.7-0.2,1.3-0.3,2-0.5v-0.8l-4.1-0.1l-0.5,0.7l-1.7,0.1v1.8
			l-0.8,0.2c-0.5,0.3,0.1,1.6,0.1,1.6c0.8,0.8-0.1,2-0.1,2c-0.7,0.7,0.5,1.9,0.5,1.9c0.9,0.2-0.5,0.9-0.5,0.9
			c0.1,0.6,0.3,1.1,0.8,1.5c-0.3,0.4-0.3,1.1,0.2,1.4c0,0,0.1,0.1,0.1,0.1c0.1,0,0.1,0.1,0.2,0.1l0.1,1.9l0.8,0.5v1.2l0.5,0.8h1.8
			l-0.1-2.8c-1.5-1.8,1.3-2.2,1.4-1.6s1.3,1,1.3,1c0.2,1.7,2.1,2.6,2.6,1s1-0.7,1.3,0.1c0.7,1,1.5,1.9,2.4,2.7h1.8l0.2,1.6
			c1.9-0.1,2.4,0.1,3.2,2.6c0.3,1.5,1.4,2.7,2.8,3.2l1.5-0.1c0-1.3,1.5,0.2,1.5,0.9s3,3.2,3,3.2l3,0.7l0.5,0.5l4.8,1.6h0.5
			c0.1-0.5,0.5-0.8,1-0.8c1,0.1,1.9,0.7,2.4,1.6c0.2,0.3,0.4,0.6,0.7,0.9l2.8,0.9c0.2,0.3,0.3,0.6,0.3,0.9c0.2,1.7,1,1.3,1,1.3
			l6.3-0.1l2.2-1.9l5.6-0.1c2.8-0.1,1.1-4,0.5-4c-0.3-0.4-0.5-0.9-0.3-1.4l-5.5-8.5c-0.9-0.9-1.8-1.9-2.6-2.9
			c0.2-0.5,0.4-0.9,0.6-1.4c1.5-0.9-0.3-2.3-0.3-2.3c0-1-0.3-2-0.8-2.9c-1.2-0.9-1.7-2.4-1.4-3.9v-1.8c-1.6-1.6,0.7-1.8,0.7-1.8
			c0.4-0.8,0.2-1.8-0.5-2.3l-0.1-1.5l-1.8-0.2l-0.2-5.2l-4-5.7c-0.8-0.2-0.2-1.6-0.2-1.6c1-0.5-0.2-1.9-0.2-1.9l-0.1-2.4l2.3-0.2
			l0.5-0.9h1.1l-0.1-2.9c0.1-0.4,0.5-0.8,0.9-0.9h0.5c0.2,0,0.4,0.1,0.5,0.2l1.5,0.1l0.1-0.3l0.9-2.6v-0.1l-1.2-0.1
			c-1.3-0.8-0.7-3.7-0.7-3.7c0.6-1,1.6-1.7,2.7-1.9c0.6,0,1.3,0.2,1.8,0.5l1.5-0.1c0.3,0.2,0.6,0.5,0.8,0.9c-0.2,1-0.2,2.1-0.3,3.1
			c-0.1,0.2-0.2,0.3-0.3,0.5l-0.3,0.9l0.1,2.6l0.5,2.8l-1.4,1.3c-1.2,0.7-1.2,2.2,0.1,2.6c0.9,0.1,0.5,2.2-0.8,0.8
			c-1.8,0,0.5,1.5,0.4,1.4c1.8,0.9,1.4-1,1.4-1l1-0.8l2.4-1.4l0,0c0.9,0.5,1.6,1.2,2,2.1c0,0.3,4.4,0.1,4.4,0.1
			c0.8,0.7,1.4,1.7,1.6,2.8c1.2-1.6,3.8-0.1,1.9,0.8c1.8,1.1,1.8,2.1,1.8,2.1c1.4-0.5,1.4,0.7,1.4,1c0.2-0.5,0.4-1.1,0.5-1.6
			c-1.6-1.2,2.2-1.6,1.1,0.5l-0.7,1l1.1,0.9l0.1,2.6c2.4-0.2,1.8-3.2,1.8-3.2l1.1-0.2c0-1,0.8-0.5,0.8-0.5c-0.5-2.6,0.5-3.8,1.2-4.2
			l1.8-2c0.1-0.5,0.2-1,0.2-1.5c-1-0.5-0.5-2,0.7-0.7s-0.7-2.7-0.7-2.7l-0.9-0.8l-1.2-0.2l-2.6,0.3l-0.7,0.2l-0.2-0.5l-0.5,1.4h-2
			l-0.1-1.3l1.2-0.3l0.5-0.7l0.2-0.9h1.2l2.6-2.7c0.2-0.2,0.5-0.2,0.7-0.1l0.7,0.5l1,0.8l0.1,0.7l-0.7,0.3l-0.1,0.9l0.3,1.3h0.9
			c0.2-1,1.2-1.6,2.2-1.4c0,0,0,0,0,0c0.4,0.1,0.8,0.4,1.1,0.7l0.7-1.6c-1.5-0.8,0-2,0.4-1.5s1.4-1.5,1.4-1.5s0.8,1,0-0.3
			c-0.4-0.6-0.3-1.4,0.3-1.9c0.1,0,0.1-0.1,0.2-0.1c-0.2-1.3,1.4-1.1,1.4-1.1l0.1-1.8l-1.5-0.1c-0.3,1.6-1.6,0.2-1-0.1
			c0.5-0.3,0.9-0.6,1.3-1v-1.1l0.7-0.2l0.1-1.1h1.6l1.5-0.7l0.3-0.5l1.5-0.1l2.2-2L150.1,93.7z"/>
		<polygon class="st0" points="110.7,117.3 113.2,115.9 113.2,115.9 		"/>
		<polygon class="st0" points="89.9,189.6 89.9,189.6 90.8,191 90.9,192 92.1,192.3 92.4,193 93.2,192.5 92.7,191.1 91.2,189.9 		
			"/>
		<polygon class="st0" points="146.1,185.7 146.6,185.1 146.9,184.8 146.6,184.5 145.4,184 145.1,184.6 145.9,184.9 145.6,185.2 		
			"/>
		<polygon class="st0" points="137.6,176 136.9,176.6 136.6,176.9 137.1,177.1 137.8,177.7 138.1,177.1 137.8,176.8 138.1,176.6 		
			"/>
		<polygon class="st0" points="60.3,152.8 60.3,154.3 61,154.3 60.8,152.6 60,152.3 60,151.7 59.5,151.7 59.5,152.8 		"/>
		<polygon class="st0" points="67.2,161.1 68.2,162.2 68.8,161.4 67.9,159.8 67.2,159.1 66.7,157.6 64.9,156.9 64.9,156.9 
			65.8,158.8 66.2,159.8 		"/>
		<path class="st0" d="M247.8,143.2l-0.7-0.1l0,0c-0.1,0.5,0.1,1.2,0.6,1.2l0.1-0.7l0,0L247.8,143.2z"/>
		<path class="st0" d="M251.1,140.4c0.1,0.1,0.3,0.1,0.5,0.1l-0.1-0.7c0.1,0,0.1,0,0.1,0.1v0v-0.1c0-0.2-0.1-0.5-0.2-0.7l0,0
			l-0.6,0.3c0.1,0.1,0.1,0.3,0.1,0.5C251,140.1,251,140.3,251.1,140.4z"/>
		<path class="st0" d="M251.1,141.6c-0.2-0.4-0.3-0.9-0.4-1.3l0,0l-0.7,0.1c0.2,0.7,0.4,1.3,0.4,1.4L251.1,141.6z"/>
		<path class="st0" d="M244.4,129.4c-0.1,0-0.3-0.1-0.4-0.1c-0.5,0-0.9,0.2-1.3,0.5l0.4,0.5c0.3-0.2,0.6-0.3,1-0.3v-0.1l0.7-0.1
			C244.9,129.6,244.6,129.5,244.4,129.4z"/>
		<path class="st0" d="M246.8,144.3L246.8,144.3c-0.3,0.1-0.5,0.2-0.7,0.4c-0.7,0.4-0.4,2.1,0,1.7s0.9,0,1-1.2
			C247.1,144.4,247,144.3,246.8,144.3z"/>
		<polygon class="st0" points="159.9,84.6 159.9,83.8 159.9,83.8 159.2,83.8 159.4,84.7 		"/>
		<polygon class="st0" points="166.1,82.7 165.9,82.1 165.6,82.2 165.9,82.9 		"/>
		
			<rect x="167.9" y="81.3" transform="matrix(0.9989 -4.640909e-02 4.640909e-02 0.9989 -3.6071 7.9379)" class="st0" width="2.4" height="0.7"/>
		<polygon class="st0" points="166.9,82 166.8,81 166.8,81 166.1,81.2 166.4,82.1 		"/>
		<polygon class="st0" points="156.1,81.6 155.4,81.6 155.4,81.6 155.4,82.2 156.1,82.3 		"/>
		<rect x="158.4" y="82.7" class="st0" width="0.9" height="0.7"/>
		<polygon class="st0" points="157.6,82 156.9,81.9 156.9,81.9 156.8,82.5 157.4,82.7 		"/>
		<path class="st0" d="M175.1,12.6c-0.5,0.1-1.1,0.2-1.6,0.1h-2c-0.1-0.4-0.5-0.5-1-0.5l0,0c-0.4,0-0.7,0.2-1,0.5
			c-0.1,0.5-0.8,0.5-0.8,0.5l-2.5,0.2c-0.2,0.7-1.5,1.1-1.6,0.7l0,0c-0.3-1-1.6,1.2-0.2,1.6c0.9,0.3,1.9,0.3,2.8,0l0.3-0.7l5.5,0.1
			c0.3-0.3,0.5-0.7,0.7-1.1c0,0,1.3-0.5,1.9-0.2S175.8,12.3,175.1,12.6z"/>
		<path class="st0" d="M164.9,19.6l-1.4-1.4v-1.3l-0.5-0.5l-0.5-1.6l-1.4-0.5l-1.5,0.5l-1.5,1l-1.6,0.2l-0.9,1l3.5,0.3l0.7,1.1
			l2.5,0.2l1.6,1.6C165.4,21,165.7,20.4,164.9,19.6L164.9,19.6z"/>
		<polygon class="st0" points="178.4,10.3 177.6,11 177.1,10.5 176.6,10.9 177.2,11.6 177.4,11.9 177.8,11.7 178.9,10.8 		"/>
		<path class="st0" d="M173,82.7c0,0.3,0.8,0.7,1.2,0.7c0.6-0.2,1.1-0.5,1.6-0.9c0,0,0.5-1.6,0.1-1.5s-1.3,0.8-1.5,0.1
			c-0.1-0.3-0.4-0.4-0.7-0.4c-0.2,0-0.5,0-0.7,0.1l-1.8,0.2l-0.1,0.8l1.2,0.1C172.7,82,172.9,82.3,173,82.7z"/>
		<polygon class="st0" points="148.8,82.2 147.9,82.1 147.9,82.7 148.6,82.9 		"/>
		<path class="st0" d="M108.3,119.1C108.3,119.1,108.2,119.1,108.3,119.1C108.2,119.1,108.3,119.1,108.3,119.1z"/>
		<rect x="149.8" y="81.4" class="st0" width="0.9" height="0.7"/>
		<path class="st0" d="M134.4,63.4c0.7,0-0.5-0.8-0.5-0.8s-1.3,0.1-1.2-0.5l0.1,1.2L134.4,63.4L134.4,63.4z"/>
		<polygon class="st0" points="148.1,83.1 147.2,82.9 147.1,83.5 147.9,83.8 		"/>
		<path class="st0" d="M105.2,121.4c0.1,1.2,1-0.8,1-0.8V113l-2-0.2l0,0l0.1,0.8h0.5c0.9,1.6,0.1,5.3,0.1,5.3s-1.3,0.1-1.5-0.5
			s-0.8,1.5-0.3,1.8S105.1,120.2,105.2,121.4z"/>
		<polygon class="st0" points="106.7,125.5 106.8,124.5 106.1,124.1 106.2,122.5 106.8,122.4 106.9,121.6 106.9,121.6 105.2,122.7 
			104.2,122 104.2,124.7 105.9,127 		"/>
		<path class="st0" d="M108.2,132.8L108.2,132.8c-0.2,0-0.5,0.2-0.5,0.4l0,0c0,0.3,0.2,0.5,0.5,0.5s0.5-0.2,0.5-0.5l0,0
			C108.6,133,108.4,132.8,108.2,132.8z"/>
		<path class="st0" d="M107.8,130.9c0-0.3-0.2-0.5-0.5-0.5s-0.5,0.2-0.5,0.5s0.2,0.5,0.5,0.5l0,0
			C107.6,131.4,107.8,131.2,107.8,130.9C107.9,130.9,107.9,130.9,107.8,130.9z"/>
		<polygon class="st0" points="107.1,128.4 106.3,128.5 106.2,129.4 107.1,129.5 		"/>
		<polygon class="st0" points="105.2,134.9 106.1,134.8 106.1,134 105.2,134.2 		"/>
		<polygon class="st0" points="135.8,62.2 135.1,61.7 134.6,62.2 135.4,62.8 		"/>
		<polygon class="st0" points="147.1,84.4 146.9,83.8 146.2,83.9 146.4,84.6 		"/>
	</g>
</g>
</svg>
