<?xml version="1.0" encoding="utf-8"?>
<!-- Generator: Adobe Illustrator 22.1.0, SVG Export Plug-In . SVG Version: 6.00 Build 0)  -->
<svg version="1.1" id="Layer_1" xmlns="http://www.w3.org/2000/svg" xmlns:xlink="http://www.w3.org/1999/xlink" x="0px" y="0px"
	 viewBox="0 0 600 154.5" style="enable-background:new 0 0 600 154.5;" xml:space="preserve">
<style type="text/css">
	.st0{fill:#009edb;}
	.st1{fill:none;stroke:#009edb;stroke-width:2;}
</style>
<title>UPU Logo</title>
<g id="Layer_2_1_">
	<g id="Layer_1-2">
		<path class="st0" d="M174,111.4c-4.5,2.2-9.1,4.5-13,8.4l-0.5,0.4l-1.7,0.8l0,0l0,0l-0.2,0.1l-0.2-0.6c2.5-2.2,4.7-4.8,6.4-7.6
			c2.1-3.7,2.8-8.1,3.4-12.3c0.4-3.2,1.1-6.4,2.2-9.5l-2.6,3.4l-1.9,2.6c-2.4,3.6-3.8,7.8-5.1,11.9c-1.9,5.6-3.9,11.4-8.6,16l8.4-2
			l7-1.5c9.2-2.9,19.1-11.7,21.9-21.9c-1.4,2.4-3.3,4.5-5.4,6.2C180.8,107.9,177.5,109.9,174,111.4"/>
		<path class="st0" d="M190,65.2l-0.9,2.1c-1.2,3.1-2.2,6.3-2.8,9.6c0,0-1.1,4.6-1.2,4.8l-0.4,0.4l-1,0.8l0.6-2.7l0.6-5
			c0-0.3,0-0.6,0-0.8c0-5.1-2.6-9.3-5.1-13.4c-1.7-2.6-3.2-5.5-4.2-8.4c0,0.8,0,1.5,0,1.5c0.7,8.7,3.1,16.7,5.5,24
			c0.8,2.1,1.1,4.3,1.1,6.6c0,1.6-0.1,3.1-0.3,4.5l5.2-7.1l4.5-5.9c2.8-5.3,4.3-11.1,4.3-17.1c0-3.3-0.6-6.6-1.6-9.7
			c0,0.2,0.1,0.5,0.1,0.7C194.3,55.7,192.1,60.5,190,65.2"/>
		<path class="st0" d="M185,54.9c0,0-0.9-3.6-1-3.6c-1.3-3.9-4.5-6.7-7.6-9.4c-2.2-1.8-4.2-3.9-5.9-6.2c0.7,2.4,1.9,6.4,1.9,6.4
			c1.5,3.5,3.9,6.8,6.3,9.9c3,3.9,6,7.9,7.3,12.7c0,0,0.3,1.2,0.3,1.2c0.6-3.6,1.6-7.1,2.9-10.5c1.6-3.6,2.4-7.4,2.4-11.3
			c0.1-5.9-1.7-11.8-5.1-16.7l0,0l-0.9-1.2l-0.9-1c1.3,2.9,2,6.1,2,9.3c-0.6,4.2-0.9,8.5-0.9,12.8c0,3.2,0.2,6.4,0.7,9.6l-0.5,0.2
			c0,0,0,0-0.1,0l0,0l-0.4,0.1L185,54.9z"/>
		<path class="st0" d="M167.1,29.3l6.6,5.7c3.5,2.7,7,5.6,9.3,9.6c-0.2-1.4-0.4-2.9-0.4-4.3c0-1.5,0.1-3,0.2-4.5
			c0.1-1.5,0.2-3,0.2-4.4c0-1.9-0.2-3.7-0.5-5.5c-1-4.9-5.4-10.6-10.9-12.6c1.8,1.6,3.2,3.6,4.1,5.8l1.7,6.6c0.9,4,2.1,8,3.8,11.7
			l-0.5,0.3l0,0l-0.3,0.2l-0.9-1.7c0,0-2.1-3.2-2.2-3.2c-2-2.4-4.5-4.5-7.2-6.1c-2.7-1.7-5-3.9-6.9-6.4c-0.1-0.1-0.2-0.2-0.3-0.4
			s-0.3-0.4-0.5-0.6C163.5,23.5,164.9,26.8,167.1,29.3"/>
		<path class="st0" d="M174.3,26.1c-0.1-0.2-0.2-0.5-0.2-0.5c-1.1-4.6-3.1-10.5-8-14.9l0,0c-2.9-2.6-6.5-3.9-9.9-5.2l-2.1-0.8
			l4.2,4.2C162.6,15.6,168,21.4,174.3,26.1"/>
		<path class="st0" d="M42.2,24.8c2.4-1.8,4.6-3.9,6.6-6.2l1.8-2.5C53,12.3,55.9,8.8,59,5.6c-6,2.3-12.2,4.7-15.7,10.8
			c-1.4,2.1-2.4,4.5-2.9,7l-1.4,4L42.2,24.8"/>
		<path class="st0" d="M33,38.7L33,38.7l-0.2-0.1l1.2-3.9l1.1-3.1l1.2-5.2c0.9-4.4,1.9-8.8,5.3-12c-2.5,1-4.7,2.6-6.4,4.7l0,0
			c-3.4,3.5-4.3,8.4-4.3,13.6c0,2.4,0.2,4.9,0.5,7.4c0,0-0.1,4.5-0.1,5.4c1.7-2.8,3.9-5.4,6.4-7.5C46,32,50.4,26.1,51,19.9
			c-0.1,0.2-0.3,0.4-0.4,0.6l-0.2,0.3c-1.9,2.8-4.4,5.2-7.2,7.1l-4.6,3.6c-2.2,2.1-3.9,4.6-5.1,7.5l-0.3-0.1l0,0
			C33.2,38.8,33.1,38.7,33,38.7L33,38.7"/>
		<path class="st0" d="M28.2,58.2L28.2,58.2l-0.4-0.2l0.6-8.4l-0.6-8.2c-0.4-2.5-0.6-5-0.7-7.6c0-2.2,0.4-4.3,1.2-6.3
			c-3.7,5.4-5.8,10.5-5.8,15.9v0.7c0,0.4,0,0.8,0,1.2c0,4.5,1.5,8.4,3,12.2c1.3,3.1,2.2,6.3,2.8,9.6c1.2-5.3,4.2-9.9,7.3-14.2
			l5.2-8.1c1.1-2.6,1.9-5.2,2.3-8c-0.7,1.1-1.5,2.3-1.5,2.3l-1.2,1.1c-4.9,4.3-9.9,8.9-11,15.1l-0.2,1.1l-0.4,1.9l-0.3-0.1l0,0
			C28.4,58.3,28.3,58.3,28.2,58.2L28.2,58.2L28.2,58.2z"/>
		<path class="st0" d="M28,77.2l-0.8-3.8L23.8,65c-2-4.3-4-8.7-4-13.7c0-0.1,0-0.1,0-0.2l-0.7,2.4c0,0-0.3,1.2-0.3,1.2
			c-0.3,1.7-0.5,3.4-0.5,5.1c0.1,4.3,0.8,8.6,2.1,12.7c1.2,4,4,7.4,6.8,10.7c2,2.2,3.7,4.6,5.2,7.2c-0.2-1.5-0.4-3-0.4-4.5
			c0-1.8,0.2-3.5,0.7-5.2l1.3-4.5l3-11.3l0.4-2.7c0.5-2.7,0.8-5.4,0.9-8.1c0-0.3,0-0.5,0-0.7c-0.4,1.7-1,3.4-1.9,4.9
			c-3.8,5.7-7.2,11.9-7.2,18.3c0,2.1,0.4,4.1,1.1,6.1l-0.4,0.2C30,82.9,30,83,29.9,83l-0.3,0.1L28,77.2z"/>
		<path class="st0" d="M45.5,111l-0.8-1.6c0,0-1.7-4.1-1.7-4.1c-0.9-4.4-1.5-8.8-1.8-13.3c-0.5-5.7-1.3-11.5-3.1-16.8
			c-0.1,2.5-0.5,5-1.1,7.5l-1,5.6c-0.1,0.9-0.1,1.7-0.1,2.6c0,3.3,0.7,6.6,2.2,9.5l0.8,1.4l0.9,1.8l-0.5,0.3l-3.1-4l-0.9-1.3
			c-1.9-3.2-4.7-6-7.4-8.7c-4-4-7.9-8.2-9.3-13.6c0,0.4-0.1,0.9-0.1,1.4c-0.1,3.4,0.5,6.7,1.7,9.8c3.4,9.5,12.7,15.4,20.9,20.6
			L45.5,111"/>
		<path class="st0" d="M50.9,118.3c-3.2-2.6-6.9-4.4-10.6-6.2c-5.8-2.8-11.7-5.8-15.3-11.9c2,7.1,7.4,14.1,15,18.8
			c4.3,3,9.6,3.9,14.7,4.7l8.2,1.8c-4.9-4.4-7-10.3-8.9-16l-2.1-5.8c-2-4.2-4.5-8.1-7.5-11.6c1.1,3,1.8,6.2,2.3,9.4
			c0.7,4.7,1.4,9.6,4.3,13.5c1.5,2.2,3.4,4.3,5.5,6c0,0,0,0.1,0,0.2l0.1,0.1l-0.1,0.1l0,0l0.1,0.1l-0.1,0.1h-0.1l-0.1,0.3
			L50.9,118.3z"/>
		<path class="st0" d="M78.5,131.4l4.1-1l2-0.3l0.8-0.1c-4-0.9-8.7-2.4-12.8-5.9l-3.6-3.4c-3.7-3.7-7.7-7.2-11.9-10.3l3,5.3
			c2.4,4.9,4.9,10,10.8,12.1l2.2,0.7l2.5,0.9l-0.1,0.6l-3.4-0.3l-1.5-0.3l-10.8-1.2c-7.5-0.5-15.2-1.2-21-6.4
			c3.5,5.3,8.7,9.3,14.7,11.3C61.8,135.9,70.3,133.6,78.5,131.4"/>
		<path class="st0" d="M87.4,149.8c4.5-5.8,10-10.7,16.3-14.5l0.6-0.3c0,0,3.6-1.4,3.8-1.4c7.9,3.9,14.7,10.6,19.4,16
			c0,0,3.1-2.8,3.5-2.8c-5.8-5.7-12.5-10.3-19.8-13.7l-1.1-0.6l1.2-0.1l4-0.4c3.1-0.2,5.5,1.5,7.8,3.1l2,1.3
			c8.8,6.6,18.4,8.7,26.4,5.7l0,0c3.7-1.4,7-3.6,9.7-6.4c-6.1,3.2-13.3,3.7-19.9,1.4l-7.3-3c-7.5-3.9-16.2-5-24.4-3.2
			c-1.2,1.1-2.5,0.6-3.6,0.2l-1.8-0.4c-10-2.1-18.7,1.7-27.1,5.4l-2.8,1.2c-6.6,2.5-14,2.2-20.3-1.1c2.7,2.7,5.9,4.9,9.5,6.2
			c7,2.8,16,1.4,22.9-3.5l4.1-2.8c4-2.9,8-5.8,13.5-4.1l0.8,0.3l-0.8,0.4c-7,3.4-13.4,7.7-19.1,13c-0.3,0.3-0.6,0.5-0.9,0.8
			C84.3,146.8,87.4,149.4,87.4,149.8"/>
		<path class="st0" d="M139.5,129.5l-0.1-0.6l2.7-0.9l3.6-1.5c4.8-2.4,6.8-6.6,8.8-11.1c0.9-2,2-3.9,3.2-5.8
			c-4.2,3.2-8.2,6.7-11.9,10.6l-3.9,3.8c-3.4,3.1-7.5,4.5-12.3,5.7l0.6,0.1l8.1,1.8c7.6,1.9,15.5,3.8,23.2,0.8l0,0
			c5.1-1.8,11.1-6,14.4-11.6c-5.6,5.3-13.1,6.1-20.6,6.7l-7.6,0.8l-3.3,0.6L139.5,129.5z"/>
		<path class="st0" d="M178.6,91.3c0-0.2,0-0.5,0-0.7c-0.1-2.9-0.5-5.7-1.1-8.5c-0.6-2.8-1-5.6-1.1-8.4c0-0.1,0-0.2,0-0.3
			c-0.3,0.9-0.7,1.8-0.7,1.8c-1.6,4.8-2,10.2-2.4,15.4c-0.5,6.6-1,13.5-4.4,19.2c-0.2,0.3-0.3,0.7-0.5,1l9.1-6.2l3.2-2.1
			c9.9-6.8,15.4-16,15.4-25.7c0-0.7-0.1-1.4-0.2-2.1c-1.5,6.5-6.4,11.6-11.4,16.4l-5.8,7.5l-3.1,4.4l-0.5-0.2h-0.2v-0.1l-0.3-0.1
			C177,99.2,178.3,95.3,178.6,91.3"/>
		<path class="st0" d="M119.9,31.2l0.4-1.1l-0.8-0.3l0.2-1.1l1.7,0.7l0.4-1.1l-4.3-1.7l-0.5,1.1l1.4,0.6c-0.1,0.3-0.1,0.8-0.2,1.2
			l-0.7-0.2l-0.4,1.1l1.3,0.4L119.9,31.2z M68.3,63.9L68.3,63.9L68.3,63.9L68.3,63.9 M163.2,53.7l-9.1,2.7l1.7,5.5l0.5-0.1l0.1,0
			l-0.5,0.2c0.3,1.1-0.4,2.4-1.1,3.8l-0.9,1.7c0-0.1-0.5,0.9-0.5,0.9l-1.7,2.6c-2.1-1-4.6-1.1-6.7-0.3l-0.3,0.1l-0.4,2.1l-1.4,1.1
			v-0.1l-0.6-0.2l0.6,0.1l0.8-5.3c0,0,0.1-1.1,0.2-1.9l0.2,0.1c1.3,0.1,2.8,0.2,4-0.9c0.9,0,1.8,0,2.7-0.1c0.3-0.2,1.4-1.2,1.4-1.2
			l1.9-2.1c0.3-0.7,0.5-1.4,0.5-2.2c0-1.2-0.4-2.3-1.3-3.1l-0.4-0.3c-0.8-0.7-1.7-1.2-2.7-1.4l-0.4-0.7c-0.9-0.6-2.1-0.7-3.1-0.2
			c-0.1-1.1-0.4-5.2-0.4-5.2c-0.1-0.2-0.2-0.4-0.2-0.6c0.1-0.4,0.2-0.8,0.5-1.1l0.6-1.4h1.7v-6.4l-6.7-0.1c0.2-0.3,0.4-0.5,0.4-0.8
			c0-0.2,0-0.4-0.1-0.6c-0.9-1.9-2.3-1.6-3.4-1.4h-0.2c0-0.3,0.3-2.6,0.3-2.6l-1.1,0.7l-6.3,4l-2.3-1.7l-3.8-2.7
			c-0.2-1-0.7-2-1.5-2.6l-0.3-0.3c1-0.6,1.9-1.3,2.6-2.2c0.4-0.7,0.5-1.5,0.5-2.3c0-0.6-0.1-1.1-0.4-1.6c-1.5-2.8-4.5-4.6-7.6-4.4
			c-1.7,0.4-3.3,1.5-4.2,3c-0.6,0.6-0.9,1.5-0.9,2.4l-0.8-0.1c-0.7,0-1.1,0.1-1.6-0.5l-5.4-6c0.2-0.5,0.4-1,0.4-1.5
			c0-0.7-0.2-1.3-0.4-1.9l-0.7-1.4l-0.9-1l-3.3-0.5l0.4,0.9l0,0.2h-2.9v8.2h5.3l4.6,7.1c-4.1,0.1-8.1,0.9-12,2.3l-1.9-1.1l-1.5,2.1
			c-1.6,0.3-3.1,0.9-4.5,1.8c0.1,0-1.4,0.2-2.6,0.4c0.9-1.4,2.6-4.2,2.6-4.2l4.5-7.7c0.6-0.1,1.2-0.3,1.7-0.6l1.6-2.4
			c0.4-1.4,0.2-2.9-0.6-4.2l-0.2-0.3l-1,0.2c-0.5,0.5-1,1.1-1.4,1.7l-0.9-1.1c0,0-1.1,3-1.1,3c0,0-4.9,6-6.9,8.4l-0.1-0.6l0.8-2.1
			l-0.1-0.3c-0.4-1.3-1.2-2.4-2.3-3.1l-0.7-0.3l-0.1,0.6l-0.2,1.1c-1.2-1.1-2.8-1.7-4.4-1.7l-0.8,0c0,0,0.4,1.3,0.6,1.8l-2.1-0.3
			c0,0,0.2,1.4,0.3,1.8l-3.8-0.4l0.5,0.9c0,0,0.3,0.9,0.6,1.5l-2,0.2l-0.1,0.4c0,0.1,0,0.2,0,0.3c0,0.4,0.2,0.7,0.5,0.9l-2.6,0.5
			l0.5,0.7l0.2,0.3L69,30.6l-2.3,0.6l0.6,0.6l0.5,0.8h0l-2.4,1.3l0.6,0.5l0,0h-0.6l0,0h-0.6c-0.9,0-1.9,0-2.3,0.7
			c-0.2,0.1-0.4,0.2-0.5,0.3l-0.6,0.4l0.1,0.8l1.7,1.7L62.1,39l-0.3,0.5l-0.7,1.7l1-0.1c1.3-0.2,2.5-0.7,3.4-1.5l0.4,1.9
			c0.7,0.3,1.5,0.5,2.2,0.6l1.6-0.9l-0.6-0.3c-0.4-0.4-0.6-1-0.6-1.5c0-0.2,0-0.3,0.2-0.5c0.9,0,1.8-0.1,2.6-0.3l1.1-0.1
			c0,7.1-0.2,12.4-1.5,17.7l-1.8-0.4L65.9,55l-2.7-0.5c-1.2,0.3-2,1.4-2.1,2.6c0,0-0.1,0.3-0.2,0.6l-0.6-0.1l-2.6-0.6
			c-1.4-0.1-2.7,0.7-3.2,2c-0.1,0.3-0.2,0.5-0.2,0.8c0,1.1,0.9,1.8,1.7,2.3l1.4,1.5c-0.1,0.1-0.1,0.3-0.2,0.5l-1.5-0.6
			c-1.5-0.6-3-1.3-4.3-0.2c-0.1,0.4-0.2,0.8-0.2,1.3c0.1,1.2,0.6,2.3,1.4,3.2l0.3,0.4l-1.5-0.2l-1.7-0.3L49.4,68l-5.6,5.7l0.4,0.4
			c1.5,1.5,3.1,0.6,4.4-0.3c0.7-0.4,1.5-0.8,2.3-0.9l-0.4,0.6c-0.2,0.2-0.3,0.5-0.3,0.8c0,0.1,0,0.2,0,0.3c0.2,0.6,0.6,1.1,1.1,1.3
			l0.3,0.2l2.8-1.6l2.7-1.6c-0.4,0.1,3.4,0.5,3.4,0.5l11.3,0.9c0.2,0,2.2-0.2,3-0.3c1.8,8.6,8.3,17.2,16.4,21.7
			c-0.2,0.5-0.5,1.3-0.5,1.3c-0.1,0.3-0.1,0.6-0.1,0.9c0,1.1,0.6,2.2,1.6,2.7c0.2,0.1,3.6,0.4,3.6,0.4l3.4,0.3c-0.9,0.4-3,0.9-3,0.9
			c-1.9,0.2-3.7,0.9-5.2,2.1c-2.6,1.6-4.3,4.4-4.6,7.5c0,0.1,0,0.7,0,0.7h0.5c1.4,0.1,3.4-1.1,4.4-2.7c2.8-3.8,7.5-4.1,11.7-4.3
			l2.9-0.4l-2,1.6l-3.3,2.6c0.1-0.1-3.9,2-3.9,2l-7.8,4.3l0.4,0.5c0.2,0.3,0.5,0.3,1.1,0.4l6.8,0.7l0.2-0.2c2.8-3.2,6.7-5.2,11-5.6
			c2.6-0.6,4.9-2.5,7.2-4.3l1.7-1.4c0.2,0.3,0.4,0.6,0.4,0.6s0,0.5,0,0.8s0,0.9,0,0.9c-0.1,0.4-0.1,0.8-0.1,1.2
			c0,0.7,0.3,1.3,0.8,1.8l0.3,0.2l0.2-0.1l3.6-1.3l1.9-0.8c0,0.1,0,0.2,0,0.2c0.1,1.8,0.2,3.4,1.1,4.6c1.5,0.6,2.6-0.3,3.5-1
			l0.6-0.4l1.5,1.5c0.8,0.6,1.9,0.9,2.9,0.7c0.7-0.2,1.2-0.7,1.3-1.4c0.2-0.3,0.3-0.7,0.3-1.1c-0.1-0.7-0.3-1.3-0.7-1.9l-0.5-0.9
			c-0.1-0.3-0.1-0.6-0.2-0.9c0-0.4,0.2-0.8,0.5-1c1.2,0.3,2.2,1,2.8,2c0,0,0,0,0,0.1c0,0.2,0.1,1.1,0.1,1.1v0.1
			c-0.1,1-0.6,2-1.3,2.8c-0.9,1.1-1.5,2.4-1.6,3.8c0,0.1,0.1,1.2,0.1,1.2l4.4-2.5c2.2-0.8,2.6-2.1,2.6-3.4c0-0.4,0-0.9-0.1-1.3
			c0,0,0-0.7,0-1.2l1.7-0.3c0.8-0.5,1.2-1.4,1.2-2.3c0-0.5-0.1-1-0.2-1.5c0,0-0.3-1.4-0.3-1.4c0,0,0.4-1.9,0.4-1.9
			c0.5-2,0.7-4,0.8-6.1c0-1.3-0.2-2.6-0.6-3.8c0,0.3,1.5-5.9,1.5-6c0.4-0.3,0.8-0.6,1.1-1l1.8-2.3c2.1-0.5,3.7-2.2,4.1-4.3v-0.1
			c0.1-1.8,0.7-3.5,1.6-5l1.3-2.8l0.7-2.4c0.6-2.3,0.9-3.5,2.8-3.5c1.5-0.8,2.4-2.4,2.2-4c0-0.1,0-0.4,0-0.7l3-0.9L163.2,53.7z
			 M144.4,74c0.3,0.7,0.8,1.5,1,2c-0.1,0.1-0.1,0.1-0.2,0.2l-1.7-1.5L144.4,74 M142.7,76.6c0.1-0.3,0.5-0.5,0.8-0.5l1.6,0.2
			c-0.5,0.7-0.9,1.4-1.2,2.2l-1.2-0.6c-0.1-0.2-0.2-0.4-0.2-0.6C142.5,77,142.6,76.8,142.7,76.6 M142.2,75.1l0.4,0.3
			c-0.2,0.1-0.4,0.2-0.6,0.3L142.2,75.1z M143,57.8c-0.3-1.3-0.5-2.7-0.5-2.7c0.4-0.2,0.8-9.4,0.8-9.5l0.4-3.7
			c0.1,0.3,0.2,0.6,0.2,0.9c0,0.1,0.2,2.8,0.2,2.8v0.6h2.1l-0.4,0.8c-0.5,0.8-1.1,1.7-0.4,2.7c-0.1-0.2,0.2,4,0.3,5.3l-1.7,0.8
			C143.4,56.3,143.1,57,143,57.8 M145.7,56.2c-0.5,1.3-0.9,2.7-1,4l-0.1-0.2c-0.3-0.7-0.4-1.4-0.5-2.1c0-0.5,0.1-0.9,0.4-1.2
			C144.6,56.6,145.2,56.4,145.7,56.2 M143.8,60.6l0.3-0.2l-0.5,0.9c0-0.1,0-0.2,0-0.2L143.8,60.6 M144.4,65.4
			c-0.2-0.1-0.3-0.2-0.5-0.3l-0.1-0.4l-0.1-2.8c0.3-0.1,0.6-0.2,0.8-0.4l0,0c0.1,1.5,0.8,2.8,1.9,3.7
			C145.8,65.5,145.1,65.5,144.4,65.4 M150,56.6c0.8,0.2,1.6,0.6,2.2,1.1c1.2,1,1.5,2.7,0.8,4.1l-1.6,1.8l-0.3,0.3l-0.5-0.2
			c-1.1-0.4-1.8-1.4-1.8-2.5v-0.7C148.8,58.8,148.9,57.3,150,56.6 M146.9,56l0.1-0.3l-0.1-0.3c0.7-0.3,1.5-0.3,2.2,0.2
			c-1.4,1.1-1.5,3-1.5,4.6v0.7h0.6h-0.6c0,1.5,0.8,2.9,2.2,3.5c-0.6,0-1.9,0.1-2.1,0.1c-1.3-0.8-2.1-2.2-2.1-3.8
			C145.8,59.2,146.2,57.6,146.9,56 M147.8,40.9v4h-2.6c0-0.7-0.1-2.1-0.1-2.1s0-0.1,0-0.1c0-0.6-0.3-1.1-0.8-1.5
			c-0.5-0.3-1.1-0.2-1.5,0.2c-0.3,1.2-0.4,2.3-0.5,3.5h-1.6c0-0.8,0-3.2,0-4h0.7c0,0,0,0,0,0h0.1L147.8,40.9 M142,46l-0.3,7.1
			c-1.5-3.7-3.5-7.1-6-10.2l1.3-1.5l0.8-1.1l1.4,0.4V46L142,46z M137.9,36.5c0,0.4-0.2,1.7-0.2,1.7l0.7-0.2l1.1-0.1
			c1.1-0.2,1.6-0.2,2,0.6c0,0.1,0,0.1,0,0.2c0,0.2-0.2,0.4-0.5,0.9h-0.5H140l-2.5-0.7l-0.2,0.2l-1.3,1.7l-1,1.2
			c-0.7-0.8-1.4-1.6-2.1-2.3L137.9,36.5 M124.4,33.7l-3.4-1.6c0.5-0.2,1-0.5,1.4-0.8l1.1,1.3C123.9,33,124.2,33.4,124.4,33.7
			 M117.4,30.6c-0.5-0.5-0.8-1.3-0.8-2c0-0.6,0.2-1.2,0.5-1.7c0.1-0.2,1.2-1.2,1.4-1.4c1.9,0.8,4.2,1.9,4.2,2.9l-0.1,0.5v0.9
			l-0.1-0.1c-0.8,0.9-1.9,1.5-3.1,1.7l-1.9-0.5l0.2,0L117.4,30.6z M119.4,22.2c2.7-0.1,5.3,1.3,6.5,3.8c0.3,0.8,0.3,1.8-0.1,2.6
			c-0.5,0.8-1.2,1.4-1.9,1.9v-1.4l0.1-0.6h-0.6h0.6c0,0,0,0,0-0.1c0-2-3.4-3.4-6-4.4l-0.8-0.3C117.7,22.9,118.5,22.4,119.4,22.2
			 M116,24.8c0.1-0.1,0.1-0.2,0.2-0.2l1.2,0.5l-1,0.9c-0.4,0.6-0.6,1.3-0.8,2.1l-0.3-0.9l0,0V27C115.1,26.2,115.4,25.4,116,24.8
			 M103.3,21.7h-3.2v-5.9h2l0.1,0.4l0.2,0.7l-1.2-0.9l-0.1,1.1c-0.3,1.1,0.1,2.3,0.9,3.1c0,0,0.7,0.6,0.7,0.7c0,0,0.3,0.5,0.5,0.7
			L103.3,21.7z M104.5,21.2L104.5,21.2L104.5,21.2L104.5,21.2l-0.7-1.1c-0.1-0.1-0.8-0.8-0.8-0.8c-0.3-0.2-0.2-0.5-0.3-0.7l0.4-0.6
			l0.4,0.4c0.3-0.2,0.4-0.6,0.4-0.9c0-0.6-0.2-1.1-0.5-1.6l-0.3-0.7c0,0,0-0.1,0-0.1l0.9,0.1l0.6,0.6c0.1,0.2,0.6,1.1,0.6,1.1
			c0.2,0.5,0.3,1,0.4,1.6c0,0.5-0.1,0.9-0.4,1.3l-0.2,0.4l5.9,6.5c0.6,0.8,1.6,1.1,2.5,0.9l0.9,0.1l0.7,2.2l0.3,0.6l-0.6-0.1
			l-4.4-0.4L104.5,21.2z M109.7,31.1L109.7,31.1l4.7,0.4l4.7,1.1l5.9,2.7l0,0l3.9,2.7l2.6,2l0,0c4.4,4.3,7.7,9.5,9.7,15.3l1.2,6.1
			l-0.1,0.7h0.2v2.8l0.1,0.6l-0.3,2.7l-0.8,5.2l-0.2,0.5c0,0-0.8,2.3-1.1,2.9c-3.2-1.5-6.7,0.4-9.8,2.3c0,0-0.6,0.4-1.2,0.7
			c0.4-1.4,0.9-3.4,1-3.8l0.8-0.1c1.2,0.1,2.3-0.4,3.1-1.4c0-0.1,0-0.2,0-0.2c0-0.8-0.3-3.1-0.4-4l3.2-1.7l-2.3-5.3l-2.4,1.2
			c0.1-0.6,0.3-1.3,0.3-1.3l-0.9,0.3c-0.2,0-16.3,4.7-22.7,1.4l-0.9-0.5c-0.5-1.1-1.4-1.9-2.5-2.4c1,0,1.9-0.5,2.4-1.3
			c0.1-0.3,0.7-2.5,0.7-2.5c0.4-0.9,0.7-1.9,0.7-2.9c0-1.2-0.6-2.4-1.5-3.2c-1.4-1.2-3.4-1-4.8-0.8c-1.9,0.4-2.5,2-2.7,3.5H100
			c-1.1-0.1-2.1,0.5-2.6,1.4l-2.2-3.7c-0.5-0.4-0.8-1-0.9-1.7c0.2-1.1,0.7-2.1,1.4-2.9l1.3-2.5l0.6-0.1c2.2-0.7,2.6-3.2,2.8-4.6
			l0.2-0.9l-0.8-0.2L98.6,40l-3.8,1.3c-0.2,0.2-4.7,7.8-4.7,7.8l0,0c0,0.6,1.1,6.9,1.5,8.9L85,56.4c-1.4,0.1-3,0.3-3.9,1.5L76,56.9
			c1.4-6.5,4.7-11.4,8.1-15.6c0.2,0,2.2-0.6,2.2-0.6l1.2-0.5c0.1-0.1,3-1.9,3.2-1.9c0.1,0.1,0.3,0.1,0.4,0.1l-0.2,0.4l4.3,2.5
			l4.7-7.3l-1.6-0.8C101.9,31.9,105.8,31.2,109.7,31.1 M129.8,69.1l-0.9-1.2l0.7-0.3l-2-0.7c-1.3,0.5-2.5,1-3.7,1.7
			c-3.7,1.9-6.8,3.6-11.9,2.6c-3-0.8-5.8-2-8.4-3.6l0.6-0.3l2.3-1.5l0.1,0.1l1-0.2c0.3,0.2,0.7,0.5,0.7,0.5c6.1,3.2,19.4-0.2,22.6-1
			c-0.1,0.4-0.3,1.4-0.3,1.4h0.7c1,0.1,1.2,0.7,1.6,1.9l0.3,0.8l-0.3,0.2l0,0l-1.2,0.6C130.2,69.6,129.9,69.3,129.8,69.1
			 M130.3,70.9l-0.7,0.3c-0.2-0.3-0.5-0.9-0.7-1.4C129.3,70.3,129.8,70.7,130.3,70.9 M92.4,70L92.4,70l1.4-0.5
			c3.3-1.3,6.6-2.4,10-3.2c0,0-0.1,0-0.1,0.1l-1.4,0.8l-5.3,2.7L93,71.9l0.1-0.7c0-0.1,0-0.2,0-0.2C93,70.5,92.7,70.1,92.4,70
			 M86.7,70.7l-1.4-1.2L81,65.9l4,0.6l-0.7,0.7l0.2,0.4c0.9,1.9,2.7,1.9,4.3,2l2.4,0.5l0,0l0.5,0.8c0.2,0.2,0.1,1.4,0.1,1.9
			c-0.5,0.3-0.9,0.6-1.5,0.8L86.7,70.7z M88.7,73.8c-0.4,0.1-0.8,0.1-1.2,0.1c-0.6,0-1.4-0.9-1.6-1.8l0.4-0.2L88.7,73.8z M75.3,66
			c0.2-0.2,0.4-0.3,0.6-0.3c0.2-0.1,0.4-0.3,0.6-0.5l2.2,0.3l5.8,4.8l0.7,0.6h-0.1H85l0,0L75.3,66z M91.3,68.9l-2.6-0.6
			c-1.4,0-2.4-0.2-2.9-1l0.5-0.6c0.5,0.1,0.9,0,1.3-0.2l1.2-0.3l0.3-0.2c0-0.1,0.1-0.1,0.1-0.2l6-1.1l4.7-0.9
			c0.3-0.1,1.9-0.6,1.9-0.6l1.5-0.3l-0.3-0.5v-0.1l0.5,0.2l0.5,0.2c1,0.4,1.9,1.1,2.6,1.9l-0.5,0.1l-0.5-0.2
			c-4.3,0.7-8.4,1.9-12.4,3.6L91.3,68.9z M87.9,62.7c-1.1-0.2-3.7-0.4-3.7-0.4l-0.1-0.1v-0.1l0.9-0.7l1.4-1.2v0.2
			c0.7-0.2,1.1-0.8,1.1-1.5c0,0-0.1-0.3-0.1-0.6l0.8,0.2l4.1,1l0.9,0.3l3.2,0.7l2,0.8l0.6,0.1l1.5,0.6
			C98.3,62.1,87.9,62.6,87.9,62.7L87.9,62.7z M72.2,57.7c0,0,0-0.1,0-0.2l2.9,0.4l5.9,1.3l3.5,1l-1.1,0.9l-10.7-1.9c0,0,0,0,0-0.1
			C72.5,58.7,72.4,58.2,72.2,57.7 M82.1,58.3c0.7-0.5,1.6-0.7,2.4-0.6c0.5,0.1,0.9,0.2,1.4,0.3l0.3,1.1v0.4h-0.4L82.1,58.3z
			 M94.3,53.5c-0.1-0.1,2.4,3.9,2.4,3.9l0.8,1.3l0,0C97,59,96.2,59.3,96,59.4l-2.6-0.7l-0.6-0.2c-0.3-1.6-1.7-9.1-1.7-9.1
			c0,0,4.4-7.1,4.4-7.1c1.1-0.3,2.2-0.6,3.3-1l0.4-0.1c-0.2,1.2-0.5,2.8-1.9,3.2h-0.6h-0.3l-0.2,0.4l-1.4,2.6
			C93.6,49.2,92.1,51.4,94.3,53.5 M101.4,55.5c0-1.1,0.5-2.6,1.9-2.9c1.8-0.3,3-0.1,3.8,0.5c1.7,1.6,1.2,2.9,0.6,4.7l-1.6,0.7
			c-2.7,1.2-4.9,2.1-7.2,0.2l-0.5-1.6c0.1-1,0.6-1.1,1.7-1h1.5L101.4,55.5z M107.2,59.3l-0.3,1.2c-0.3,0.3-0.7,0.4-1.5,0.5l-0.9,0.2
			l-0.1-0.8c0.7-0.3,1.4-0.6,2.1-0.9L107.2,59.3z M100.7,60.9c0.8,0.1,1.6,0.1,2.4-0.1l0.1,0.8l-0.4,0.1L100.7,60.9 M101.1,62.3
			L101.1,62.3L101.1,62.3L101.1,62.3L101.1,62.3z M98.4,59.9c0,0.1-0.1,0.2-0.1,0.2h-0.1L97.7,60l0.5-0.2L98.4,59.9 M96.5,63.4
			l-1.6,0.3l-5.6,0.9c0-0.3-0.1-0.6-0.3-0.9L96.5,63.4z M132.4,66l1.6-0.8c0.3,0.7,1.1,2.4,1.4,3.1c-0.2,0.1-0.7,0.3-1.1,0.6
			l-0.2-0.6C133.8,67.2,133.2,66.5,132.4,66 M80.2,43.7l-1.7-0.4c0.3-0.5,0.9-1.5,1.5-2.3l2.7,0.3c-0.6,0.8-1.3,1.6-1.9,2.4
			L80.2,43.7z M92.9,38.6L92.9,38.6l2.2,0.4l-0.4,0.6L92.9,38.6 M95.3,32.8l2.8,1.6c-0.1,0.2-0.4,0.7-0.7,1.1
			c-0.2-0.5-0.3-1-0.8-1.4c-0.5-0.3-1.1-0.6-1.7-0.6L95.3,32.8 M84.8,30.5l0.2-0.5l7.8-9.6c0-0.1,0.3-0.7,0.5-1.3l0,0l0.5,1.1
			l1.1-0.4l-0.4-0.9l1.1-1.5c0.3,0.5,0.4,1.1,0.3,1.6c0,0.4-0.1,0.9-0.2,1.3l-1,1.6l-2,0.8c-0.3,0.3-4.8,7.9-4.8,7.9l-3.3,5.1
			c-0.6,0.3-1.3,0.3-2,0l0.2-0.1c0.3-0.4,0.5-0.8,0.7-1.3l1.8-0.1L84.8,30.5z M82.4,33.1c0.7,0,1.2-0.5,1.2-1.2c0,0,0,0,0,0
			c0-0.4-0.2-0.8-0.6-1c0.2,0,0.4,0.1,0.6,0.1c0.1,0.6,0.3,1.6,0.4,2.2l-1.2,0.1c0,0-0.6,1.5-0.7,1.6c-0.4,0.1-0.7,0.3-1,0.5
			c-1.2-0.6-2.5-0.9-3.9-1.1l0.1-0.2l0.4-1.1c1-1.2,2.5-2,4-2.1c-0.3,0.2-0.5,0.5-0.6,0.8C81.2,32.5,81.7,33.1,82.4,33.1 M83.2,23.8
			c0.5,0.5,0.8,1,1.1,1.6c0,0.1-0.3,0.9-0.5,1.4l-0.4-0.6L83,24.5L83.2,23.8 M81.9,24.8l0.2,1c-1.3,0-2.5-0.7-3.2-1.7
			c-0.1-0.4-0.2-0.7-0.3-0.9C79.9,23.3,81,23.9,81.9,24.8 M81.9,26.9L80.4,27c0-0.1,0-0.3,0-0.4C80.9,26.8,81.4,26.9,81.9,26.9
			 M78.1,24.9l1.2,1.3c0,0,0,0.1,0,0.3c0,0.2,0,0.4,0,0.6h-0.4c-0.3-0.3-0.8-0.5-1.2-0.4L77.3,26l-0.4-0.6c0-0.3-0.1-0.6-0.1-0.8
			L78.1,24.9 M76.1,26.3l0.3,0.4L77,28l-0.4,0.2L76,28.1c-0.3,0-0.4,0-0.5-0.2l0,0c-0.2-0.1-0.4-0.2-0.5-0.3l-0.7-0.4
			c-0.2-0.4-0.3-0.9-0.5-1.2L76.1,26.3 M73.7,28.3l0.7,0.5c0.6,0.3,0.9,0.5,0.9,0.9c-0.4,0-0.9,0.1-1.3,0.1
			c-0.4-0.3-0.9-0.6-1.3-0.7c-0.1-0.2-0.3-0.4-0.5-0.6L73.7,28.3 M74.4,31.7L74.3,32l-0.2-0.1L74.4,31.7 M72.1,30.1l1.5,0.8
			c-0.3,0.1-0.5,0.2-0.8,0.4c-0.1,0-0.3,0-0.4,0l-1.7-0.8l-0.1-0.2L72.1,30.1 M74,32.5c-0.4,0.7-0.9,1.3-1.5,1.8l-0.1,0.1l-0.6-0.9
			L74,32.5z M70.2,31.5l1.5,0.7L71,32.5v0l-1.6-0.3c-0.2-0.2-0.4-0.4-0.6-0.5L70.2,31.5 M71.2,34.2L71.2,34.2l-0.1-0.3L71.2,34.2z
			 M68.3,33.6l0.7-0.2l1.4,0.2l0.4,0.7h0c-0.9,0.4-2.4,0-3.4-0.2l0,0L68.3,33.6 M69.8,35.6c-0.6,0.3-1.2,0.5-1.8,0.8l-0.2-0.9
			C68.5,35.6,69.2,35.7,69.8,35.6 M63.5,39.5l0.8-0.7h0.4C64.3,39.1,63.9,39.3,63.5,39.5 M65.5,37.8c-0.2,0-0.9-0.1-1.2-0.2
			c-0.5-0.5-1.1-1.1-1.4-1.4l0.2-0.1C63.7,36.8,64.6,37.4,65.5,37.8L65.5,37.8z M64.3,35.6l0.7-0.1h0.7c0.4,0.1,0.7,0.1,1.1,0.1
			l0.2,1.1l-0.4,0.1C65.7,36.7,64.9,36.3,64.3,35.6 M72.4,37.3l-1.1,0.1l-3.2,0.5c-0.4,0.4-0.7,1-0.7,1.6c0.1,0.5,0.3,1,0.6,1.5
			h-0.1l-1-0.2c0,0,0,0,0-0.1c0-0.3-0.1-0.6-0.2-0.9l-0.3-0.9l0.5-0.6c1.6-0.4,3.1-1,4.6-1.9l1.6-0.8c1.3-1,2.2-2.3,2.8-3.8l1.3-2.3
			c0.6-0.1,1.2-0.4,1.7-0.9l4.8-0.3l0.1,0.6l0.1,0.9l-0.1,0.2c-2.5-0.5-5.2,0.4-6.8,2.4l-0.7,1.6l-0.2,0.5c-1,0.2-1.9,0.5-2.8,1
			C72.7,35.8,72.4,36.5,72.4,37.3 M73.7,37.8v-0.7h-0.1c0-0.3,0.2-0.6,0.5-0.8c2.7-1.5,4.3-0.9,6.9-0.1l0.3,0.1l0,0
			c0.9,0.5,2.5,1.3,4.1,0.5l4.1-0.7c1-0.6,2-1,3.1-1.4L92.3,35l1.7-0.5c0.7-0.1,1.4,0.1,1.9,0.6c0.5,0.3,0.9,0.9,0.9,1.4l-0.9,1.4
			l-2.6-0.5l-1.3-0.1l-1.4-0.2c-1.2,0.6-2.4,1.2-3.5,1.9l-1.1,0.5l-2.2,0.7l-3.8-0.4l-0.6-0.2l-1.9-0.4l-0.2,1.2l1.6,0.4L76.6,44
			l0.6,0.1l2.8,0.8c-2.5,3.5-4.3,7.6-5.2,11.8l-2.6-0.4C73.5,50.7,73.7,45.3,73.7,37.8 M65.7,56.2l2.2,0.5l-0.3,0.2l-0.8,0.7
			c-0.6,0-0.9-0.3-1.3-1.2l-0.1-0.3L65.7,56.2 M61.9,58.4l0.3-1.1c0.1-0.8,0.2-1.3,1-1.7c0.3,0.1,0.5,0.2,0.8,0.2l0.3,0.9
			c0.2,1.2,1.2,2,2.4,2.1v-0.6l0,0.6l1.6-1.1l0.7-0.7l1.7,0.3L71,58l1,2.4c0.3,0.2,10.1,1.9,11,2c0.1,0.3,0.2,0.5,0.4,0.8l0.1,0.1
			l0.4,0.3l3.8,0.4c0.2,0.3,0.4,0.7,0.4,1c0,0.1,0,0.3-0.1,0.4l-0.9,0.2c-0.4,0.2-0.6,0.2-0.8,0.1c-0.2-0.1-8.7-1.4-9.9-1.5
			l-10.2-2.1L61.6,61C62,60.2,62.1,59.2,61.9,58.4 M68.3,63.9c0,0-0.8-0.4-1-0.5l7.8,1.6c-0.5,0.1-0.8,0.4-1,0.9l-1.6,0.9
			c-0.5,0-1.1,0-1.6,0.1l-1.1-1.2L68.3,63.9 M69.4,67l-4.8,0.4l0.7-1.5l0.9-0.7l0.9-0.7l0.6,0.4l1,1.3L69.4,67z M60.2,58.8l0.6,0.1
			c0.1,0.8-0.1,1.6-0.6,2.2c-0.1,0-0.3,0-0.4,0c-0.3-0.1-0.5-0.4-0.5-0.7c0,0-0.2-1-0.4-1.8L60.2,58.8 M56.7,61.2
			c-1-0.8-1.4-1.1-1.2-1.7c0.4-0.8,1.3-1.4,1.8-1.4l0.3,0l0.5,2.3c0.1,0.7,0.6,1.3,1.3,1.6c0.5,0.2,1.1,0.1,1.6-0.2l0,0
			c0,0.2,5.1,1.2,5.1,1.2l1,0.2l-1.8,0.9l-0.7,0.6l-3.3-0.3l-3-0.2c0-0.1,0.1-0.2,0.1-0.3l0.2-0.3v-0.4L56.7,61.2z M52.4,64.1
			c0.6-0.3,1.4,0,2.8,0.6l2.2,0.8l0,0l0,0l6.5,0.5l-0.7,1.5l-8.9,0.8l-0.8-1.2C52.6,65.9,52,65.1,52.4,64.1 M54.1,73.4l-2.2,1.3
			c-0.1-0.1-0.3-0.2-0.3-0.3c0-0.1,0.6-1.1,0.9-1.6l2.2,0.3L54.1,73.4 M75.8,72.7l-4.2,0.5c0.2-0.1-10.8-0.9-10.8-0.9l-3.9-0.4
			c-0.2,0.1-0.4,0.2-0.6,0.3l-1.2-0.2l-1.9-0.2l0,0l-0.9-0.2c-1.7-0.3-3.1,0.6-4.3,1.3c-1.2,0.7-1.8,0.9-2.4,0.7L50,69l0.9,0.2
			l3.2,0.3l0,0h0.3l0.9,0.1l-0.1-0.2l8.9-0.8l6.4-0.6l0,0l0,0l2.2-0.2c0.2-0.1,1.3-0.7,1.7-0.9l8.4,4.4C81,71.7,77.2,72.4,75.8,72.7
			L75.8,72.7z M76.1,73.8l8.1-1.5h0.5c0.4,1.4,1.5,2.6,2.7,2.7c1.9,0.1,3.8-0.5,5.2-1.7c-0.2,0.1,5-2.5,5-2.5s4.4-2.3,4.8-2.5
			c2.9,1.8,6.1,3.1,9.4,4c5.5,1.1,9-0.8,12.7-2.7l2.3-1.2c0.1,0.2,1.5,2.9,2,3.9c-2.3,2.4-4.1,5.2-5.3,8.3c-0.4,1-0.4,2,0.1,3
			l-11.4,0.4l-8.5,0.1l0.4,0.7l0.6,1.1c0,0.1,0,0.1,0.1,0.1h-0.9c-2.2-0.1-4.4-0.2-6.6,1L97,87.3v0.4c0,1.5,1,2.3,1.9,3l1.4,1.5
			c0.1,0.4,0.2,0.9,0.2,1.3c0,0.4-0.1,0.8-0.3,1.2l-2.8,0.3L96.1,94c-1.2-0.3-2.4-0.2-3.5,0.4l-0.6,0.4
			C84.2,90.5,77.9,82.2,76.1,73.8 M126.2,84.8c1.1-0.1,2.3-0.3,2.3-0.3l4-0.6c-0.7,0.6-1.5,1.1-2.3,1.6c-3.8-0.2-7.9,2.8-11.8,5.6
			l-3,2.1l-10.1,0.9l-3.8,0.4c0.1-0.3,0.2-0.7,0.2-1.1c0-0.6-0.1-1.2-0.3-1.7c0-0.1-1.7-2-1.7-2c-0.6-0.4-1-1-1.3-1.7
			c0.8-0.3,1.6-0.6,2.4-0.7l0.3,0.5c0.8,1.4,1.7,2.7,2.5,3.1c0.9-0.1,1.7-0.1,2.6-0.2v0.1l3.8-0.4v-0.1c5.7-0.9,11.3-2.7,16.4-5.3
			L126.2,84.8z M102.2,87.3c0.5,0,1.1,0,1.7,0h1.3c0.7,1.1,0.8,1.7,0.6,2.3c-0.6,0.1-1.2,0.1-1.9,0.2
			C103.2,89,102.7,88.2,102.2,87.3L102.2,87.3z M107,89.5c0.1-1.1-0.2-2.1-0.9-2.9c0,0,0-0.1,0-0.1c0-0.4-0.2-0.7-0.5-1l6.6-0.1
			l11.5-0.4C118.4,87.4,112.7,88.9,107,89.5 M96.1,99.8L96.1,99.8l-3.2-0.2c-0.6-0.3-0.9-1-0.9-1.6c0-0.2,0-0.4,0-0.6
			c0,0,0.3-0.9,0.5-1.4l0.8-0.5c0.8-0.4,1.7-0.5,2.5-0.2l1,0.8l0.4,0.2l2.2-0.2V96l1.5-0.1l0.1-0.1l4.4-0.4l9.3-0.9
			c-1,1.7-2.2,1.6-3.6,1.6l-3.6,0.5c-0.6,0.1-1.2,0.2-1.8,0.4l0,0l-0.9-0.3c-0.2,0-5.8,0.1-5.8,0.1h-0.3l-0.3,0.5L96.9,99L96.1,99.8
			z M97.7,99.9L97.7,99.9c0,0,0.9-1.3,1.4-1.9l4.7-0.1c-1.2,0.7-2.3,1.4-3.3,2.3L97.7,99.9z M117.9,104.1L117.9,104.1l-0.5,0.5
			l-2.2,1.8c-2.2,1.8-4.4,3.6-6.6,4.1c-4.4,0.4-8.5,2.5-11.4,5.7l-5.1-0.6l5.6-3.1l4.1-2.1l3.2-2.5l3.5-2.9l0,0l0.6-0.4
			c4.4-2.9,8.9-5.6,13.6-8.1c0.3,1.5,1,2.8,2,3.8L117.9,104.1z M129.2,94.8l0.1-0.6l0.3,0.5l0.9-0.6l0,0l3.5-1.6l3.6-1.9
			c0.5-0.1,0.9-0.2,1.4-0.3l-0.1,0.1l-0.9,0.9l-0.1-0.1l-6.7,4c-0.4,1.1-0.8,2.3-1.1,3.4l0.2,0.1l-0.3,0.3l-1.8,1.8l-2.1-0.9
			c-0.9-0.9-2.4-2.5-2.4-4.3c0.2-1.2,0.5-2.7,1.7-3.3h0.4l0.4,0.4C126.9,93.6,128,94.6,129.2,94.8 M127.3,92.3l2.8-0.4l-0.5,1.3
			l-0.6,0.4C128.4,93.3,127.8,92.9,127.3,92.3 M131.2,92.5c0.1-0.3,0.2-0.6,0.3-0.8h0.2l1.7-0.2L131.2,92.5z M135.8,93.9
			c-0.1,0.1-0.1,0.2-0.2,0.3l-3.7,3l-0.4,0.3c0.2-0.8,0.4-1.6,0.4-1.6C133.3,95.4,134.6,94.7,135.8,93.9 M119.3,110
			c-0.1-0.2-0.2-0.4-0.3-0.6c0-0.3,0.1-0.6,0.1-0.9c0,0,0-2-0.1-2.1c-0.2-0.4-0.5-0.8-0.6-1.2l7.2-4l1.5,0.7l-4.1,4.1
			c-1.4,0.8-2.4,2.1-2.8,3.7L119.3,110 M122.2,108.9l-0.5,0.2c0.3-0.8,0.9-1.5,1.7-2l0.2,0.1c0.5,0.3,0.8,0.5,0.9,0.7L122.2,108.9z
			 M127.1,109.2l0.1,0.9c0,0.1,0.1,1.9,0.2,2.7c-0.3,0.2-0.7,0.3-1.1,0.3c-0.4-1.2-0.6-2.5-0.6-3.8l-0.1-1c0-0.1,0-0.1,0-0.2
			s0-0.1,0-0.2v-0.6h-0.1c-0.3-0.5-0.7-0.9-1.2-1.2l6.3-6.3l2.1-1.9l1.6-1.3c-1.5,2.3-6.1,9.4-6.6,10.2
			C127.1,107.5,126.8,108.4,127.1,109.2 M128.6,111.9l-0.1-1.8c0,0.2-0.1-1.2-0.1-1.2c-0.1-0.2-0.1-0.5-0.1-0.8
			c0.6,0.4,0.8,1.3,0.9,2.7l0.1,0.6L128.6,111.9z M134.9,105l-0.5,1.1c-1,0.9-1.3,2.4-0.8,3.6l0.5,1.1c0.5,0.9,0.7,1.3,0.3,2
			c0,0.3-0.3,0.6-0.6,0.7c-0.6,0.1-1.2,0-1.7-0.4l-1.7-1.6l-0.1-0.8c0-1.2-0.6-2.4-1.4-3.3c0.4-0.7,7-10.9,7-10.9
			c0.4-1.4,1.2-2.7,2.3-3.8c0.1-0.1,1.4-1.4,1.4-1.4l2.1-2.1c-0.1,0.1,0,0,0.1,0c0,0.1-0.1,0.4-0.1,0.5
			C139.1,94.6,136.8,99.8,134.9,105 M139,114.8l-2.2,1.3c0.2-0.7,0.5-1.4,0.9-2c0.9-1,1.4-2.2,1.5-3.6v-0.1c0,0,0-0.3-0.1-0.6
			l1.7,0.3v1.2c0.1,0.4,0.1,0.8,0.1,1.2C140.9,113.4,140.6,114.2,139,114.8 M143.6,102.4l-0.4,2.1c0,0.2,0.3,1.7,0.3,1.7
			c0.1,0.5,0.2,0.9,0.2,1.4c0,0.4-0.2,0.8-0.5,1.1c-0.1,0-1.9,0.3-1.9,0.3l0,0l-2.6-0.4c-0.7-1.1-1.7-1.9-3-2.4l0.2-0.4
			c0.6-0.3,1.1-0.7,1.3-1.3l0.6-0.8c0.1-0.2,2.9-3.6,2.9-3.6c1.3-1.4,2.5-2.9,3.5-4.6c0,0.3,0.1,0.7,0.1,1
			C144.4,98.5,144.1,100.4,143.6,102.4 M143.9,92.8c0.1,0.2,0.1,0.4,0.1,0.6c-1,2.1-2.4,4.1-4.1,5.8l-2.7,3.3
			c1.6-4.2,3.5-8.4,5.6-12.4l-0.7-0.4h0.7l0.1-0.5l0.1-0.6l1.4-0.8l0.5-0.2C144.6,89.6,143.8,92.8,143.9,92.8 M146.8,84.9l-1.3,1.3
			l-1.3,0.5l-0.9,0.6v-0.1l-0.9,0.6l-1.3,0.6l0,0c-2.9,1.3-6,1.7-9.4,2.1l-4.5,0.7l-0.8,0h-1.1c-1.6,0.7-2.6,2.3-2.7,4
			c-4.9,2.5-9.6,5.3-14.1,8.3l-0.4,0.3l0,0l-4.7,0.6c-4.2,0.3-9.4,0.6-12.6,4.8c-0.6,0.9-1.5,1.6-2.5,1.9c0.3-2,1.7-4.8,3.8-5.8
			c1.4-1.1,3.1-1.7,4.8-1.9l3.6-1l0.3-0.3c0.3-0.2,0.6-0.5,0.6-0.9c2.3-2,4.7-3.3,6.6-3.5c0.2-0.1,3.2-0.5,3.2-0.5
			c1.9,0.1,3.9,0.2,5.2-3.2c1-0.6,2-1.2,2.9-1.9c3.8-2.7,7.7-5.5,11.4-5.5c1.5-0.7,2.9-1.8,4-3.1l1-0.5L135,82l-1.1,0.6l-5.6,0.8
			c0,0-2.9,0.4-3.1,0.5c-0.2-0.2-0.3-0.3-0.5-0.5c-0.2-0.3-0.3-0.7-0.3-1c0-0.4,0.1-0.7,0.2-1.1c1.3-3.2,3.8-7.6,8-10.3l0.4,3.4
			c-0.6,0.4-1.3,0.5-2,0.5l-1.8,0.2v0.3l-1.5,5.6l-0.3,0.5l0.1,0.1l-0.3,1l0.9-0.6l0.2,0.1l0.2-0.4l2.3-1.4c3.2-2,6.5-4,9.3-2.2
			l0.2,0.2l0,0h0l0.4,0.2v-0.1l1.1,0.4l0,0l1.8,0.9c0.7,1.8,2.2,3.2,4.1,3.8L146.8,84.9z M152.3,79.1c-0.3,1.7-1.6,3-3.3,3.3h-0.1
			c-1.8-0.2-3.2-1.4-3.9-3.1l0.1-0.3c0.2-1,0.7-1.9,1.5-2.5l0.5-0.3l-1.7-3.2c0.1-0.3,0.2-1,0.3-1.4c1.9-0.8,4-0.7,5.8,0.3l1.6,3.7
			c-0.5,1-0.7,2.2-0.7,3.3C152.3,79,152.3,79,152.3,79.1 M159.5,64.2c-2.6,0.1-3.1,2.2-3.7,4.4l-0.6,2.2l-1.2,2.6l-0.3,0.7l-1.1-2.5
			l1.8-2.8l0.5-0.9l0.9-1.7c0.8-1.4,1.6-2.9,1.3-4.3c0.2-0.5,0.7-1.6,0.7-1.7c0.2-0.1,0.3-0.2,0.5-0.3c0,0,0,0.1,0,0.2
			c-0.1,0.4-0.2,0.7-0.3,1.1l0.6,0.1l0.2,0.6l2.1-0.8c0,0.2,0,0.3,0,0.4C160.9,62.5,160.4,63.6,159.5,64.2 M161.4,60.1L161.4,60.1
			l-0.3-0.6l-1.9,0.7l0.1-0.3c-0.1-0.4-0.2-0.9-0.3-1.3l-0.2-0.8l-2,1.5c-0.1,0.2-0.3,0.5-0.4,0.7c-0.3-1.1-0.7-2.4-0.9-2.9
			c0.9-0.3,5.9-1.8,6.8-2.1l1.1,3.8l-2.2,0.7L161.4,60.1z M84.1,146.6c0.3-0.3,0.6-0.5,0.9-0.8L84.1,146.6L84.1,146.6 M30.1,82.9
			L29.9,83C30,83,30.1,83,30.1,82.9 M185.8,57.2L185.8,57.2C185.8,57.2,185.8,57.2,185.8,57.2L185.8,57.2z M56.2,121.5L56.2,121.5
			l0.2-0.1l-0.1-0.1C56.2,121.4,56.2,121.4,56.2,121.5 M28.5,58.3L28.5,58.3l-0.2-0.1C28.3,58.3,28.4,58.4,28.5,58.3 M33.3,38.9
			L33.3,38.9z M168.5,110.7c0.2-0.3,0.3-0.7,0.5-1c-0.2,0.4-0.4,0.8-0.7,1.2L168.5,110.7z M175.1,102.8h0.2H175.1L175.1,102.8
			 M175.3,102.5C175.3,102.5,175.3,102.5,175.3,102.5L175.3,102.5L175.3,102.5"/>
		<path class="st1" d="M311.6,6.4v142.2 M216.5,6.4v142.2"/>
		<path class="st0" d="M358.7,26.4c0,4.7-1.1,8.4-3.4,10.8c-2.3,2.5-5.5,3.7-9.7,3.7c-4.2,0-7.4-1.2-9.7-3.7
			c-2.3-2.4-3.4-6.1-3.4-10.8V6.7h4.8v19.1c0,1.5,0.1,3,0.4,4.4c0.2,1.2,0.7,2.4,1.4,3.4c0.6,1,1.5,1.7,2.6,2.2
			c2.5,1.1,5.3,1.1,7.8,0c1-0.5,1.9-1.3,2.6-2.2c0.7-1,1.1-2.2,1.4-3.4c0.3-1.5,0.4-2.9,0.4-4.4V6.7h4.8L358.7,26.4z"/>
		<polygon class="st0" points="367.2,6.7 373.8,6.7 388.6,33.8 388.7,33.8 388.7,6.7 393.5,6.7 393.5,40.3 387.4,40.3 372.2,12.7 
			372.1,12.7 372.1,40.3 367.2,40.3 		"/>
		<rect x="402.1" y="6.7" class="st0" width="4.8" height="33.6"/>
		<polygon class="st0" points="430.2,40.3 424.1,40.3 411.5,6.7 416.9,6.7 427.2,36.1 427.3,36.1 438,6.7 443,6.7 		"/>
		<polygon class="st0" points="447.8,6.7 466.7,6.7 466.7,11 452.7,11 452.7,20.8 465.4,20.8 465.4,25 452.7,25 452.7,36.1 
			466.7,36.1 466.7,40.3 447.8,40.3 		"/>
		<path class="st0" d="M474.1,6.7h8.2c1.6,0,3.2,0.1,4.8,0.3c1.5,0.2,2.9,0.6,4.2,1.2c1.2,0.6,2.2,1.6,2.9,2.7
			c0.8,1.5,1.2,3.1,1.1,4.8c0,1-0.2,1.9-0.5,2.8c-0.3,0.8-0.8,1.6-1.5,2.3c-0.6,0.7-1.4,1.2-2.2,1.7c-0.9,0.4-1.8,0.7-2.7,0.9v0.1
			c0.7,0.2,1.3,0.6,1.8,1.1c0.6,0.7,1.1,1.4,1.5,2.2l6.4,13.4h-5.5l-5.2-11.6c-0.3-0.7-0.7-1.3-1.2-1.9c-0.3-0.4-0.8-0.8-1.3-1
			c-0.5-0.2-1-0.3-1.5-0.4c-0.5,0-1.1,0-1.8,0h-2.9v14.9h-4.8L474.1,6.7z M478.9,21.2h4.1c1.9,0.1,3.8-0.4,5.4-1.4
			c1.2-0.9,1.9-2.3,1.9-3.9c0.1-1.4-0.5-2.8-1.6-3.7c-1.5-1-3.3-1.4-5-1.3H479L478.9,21.2z"/>
		<path class="st0" d="M519.1,11.8l-1.7-0.6c-0.5-0.2-1-0.3-1.5-0.5c-0.5-0.1-1-0.2-1.5-0.3c-0.5-0.1-1.1-0.1-1.7-0.1
			c-0.7,0-1.4,0.1-2,0.2c-0.7,0.1-1.3,0.4-1.9,0.7c-0.6,0.3-1.1,0.8-1.5,1.4c-0.4,0.7-0.6,1.4-0.5,2.2c0,1,0.4,2,1.1,2.7
			c0.8,0.7,1.7,1.4,2.7,1.9c1.1,0.6,2.2,1.2,3.5,1.7c1.2,0.6,2.4,1.3,3.5,2.1c1.1,0.9,2,1.9,2.7,3.1c0.8,1.4,1.1,3,1.1,4.6
			c0.1,1.6-0.3,3.2-0.9,4.6c-0.6,1.2-1.6,2.3-2.7,3.1c-1.2,0.8-2.5,1.5-3.9,1.8c-1.6,0.4-3.1,0.6-4.7,0.6c-1.2,0-2.3-0.1-3.5-0.4
			c-1.1-0.3-2.3-0.6-3.4-0.9l0.5-4.5c0.4,0.2,0.9,0.3,1.4,0.5s1.1,0.4,1.7,0.5c0.6,0.2,1.2,0.3,1.9,0.4c0.6,0.1,1.2,0.2,1.9,0.2
			c0.7,0,1.5-0.1,2.2-0.3c0.8-0.2,1.5-0.5,2.1-0.9c0.7-0.4,1.2-1,1.6-1.7c0.5-0.8,0.7-1.6,0.6-2.5c0-1.1-0.3-2.2-1.1-3.1
			c-0.8-0.8-1.7-1.5-2.7-2.1c-1.1-0.6-2.2-1.2-3.5-1.7c-1.2-0.6-2.4-1.2-3.5-2c-1.1-0.8-2-1.7-2.7-2.8c-0.8-1.3-1.1-2.8-1.1-4.3
			c0-1.4,0.3-2.7,0.9-4c0.5-1.1,1.3-2.1,2.3-2.8c1-0.8,2.2-1.4,3.4-1.8c1.4-0.4,2.8-0.6,4.2-0.6c1.2,0,2.4,0.1,3.6,0.3
			c1.2,0.2,2.4,0.5,3.6,0.9L519.1,11.8z"/>
		<path class="st0" d="M538.6,6.7h5.1l14.2,33.6h-5.2l-3.4-8.4h-16.4l-3.4,8.4h-5.1L538.6,6.7z M540.9,11.2l-6.7,16.7h13.4
			L540.9,11.2z"/>
		<polygon class="st0" points="562.7,6.7 567.5,6.7 567.5,36.1 581.6,36.1 581.6,40.3 562.7,40.3 		"/>
		<path class="st0" d="M332.2,60.6h8.8c1.6,0,3.3,0.2,4.9,0.5c1.4,0.3,2.8,0.9,4,1.7c1.2,0.8,2.1,1.8,2.7,3.1c0.7,1.5,1.1,3.2,1,4.8
			c0,1.6-0.3,3.2-1,4.7c-0.6,1.2-1.6,2.3-2.7,3.1c-1.1,0.8-2.4,1.4-3.8,1.7c-1.4,0.3-2.9,0.5-4.4,0.5h-4.7v13.5h-4.8L332.2,60.6z
			 M337,76.5h4.8c0.8,0,1.6-0.1,2.3-0.3c0.8-0.2,1.5-0.5,2.2-0.9c0.7-0.5,1.2-1.1,1.6-1.8c0.4-0.9,0.7-1.8,0.6-2.8
			c0-1-0.2-1.9-0.7-2.7c-0.5-0.7-1.1-1.3-1.9-1.8c-0.7-0.5-1.6-0.8-2.4-1c-0.8-0.2-1.6-0.3-2.4-0.3H337L337,76.5z"/>
		<path class="st0" d="M357.6,77.4c0-2.4,0.3-4.7,1.1-6.9c0.7-2,1.8-3.9,3.2-5.5c1.4-1.6,3.1-2.8,5.1-3.6c4.4-1.8,9.3-1.8,13.7,0
			c1.9,0.8,3.7,2.1,5.1,3.6c1.4,1.6,2.5,3.4,3.2,5.5c0.7,2.2,1.1,4.6,1.1,6.9c0,2.4-0.3,4.8-1.1,7c-0.7,2-1.7,3.9-3.2,5.5
			c-1.4,1.6-3.1,2.8-5.1,3.6c-4.4,1.7-9.3,1.7-13.7,0c-1.9-0.8-3.7-2-5.1-3.6c-1.4-1.6-2.5-3.5-3.2-5.5
			C357.9,82.2,357.5,79.8,357.6,77.4 M362.7,77.4c0,1.6,0.2,3.3,0.6,4.9c0.4,1.5,1.1,2.9,2,4.2c0.9,1.2,2.1,2.3,3.5,3
			c3.2,1.5,6.8,1.5,10,0c1.4-0.7,2.5-1.7,3.4-3c0.9-1.3,1.6-2.7,2-4.2c0.4-1.6,0.7-3.2,0.6-4.9c0-1.7-0.2-3.3-0.7-4.9
			c-0.4-1.5-1.1-3-2.1-4.2c-0.9-1.2-2.1-2.2-3.4-2.9c-3.1-1.4-6.6-1.4-9.7,0c-1.4,0.7-2.5,1.7-3.4,2.9c-0.9,1.3-1.6,2.7-2.1,4.2
			C362.9,74.1,362.7,75.7,362.7,77.4"/>
		<path class="st0" d="M412,65.7l-1.7-0.6c-0.5-0.2-1-0.3-1.5-0.5c-0.5-0.1-1-0.2-1.5-0.3c-0.5,0-1.1-0.1-1.7-0.1
			c-0.7,0-1.4,0.1-2.1,0.2c-0.7,0.1-1.3,0.4-1.9,0.7c-0.6,0.3-1,0.8-1.4,1.4c-0.4,0.7-0.6,1.4-0.5,2.2c0,1,0.3,2,1,2.7
			c0.8,0.7,1.7,1.4,2.7,1.9c1.1,0.6,2.2,1.2,3.5,1.7c1.2,0.6,2.4,1.3,3.5,2.1c1.1,0.8,2,1.9,2.7,3.1c0.8,1.4,1.1,3,1.1,4.6
			c0.1,1.6-0.3,3.2-0.9,4.6c-0.6,1.3-1.5,2.3-2.6,3.2c-1.2,0.8-2.5,1.4-3.9,1.8c-1.6,0.4-3.1,0.6-4.7,0.6c-1.2,0-2.3-0.1-3.5-0.4
			c-1.1-0.3-2.3-0.6-3.4-0.9l0.5-4.5c0.4,0.2,0.9,0.3,1.4,0.5c0.5,0.2,1.1,0.4,1.7,0.5c0.6,0.2,1.2,0.3,1.9,0.4
			c0.6,0.1,1.2,0.2,1.9,0.2c0.7,0,1.5-0.1,2.2-0.3c0.8-0.2,1.5-0.5,2.1-0.9c0.7-0.4,1.2-1,1.6-1.7c0.4-0.8,0.7-1.6,0.6-2.5
			c0-1.1-0.3-2.2-1.1-3.1c-0.8-0.8-1.7-1.5-2.7-2.1c-1.1-0.6-2.2-1.2-3.5-1.7c-1.2-0.5-2.4-1.2-3.5-2c-1.1-0.8-2-1.7-2.7-2.8
			c-0.7-1.3-1.1-2.8-1-4.4c0-1.4,0.3-2.7,0.8-3.9c0.5-1.1,1.3-2.1,2.3-2.9c1-0.8,2.2-1.4,3.4-1.8c1.4-0.4,2.8-0.6,4.2-0.6
			c1.2,0,2.4,0.1,3.6,0.3c1.2,0.2,2.4,0.5,3.6,0.9L412,65.7z"/>
		<polygon class="st0" points="427.6,64.8 417.1,64.8 417.1,60.6 442.8,60.6 442.8,64.8 432.4,64.8 432.4,94.2 427.6,94.2 		"/>
		<path class="st0" d="M455,60.6h5.1l14.2,33.6H469l-3.4-8.4h-16.5l-3.4,8.4h-5.1L455,60.6z M457.4,65.1l-6.7,16.7H464L457.4,65.1z"
			/>
		<polygon class="st0" points="479.1,60.6 483.9,60.6 483.9,90 498,90 498,94.2 479.1,94.2 		"/>
		<path class="st0" d="M358.7,134.2c0,4.7-1.1,8.4-3.4,10.8c-2.3,2.4-5.5,3.7-9.7,3.7c-4.2,0-7.4-1.2-9.7-3.7
			c-2.3-2.5-3.4-6.1-3.4-10.8v-19.7h4.8v19.1c0,1.5,0.1,3,0.4,4.4c0.2,1.2,0.7,2.4,1.4,3.4c0.6,1,1.5,1.7,2.6,2.2
			c2.5,1.1,5.3,1.1,7.8,0c1-0.5,1.9-1.3,2.6-2.2c0.7-1,1.1-2.2,1.4-3.4c0.3-1.5,0.4-2.9,0.4-4.4v-19.1h4.8L358.7,134.2z"/>
		<polygon class="st0" points="367.2,114.5 373.8,114.5 388.6,141.5 388.7,141.5 388.7,114.5 393.5,114.5 393.5,148.1 387.4,148.1 
			372.2,120.4 372.1,120.4 372.1,148.1 367.2,148.1 		"/>
		<rect x="402.1" y="114.5" class="st0" width="4.8" height="33.6"/>
		<path class="st0" d="M413.7,131.3c0-2.4,0.3-4.7,1.1-6.9c0.7-2,1.8-3.9,3.2-5.5c1.4-1.6,3.1-2.8,5.1-3.6c4.4-1.8,9.3-1.8,13.7,0
			c1.9,0.8,3.7,2.1,5.1,3.6c1.4,1.6,2.5,3.5,3.2,5.5c0.7,2.2,1.1,4.6,1.1,6.9c0,2.4-0.3,4.8-1.1,7c-0.7,2-1.7,3.9-3.2,5.5
			c-1.4,1.6-3.1,2.8-5.1,3.6c-4.4,1.7-9.3,1.7-13.7,0c-1.9-0.8-3.7-2-5.1-3.6c-1.4-1.6-2.5-3.5-3.2-5.5
			C414.1,136,413.7,133.7,413.7,131.3 M418.8,131.3c0,1.6,0.2,3.3,0.6,4.9c0.4,1.5,1.1,2.9,2,4.2c0.9,1.2,2.1,2.3,3.4,3
			c3.2,1.5,6.8,1.5,10,0c1.4-0.7,2.5-1.7,3.4-3c0.9-1.3,1.6-2.7,2-4.2c0.4-1.6,0.7-3.2,0.6-4.9c0-1.7-0.2-3.3-0.7-4.9
			c-0.4-1.5-1.1-2.9-2.1-4.2c-0.9-1.2-2.1-2.2-3.4-2.9c-3.1-1.5-6.7-1.5-9.7,0c-1.4,0.7-2.5,1.7-3.4,2.9c-0.9,1.3-1.6,2.7-2.1,4.2
			C419.1,128,418.8,129.6,418.8,131.3"/>
		<polygon class="st0" points="452.9,114.5 459.5,114.5 474.3,141.5 474.4,141.5 474.4,114.5 479.2,114.5 479.2,148.1 473.1,148.1 
			457.8,120.4 457.7,120.4 457.7,148.1 452.9,148.1 		"/>
		<path class="st0" d="M239,148.3v-10.4h30c4.5,0,8-0.8,10.6-2.5c2.7-1.7,4.1-4.5,4.1-8.3c0-4-1.4-6.8-4.1-8.4
			c-2.6-1.6-6.1-2.4-10.6-2.4h-30v-10.4h33.2c13.3,0.2,19.9,7.3,19.7,21.2c0.2,14-6.4,21-19.7,21.2L239,148.3z"/>
		<path class="st0" d="M239,94V80.9c-0.2-5.2,0.9-10.4,3.1-15.1c2.2-4.3,6.4-6.5,12.6-6.6c6,0,10.2,2,12.7,5.7
			c2.5,3.8,3.8,8.5,3.8,14.3v4.4h19.7V94L239,94z M263,83.6V80c0.1-2.4-0.4-4.9-1.6-7c-1.1-1.9-3.2-2.8-6.1-2.9
			c-1.3,0-2.7,0.2-3.9,0.8c-1,0.5-1.8,1.2-2.4,2.2c-1.3,2.1-1.9,4.5-1.8,7v3.6H263z"/>
		<path class="st0" d="M239,51.1V40.6h30c4.5,0,8-0.8,10.6-2.5c2.7-1.7,4.1-4.5,4.1-8.3c0-4-1.4-6.8-4.1-8.4
			C277,19.8,273.5,19,269,19h-30V8.6h33.2c13.3,0.2,19.9,7.3,19.7,21.2c0.2,13.9-6.4,21-19.7,21.2L239,51.1z"/>
	</g>
</g>
</svg>
