<?xml version="1.0" encoding="utf-8"?>
<!-- Generator: Adobe Illustrator 23.0.3, SVG Export Plug-In . SVG Version: 6.00 Build 0)  -->
<svg version="1.1" id="Layer_1" xmlns="http://www.w3.org/2000/svg" xmlns:xlink="http://www.w3.org/1999/xlink" x="0px" y="0px"
	 viewBox="0 0 538.3 248.2" style="enable-background:new 0 0 538.3 248.2;" xml:space="preserve">
<style type="text/css">
	.st0{fill:url(#SVGID_1_);}
	.st1{fill:url(#SVGID_2_);}
	.st2{fill:#00587C;}
</style>
<g>
	<linearGradient id="SVGID_1_" gradientUnits="userSpaceOnUse" x1="132.2579" y1="15.7632" x2="538.131" y2="15.7632">
		<stop  offset="0" style="stop-color:#0092BC"/>
		<stop  offset="0.5" style="stop-color:#0092BC"/>
		<stop  offset="1" style="stop-color:#0092BC;stop-opacity:0"/>
	</linearGradient>
	<polygon class="st0" points="154.8,8.7 154.8,19.4 538.1,30.4 538.1,1.1 	"/>
	<linearGradient id="SVGID_2_" gradientUnits="userSpaceOnUse" x1="0" y1="14.2036" x2="132.0583" y2="14.2036">
		<stop  offset="0" style="stop-color:#0092BC;stop-opacity:0"/>
		<stop  offset="0.5" style="stop-color:#0092BC"/>
		<stop  offset="1" style="stop-color:#0092BC"/>
	</linearGradient>
	<polygon class="st1" points="0,6.1 0,22.3 109.8,19.4 109.8,8.7 	"/>
	<g>
		<polygon class="st2" points="147,0 147,8.8 147,19.2 147,29.3 117.7,29.3 117.7,19.2 117.7,8.8 117.7,0 		"/>
		<path class="st2" d="M533.9,71.8c-2.9-6.4-6.8-11.8-11.7-16.1c-4.8-4.2-10.2-7.4-16.1-9.5c-11.8-4.3-24.2-4.3-36,0
			c-5.9,2.1-11.4,5.3-16.1,9.5c-4.8,4.2-8.7,9.6-11.7,16.1c-2.9,6.4-4.4,13.9-4.4,22.2v103.1c0,8.5,1.5,16,4.4,22.4
			c2.9,6.3,6.8,11.7,11.6,15.9c4.8,4.2,10.2,7.4,16.1,9.5c5.9,2.1,12,3.2,18,3.2c6,0,12.1-1.1,18-3.2c5.9-2.1,11.4-5.3,16.1-9.5
			c4.8-4.2,8.7-9.6,11.6-15.9c2.9-6.3,4.4-13.9,4.4-22.4V94C538.3,85.7,536.8,78.2,533.9,71.8z M503.8,197.1c0,5.8-1.5,9.9-4.5,12.5
			c-3.2,2.7-6.8,4-11.2,4c-4.4,0-8-1.3-11.2-4c-3-2.6-4.5-6.6-4.5-12.5V94c0-5.8,1.5-9.9,4.5-12.5c3.2-2.7,6.8-4,11.2-4
			c4.4,0,8,1.3,11.2,4c3,2.6,4.5,6.6,4.5,12.5V197.1z"/>
		<polygon class="st2" points="270.2,44.6 302.9,44.6 302.9,246.5 268.4,246.5 268.4,143.2 245.8,211.7 227.1,211.7 204.7,143.4 
			204.7,246.5 170.2,246.5 170.2,44.6 202.7,44.6 236.5,142.1 		"/>
		<polygon class="st2" points="147,44.6 152.2,246.5 112.4,246.5 117.7,44.6 		"/>
		<path class="st2" d="M85,60.8C80.7,55.9,75.1,52,68.4,49c-6.7-2.9-14.8-4.4-24.2-4.4H0v201.9h41.4c19.2,0,33.4-5,42.3-14.8
			C92.6,222,97.1,208,97.1,190v-11c0-10.7-1.7-19.5-5-26c-2.6-5.1-6.3-9.3-11.2-12.6c1.5-1,2.8-2.1,4.1-3.3c2.6-2.3,4.9-5,6.7-8
			c1.8-3,3.2-6.6,4.1-10.6c0.9-3.9,1.3-8.6,1.3-14.2v-7.1c0-6.7-0.9-13.2-2.7-19.4C92.5,71.5,89.3,65.8,85,60.8z M63.7,195.2
			c-0.3,3.5-1.2,6.6-2.6,9.1c-1.3,2.4-3.3,4.2-5.9,5.5c-2.7,1.4-6.7,2.1-11.8,2.1h-8.8v-56h9.1c4.7,0,8.4,0.6,11.1,1.7
			c2.5,1,4.5,2.5,5.8,4.5c1.4,2,2.4,4.7,2.9,7.8c0.5,3.5,0.8,7.7,0.8,12.4C64.2,187,64,191.3,63.7,195.2z M60,119.2
			c-2.5,3.7-8,5.6-16.1,5.6h-9.3V77.5h8.2c8.2,0,13.9,1.8,16.8,5.4c3.1,3.8,4.6,9.7,4.6,17.7C64.2,108.8,62.8,115.1,60,119.2z"/>
		<path class="st2" d="M371.2,43c6.8,0,13.2,1.2,19.1,3.7c5.9,2.5,11,5.9,15.3,10.3c4.3,4.4,7.7,9.8,10.2,15.9
			c2.4,6.1,3.7,12.9,3.7,20v14.3h-34.5V94.6c0-4.8-1.3-8.8-4-12.3c-2.5-3.2-5.8-4.8-10-4.8c-5.7,0-9.3,1.5-11,4.7
			c-2,3.8-3,8.8-3,14.8v99.8c0,5,1.1,9.2,3.2,12.5c1.8,2.9,5.3,4.3,10.5,4.3c1.5,0,3.2-0.3,4.9-0.8c1.7-0.5,3.2-1.3,4.6-2.5
			c1.3-1.1,2.5-2.7,3.4-4.8c0.9-2.1,1.4-4.9,1.4-8.3v-12.9h34.5v15.3c0,6.4-1.2,12.7-3.7,18.5c-2.4,5.8-5.9,11-10.1,15.4
			c-4.3,4.4-9.4,7.9-15.1,10.6c-5.8,2.7-12.1,4-18.8,4c-5.6,0-11.3-0.8-17-2.3c-5.9-1.6-11.3-4.3-16-8.2c-4.7-3.9-8.7-9-11.7-15.2
			c-3-6.3-4.6-14.2-4.6-23.6V91.3c0-6.8,1.2-13.2,3.5-19c2.4-5.9,5.7-11,10.1-15.4c4.3-4.3,9.5-7.7,15.5-10.2
			C357.4,44.2,364,43,371.2,43"/>
	</g>
</g>
</svg>
