<?xml version="1.0" encoding="utf-8"?>
<!-- Generator: Adobe Illustrator 28.0.0, SVG Export Plug-In . SVG Version: 6.00 Build 0)  -->
<svg version="1.1" id="Layer_1" xmlns="http://www.w3.org/2000/svg" xmlns:xlink="http://www.w3.org/1999/xlink" x="0px" y="0px"
	 viewBox="0 0 154 70" style="enable-background:new 0 0 154 70;" xml:space="preserve">
<style type="text/css">
	.st0{fill:#1F1C2B;}
	.st1{fill:#F3E300;}
	.st2{fill:#F3E305;}
	.st3{fill:#009093;}
	.st4{fill:#DE5141;}
	.st5{fill:#F8F7F7;}
</style>
<g>
	<path class="st0" d="M85.8,19.1c-2.1,0-4,1.5-4,4.5s2,4.6,4,4.6c2.1,0,4.1-1.6,4.1-4.5S87.9,19.1,85.8,19.1 M84.8,15.7
		c1.9,0,3.8,0.9,5,2.4v-7.3h3.9v20.5h-3.9V29c-1.1,1.7-3,2.6-5,2.5c-3.9,0-7-3.2-7-8S80.9,15.7,84.8,15.7 M103.7,16.2
		c3.4-0.2,6.4,2.1,7,5.5h-4c-0.4-1.3-1.6-2.2-3-2.1c-2.1,0-3.5,1.6-3.5,4.7s1.4,4.6,3.5,4.6c1.4,0.1,2.6-0.8,3-2.1h4
		c-0.7,3.3-3.6,5.6-7,5.5c-4.3,0-7.3-3.1-7.3-8S99.5,16.2,103.7,16.2 M119.3,32.1c-3.7,0-6.3-2.3-6.4-5.1h3.7
		c0.2,1.3,1.4,2.2,2.7,2.1c1.5,0,2.3-0.7,2.3-1.6c0-2.8-8.3-1-8.3-6.7c0-2.6,2.2-4.6,5.8-4.6c3.6,0,5.7,2,5.9,5.1h-3.6
		c-0.1-1.2-1.2-2.1-2.4-2c0,0,0,0-0.1,0c-1.4,0-2.1,0.6-2.1,1.5c0,2.8,8.1,1.1,8.2,6.7C125.1,30.1,122.9,32.1,119.3,32.1
		 M134.8,18.9c-2.1,0-4.2,1.6-4.2,4.7s2,4.8,4.2,4.8c2.2,0,4.2-1.7,4.2-4.7S137,18.9,134.8,18.9 M133.7,15.3c2.1-0.1,4,0.9,5.2,2.5
		v-2.3h4v16h-4v-2.3c-1.2,1.7-3.2,2.7-5.3,2.6c-4,0-7.2-3.3-7.2-8.3S129.7,15.3,133.7,15.3"/>
</g>
<path class="st0" d="M16.3,22.2l-1.9,1.9l-0.7-0.7l1.9-1.9L16.3,22.2z"/>
<path class="st1" d="M40.2,30.3l-7.6,7.6l-3-3l7.6-7.6L40.2,30.3z"/>
<path class="st2" d="M52.4,49.9L46.3,56l-2.4-2.4l6.1-6.1L52.4,49.9z"/>
<path class="st3" d="M71.5,29.2l-5,5l-1.9-1.9l5-5L71.5,29.2z"/>
<path class="st0" d="M63.5,25.1l-3.8,3.8l-1.5-1.5l3.8-3.8L63.5,25.1z"/>
<path class="st4" d="M62.5,17.1l-3.8,3.8l-1.5-1.5l3.8-3.8L62.5,17.1z"/>
<path class="st0" d="M58.7,10.2L54.9,14l-1.5-1.5l3.8-3.8L58.7,10.2z M68.8,21.1l-1.9,1.9l-0.7-0.7l1.9-1.9L68.8,21.1z"/>
<path class="st4" d="M32.7,45.6l-6.1,6.1l-2.4-2.4l6.1-6.1L32.7,45.6z"/>
<path class="st0" d="M52.9,27.6l-5,5L46,30.7l5-5L52.9,27.6z"/>
<path class="st1" d="M69.9,47.4l-3.8,3.8l-1.5-1.5l3.8-3.8L69.9,47.4z"/>
<path class="st0" d="M56.1,53l-1.9,1.9l-0.7-0.7l1.9-1.9L56.1,53z M29.6,16.4l-6.1,6.1l-2.4-2.4l6.1-6.1L29.6,16.4z M63.5,56.9
	l-3.8,3.8l-1.5-1.5l3.8-3.8L63.5,56.9z M73.1,37.1L71.2,39l-0.7-0.7l1.9-1.9L73.1,37.1z"/>
<path class="st4" d="M58.2,35.5l-6.1,6.1l-2.4-2.4l6.1-6.1L58.2,35.5z"/>
<path class="st0" d="M29,27.6l-5,5l-1.9-1.9l5-5L29,27.6z"/>
<path class="st3" d="M53.4,61.2L49.6,65l-1.5-1.5l3.8-3.8L53.4,61.2z"/>
<path class="st0" d="M23.2,11.6l-1.9,1.9l-0.7-0.7l1.9-1.9L23.2,11.6z M49.7,18.6l-5,5l-1.9-1.9l5-5L49.7,18.6z M43.4,36.8l-3.8,3.8
	l-1.5-1.5l3.8-3.8L43.4,36.8z M39.1,18.7l-3.8,3.8L33.8,21l3.8-3.8L39.1,18.7z M29.6,56.9l-3.8,3.8l-1.5-1.5l3.8-3.8L29.6,56.9z
	 M42.8,60.6L39,64.5L37.5,63l3.8-3.8L42.8,60.6z M19.5,50.9l-1.9,1.9L16.8,52l1.9-1.9L19.5,50.9z"/>
<path class="st3" d="M17.9,31.4l-5,5L11,34.4l5-5L17.9,31.4z"/>
<path class="st0" d="M44.4,45.8l-3.8,3.8l-1.5-1.5l3.8-3.8L44.4,45.8z"/>
<path class="st1" d="M33.3,61.5l-1.9,1.9l-0.7-0.7l1.9-1.9L33.3,61.5z"/>
<path class="st4" d="M48.1,8l-5,5L41.2,11l5-5L48.1,8z"/>
<path class="st0" d="M65.1,41.4l-5,5l-1.9-1.9l5-5L65.1,41.4z M18.4,41l-3.8,3.8l-1.5-1.5l3.8-3.8L18.4,41z M36.5,53.5l-1.9,1.9
	l-0.7-0.7l1.9-1.9L36.5,53.5z M25.3,40.8l-1.9,1.9L22.7,42l1.9-1.9L25.3,40.8z"/>
<path class="st1" d="M38.1,6.5l-3.8,3.8l-1.5-1.5L36.6,5L38.1,6.5z"/>
<g>
	<path class="st5" d="M85.8-62.2c-2.1,0-4,1.5-4,4.5s2,4.6,4,4.6c2.1,0,4.1-1.6,4.1-4.5C89.9-60.6,87.9-62.2,85.8-62.2 M84.8-65.6
		c1.9,0,3.8,0.9,5,2.4v-7.3h3.9V-50h-3.9v-2.3c-1.1,1.7-3,2.6-5,2.5c-3.9,0-7-3.2-7-8S80.9-65.6,84.8-65.6 M103.7-65.2
		c3.4-0.2,6.4,2.1,7,5.5h-4c-0.4-1.3-1.6-2.2-3-2.1c-2.1,0-3.5,1.6-3.5,4.7s1.4,4.6,3.5,4.6c1.4,0.1,2.6-0.8,3-2.1h4
		c-0.7,3.3-3.6,5.6-7,5.5c-4.3,0-7.3-3.1-7.3-8S99.5-65.2,103.7-65.2 M119.3-49.3c-3.7,0-6.3-2.3-6.4-5.1h3.7
		c0.2,1.3,1.4,2.2,2.7,2.1c1.5,0,2.3-0.7,2.3-1.6c0-2.8-8.3-1-8.3-6.7c0-2.6,2.2-4.6,5.8-4.6c3.6,0,5.7,2,5.9,5.1h-3.6
		c-0.1-1.2-1.2-2.1-2.4-2c0,0,0,0-0.1,0c-1.4,0-2.1,0.6-2.1,1.5c0,2.8,8.1,1.1,8.2,6.7C125.1-51.3,122.9-49.3,119.3-49.3
		 M134.8-62.5c-2.1,0-4.2,1.6-4.2,4.7c0,3,2,4.8,4.2,4.8c2.2,0,4.2-1.7,4.2-4.7S137-62.5,134.8-62.5 M133.7-66
		c2.1-0.1,4,0.9,5.2,2.5v-2.3h4v16h-4v-2.3c-1.2,1.7-3.2,2.7-5.3,2.6c-4,0-7.2-3.3-7.2-8.3S129.7-66,133.7-66"/>
</g>
<path class="st5" d="M16.3-59.1l-1.9,1.9L13.7-58l1.9-1.9L16.3-59.1z"/>
<path class="st1" d="M40.2-51.1l-7.6,7.6l-3-3l7.6-7.6L40.2-51.1z"/>
<path class="st2" d="M52.4-31.5l-6.1,6.1l-2.4-2.4l6.1-6.1L52.4-31.5z"/>
<path class="st3" d="M71.5-52.1l-5,5l-1.9-1.9l5-5L71.5-52.1z"/>
<path class="st5" d="M63.5-56.3l-3.8,3.8l-1.5-1.5l3.8-3.8L63.5-56.3z"/>
<path class="st4" d="M62.5-64.2l-3.8,3.8l-1.5-1.5l3.8-3.8L62.5-64.2z"/>
<path class="st5" d="M58.7-71.1l-3.8,3.8l-1.5-1.5l3.8-3.8L58.7-71.1z M68.8-60.2l-1.9,1.9L66.2-59l1.9-1.9L68.8-60.2z"/>
<path class="st4" d="M32.7-35.7l-6.1,6.1L24.3-32l6.1-6.1L32.7-35.7z"/>
<path class="st5" d="M52.9-53.7l-5,5L46-50.7l5-5L52.9-53.7z"/>
<path class="st1" d="M69.9-34l-3.8,3.8l-1.5-1.5l3.8-3.8L69.9-34z"/>
<path class="st5" d="M56.1-28.3l-1.9,1.9l-0.7-0.7l1.9-1.9L56.1-28.3z M29.6-64.9l-6.1,6.1l-2.4-2.4l6.1-6.1L29.6-64.9z M63.5-24.4
	l-3.8,3.8l-1.5-1.5l3.8-3.8L63.5-24.4z M73.1-44.3l-1.9,1.9l-0.7-0.7l1.9-1.9L73.1-44.3z"/>
<path class="st4" d="M58.2-45.8l-6.1,6.1l-2.4-2.4l6.1-6.1L58.2-45.8z"/>
<path class="st5" d="M29-53.7l-5,5l-1.9-1.9l5-5L29-53.7z"/>
<path class="st3" d="M53.4-20.2l-3.8,3.8l-1.5-1.5l3.8-3.8L53.4-20.2z"/>
<path class="st5" d="M23.2-69.8l-1.9,1.9l-0.7-0.7l1.9-1.9L23.2-69.8z M49.7-62.7l-5,5l-1.9-1.9l5-5L49.7-62.7z M43.4-44.6l-3.8,3.8
	l-1.5-1.5l3.8-3.8L43.4-44.6z M39.1-62.6l-3.8,3.8l-1.5-1.5l3.8-3.8L39.1-62.6z M29.6-24.4l-3.8,3.8l-1.5-1.5l3.8-3.8L29.6-24.4z
	 M42.8-20.7L39-16.9l-1.5-1.5l3.8-3.8L42.8-20.7z M19.5-30.5l-1.9,1.9l-0.7-0.7l1.9-1.9L19.5-30.5z"/>
<path class="st3" d="M17.9-50l-5,5L11-46.9l5-5L17.9-50z"/>
<path class="st5" d="M44.4-35.6l-3.8,3.8l-1.5-1.5l3.8-3.8L44.4-35.6z"/>
<path class="st1" d="M33.3-19.8l-1.9,1.9l-0.7-0.7l1.9-1.9L33.3-19.8z"/>
<path class="st4" d="M48.1-73.3l-5,5l-1.9-1.9l5-5L48.1-73.3z"/>
<path class="st5" d="M65.1-39.9l-5,5l-1.9-1.9l5-5L65.1-39.9z M18.4-40.3l-3.8,3.8L13.1-38l3.8-3.8L18.4-40.3z M36.5-27.8l-1.9,1.9
	l-0.7-0.7l1.9-1.9L36.5-27.8z M25.3-40.6l-1.9,1.9l-0.7-0.7l1.9-1.9L25.3-40.6z"/>
<path class="st1" d="M38.1-74.9L34.2-71l-1.5-1.5l3.8-3.8L38.1-74.9z"/>
</svg>
