<?xml version="1.0" encoding="UTF-8"?>
<svg width="600" height="140" version="1.1" xmlns="http://www.w3.org/2000/svg">
 <defs>
  <linearGradient id="b" x1="1.0575" x2="36.68" y1="36.454" y2="36.244" gradientTransform="matrix(2.0655,0,0,2.123,10,11.37)" gradientUnits="userSpaceOnUse">
   <stop stop-color="#80E8FF" offset="0"/>
   <stop stop-color="#2148E4" offset="1"/>
  </linearGradient>
 </defs>
 <path d="m10 70.39c0 18.18 12.46 33.503 29.275 37.852 3.1201 0.80622 6.391 1.2355 9.7582 1.2355a19.477 19.477 0 0 1 15.228 7.3333 19.496 19.496 0 0 1 4.2886 11.821h19.516a38.901 38.901 0 0 0-6.7784-21.604 39.249 39.249 0 0 0-6.4601-7.3208 38.842 38.842 0 0 0-25.794-9.7729 19.403 19.403 0 0 1-9.7582-2.6238 19.565 19.565 0 0 1-9.7582-16.92 19.475 19.475 0 0 1 4.2886-12.212 48.749 48.749 0 0 1-17.025-9.7834 38.901 38.901 0 0 0-6.7805 21.996m4e-3 -59.025c-4e-3 0.12983-4e-3 0.26175-4e-3 0.39158 0 8.15 2.5066 15.726 6.7847 21.994a39.238 39.238 0 0 0 6.4601 7.3229 38.842 38.842 0 0 0 25.79 9.7708c3.5515 0 6.8852 0.95907 9.7582 2.6238a19.565 19.565 0 0 1 9.7582 16.92 19.475 19.475 0 0 1-4.2907 12.212 48.73 48.73 0 0 1 17.025 9.7834 38.901 38.901 0 0 0 6.7847-21.994c0-18.18-12.462-33.505-29.277-37.854a38.997 38.997 0 0 0-9.7582-1.2355 19.477 19.477 0 0 1-15.228-7.3334 19.475 19.475 0 0 1-4.2907-12.21c0-0.12983 0-0.26175 8e-3 -0.39158z" fill="url(#b)"/>
 <path d="m136.78 41.76c-16.107 0-29.166 13.077-29.166 29.206 0 16.13 13.058 29.208 29.166 29.208 16.109 0 29.168-13.077 29.168-29.208 0-16.128-13.058-29.206-29.168-29.206m0 10.127c10.506 0 19.054 8.5604 19.054 19.079 0 10.523-8.5479 19.081-19.054 19.081s-19.052-8.5584-19.052-19.081c0-10.518 8.5458-19.077 19.052-19.077m52.695 27.706h18.769l-9.3855-23.009zm-18.449 19.607 23.548-56.47h8.5751l23.543 56.47h-10.68l-4.6111-11.262h-25.082l-4.6111 11.262h-10.68zm69.256-16.69c2.9107 5.7523 7.6035 8.5877 14.156 8.5877 7.0402 0 9.5488-3.7274 9.5488-7.371 0-2.5129-0.88997-4.2153-3.2353-5.7544-2.3453-1.6208-4.0478-2.3495-8.2526-3.8886-5.1786-1.9433-8.173-3.4028-11.408-5.9952-3.2353-2.6741-4.7744-6.3198-4.7744-11.098 0-4.5378 1.7004-8.1835 5.0173-11.019 3.3965-2.8353 7.5239-4.2132 12.46-4.2132 7.6851 0 13.511 3.0783 17.395 9.1552l-7.2035 4.942c-2.182-3.3212-5.499-5.0236-10.03-5.0236-4.4498 0-7.6851 2.5128-7.6851 5.9952 0 2.3495 0.96954 3.4845 2.3453 4.8603 0.88997 0.64915 3.1557 1.6208 4.209 2.1883l2.9107 1.135 3.317 1.2962c5.3398 2.1883 9.1426 4.5378 11.49 7.0486 2.3453 2.5128 3.5599 5.9136 3.5599 10.127 0 9.9656-6.8789 16.69-19.743 16.69-10.437 0-18.122-4.8603-21.682-12.88zm47.246 16.69h10.114v-56.47h-10.114zm30.096-16.69c2.9107 5.7523 7.6056 8.5877 14.158 8.5877 7.0402 0 9.5488-3.7274 9.5488-7.371 0-2.5129-0.89207-4.2153-3.2374-5.7544-2.3453-1.6208-4.0457-2.3495-8.2526-3.8886-5.1786-1.9433-8.171-3.4028-11.408-5.9952-3.2353-2.6741-4.7723-6.3198-4.7723-11.098 0-4.5378 1.6983-8.1835 5.0152-11.019 3.3986-2.8353 7.5239-4.2132 12.46-4.2132 7.6851 0 13.513 3.0783 17.395 9.1552l-7.2014 4.942c-2.1841-3.3212-5.501-5.0236-10.03-5.0236-4.4519 0-7.6872 2.5128-7.6872 5.9952 0 2.3495 0.97163 3.4845 2.3453 4.8603 0.88996 0.64915 3.1557 1.6208 4.209 2.1883l2.9107 1.135 3.3191 1.2962c5.3398 2.1883 9.1405 4.5378 11.488 7.0486 2.3453 2.5128 3.5599 5.9136 3.5599 10.127 0 9.9656-6.8768 16.69-19.741 16.69-10.437 0-18.124-4.8603-21.682-12.88zm82.621-40.752c-16.107 0-29.166 13.077-29.166 29.206 0 16.13 13.058 29.208 29.166 29.208 16.109 0 29.168-13.077 29.168-29.208 0-16.128-13.058-29.206-29.168-29.206m0 6.3198c12.604 0 22.856 10.267 22.856 22.888 0 12.619-10.252 22.888-22.856 22.888-12.602 0-22.854-10.269-22.854-22.888 0-12.621 10.252-22.888 22.854-22.888m51.331 23.171h11.49c3.1557 0 5.8256-1.0533 7.928-3.2416 2.1862-2.1862 3.2374-4.8603 3.2374-8.1018 0-3.2395-1.0512-5.9136-3.2374-8.1019-2.1024-2.1862-4.7744-3.2395-7.928-3.2395h-11.488v22.685zm-6.3094 27.951v-56.47h18.042c4.7744 0 8.8997 1.6208 12.217 4.9419 3.317 3.2416 5.0173 7.2915 5.0173 12.233 0 4.9419-1.7004 8.9939-5.0173 12.315-3.317 3.2416-7.4422 4.8624-12.217 4.8624h-11.731v22.117zm50.404 0v-56.47h31.876v5.834h-25.566v17.904h24.029v5.834h-24.029v21.066h26.134v5.8319zm48.462 0v-56.47h5.499l34.062 45.21v-45.21h6.3114v56.47h-5.0969l-34.468-45.694v45.694z" fill="#0a2540"/>
</svg>
