<?xml version="1.0"?>
<svg xmlns="http://www.w3.org/2000/svg" viewBox="0 0 94.4 51.1" width="220" height="119"><path d="m27.9 5h-20.2c-1.7 0-2.6.9-2.6 2.5 0 1.7.9 2.6 2.6 2.6h12.7c5.1 0 7.7 2.2 7.7 6.6v1.1 1.4c-.1 4.2-2.7 6.4-7.8 6.4h-20.2v-5.1h19.5c2.1 0 3.4-.9 3.3-2.7-.1-1.5-1.1-2.4-3.3-2.4h-11.9c-5.1-.1-7.7-2.2-7.7-6.4v-2.6c0-4.3 2.6-6.4 7.7-6.4h20.2z" fill="#ee7900"/><path d="m89.1 0-8.6 17.5-8.6-17.5h-5.6l12.5 25.5h3.2l12.4-25.5z" fill="#ee7900"/><path d="m62 25.5h-5.1l-17.2-18.1v18.1h-5.4v-25.5h4.8l17.6 18.3v-18.3h5.3z" fill="#ee7900"/><g fill="#a3887a"><path d="m1.5 36.5c0 .5.4.8 1.1.8.6 0 .9-.2.9-.5 0-.5-.5-.4-1.4-.7-1.2-.3-1.8-.7-1.8-1.6 0-1.1.8-1.8 2.1-1.8 1.4 0 2.2.7 2.3 1.8h-1.4c0-.5-.3-.7-.9-.7-.5 0-.8.2-.8.5 0 .4.4.5 1.4.7 1.2.3 1.8.6 1.8 1.6 0 1.2-.8 1.9-2.5 1.9-1.5 0-2.3-.7-2.3-1.9 0 0 0 0 0-.1z"/><path d="m7.6 38.3c-1.2 0-1.4-.4-1.4-1.5v-2.9h-.6v-1h.7v-1.5h1.4v1.5h.8v1h-.9v3c0 .3.1.3.5.3h.3v1.1c-.3 0-.6 0-.8 0z"/><path d="m10.9 38.5c-1 0-1.6-.6-1.6-1.7 0-1 .6-1.5 1.8-1.7 1.1-.2 1.5-.1 1.5-.6 0-.4-.3-.6-.9-.6s-.9.2-.9.7v.1h-1.3v-.1c0-1.1.8-1.8 2.1-1.8 1.5 0 2.3.5 2.3 1.5v3c0 .4.1.6.3.7v.2h-1.5c-.1-.2-.1-.4-.2-.7-.2.7-.8 1-1.6 1zm.4-2.5c-.4.1-.7.3-.7.7s.3.6.7.6c.8 0 1.2-.5 1.2-1.2v-.5c-.4.3-.9.3-1.2.4z"/><path d="m15.5 32.9h1.4v.6c.4-.5.9-.8 1.6-.8 1.2 0 1.7.6 1.7 1.8v3.6h-1.4v-3.1c0-.7-.2-1.1-.8-1.1-.7 0-1.1.4-1.1 1.1v3.2h-1.4z"/><path d="m26.6 38.3h-1.3v-.7c-.4.6-.9.9-1.6.9-1.3 0-2.2-1.1-2.2-2.8 0-1.8.9-2.9 2.1-2.9.7 0 1.2.3 1.6.8v-2.6h1.4zm-2.5-1.1c.7 0 1.1-.6 1.1-1.7 0-1-.4-1.6-1.2-1.6-.7 0-1.1.6-1.1 1.6 0 1.2.4 1.7 1.2 1.7z"/><path d="m29.5 38.5c-1 0-1.6-.6-1.6-1.7 0-1 .6-1.5 1.8-1.7 1.1-.2 1.5-.1 1.5-.6 0-.4-.3-.6-.9-.6s-.9.2-.9.7v.1h-1.3v-.1c0-1.1.8-1.8 2.1-1.8 1.5 0 2.3.5 2.3 1.5v3c0 .4.1.6.3.7v.2h-1.5c-.1-.2-.1-.4-.2-.7-.3.7-.9 1-1.6 1zm.4-2.5c-.4.1-.7.3-.7.7s.3.6.7.6c.8 0 1.2-.5 1.2-1.2v-.5c-.5.3-.9.3-1.2.4z"/><path d="m34.1 32.9h1.3v.9c.4-.7.8-1.1 1.5-1.1h.2v1.4h-.5c-.8 0-1.2.4-1.2 1.2v2.8h-1.4v-5.2z"/><path d="m43 38.3h-1.3v-.7c-.4.6-.9.9-1.6.9-1.3 0-2.2-1.1-2.2-2.8 0-1.8.9-2.9 2.1-2.9.7 0 1.2.3 1.6.8v-2.6h1.4zm-2.5-1.1c.7 0 1.1-.6 1.1-1.7 0-1-.4-1.6-1.2-1.6-.7 0-1.1.6-1.1 1.6 0 1.2.5 1.7 1.2 1.7z"/><path d="m45.7 36.5c0 .5.4.8 1.1.8.6 0 .9-.2.9-.5 0-.5-.5-.4-1.4-.7-1.2-.3-1.8-.7-1.8-1.6 0-1.1.8-1.8 2.1-1.8 1.4 0 2.2.7 2.3 1.8h-1.4c0-.5-.3-.7-.9-.7-.5 0-.8.2-.8.5 0 .4.4.4 1.4.7 1.2.3 1.8.6 1.8 1.6 0 1.2-.8 1.9-2.5 1.9-1.5 0-2.3-.7-2.3-1.9 0 0 0 0 0-.1z"/><path d="m58.1 36.3c-.1 1.4-1 2.2-2.4 2.2-1.5 0-2.4-1.1-2.4-2.9s.9-2.9 2.5-2.9c1.4 0 2.2.8 2.3 2.1h-1.4c-.1-.6-.4-.9-.9-.9-.7 0-1 .6-1 1.7 0 1 .4 1.6 1 1.6.5 0 .8-.3.9-1h1.4z"/><path d="m61.7 32.7c1.6 0 2.7 1.1 2.7 2.9s-1 2.9-2.7 2.9c-1.6 0-2.7-1.1-2.7-2.9s1-2.9 2.7-2.9zm0 4.6c.8 0 1.2-.6 1.2-1.7s-.4-1.6-1.2-1.6-1.2.6-1.2 1.6c-.1 1.1.4 1.7 1.2 1.7z"/><path d="m65.6 32.9h1.4v.6c.4-.5.9-.8 1.6-.8 1.2 0 1.7.6 1.7 1.8v3.6h-1.4v-3.1c0-.7-.2-1.1-.8-1.1-.7 0-1.1.4-1.1 1.1v3.2h-1.4z"/><path d="m71.9 32.9h1.4v.6c.4-.5.9-.8 1.6-.8 1.2 0 1.7.6 1.7 1.8v3.6h-1.4v-3.1c0-.7-.2-1.1-.8-1.1-.7 0-1.1.4-1.1 1.1v3.2h-1.4z"/><path d="m82.7 36.7c-.3 1.1-1.2 1.8-2.4 1.8-1.5 0-2.5-1.1-2.5-2.9s.9-2.8 2.4-2.8c1.6 0 2.5 1 2.5 2.9v.4h-3.5c0 .8.4 1.3 1.1 1.3.5 0 .8-.2 1-.6h1.4zm-1.3-1.7c0-.7-.4-1.1-1-1.1s-1 .4-1 1.1z"/><path d="m88.6 36.3c-.1 1.4-1 2.2-2.4 2.2-1.5 0-2.4-1.1-2.4-2.9s.9-2.9 2.5-2.9c1.4 0 2.2.8 2.3 2.1h-1.4c-.1-.6-.4-.9-.9-.9-.7 0-1 .6-1 1.7 0 1 .4 1.6 1 1.6.5 0 .8-.3.9-1h1.4z"/><path d="m91.4 38.3c-1.2 0-1.4-.4-1.4-1.5v-2.9h-.7v-1h.7v-1.5h1.4v1.5h.8v1h-.8v3c0 .3.1.3.5.3h.3v1.1c-.4 0-.6 0-.8 0z"/></g><path d="m2.2 51c-1.2 0-1.4-.4-1.4-1.5v-2.9h-.7v-1h.7v-1.5h1.4v1.5h.8v1h-.8v3c0 .3.1.3.5.3h.3v1.1c-.4-.1-.7 0-.8 0z" fill="#9f8b7f"/><path d="m4.2 43.7h1.4v2.5c.4-.5.9-.7 1.6-.7.6 0 1.1.2 1.4.6s.3.8.3 1.3v.1 3.5h-1.5v-2.8c0-1 0-1.5-.8-1.5-.7 0-1.1.4-1.1 1.1v3.2h-1.3z" fill="#9f8b7f"/><path d="m15 49.3c-.3 1.1-1.2 1.8-2.4 1.8-1.5 0-2.5-1.1-2.5-2.9s.9-2.8 2.4-2.8c1.6 0 2.5 1 2.5 2.9v.4h-3.5c0 .8.4 1.3 1.1 1.3.5 0 .8-.2 1-.6h1.4zm-1.3-1.6c0-.7-.4-1.1-1-1.1s-1 .4-1 1.1z" fill="#9f8b7f"/><path d="m19 45.5h1.4l.9 3.7.7-3.7h1.4l.8 3.7.9-3.7h1.4l-1.5 5.3h-1.4l-.8-3.8-.8 3.8h-1.4z" fill="#9f8b7f"/><path d="m29.8 45.4c1.6 0 2.7 1.1 2.7 2.9s-1 2.9-2.7 2.9c-1.6 0-2.7-1.1-2.7-2.9s1.1-2.9 2.7-2.9zm0 4.5c.8 0 1.2-.6 1.2-1.7s-.4-1.6-1.2-1.6-1.2.6-1.2 1.6.5 1.7 1.2 1.7z" fill="#9f8b7f"/><path d="m33.8 45.5h1.3v.9c.4-.7.8-1.1 1.5-1.1h.2v1.4h-.5c-.8 0-1.2.4-1.2 1.2v2.8h-1.4v-5.2z" fill="#9f8b7f"/><path d="m38 43.7h1.4v7.2h-1.4z" fill="#9f8b7f"/><path d="m45.8 50.9h-1.3v-.7c-.4.6-.9.9-1.6.9-1.3 0-2.2-1.1-2.2-2.8 0-1.8.9-2.9 2.1-2.9.7 0 1.2.3 1.6.8v-2.6h1.4zm-2.5-1.1c.7 0 1.1-.6 1.1-1.7 0-1-.4-1.6-1.2-1.6-.7 0-1.1.6-1.1 1.6 0 1.2.5 1.7 1.2 1.7z" fill="#9f8b7f"/></svg>
