<svg xmlns="http://www.w3.org/2000/svg" viewBox="0 0 669.56 156.83" id="sisLogo"><defs><style>.cls-1{fill:#F32735;}#animate{animation:animate .55s ease-in-out 1s 1 backwards}#sisLogo:hover #animate, .logotype:hover #animate{animation:animateR .45s ease-in-out 0s 1 forwards}@keyframes animate{from{transform:translateY(36.5px)}to{transform:translateY(0)}}@keyframes animateR{from{transform:translateY(0)}to{transform:translateY(36.5px)}} </style></defs><title>SIS_Logotype_sv_lockup_Red_Black</title><g id="Layer_2" data-name="Layer 2"><g id="Lager_1" data-name="Lager 1"><path class="cls-1" d="M70.14,89.18,39,84.41c-9.54-1.58-15.22-5.67-15.22-14.3,0-4.53,2.28-8.61,6.36-12C35.41,54,42.68,52.4,49.7,52.4c7.73,0,15,2.5,19.76,6.82a20.32,20.32,0,0,1,6.8,14.07h19.3a36.27,36.27,0,0,0-8-21.79C79.68,41.28,65.37,36.06,49.7,36.06c-14.29,0-27.47,5.46-34.95,13.16a31,31,0,0,0-9.3,22c0,7.48,2.26,14.52,6.8,19.73,5,5.46,12.26,9.32,21.11,10.67L62.64,106c12.27,1.82,17,8.4,17,15.88A14.89,14.89,0,0,1,74,133.67c-5.92,5-14.53,6.58-22.48,6.58-9.09,0-16.8-1.59-22.25-5.67s-9.76-9.76-10-17.71H0a37.85,37.85,0,0,0,11.35,26.56c10.22,10,23.6,13.4,39.27,13.4s30.41-4.32,39.26-13.4A31.56,31.56,0,0,0,99,120.51C99,101.22,84,91.22,70.14,89.18Z"/><polygon class="cls-1" points="159.7 55.36 140.18 55.36 140.18 36.53 109.88 36.53 109.88 55.36 140.18 55.36 140.18 135.79 104.6 135.79 104.6 153.88 194.97 153.88 194.97 135.79 159.7 135.79 159.7 55.36"/><path class="cls-1" d="M266.59,89.18l-31.11-4.77c-9.53-1.58-15.21-5.67-15.21-14.3,0-4.53,2.28-8.61,6.36-12,5.23-4.09,12.49-5.68,19.52-5.68,7.72,0,15,2.5,19.76,6.82a20.32,20.32,0,0,1,6.8,14.07H292a36.2,36.2,0,0,0-7.94-21.79c-7.93-10.22-22.24-15.44-37.91-15.44-14.29,0-27.47,5.46-35,13.16a30.93,30.93,0,0,0-9.3,22c0,7.48,2.25,14.52,6.8,19.73,5,5.46,12.26,9.32,21.11,10.67L259.09,106c12.27,1.82,17,8.4,17,15.88a14.89,14.89,0,0,1-5.68,11.81c-5.91,5-14.52,6.58-22.47,6.58-9.1,0-16.8-1.59-22.26-5.67s-9.75-9.76-10-17.71H196.45a37.8,37.8,0,0,0,11.35,26.56c10.22,10,23.6,13.4,39.27,13.4s30.41-4.32,39.26-13.4a31.6,31.6,0,0,0,9.09-22.92C295.42,101.22,280.43,91.22,266.59,89.18Z"/><rect id="animate" class="cls-1" x="140.18" width="19.52" height="19.6"/><path d="M357.77,69.36c-2.41,2.37-6.1,3.45-9.84,3.45-4.24,0-7.53-1.13-9.9-3.3a11.48,11.48,0,0,1-3.64-8.36H339a7.91,7.91,0,0,0,2.41,5.51c1.58,1.52,4.08,2.11,6.55,2.11,2.65,0,4.82-.54,6.39-2a5.14,5.14,0,0,0,1.77-4.09c0-2.7-1.62-5-5.75-5.61L345,56.23c-5.21-.79-9.2-3.69-9.2-9.26a9.51,9.51,0,0,1,3-6.88,12.59,12.59,0,0,1,9-3.45,12.76,12.76,0,0,1,8.95,3.25,10.53,10.53,0,0,1,3.3,7.53h-4.57a6.94,6.94,0,0,0-1.68-4.28,7.66,7.66,0,0,0-6.05-2.46,7.56,7.56,0,0,0-6.05,2.46,5.32,5.32,0,0,0-1.33,3.74c0,3.15,2.51,4.57,5.12,4.92,2,.24,3.74.59,5.66.88,5.8.84,9.59,4.38,9.59,9.89A9.15,9.15,0,0,1,357.77,69.36Z"/><path d="M376.64,72.14h-5l-9.84-24.86h4.57L374.33,68,382,47.28h4.38Z"/><path d="M391.83,61.05a8.62,8.62,0,0,0,2.51,6.25,6.77,6.77,0,0,0,4.77,1.87,6.59,6.59,0,0,0,6.65-4.48h4c-1.18,5.17-5.46,8.12-10.68,8.12a11.18,11.18,0,0,1-7.87-3.25,13.36,13.36,0,0,1-3.69-9.74,14.22,14.22,0,0,1,3.69-10,10.91,10.91,0,0,1,7.92-3.2,10.69,10.69,0,0,1,7.68,3,14.16,14.16,0,0,1,3.59,9.94v1.48Zm12.05-8.81a6.37,6.37,0,0,0-4.77-2c-4.77,0-7,4.43-7.13,7.38h14A8,8,0,0,0,403.88,52.24Z"/><path d="M431.42,72.17V56.37c0-3.64-1.63-5.95-5.47-5.95a6.53,6.53,0,0,0-5.61,4,16.92,16.92,0,0,0-1.08,6.39V72.17H415V47.27h3.69l.34,3.74a9,9,0,0,1,7.78-4.38c5.66,0,8.86,3.4,8.86,9.15V72.17Z"/><path d="M459.53,69.91c-1.92,2-5.11,2.9-8.51,2.9s-6.3-.74-8.51-2.9a8.21,8.21,0,0,1-2.46-5.76h4.18A4.91,4.91,0,0,0,446.39,68a8.07,8.07,0,0,0,4.83,1.23,7.62,7.62,0,0,0,4.87-1.43,3.22,3.22,0,0,0,1.23-2.56c0-1.62-1-3.05-3.69-3.44l-6.35-.94a7.71,7.71,0,0,1-4.58-2.31,6.49,6.49,0,0,1-1.47-4.28,6.69,6.69,0,0,1,2-4.78,10.8,10.8,0,0,1,7.57-2.85c3.4,0,6.5,1.13,8.22,3.35a7.76,7.76,0,0,1,1.72,4.72h-4.18a4.41,4.41,0,0,0-1.48-3.05,6.4,6.4,0,0,0-4.28-1.48,7,7,0,0,0-4.23,1.23A3.42,3.42,0,0,0,445.21,54c0,1.87,1.23,2.76,3.3,3.1l6.74,1c3,.44,6.25,2.6,6.25,6.79A6.87,6.87,0,0,1,459.53,69.91Z"/><path d="M489,72.17h-4.92l-7.82-12-5.07,5.27v6.74H467V36.59h4.18V59.77l11.91-12.5h5.56l-9.5,9.89Z"/><path d="M511,72.51a3.62,3.62,0,0,1-3.69-3.78h-.1c-1.47,2.5-4.72,4.08-8.21,4.08-6,0-8.62-3.79-8.62-7.33,0-3.69,2.56-7.78,8.91-8.12l7.78-.44V55.09a4.5,4.5,0,0,0-1.28-3.59,5.89,5.89,0,0,0-4.19-1.43,6.12,6.12,0,0,0-4.52,1.53,4.23,4.23,0,0,0-1.33,2.9h-4.13a7.3,7.3,0,0,1,2.31-5.11,11,11,0,0,1,7.67-2.76c4.83,0,7.68,2.21,8.86,4.92a8.72,8.72,0,0,1,.74,3.69V67.3c0,1.33.64,1.67,1.48,1.67a6,6,0,0,0,1.08-.15v3.1A5.72,5.72,0,0,1,511,72.51Zm-3.93-12.35-6.89.4c-2.66.14-5.51,1.42-5.51,4.57,0,2.22,1.42,4.14,5,4.14a7.22,7.22,0,0,0,5.21-2,8,8,0,0,0,2.22-5.61Z"/><path d="M337.59,113.2v-3.65h7.73V81.9h-7.73V78.31h19.89V81.9h-7.73v27.65h7.73v3.65Z"/><path d="M378.1,113.2V97.4c0-3.64-1.62-6-5.46-6a6.53,6.53,0,0,0-5.61,4,16.79,16.79,0,0,0-1.09,6.4V113.2h-4.23V88.3h3.69l.35,3.74a8.9,8.9,0,0,1,7.77-4.38c5.66,0,8.86,3.39,8.86,9.15V113.2Z"/><path d="M406.5,110.93c-1.92,2-5.11,2.91-8.51,2.91s-6.3-.74-8.51-2.91a8.18,8.18,0,0,1-2.46-5.76h4.18a4.86,4.86,0,0,0,2.17,3.84,8,8,0,0,0,4.82,1.23,7.61,7.61,0,0,0,4.87-1.42,3.23,3.23,0,0,0,1.23-2.56c0-1.63-1-3.05-3.69-3.45l-6.35-.93a7.72,7.72,0,0,1-4.58-2.32,6.47,6.47,0,0,1-1.47-4.28,6.67,6.67,0,0,1,2-4.77,10.8,10.8,0,0,1,7.57-2.85c3.4,0,6.5,1.13,8.22,3.34a7.79,7.79,0,0,1,1.72,4.73h-4.18a4.42,4.42,0,0,0-1.47-3,6.45,6.45,0,0,0-4.29-1.48,6.89,6.89,0,0,0-4.23,1.23A3.41,3.41,0,0,0,392.18,95c0,1.87,1.23,2.75,3.3,3.1l6.74,1c3,.44,6.25,2.61,6.25,6.79A6.81,6.81,0,0,1,406.5,110.93Z"/><path d="M426.51,113.74c-5.6,0-8-3.89-8-7.88v-14h-7.77V88.3h7.77V81.85l4.19-1.33V88.3h10.43v3.59H422.68v13.58c0,2.66,1.52,4.48,4.43,4.48a14.16,14.16,0,0,0,6.29-1.68V112A13.44,13.44,0,0,1,426.51,113.74Z"/><path d="M437.65,113.2v-3.6h9V91.84h-8V88.3h12.25v21.3h9.05v3.6Zm7.92-29.63v-5.9h6v5.9Z"/><path d="M474.12,113.74c-5.61,0-8-3.89-8-7.88v-14h-7.78V88.3h7.78V81.85l4.18-1.33V88.3h10.43v3.59H470.28v13.58c0,2.66,1.53,4.48,4.43,4.48a14.23,14.23,0,0,0,6.3-1.68V112A13.47,13.47,0,0,1,474.12,113.74Z"/><path d="M501.91,113.2l-.34-3.74c-1.28,2.85-4.83,4.38-7.63,4.38-5.22,0-8.76-3.6-8.76-9.16V88.3h4.23v15.79c0,3.74,1.58,6,5.51,6,3.55,0,6.45-3.15,6.45-7.29V88.3h4.23v24.9Z"/><path d="M525.4,113.74c-5.6,0-8-3.89-8-7.88v-14h-7.77V88.3h7.77V81.85l4.19-1.33V88.3H532v3.59H521.57v13.58c0,2.66,1.52,4.48,4.43,4.48a14.16,14.16,0,0,0,6.29-1.68V112A13.44,13.44,0,0,1,525.4,113.74Z"/><path d="M539.25,102.07a8.61,8.61,0,0,0,2.51,6.25,6.72,6.72,0,0,0,4.77,1.87,6.41,6.41,0,0,0,4.58-1.47,6.24,6.24,0,0,0,2.06-3h4c-1.18,5.16-5.46,8.12-10.68,8.12a11.18,11.18,0,0,1-7.87-3.25,13.37,13.37,0,0,1-3.69-9.75,14.23,14.23,0,0,1,3.69-10,10.9,10.9,0,0,1,7.92-3.19,10.69,10.69,0,0,1,7.68,3,14.16,14.16,0,0,1,3.59,9.94v1.47Zm12-8.8a6.37,6.37,0,0,0-4.77-2c-4.77,0-7,4.43-7.13,7.38h14A8,8,0,0,0,551.3,93.27Z"/><path d="M575.51,113.74c-5.6,0-8-3.89-8-7.88v-14h-7.77V88.3h7.77V81.85l4.19-1.33V88.3h10.43v3.59H571.68v13.58c0,2.66,1.52,4.48,4.43,4.48a14.16,14.16,0,0,0,6.29-1.68V112A13.44,13.44,0,0,1,575.51,113.74Z"/><path d="M611.86,80.86c-3.19,0-4.77,2-4.77,4.53V88.3h10.83v3.54H607.09V113.2h-4.23V91.84h-8.22V88.3h8.22V85.39c0-5,3.3-8.22,8.51-8.22a16,16,0,0,1,6.35,1.23v3.89A15.55,15.55,0,0,0,611.86,80.86Z"/><path d="M639.57,110.83a11.26,11.26,0,0,1-7.78,3,11.49,11.49,0,0,1-7.87-3A13.58,13.58,0,0,1,620,100.75a13.58,13.58,0,0,1,3.89-10.09,11.48,11.48,0,0,1,7.87-3,11.25,11.25,0,0,1,7.78,3,13.51,13.51,0,0,1,3.89,10A13.73,13.73,0,0,1,639.57,110.83Zm-3.2-17.76a6.93,6.93,0,0,0-9.25,0C625,95,624.31,98,624.31,100.7s.69,5.8,2.81,7.72a6.93,6.93,0,0,0,9.25,0c2.12-1.92,2.8-5,2.8-7.67S638.49,95,636.37,93.07Zm-11.76-8.86v-5h5v5Zm9.15,0v-5h5v5Z"/><path d="M665.28,96.71A5.33,5.33,0,0,0,664,93.07,5.05,5.05,0,0,0,660,91.44a6.58,6.58,0,0,0-5.7,4.24,17.88,17.88,0,0,0-1.09,6.44V113.2H649V88.3h3.69L653,92a8.65,8.65,0,0,1,7.87-4.38A8.43,8.43,0,0,1,668,91.3a9.42,9.42,0,0,1,1.57,5.41Z"/><path d="M357.62,151.11c-2.41,2.36-6.1,3.44-9.84,3.44-4.23,0-7.53-1.13-9.89-3.3a11.46,11.46,0,0,1-3.64-8.36h4.58a7.9,7.9,0,0,0,2.41,5.51c1.57,1.52,4.08,2.12,6.54,2.12,2.66,0,4.83-.55,6.4-2a5.17,5.17,0,0,0,1.77-4.09c0-2.7-1.62-5-5.76-5.61l-5.36-.83c-5.22-.79-9.2-3.69-9.2-9.25a9.52,9.52,0,0,1,2.95-6.89,12.58,12.58,0,0,1,9-3.45,12.81,12.81,0,0,1,9,3.25,10.55,10.55,0,0,1,3.3,7.53h-4.58a7,7,0,0,0-1.67-4.28,8.68,8.68,0,0,0-12.11,0,5.36,5.36,0,0,0-1.32,3.74c0,3.15,2.5,4.57,5.11,4.92,2,.24,3.74.59,5.66.88,5.81.84,9.6,4.38,9.6,9.9A9.16,9.16,0,0,1,357.62,151.11Z"/><path d="M377.84,154.45c-5.61,0-8-3.89-8-7.87v-14h-7.77V129h7.77v-6.45l4.18-1.32V129h10.44v3.59H374v13.59a4.1,4.1,0,0,0,4.43,4.47,14.36,14.36,0,0,0,6.3-1.67v3.69A13.47,13.47,0,0,1,377.84,154.45Z"/><path d="M409.1,154.26a3.63,3.63,0,0,1-3.69-3.79h-.09c-1.48,2.51-4.73,4.08-8.22,4.08-6,0-8.61-3.79-8.61-7.33,0-3.69,2.56-7.78,8.9-8.12l7.78-.44v-1.83a4.51,4.51,0,0,0-1.28-3.59,5.92,5.92,0,0,0-4.18-1.42,6.14,6.14,0,0,0-4.53,1.52,4.26,4.26,0,0,0-1.33,2.91h-4.13a7.33,7.33,0,0,1,2.31-5.12,11,11,0,0,1,7.68-2.76c4.82,0,7.67,2.22,8.85,4.92a8.72,8.72,0,0,1,.74,3.69V149c0,1.33.64,1.67,1.48,1.67a6,6,0,0,0,1.08-.15v3.11A5.84,5.84,0,0,1,409.1,154.26Zm-3.93-12.36-6.89.4c-2.66.15-5.51,1.42-5.51,4.57,0,2.22,1.42,4.14,5,4.14a7.2,7.2,0,0,0,5.21-2,8,8,0,0,0,2.22-5.61Z"/><path d="M432.43,153.91V138.12c0-3.65-1.63-6-5.46-6a6.5,6.5,0,0,0-5.61,4,16.77,16.77,0,0,0-1.09,6.39v11.37H416V129h3.69l.35,3.74a8.92,8.92,0,0,1,7.77-4.38c5.66,0,8.86,3.4,8.86,9.15v16.39Z"/><path d="M460.3,153.91l-.29-3.25c-1.43,2.51-4.83,3.89-7.63,3.89a10.11,10.11,0,0,1-7.24-2.9c-2.36-2.41-3.59-6-3.59-10.14,0-4.28,1.33-7.92,3.84-10.33a10.26,10.26,0,0,1,7.09-2.81,9,9,0,0,1,7.33,3.54V118.38H464v35.53Zm-3.05-20.32a6.07,6.07,0,0,0-4.18-1.58,6.19,6.19,0,0,0-4.58,1.92,10.48,10.48,0,0,0-2.66,7.53c0,2.9.74,5.81,2.61,7.68a6.23,6.23,0,0,0,4.63,1.77,6.07,6.07,0,0,0,4.18-1.58c2.07-1.82,2.8-4.77,2.8-7.87S459.32,135.41,457.25,133.59Z"/><path d="M489.44,154.26a3.63,3.63,0,0,1-3.69-3.79h-.1c-1.47,2.51-4.72,4.08-8.21,4.08-6,0-8.62-3.79-8.62-7.33,0-3.69,2.56-7.78,8.91-8.12l7.78-.44v-1.83a4.51,4.51,0,0,0-1.28-3.59,5.93,5.93,0,0,0-4.19-1.42,6.13,6.13,0,0,0-4.52,1.52,4.26,4.26,0,0,0-1.33,2.91h-4.14a7.33,7.33,0,0,1,2.32-5.12,11,11,0,0,1,7.67-2.76c4.83,0,7.68,2.22,8.86,4.92a8.87,8.87,0,0,1,.74,3.69V149c0,1.33.64,1.67,1.48,1.67a6,6,0,0,0,1.08-.15v3.11A5.84,5.84,0,0,1,489.44,154.26Zm-3.93-12.36-6.89.4c-2.66.15-5.51,1.42-5.51,4.57,0,2.22,1.42,4.14,5,4.14a7.22,7.22,0,0,0,5.21-2,8,8,0,0,0,2.22-5.61Z"/><path d="M513.62,137.43a5.41,5.41,0,0,0-1.32-3.65,5.1,5.1,0,0,0-3.94-1.62c-2.51,0-4.72,1.92-5.71,4.23a17.88,17.88,0,0,0-1.08,6.45v11.07h-4.23V129H501l.34,3.74a8.69,8.69,0,0,1,7.87-4.38,8.43,8.43,0,0,1,7.09,3.64,9.47,9.47,0,0,1,1.58,5.42Z"/><path d="M538.64,153.91l-.29-3.25c-1.43,2.51-4.82,3.89-7.63,3.89a10.06,10.06,0,0,1-7.23-2.9c-2.36-2.41-3.59-6-3.59-10.14,0-4.28,1.32-7.92,3.83-10.33a10.28,10.28,0,0,1,7.09-2.81,9,9,0,0,1,7.33,3.54V118.38h4.19v35.53Zm-3-20.32a6.07,6.07,0,0,0-4.18-1.58,6.21,6.21,0,0,0-4.58,1.92,10.47,10.47,0,0,0-2.65,7.53c0,2.9.74,5.81,2.61,7.68a6.21,6.21,0,0,0,4.62,1.77,6.07,6.07,0,0,0,4.18-1.58c2.07-1.82,2.81-4.77,2.81-7.87S537.66,135.41,535.59,133.59Z"/><path d="M549.39,142.79A8.61,8.61,0,0,0,551.9,149a6.77,6.77,0,0,0,4.77,1.87,6.37,6.37,0,0,0,4.58-1.48,6.26,6.26,0,0,0,2.07-3h4c-1.18,5.17-5.46,8.12-10.68,8.12a11.18,11.18,0,0,1-7.87-3.25,13.35,13.35,0,0,1-3.69-9.74,14.22,14.22,0,0,1,3.69-10,10.93,10.93,0,0,1,7.92-3.2,10.69,10.69,0,0,1,7.68,3,14.18,14.18,0,0,1,3.59,9.94v1.48ZM561.45,134a6.39,6.39,0,0,0-4.78-2c-4.77,0-7,4.43-7.13,7.38h14A8,8,0,0,0,561.45,134Z"/><path d="M589.84,137.43a5.41,5.41,0,0,0-1.32-3.65,5.1,5.1,0,0,0-3.94-1.62c-2.51,0-4.72,1.92-5.71,4.23a17.88,17.88,0,0,0-1.08,6.45v11.07h-4.23V129h3.69l.34,3.74a8.69,8.69,0,0,1,7.87-4.38,8.43,8.43,0,0,1,7.09,3.64,9.47,9.47,0,0,1,1.58,5.42Z"/></g></g></svg>