<?xml version="1.0" encoding="UTF-8"?><svg id="uuid-d6aff8f4-c665-4b67-a154-dd7b4ef04abc" xmlns="http://www.w3.org/2000/svg" width="520" height="390" viewBox="0 0 520 390"><path d="m125.13,317.79c-.41,0-.45-.04-.45-.45,0-.29.08-2.7.08-14.55v-7.89c0-7.93-.08-10.42-.08-10.67,0-.45.04-.49.45-.49.29,0,1.68.08,5.64.08h14.02c3.97,0,5.4-.08,5.64-.08.41,0,.45.04.45.49,0,.25-.08,2.74-.08,9.44v9.08c0,11.73.08,14.14.08,14.39,0,.41-.04.45-.45.45h-3.64c-.41,0-.45-.04-.45-.45v-2h-17.13v2.21c0,.41-.04.45-.45.45h-3.64Zm4.09-20.6h17.13v-9.32h-17.13v9.32Zm17.13,13.9v-9.89h-17.13v9.89h17.13Z" style="stroke-width:0px;"/><path d="m165.88,293.19c-3.72,0-4.99.08-5.23.08-.41,0-.45-.04-.45-.45v-3.27c0-.41.04-.45.45-.45.25,0,1.51.08,5.23.08h9.52v-2.74c0-2.33-.04-3.72-.29-5.31,1.47.04,3.07.12,4.5.29.37.04.61.2.61.41,0,.37-.16.74-.25,1.06-.12.53-.2,1.27-.2,3.43v2.86h10.18c3.72,0,5.03-.08,5.27-.08.41,0,.45.04.45.45v3.27c0,.41-.04.45-.45.45-.25,0-1.55-.08-5.27-.08h-8.46c3.68,6.29,8.95,11.28,15.57,14.59-.74.78-1.43,1.8-2,2.94-.33.65-.49.98-.78.98-.16,0-.45-.16-.86-.45-5.72-3.8-10.63-8.58-13.82-14.96,0,3.39.08,7.4.12,11.04h2.13c3.6,0,4.78-.08,5.03-.08.45,0,.49.04.49.45v3.11c0,.41-.04.45-.49.45-.25,0-1.43-.08-5.03-.08h-2.04c.04,3.47.12,6.13.12,6.83,0,.37-.04.41-.45.41h-3.8c-.41,0-.45-.04-.45-.41,0-.69.04-3.35.12-6.83h-1.76c-3.6,0-4.78.08-5.03.08-.41,0-.45-.04-.45-.45v-3.11c0-.41.04-.45.45-.45.25,0,1.43.08,5.03.08h1.8c.08-3.47.12-7.24.12-10.59-2.94,5.93-7.77,10.87-12.88,14.51-.45.33-.74.49-.94.49-.25,0-.45-.25-.78-.9-.61-1.14-1.27-2-2.13-2.74,5.72-3.11,11.41-8.42,14.92-14.92h-7.85Z" style="stroke-width:0px;"/><path d="m212.97,317.3c-3.97,0-5.31.08-5.56.08-.45,0-.49-.04-.49-.49v-2.78c0-.41.04-.45.49-.45.25,0,1.59.08,5.56.08h6.83v-3.52h-2.17c-3.76,0-5.03.08-5.27.08-.41,0-.45-.04-.45-.45v-2.7c0-.41.04-.45.45-.45.25,0,1.51.08,5.27.08h2.17v-3.11h-6.66c-.78,1.39-1.72,2.74-2.78,4.09-.37.49-.57.69-.74.69s-.33-.2-.61-.57c-.69-.94-1.43-1.55-2.08-2l-.37,2.58c-.45,2.9-1.43,6.05-2.9,8.91-.33.53-.49.78-.7.78-.16,0-.37-.16-.65-.49-.82-1.06-1.92-2.04-2.66-2.45,1.51-2.29,2.53-5.27,2.98-8.01.45-2.7.61-5.72.61-9.28,0-3.76-.08-5.4-.08-5.64,0-.41.04-.45.45-.45.25,0,1.59.08,5.44.08h3.03c-.57-1.39-1.23-2.62-1.84-3.64h-1.14c-3.92,0-5.23.08-5.48.08-.45,0-.49-.04-.49-.45v-2.7c0-.45.04-.49.49-.49.25,0,1.55.08,5.48.08h8.09v-.37c0-1.55-.08-2.58-.29-3.56,1.51,0,2.9.08,4.25.2.41.04.65.2.65.41,0,.29-.12.49-.25.78-.16.37-.2.86-.2,2.13v.41h8.13c3.92,0,5.27-.08,5.52-.08.41,0,.45.04.45.49v2.7c0,.41-.04.45-.45.45-.25,0-1.63-.08-5.56-.08h-.69c-.16.2-.29.41-.41.7-.49,1.02-1.02,2-1.63,2.94h4.29c3.84,0,5.15-.08,5.4-.08.37,0,.41.04.41.45v2.7c0,.41-.04.45-.41.45-.25,0-1.59-.08-5.44-.08h-23.63l.04,2.58c0,2.58-.16,5.23-.45,7.69,2.29-2.21,3.56-4.46,4.7-7.24.25-.57.41-1.27.53-2.13,1.27.25,2.66.53,3.56.86.49.16.53.33.53.49,0,.2-.12.33-.29.49-.25.25-.53.86-.78,1.47l-.25.61h4.86v-.45c0-1.59-.08-2.33-.33-3.6,1.51.04,2.86.12,4.25.25.41.04.65.2.65.41,0,.29-.12.53-.25.82-.12.33-.2.86-.2,2.13v.45h4.37c3.8,0,5.07-.08,5.31-.08.41,0,.45.04.45.45v2.78c0,.41-.04.45-.45.45-.25,0-1.51-.08-5.31-.08h-4.37v3.11h2.9c3.76,0,5.03-.08,5.27-.08.41,0,.45.04.45.45v2.7c0,.41-.04.45-.45.45-.25,0-1.51-.08-5.27-.08h-2.9v3.52h6.66c3.97,0,5.36-.08,5.6-.08.41,0,.45.04.45.45v2.78c0,.45-.04.49-.45.49-.25,0-1.63-.08-5.6-.08h-17.62Zm1.76-29.02c.57,1.1,1.1,2.33,1.59,3.64h6.13c.7-1.23,1.27-2.41,1.76-3.64h-9.48Z" style="stroke-width:0px;"/><path d="m247.22,308.39c-3.68,0-4.91.08-5.15.08-.45,0-.49-.04-.49-.45v-2.41c0-.45.04-.49.49-.49.25,0,1.47.08,5.15.08h10.1v-2.21h-5.76c-3.97,0-5.4.08-5.64.08-.41,0-.41-.04-.41-.45v-2.33c0-.45,0-.49.41-.49.25,0,1.68.08,5.64.08h5.76v-2.17h-7.69c-3.92,0-5.23.08-5.48.08-.45,0-.49-.04-.49-.41v-2.41c0-.41.04-.45.49-.45.25,0,1.55.08,5.48.08h2.49c-.45-.98-.86-1.8-1.31-2.58-.2-.37-.25-.53.29-.69l2.66-.74h-6.54c-3.68,0-4.91.08-5.15.08-.45,0-.49-.04-.49-.45v-2.53c0-.45.04-.49.49-.49.25,0,1.47.08,5.15.08h.29c-.65-1.31-1.39-2.33-2.33-3.52-.25-.29-.16-.45.33-.69l2.37-1.1c.41-.2.53-.16.78.16.98,1.19,2,2.58,2.74,3.96.21.37.21.41-.33.69l-.98.49h3.8v-2.7c0-1.43,0-2.41-.25-3.56,1.27.04,2.86.12,3.96.25.33.04.49.16.49.37,0,.25-.08.45-.16.69-.12.29-.25.9-.25,2.25v2.7h3.31v-2.66c0-1.47,0-2.45-.25-3.6,1.23.04,2.82.12,3.92.29.37.04.53.16.53.37s-.08.45-.16.65c-.12.29-.25.9-.25,2.25v2.7h2.53c.74-1.14,1.31-2.17,1.88-3.35.29-.61.53-1.23.7-2.21,1.43.29,2.86.7,3.96,1.06.37.12.53.33.53.53,0,.33-.16.49-.41.7-.29.25-.49.49-.69.78-.53.86-1.1,1.68-1.68,2.49h.57c3.68,0,4.91-.08,5.15-.08.41,0,.45.04.45.49v2.53c0,.41-.04.45-.45.45-.25,0-1.47-.08-5.15-.08h-7.15c1.06.2,2,.41,3.23.74.33.08.53.25.53.49,0,.29-.2.49-.45.61-.2.12-.41.57-.57.86l-.74,1.31h2.66c3.92,0,5.23-.08,5.48-.08.41,0,.45.04.45.45v2.41c0,.37-.04.41-.45.41-.25,0-1.55-.08-5.48-.08h-8.26v2.17h6.5c4.01,0,5.4-.08,5.64-.08.41,0,.45.04.45.49v2.33c0,.41-.04.45-.45.45-.25,0-1.64-.08-5.64-.08h-6.5v2.21h10.75c3.68,0,4.91-.08,5.15-.08.41,0,.45.04.45.49v2.41c0,.41-.04.45-.45.45-.25,0-1.47-.08-5.15-.08h-7.28c3.43,2.41,7.73,4.01,13.61,5.31-.53.65-1.1,1.51-1.59,2.62-.33.78-.49,1.06-.9,1.06-.2,0-.49-.08-.94-.2-5.52-1.59-10.38-4.29-13.74-7.32,0,4.86.2,7.4.2,8.09,0,.41-.04.45-.45.45h-3.47c-.37,0-.41-.04-.41-.45,0-.69.12-3.07.16-7.93-3.43,3.27-7.69,5.56-13.12,7.32-.45.16-.74.25-.94.25-.37,0-.53-.29-.9-1.06-.53-1.06-1.1-1.92-1.63-2.45,5.44-1.35,9.61-3.02,13.04-5.68h-6.62Zm15.78-13.78c.37-.69.7-1.39,1.1-2.37.2-.45.29-.86.45-1.64h-10.42c.12.04.2.16.33.33.61,1.02,1.27,2.25,1.84,3.68h6.7Z" style="stroke-width:0px;"/><path d="m286.05,292.74c-2.66,0-3.43.08-3.68.08-.41,0-.45-.04-.45-.45v-2.86c0-.41.04-.45.45-.45.25,0,1.02.08,3.68.08h.61v-2.58c0-2.45-.04-3.84-.29-5.48,1.51.04,2.7.12,3.97.29.37.08.65.2.65.45,0,.33-.12.53-.25.82-.2.53-.29,1.19-.29,3.88v2.62c2.13,0,2.82-.08,3.07-.08.45,0,.49.04.49.45v2.86c0,.41-.04.45-.49.45-.2,0-.9-.04-2.78-.08.86,2.7,2.45,5.27,4.13,7.32-.53.7-.98,1.55-1.35,2.45-.2.49-.33.78-.53.78-.12,0-.29-.16-.49-.57-.82-1.51-1.59-3.15-2.17-5.03.04,10.83.29,19.7.29,20.36,0,.41-.04.45-.41.45h-3.27c-.41,0-.45-.04-.45-.45,0-.61.25-8.58.29-18.03-.78,3.11-1.84,5.89-3.27,8.42-.2.45-.41.69-.57.69s-.33-.2-.45-.65c-.37-1.19-.94-2.37-1.43-3.02,2.45-3.6,4.17-7.64,5.27-12.71h-.29Zm11.2,17.74c.41-.49.74-1.02,1.06-1.76,1.06.37,2.13.82,3.07,1.31.33.16.45.29.45.49s-.12.41-.37.57c-.33.2-.53.45-.82.9-1.35,1.84-2.53,3.19-4.5,4.78-.45.37-.7.57-.94.57s-.45-.25-.94-.74c-.65-.69-1.47-1.31-2.12-1.68,2.29-1.39,3.92-2.9,5.11-4.46Zm2.45-2.49c-3.97,0-5.31.08-5.56.08-.45,0-.49-.04-.49-.45v-2.53c0-.45.04-.49.49-.49.25,0,1.59.08,5.56.08h13.49c4.01,0,5.4-.08,5.6-.08.41,0,.45.04.45.49v2.53c0,.41-.04.45-.45.45-.2,0-1.59-.08-5.6-.08h-4.95v1.43c0,1.59.08,3.23.08,4.7,0,1.68-.29,2.53-1.23,3.27-.78.61-1.84.82-4.46.82q-1.23,0-1.51-1.23c-.21-.9-.53-1.76-.94-2.49,1.19.16,2.13.25,2.86.25.9,0,1.35-.57,1.35-1.43v-5.31h-4.7Zm.25-21.91c-3.97,0-5.31.08-5.56.08-.41,0-.45-.04-.45-.49v-2.62c0-.41.04-.45.45-.45.25,0,1.59.08,5.56.08h13.08c3.96,0,5.35-.08,5.6-.08.37,0,.41.04.41.45v2.62c0,.45-.04.49-.41.49-.25,0-1.64-.08-5.6-.08h-2.08v2.62h.65c3.84,0,5.19-.08,5.48-.08.41,0,.45.04.45.45,0,.25-.08.9-.08,2.7v2.62c0,1.8.08,2.45.08,2.7,0,.45-.04.49-.45.49-.29,0-1.63-.08-5.48-.08h-10.38c-3.84,0-5.19.08-5.44.08-.41,0-.45-.04-.45-.49,0-.25.08-.9.08-2.7v-2.62c0-1.8-.08-2.41-.08-2.7,0-.41.04-.45.45-.45.25,0,1.51.08,5.36.08h.57v-2.62h-1.76Zm2.08,16.6c-3.6,0-4.87.08-5.11.08-.41,0-.45-.04-.45-.45v-2.49c0-.41.04-.45.45-.45.25,0,1.51.08,5.11.08h8.71c3.68,0,4.91-.08,5.15-.08.41,0,.45.04.45.45v2.49c0,.41-.04.45-.45.45-.25,0-1.47-.08-5.15-.08h-8.71Zm-.33-8.05v-3.11h-2.9v3.11h2.9Zm5.93-8.54h-2.62v2.62h2.62v-2.62Zm-2.62,8.54h2.62v-3.11h-2.62v3.11Zm7.93,14.43c.45-.29.53-.29.78.04,1.55,1.92,3.6,3.64,6.09,5.07-.65.61-1.23,1.31-1.76,2.13-.37.65-.57.94-.78.94s-.49-.2-.94-.57c-2.12-1.68-4.01-3.56-5.56-5.68-.25-.41-.25-.49.25-.82l1.92-1.1Zm.9-17.54h-2.9v3.11h2.9v-3.11Z" style="stroke-width:0px;"/><path d="m325,289.18c.29-.37.37-.41.78-.25,1.8.74,3.64,1.76,5.35,2.98.29.25.29.33,0,.78l-1.59,2.21c-.37.53-.45.53-.86.25-1.59-1.31-3.47-2.33-5.19-3.15-.2-.08-.33-.2-.33-.33s.08-.29.25-.49l1.59-2Zm13.82,18.89c-.04-1.02-.12-1.76-.25-2.9,1.51.04,2.98.12,4.41.29.33.04.57.2.57.41,0,.29-.16.53-.29.86-.08.29-.12.69-.12,1.35h10.71c3.64,0,4.91-.08,5.15-.08.41,0,.45.04.45.49v2.94c0,.41-.04.45-.45.45-.25,0-1.51-.08-5.15-.08h-10.71v1.51c0,3.11.08,4.46.08,4.66,0,.41-.04.45-.45.45h-3.56c-.41,0-.45-.04-.45-.45,0-.25.08-1.55.08-4.66v-1.51h-10.1c-3.64,0-4.86.08-5.11.08-.45,0-.49-.04-.49-.45v-2.94c0-.45.04-.49.49-.49.25,0,1.47.08,5.11.08h10.06Zm-5.89-9.65c.12.37.2.61.2.86,0,.41-.25.74-.82,1.31-1.55,1.59-3.43,3.19-4.86,4.29-.53.41-.86.82-.98,1.02-.16.29-.37.41-.57.41s-.37-.16-.57-.49c-.61-.9-1.43-2.29-1.96-3.39,1.06-.49,2.08-1.06,2.9-1.64,1.8-1.31,4.01-3.15,5.85-5.19.2.9.49,1.92.82,2.82Zm-5.52-16.72c.29-.33.45-.33.82-.2,1.88.9,3.52,1.88,5.31,3.23.16.16.29.25.29.37,0,.08-.08.2-.25.37l-1.68,2.25c-.33.41-.53.41-.86.12-1.55-1.23-3.39-2.41-5.27-3.35-.37-.2-.37-.29,0-.74l1.63-2.04Zm8.67,11c-.2.16-.37.37-.53.53-.41.41-.65.65-.9.65-.2,0-.45-.25-.86-.74-.57-.74-1.23-1.31-1.92-1.76,2.94-2.53,4.95-5.4,6.13-8.01.29-.65.69-1.72.86-2.58,1.35.25,2.62.53,3.76.82.41.12.61.29.61.57,0,.25-.12.45-.45.69-.25.2-.7.78-1.02,1.51-.21.49-.49.98-.74,1.47h5.15c.49-.94.94-1.92,1.19-2.58.29-.74.53-1.47.7-2.33,1.43.25,2.62.49,3.76.86.29.08.53.25.53.45,0,.33-.12.45-.41.69s-.45.45-.57.69c-.33.57-.82,1.47-1.31,2.21h2.7c3.47,0,4.66-.08,4.91-.08.45,0,.49.04.49.49v2.21c0,.45-.04.49-.49.49-.25,0-1.43-.08-4.91-.08h-3.15v2.29h1.96c3.43,0,4.5-.08,4.74-.08.45,0,.49.04.49.45v2.17c0,.41-.04.45-.49.45-.25,0-1.31-.08-4.74-.08h-1.96v2.33h1.88c3.43,0,4.54-.08,4.78-.08.41,0,.45.04.45.45v2.17c0,.41-.04.45-.45.45-.25,0-1.35-.08-4.78-.08h-1.88v2.33h3.11c3.84,0,5.15-.04,5.4-.04.45,0,.49,0,.49.41v2.29c0,.41-.04.45-.49.45-.25,0-1.55-.08-5.4-.08h-10.75c-3.88,0-5.27.08-5.52.08-.41,0-.45-.04-.45-.45,0-.29.08-1.72.08-4.78v-6.83Zm9.77-1.51v-2.29h-5.93v2.29h5.93Zm0,5.23v-2.33h-5.93v2.33h5.93Zm0,5.23v-2.33h-5.93v2.33h5.93Z" style="stroke-width:0px;"/><path d="m372.29,288.2c3.15,0,4.13-.08,4.37-.08.41,0,.45.04.45.45v2.9c0,.45-.04.49-.45.49-.25,0-1.23-.08-4.37-.08h-3.8c-3.11,0-4.13.08-4.37.08-.41,0-.45-.04-.45-.49v-2.9c0-.41.04-.45.45-.45.25,0,1.27.08,4.37.08h3.8Zm10.18,6.13c0,11.32-.61,17.74-3.02,22.89-.25.57-.45.86-.7.86-.2,0-.45-.2-.82-.61-.61-.7-1.31-1.31-1.96-1.68.04.82.08,1.06.08,1.19,0,.41-.04.45-.41.45h-2.78c-.41,0-.45-.04-.45-.45v-1.1h-3.64v2c0,.41-.04.45-.45.45h-2.74c-.45,0-.49-.04-.49-.45,0-.29.08-.9.08-5.97v-2.62c0-2.58-.08-3.56-.08-3.84,0-.41.04-.45.49-.45.25,0,1.1.08,3.72.08h2.54c2.66,0,3.52-.08,3.8-.08.37,0,.41.04.41.45,0,.25-.08,1.23-.08,3.15v6.09c2.29-4.42,2.62-11.12,2.62-20.97v-5.19c0-3.64-.08-5.52-.08-5.8,0-.41.04-.45.45-.45.29,0,1.55.08,5.31.08h9.73c3.76,0,5.07-.08,5.31-.08.41,0,.45.04.45.45,0,.25-.08,2.17-.08,5.8v18.4c0,3.02.12,5.11.12,6.79,0,1.55-.29,2.49-1.23,3.27-.82.69-1.68.98-4.95.98-.86,0-1.02-.08-1.14-.86-.21-1.23-.61-2.49-1.1-3.27,1.19.12,2.08.2,3.27.16.94,0,1.1-.37,1.1-1.39v-26.57h-13.29v8.3Zm-10.59-11.73c2.66,0,3.47-.08,3.72-.08.41,0,.45.04.45.45v2.74c0,.41-.04.41-.45.41-.25,0-1.06-.04-3.72-.04h-2.58c-2.66,0-3.47.04-3.72.04-.41,0-.45,0-.45-.41v-2.74c0-.41.04-.45.45-.45.25,0,1.06.08,3.72.08h2.58Zm-.21,11.45c2.49,0,3.23-.08,3.47-.08.45,0,.49.04.49.41v2.66c0,.41-.04.45-.49.45-.25,0-.98-.08-3.47-.08h-2.21c-2.49,0-3.23.08-3.47.08-.41,0-.45-.04-.45-.45v-2.66c0-.37.04-.41.45-.41.25,0,.98.08,3.47.08h2.21Zm0,5.48c2.49,0,3.23-.08,3.47-.08.45,0,.49.04.49.45v2.62c0,.41-.04.45-.49.45-.25,0-.98-.08-3.47-.08h-2.21c-2.49,0-3.23.08-3.47.08-.41,0-.45-.04-.45-.45v-2.62c0-.41.04-.45.45-.45.25,0,.98.08,3.47.08h2.21Zm-2.9,8.95v4.01h3.64v-4.01h-3.64Zm22.07-18.07c2.04,0,2.98-.08,3.23-.08.41,0,.45.04.45.45v2.17c0,.41-.04.45-.45.45-.25,0-1.19-.08-3.23-.08h-.16v3.07h.49c2.08,0,3.11-.08,3.35-.08.41,0,.45.04.45.45v2.25c0,.41-.04.45-.45.45-.25,0-1.27-.08-3.35-.08h-4.62c-1.59,0-2.62.08-2.82.08-.45,0-.49-.04-.49-.45v-2.25c0-.41.04-.45.49-.45.2,0,1.23.08,2.82.08h.61v-3.07h-.25c-1.51,0-2.45.08-2.74.08-.41,0-.41-.04-.41-.45v-2.17c0-.41,0-.45.41-.45.29,0,1.23.08,2.74.08h.25v-.08c0-1.55-.04-2.37-.29-3.68,1.1.08,2.53.16,3.6.29.41.08.65.25.65.45,0,.33-.12.53-.25.78-.16.33-.2.78-.2,2.13v.12h.16Zm2.7,17.01c0,3.6.08,4.46.08,4.7,0,.41-.04.45-.45.45h-2.33c-.41,0-.45-.04-.45-.45v-.86h-3.15v1.76c0,.41-.04.45-.45.45h-2.33c-.45,0-.49-.04-.49-.45,0-.29.08-1.1.08-5.27v-2.21c0-2.25-.08-3.15-.08-3.39,0-.41.04-.45.49-.45.25,0,.9.08,3.03.08h2.66c2.12,0,2.74-.08,3.02-.08.41,0,.45.04.45.45,0,.2-.08,1.14-.08,2.82v2.45Zm-6.29-2.74v3.72h3.15v-3.72h-3.15Z" style="stroke-width:0px;"/><path d="m411.65,289.06c-3.76,0-5.07.08-5.31.08-.41,0-.45-.04-.45-.41v-2.86c0-.45.04-.49.45-.49.25,0,1.55.08,5.31.08h9.24v-.12c0-1.8-.04-2.74-.29-4.54,1.47.04,2.78.12,4.17.29.41.04.61.29.61.53,0,.29-.12.49-.2.78-.16.33-.25.78-.25,2.41v.65h9.81c3.76,0,5.07-.08,5.31-.08.41,0,.45.04.45.49v2.86c0,.37-.04.41-.45.41-.25,0-1.55-.08-5.31-.08h-6.99c3.6,3.39,8.42,5.8,14.47,7.48-.74.78-1.31,1.63-1.76,2.7-.33.78-.45,1.06-.78,1.06-.2,0-.49-.12-.94-.33-1.55-.65-3.02-1.39-4.42-2.17-.04.57-.08,1.92-.08,4.29v11.32h1.92c3.56,0,4.78-.08,5.03-.08.37,0,.41.04.41.45v2.94c0,.41-.04.45-.41.45-.25,0-1.47-.08-5.03-.08h-25.88c-3.56,0-4.78.08-5.03.08-.41,0-.45-.04-.45-.45v-2.94c0-.41.04-.45.45-.45.25,0,1.47.08,5.03.08h1.76v-11.32c0-2.49-.08-3.84-.08-4.37-1.47.86-2.94,1.64-4.37,2.29-.45.2-.74.37-.98.37-.29,0-.45-.29-.78-1.02-.45-.98-1.06-1.84-1.68-2.45,5.52-1.76,10.18-4.29,13.82-7.85h-6.34Zm9.61,7.15c-.41,0-.45-.04-.45-.45,0-.9.2-3.19.25-5.52-2.17,2.66-5.03,4.95-8.05,6.87.69,0,2.12.04,4.86.04h10.63c2.49,0,3.88,0,4.66-.04-3.35-1.96-6.25-4.29-8.38-6.83.04,2.21.25,4.58.25,5.48,0,.41-.04.45-.45.45h-3.31Zm-5.15,4.37v2.21h14.1v-2.21h-14.1Zm14.1,7.52v-2.21h-14.1v2.21h14.1Zm0,5.31v-2.25h-14.1v2.25h14.1Z" style="stroke-width:0px;"/><path d="m455.92,293.96c-2.29,1.68-4.78,3.15-7.4,4.42-.49.25-.78.37-.98.37-.29,0-.41-.29-.74-1.02-.49-1.02-1.06-1.92-1.84-2.7,7.11-2.82,12.43-7.15,15.7-11.9.7-1.02,1.06-1.72,1.43-2.66,1.59.2,3.11.49,4.42.86.49.12.74.29.74.57,0,.25-.08.49-.41.65-.25.12-.41.25-.57.37,4.62,5.64,10.14,9.2,17.29,11.69-.78.98-1.31,1.96-1.76,3.07-.29.74-.41,1.02-.7,1.02-.2,0-.49-.12-.94-.33-2.78-1.23-5.44-2.66-7.81-4.33v3.02c0,.41-.04.45-.45.45-.25,0-1.35-.08-4.62-.08h-6.3c-3.27,0-4.37.08-4.62.08-.41,0-.45-.04-.45-.45v-3.11Zm-2.62,11.08c-3.84,0-5.15.08-5.4.08-.45,0-.49-.04-.49-.45v-3.07c0-.41.04-.45.49-.45.25,0,1.55.08,5.4.08h21.79c3.84,0,5.15-.08,5.4-.08.45,0,.49.04.49.45v3.07c0,.41-.04.45-.49.45-.25,0-1.55-.08-5.4-.08h-12.63c-1.02,2.53-2.25,5.11-3.64,7.69,4.25-.25,8.71-.61,12.59-1.02-.94-1.14-1.88-2.29-2.98-3.47-.29-.33-.25-.49.25-.74l2.62-1.35c.45-.25.57-.2.86.08,2.78,2.9,5.11,5.85,7.6,9.48.2.33.2.49-.21.78l-2.82,1.84c-.25.16-.37.25-.49.25s-.21-.08-.33-.29c-.7-1.14-1.39-2.21-2.04-3.19-6.79.86-15.12,1.55-22.07,2.08-.65.04-1.19.2-1.47.37-.2.16-.41.25-.7.25s-.49-.2-.57-.57c-.37-1.35-.61-2.78-.86-4.21,1.51.12,2.86.08,4.46,0,.41,0,.86-.04,1.31-.04,1.47-2.78,2.66-5.4,3.6-7.93h-4.25Zm13.98-11.4c2.74,0,3.96-.04,4.41-.08-2.94-2.13-5.52-4.62-7.73-7.48-2.17,2.86-4.66,5.35-7.48,7.48.37.04,1.51.08,4.5.08h6.3Z" style="stroke-width:0px;"/><g id="uuid-d78c2479-b708-40cc-8bde-05d2798fd3cf"><path d="m189.77,267.4c-2.67-10.81-5.38-21.76-8.15-32.99,12.08,0,23.48.17,34.86-.12,2.82-.07,7.63-1.09,7.99-2.56.74-2.96.05-7.28-1.79-9.72-10.03-13.33-20.26-26.54-31.05-39.25-12.65-14.89-15.43-34.46-4.18-50.04,4.08-5.65,12.12-10.61,18.99-11.62,12.81-1.9,26.07-.68,39.15-.76,2.65-.01,5.3,0,8.07,0,2.62,10.69,5.2,21.17,8.22,33.48h-41.78c-.75,1.15-1.5,2.3-2.26,3.46,5.22,7.09,10.49,14.14,15.65,21.28,10.08,13.95,21.51,27.18,29.72,42.16,7.52,13.72,1.29,32.51-11.44,40.93-4.81,3.18-11.17,5.2-16.94,5.5-14.7.76-29.47.25-45.08.25Z" style="fill:#050505; stroke-width:0px;"/><path d="m52.04,335.72c-4.66-10.2-9.25-20.25-13.49-29.55,7.17-5.37,14.49-9.29,19.57-15.15,4.06-4.68,7.43-11.68,7.58-17.74,1.01-39.23,1.08-78.49,1.29-117.75,0-.97-1.92-2.79-2.96-2.8-7.43-.07-14.86.29-22.29.27-.46,0-1.52-2.19-1.29-3.13,2.16-9,4.48-17.97,6.9-26.9.27-1,1.39-2.53,2.12-2.54,17.14-.14,34.29-.11,51.82-.11,0,2.58,0,4.96,0,7.34-.08,49.66.53,99.33-.58,148.97-.48,21.4-11.15,38.45-30.82,48.86-5.9,3.12-11.59,6.62-17.86,10.23Z" style="fill:#050505; stroke-width:0px;"/><path d="m271.9,173.11c2.72-10.38,3.99-21.45,8.52-30.98,5.6-11.79,16.64-19.2,29.7-20.42,13.79-1.29,27.8-.29,41.96-.29,2.32,9.68,4.85,20.25,7.49,31.31h-35.45c-3.35,2.57-9.11,5.42-12.64,10-6.77,8.8-6.11,34.92,1.02,43.48,6.99,8.39,14.15,17.31,23.09,23.16,6.79,4.44,16.49,4.42,25.54,6.53-2.37,9.61-4.99,20.24-8.15,33.05-10.6-2.27-22.46-2.89-32.47-7.5-9.97-4.6-19.98-11.79-26.55-20.44-8.15-10.73-13.37-23.89-18.68-36.5-2.53-6.01-2.32-13.18-3.35-19.81-.01-3.86-.02-7.73-.04-11.59Z" style="fill:#050505; stroke-width:0px;"/><path d="m161.97,120.52v146.74h-34.74c-.28-.45-.69-1.11-1.08-1.74.32-.81.58-1.47.44-1.13V120.52h35.37Z" style="fill:#050505; stroke-width:0px;"/></g><circle cx="79.36" cy="80.29" r="26.98" style="fill:#40fcfb; stroke-width:0px;"/></svg>