<?xml version="1.0" encoding="UTF-8"?>
<svg width="600" height="465" version="1.1" xmlns="http://www.w3.org/2000/svg">
 <g fill="#003e65" stroke-width="1.4798">
  <path d="m161.68 269.48c0 28.25-23.031 52.157-50.846 52.157h-66.076v-180.37h66.076c27.815 0 50.846 23.906 50.846 52.156zm-50.846-171.68h-110.83v267.29h110.83c51.722 0 95.62-43.897 95.62-95.62v-76.057c0-51.722-43.897-95.62-95.62-95.62"/>
  <path d="m0.087306 0.086517h599.91v38.567h-599.91z"/>
  <path d="m262.3 97.796h44.763v267.29h-44.763z"/>
  <path d="m371.8 97.796h43.462c46.694 64.358 93.721 128.47 139.94 193.17v-193.17h44.776v267.29h-43.462c-47.057-64.499-94.485-128.72-139.95-194.35v193.92h-44.763z"/>
  <path d="m599.99 465h-599.91v-40.705h599.91z"/>
 </g>
</svg>
