<svg fill="none" height="80" viewBox="0 0 76 80" width="76" xmlns="http://www.w3.org/2000/svg" xmlns:xlink="http://www.w3.org/1999/xlink"><clipPath id="a"><path d="m0 0h76v80h-76z"/></clipPath><g clip-path="url(#a)"><path d="m5.84616 23.1377h-5.84616c21.8188-27.84203 47.3238-22.555049 65.6758-10.6062 3.376 2.1699 6.8236 4.8129 10.3242 7.9904-3.0757-2.7918-6.5485-5.5321-10.3242-7.9904-29.5134-18.96907-53.5635-1.7826-59.82964 10.6062z" fill="#ffd600"/><path d="m0 23.1377c14.1282-27.46646 51.1539-33.01595 75.5128-2.6159-33.6153-30.8361-62.8462-14.269-75.5128 2.6159z" fill="#0d47a1"/><path d="m16.5642 5.38085c17.0513-9.59141 41.4102-7.41197 58.9487 15.14105-15.5897-16.88536-36.0512-26.47667-58.9487-15.14105z" fill="#42a5f5"/><path d="m33.1282 3.63696c-17.0513 1.30793-28.74359 13.51524-33.1282 19.61884l5.84616-.1181c1.46153-8.2836 11.30254-17.75684 27.28204-19.50074z" fill="#ffeb3b"/><path d="m70.1539 56.8623h5.8461c-21.8188 27.8421-47.3238 22.5551-65.6758 10.6062-3.37604-2.1699-6.8236-4.8129-10.3242-7.9904 3.07572 2.7919 6.54859 5.5321 10.3242 7.9904 29.5134 18.9691 53.5635 1.7826 59.8297-10.6062z" fill="#ffd600"/><path d="m76.0001 56.8623c-14.1282 27.4664-51.1539 33.0159-75.512795 2.6158 33.615295 30.8361 62.846195 14.2691 75.512795-2.6158z" fill="#0d47a1"/><path d="m59.436 74.6192c-17.0512 9.5914-41.4102 7.412-58.948695-15.1411 15.589795 16.8854 36.051195 26.4767 58.948695 15.1411z" fill="#42a5f5"/><path d="m42.8721 76.3631c17.0512-1.308 28.7436-13.5153 33.1282-19.6189l-5.8461.1181c-1.4616 8.2836-11.3027 17.7569-27.2821 19.5008z" fill="#ffeb3b"/><g fill="#0d47a1"><path d="m16.9619 28.2287h5.8059v15.2815c0 1.7158-.4782 3.2171-1.4347 4.504-.9475 1.2868-2.275 2.2903-3.9824 3.0103-1.7073.7124-3.6963 1.0685-5.9668 1.0685-2.27945 0-4.27287-.3561-5.98023-1.0685-1.70736-.72-3.03482-1.7235-3.98236-3.0103-.947539-1.2869-1.42131-2.7882-1.42131-4.504v-15.2815h5.80592v14.8563c0 .8962.22796 1.6929.68384 2.3899.46484.697 1.11739 1.2447 1.95767 1.6431.84026.3983 1.81917.5975 2.93647.5975 1.1264 0 2.1051-.1992 2.9365-.5975.8403-.3984 1.4884-.9461 1.9443-1.6431.4648-.697.6972-1.4937.6972-2.3899z"/><path d="m32.2779 51.7598h-6.2215l9.4799-23.5311h7.482l9.4664 23.5311h-6.2215l-6.8787-18.1538h-.2145zm-.3888-9.2493h14.6958v3.8836h-14.6958z"/><path d="m70.06 34.9962c-.1073-.9269-.5677-1.6469-1.3811-2.1601s-1.9174-.7698-3.312-.7698c-.9475 0-1.7475.1149-2.4.3447-.6526.2221-1.1532.5324-1.5018.9307-.3397.3983-.5096.8502-.5096 1.3558-.0178.4213.085.7889.3085 1.103.2324.314.5497.5859.952.8158.4022.2221.8671.4174 1.3945.5859.5273.1609 1.0905.2987 1.6895.4137l2.4671.5055c1.1979.2299 2.2974.5362 3.2985.9192 1.0012.383 1.8683.8541 2.6013 1.4133.733.5591 1.3007 1.2178 1.7029 1.9762.4112.7584.6213 1.6278.6302 2.6082-.0089 1.44-.438 2.6886-1.2872 3.7457-.8403 1.0494-2.056 1.8651-3.6472 2.4473-1.5822.5745-3.4907.8617-5.7254.8617-2.217 0-4.1477-.291-5.7926-.8732-1.6358-.5821-2.9141-1.4439-3.8348-2.5852-.9117-1.149-1.3901-2.5699-1.4347-4.2627h5.6182c.0626.7889.3263 1.4477.791 1.9762.4739.5209 1.104.9153 1.8907 1.1834.7956.2605 1.694.3907 2.6951.3907.9833 0 1.837-.1226 2.5611-.3677.733-.2451 1.3006-.5859 1.7029-1.0225.4022-.4366.6033-.9384.6033-1.5052 0-.5286-.1832-.9728-.5497-1.3328-.3575-.36-.885-.6665-1.5822-.9192-.6883-.2527-1.5331-.4826-2.5342-.6894l-2.9901-.6434c-2.3153-.4826-4.1434-1.2371-5.4842-2.2635s-2.0068-2.409-1.9978-4.1478c-.009-1.4247.4335-2.6695 1.3274-3.7342.9029-1.0648 2.1409-1.8958 3.7142-2.4933 1.5732-.5975 3.3611-.8962 5.3634-.8962 2.0382 0 3.817.2987 5.3367.8962 1.5285.5975 2.7174 1.4285 3.5666 2.4933.8492 1.0647 1.2873 2.2979 1.3141 3.6997z"/></g></g></svg>