<?xml version="1.0" encoding="utf-8"?>
<!-- Generator: Adobe Illustrator 16.0.0, SVG Export Plug-In . SVG Version: 6.00 Build 0)  -->
<!DOCTYPE svg PUBLIC "-//W3C//DTD SVG 1.1//EN" "http://www.w3.org/Graphics/SVG/1.1/DTD/svg11.dtd">
<svg version="1.1" id="Layer_1" xmlns="http://www.w3.org/2000/svg" xmlns:xlink="http://www.w3.org/1999/xlink" x="0px" y="0px"
	 width="360px" height="254px" viewBox="0 0 360 254" enable-background="new 0 0 360 254" xml:space="preserve">
<path fill-rule="evenodd" clip-rule="evenodd" fill="#2957A3" d="M181.799,62.746c2.369,0,5.332,1.185,8.884,4.737l69.275,69.272
	c11.244,11.249,4.736,20.132-10.07,18.949h-68.089l40.854,42.036h87.037c26.643,1.186,47.957-23.683,21.314-49.141L209.629,27.815
	c-10.065-10.067-18.946-16.58-27.83-16.58c-8.881,0-17.761,6.513-27.826,16.58L32.597,148.599
	c-26.642,25.458-5.328,50.327,21.314,49.141h87.037l40.851-42.036h-68.088c-14.802,1.184-21.314-7.7-10.064-18.949l69.272-69.272
	C176.471,63.931,179.434,62.746,181.799,62.746"/>
<path fill-rule="evenodd" clip-rule="evenodd" fill="#ED3338" d="M181.387,103.164c13.903,0,25.167,11.265,25.167,25.162
	c0,13.9-11.265,25.165-25.167,25.165c-13.896,0-25.162-11.265-25.162-25.165C156.225,114.428,167.49,103.164,181.387,103.164"/>
<path fill-rule="evenodd" clip-rule="evenodd" fill="#2957A3" d="M181.528,243.134h127.293c20.728-0.592,26.056-5.921,43.226-39.667
	c-23.682,22.498-29.01,23.682-43.226,23.682c-42.029,0-84.663,0-127.293,0c-42.627,0-85.258,0-127.296,0
	c-14.209,0-19.538-1.184-43.223-23.682c17.169,33.746,22.5,39.075,43.223,39.667H181.528z"/>
<path fill="#ED3338" d="M291.766,218.144h3.867v2.667h-3.867V218.144z M291.766,210.479h3.867v2.667h-3.867V210.479z
	 M267.519,216.03c0-4.302,6.606-4.019,6.606-4.019l0.732,1.857c-0.657-0.163-4.052-0.223-4.198,2.108
	c-0.076,1.194,1.059,2.167,2.482,2.167c2.004,0.054,3.069-1.249,3.069-1.304v-6.382h-10.7v-1.863h23.736v1.863h-9.755v2.803
	c0,0,1.136-1.032,3.363-1.032c2.775,0,5.111,1.721,5.111,3.748c0,2.694-3.835,5.138-3.835,5.138l-2.444-1.303
	c0.076,0,2.993-1.776,2.993-3.781c0-0.967-0.766-1.966-2.188-1.966c-1.641,0-2.999,1.641-2.999,1.694v6.887h-3.281v-3.313
	C272.631,221.114,267.519,219.561,267.519,216.03z M265.075,202.628v1.415c-0.598-0.223-1.064-0.223-1.798-0.223
	c-3.362,0-2.993,4.194-0.364,4.775h-2.118c-0.663-0.278-2.444-1.831-2.374-3.246C258.492,202.794,262.289,201.379,265.075,202.628z
	 M256.927,208.595h8.072v1.863h-1.934v12.188h-3.361v-12.188h-2.776V208.595z M250.725,213.038c1.13,0.054,2.189-0.527,2.412-0.973
	c0.218-1.83-4.568-2.552-4.568-0.391C248.568,212.511,249.59,213.038,250.725,213.038z M242.8,208.595h14.127v1.863h-1.716
	c2.999,3.021,0.218,7.518-4.779,7.8c0.146,0,1.206,0.805,2.009,1.25c1.423,0.804,2.7,1.499,2.77,1.554l-1.933,1.749
	c-3.281-1.249-6.062-3.64-8.615-5.584l2.118-1.521l1.238,0.803c0.076,0,0.549,0.331,1.423,0.163c2.922-0.472,3.401-1.771,3.471-2.39
	c-3.395,1.749-8.761-0.744-6.752-3.824H242.8V208.595z M224.397,208.595h18.473v1.863h-3.503v3.883h-7.773
	c-0.989,0-1.868,0.614-1.868,1.581c-0.033,2.553,4.785,3.465,5.735,2.971c-0.141-0.304,0.217-2.33,2.553-2.385
	c2.487,0,2.922,2.939,0.733,3.52c0,0.055,0.473,0.918,0.912,1.418c0.511,0.695,1.423,1.7,1.423,1.7h-3.433
	c0,0-0.549-0.782-0.842-1.26c-0.217-0.44-0.358-0.716-0.581-1.076c-0.147,0.055-9.891,0.359-9.827-5.105
	c0-1.755,2.124-3.194,4.568-3.194h5.035v-2.053h-11.607V208.595z M218.732,216.954v1.635l-8.104,4.057l-1.863-1.836L218.732,216.954
	z M215.419,218.671c-4.345-0.055-5.736-3.026-5.736-3.884v-4.33h-2.412v-1.863h16.763v1.863H222.1v12.188h-3.286v-4.671
	C217.678,218.529,216.983,218.671,215.419,218.671z M218.814,210.458h-5.839v4.443c0,1.021,0.727,1.994,2.585,2.054
	c1.754,0,3.14-1.141,3.254-1.423V210.458z M199.135,208.595h8.066v1.863h-1.933v12.188h-3.363v-12.188h-2.77V208.595z
	 M192.307,212.229v1.64c-0.804,0.054-4.492-0.277-4.492-2.775c0-1.695,2.189-2.833,4.639-2.776c3.171,0,5.839,1.972,5.839,4.303
	c0,2.39-3.069,4.442-6.057,4.334c0,0,0.983,1.466,3.684,1.412c3.579,0,6.279-2.776,6.354-2.999v3.107
	c-5.149,3.302-13.47,1.667-14.896-3.575c0.217,0.109,1.497,0.305,3.066,0.358c2.118,0,4.562-0.809,4.562-2.803
	c0-1.141-0.651-2.335-2.552-2.335C190.297,210.121,190.225,212.229,192.307,212.229z M178.614,218.671
	c-4.343-0.055-5.731-3.026-5.731-3.884v-4.33h-2.411v-1.863h16.76v1.863h-1.934v12.188h-3.287v-4.671
	C180.879,218.529,180.184,218.671,178.614,218.671z M182.011,210.458h-5.841v4.443c0,1.021,0.728,1.994,2.591,2.054
	c1.754,0,3.139-1.141,3.25-1.423V210.458z M149.918,218.144h3.867v2.667h-3.867V218.144z M149.918,210.479h3.867v2.667h-3.867
	V210.479z M125.671,216.03c0-4.302,6.61-4.019,6.61-4.019l0.731,1.857c-0.657-0.163-4.053-0.223-4.199,2.108
	c-0.073,1.194,1.06,2.167,2.482,2.167c2.01,0.054,3.066-1.249,3.066-1.304v-6.382h-10.698v-1.863h23.731v1.863h-9.747v2.803
	c0,0,1.134-1.032,3.359-1.032c2.773,0,5.111,1.721,5.111,3.748c0,2.694-3.833,5.138-3.833,5.138l-2.447-1.303
	c0.074,0,2.994-1.776,2.994-3.781c0-0.967-0.767-1.966-2.189-1.966c-1.643,0-2.995,1.641-2.995,1.694v6.887h-3.287v-3.313
	C130.786,221.114,125.671,219.561,125.671,216.03z M105.265,208.595h18.4v1.863h-1.86v12.188h-3.359v-7.224H112.6v1.917
	c0,0.054,0,0.918-0.91,0.858c-1.133-0.054-4.419-3.08-4.419-3.748c0-0.912,1.204-0.972,1.35-0.972h9.824v-3.021h-13.18V208.595z
	 M97.123,208.595h8.069v1.863h-1.934v12.188h-3.362v-12.188h-2.773V208.595z M91.9,210.458h-5.548v4.161H91.9V210.458z
	 M78.72,208.595h18.402v1.863H95.26v12.188H91.9v-6.192h-5.548v1.635c0,0.055-0.074,0.918-1.06,0.918
	c-0.951,0-4.709-3.085-4.709-3.693c0-0.642,1.204-0.696,1.276-0.696h1.28v-4.161H78.72V208.595z"/>
</svg>
