<?xml version="1.0" encoding="utf-8"?>
<!-- Generator: Adobe Illustrator 28.0.0, SVG Export Plug-In . SVG Version: 6.00 Build 0)  -->
<svg version="1.1" id="Layer_1" xmlns="http://www.w3.org/2000/svg" xmlns:xlink="http://www.w3.org/1999/xlink" x="0px" y="0px"
	 viewBox="0 0 93 44" style="enable-background:new 0 0 93 44;" xml:space="preserve">
<style type="text/css">
	.st0{fill:#00C785;}
	.st1{fill:#000C40;}
</style>
<path class="st0" d="M13.3,2C6,2,0,8,0,15.3c0,7.4,6,13.3,13.3,13.3V2z"/>
<path class="st0" d="M0,42l13.3-13.3H0V42z"/>
<path class="st1" d="M13.3,15.3V42c7.4,0,13.3-6,13.3-13.3C26.7,21.3,20.7,15.3,13.3,15.3z"/>
<path class="st1" d="M26.7,2H13.3l13.3,13.3V2z"/>
<path class="st1" d="M36.9,18.8c-1.3,0-2.3-0.7-2.5-2.1H33c0.2,2,1.5,3.2,3.8,3.2c2.4,0,3.7-1.3,3.7-3.2c0-1.5-0.7-2.5-3.4-3.4
	c-1.8-0.5-2.3-0.9-2.3-2c0-1,0.6-1.6,1.9-1.6c1.4,0,2,0.7,2.2,1.8h1.4c-0.1-1.6-1.1-2.9-3.5-2.9c-2,0-3.4,1.1-3.4,2.9
	c0,1.6,0.9,2.3,3.2,3c1.9,0.6,2.5,1.1,2.5,2.3C39,18.2,38.2,18.8,36.9,18.8z"/>
<path class="st1" d="M45.5,19.8v-1c-0.2,0-0.4,0.1-0.6,0.1c-0.7,0-0.9-0.3-0.9-1v-5h1.6v-1.1H44V9.4h-1.3v2.3h-1.3v1.1h1.3v5.3
	c0,1.3,0.6,1.8,1.7,1.8C44.7,19.9,45.2,19.9,45.5,19.8z"/>
<path class="st1" d="M53,18v-3.9c0-1.8-1.2-2.5-2.8-2.5c-2.1,0-2.9,1.1-3,2.4h1.3c0.1-0.9,0.5-1.4,1.7-1.4c1.4,0,1.6,0.8,1.6,1.6V15
	h-1.2c-2.9,0-3.7,1.3-3.7,2.6c0,1.1,0.6,2.4,2.6,2.4c1.3,0,2.1-0.6,2.4-1.4c0,0.4,0,0.8,0.1,1.2h1.2C53.1,19.2,53,18.6,53,18z
	 M51.8,16.1c0,1.7-0.5,2.8-2.1,2.8c-1,0-1.5-0.7-1.5-1.4c0-0.7,0.4-1.5,2.3-1.5h1.3V16.1z"/>
<path class="st1" d="M60.3,14.8v5h1.3v-5.2c0-2.2-1.1-3-2.6-3c-1.3,0-2,0.7-2.4,1.4c0-0.3,0-1.1,0-1.3h-1.3c0,0.3,0,0.8,0,2.5v5.5
	h1.3v-4.3c0-1.7,0.6-2.8,2-2.8C59.9,12.8,60.3,13.7,60.3,14.8z"/>
<path class="st1" d="M68.8,18.6c0,0.5,0,1,0,1.2h1.3c0-0.5,0-1.3,0-2.1V8.2h-1.3v4.3c-0.2-0.4-0.8-1-2.1-1c-2.2,0-3.4,1.9-3.4,4.2
	c0,2.4,1,4.2,3.1,4.2C67.7,20,68.4,19.6,68.8,18.6z M64.6,15.8c0-1.9,0.9-3,2.2-3c1.4,0,2,0.7,2,2.9c0,1.9-0.4,3.2-2.1,3.2
	C65.5,18.8,64.6,17.7,64.6,15.8L64.6,15.8z"/>
<path class="st1" d="M78.1,14.1c0-1.8-1.2-2.5-2.8-2.5c-2.1,0-2.9,1.1-3,2.4h1.3c0.1-0.9,0.5-1.4,1.7-1.4c1.4,0,1.6,0.8,1.6,1.6V15
	h-1.2c-2.9,0-3.7,1.3-3.7,2.6c0,1.1,0.6,2.4,2.6,2.4c1.3,0,2.1-0.6,2.4-1.4c0,0.4,0,0.8,0.1,1.2h1.2c-0.1-0.6-0.1-1.2-0.1-1.8
	L78.1,14.1z M76.9,16.1c0,1.7-0.5,2.8-2.1,2.8c-1,0-1.5-0.7-1.5-1.4c0-0.7,0.4-1.5,2.3-1.5h1.3V16.1z"/>
<path class="st1" d="M81.9,13.4c0-0.7,0-1.3,0-1.6h-1.3c0,0.4,0,1.5,0,2.7v5.3h1.3v-4c0-1.7,0.8-2.8,2.6-2.9v-1.4
	C83.1,11.6,82.2,12.4,81.9,13.4z"/>
<path class="st1" d="M92,17.7V8.2h-1.3v4.3c-0.2-0.4-0.8-1-2.1-1c-2.2,0-3.4,1.9-3.4,4.2c0,2.4,1,4.2,3.1,4.2c1.3,0,2-0.4,2.4-1.3
	c0,0.5,0,1,0,1.2h1.3C92,19.3,92,18.5,92,17.7z M88.7,18.8c-1.3,0-2.1-1.1-2.1-3.1c0-1.9,0.9-3,2.2-3c1.4,0,2,0.7,2,2.9
	C90.8,17.5,90.4,18.8,88.7,18.8L88.7,18.8z"/>
<path class="st1" d="M40.6,28.7c0,1.8,0,3.6,0.1,5h0c-0.2-0.5-0.8-1.5-5.2-9.3h-1.8v11H35V31c0-2,0-3.8-0.1-5.2h0
	c0.2,0.5,0.6,1.1,5.3,9.6h1.7v-11h-1.3V28.7z"/>
<path class="st1" d="M47.4,27.1c-2.4,0-3.6,2-3.6,4.1c0,2.2,1,4.3,3.5,4.3c2.6,0,3.6-2,3.6-4.3C50.9,28.8,49.7,27.1,47.4,27.1z
	 M47.4,34.4c-1.5,0-2.2-1.3-2.2-3.2c0-1.8,0.7-3,2.2-3c1.5,0,2.2,1.2,2.2,3C49.6,33.1,48.9,34.4,47.4,34.4L47.4,34.4z"/>
<path class="st1" d="M54,28.9c0-0.7,0-1.3,0-1.6h-1.3c0,0.4,0,1.5,0,2.7v5.3H54v-4c0-1.7,0.8-2.8,2.6-2.9v-1.4
	C55.2,27.1,54.4,27.9,54,28.9z"/>
<path class="st1" d="M62.9,28.3c-0.2-0.6-0.9-1.1-2.1-1.1c-1.9,0-3.3,1.5-3.3,4.2c0,2.5,1.2,4.1,3.1,4.1c1.2,0,2-0.4,2.4-1.3v0.7
	c0,1.8-0.4,2.9-2.1,2.9c-1,0-1.8-0.4-1.9-1.3h-1.3c0.1,1.1,0.8,2.4,3.2,2.4c2.5,0,3.5-1.4,3.5-3.9v-5.1c0-1.1,0-2,0-2.3h-1.3
	C62.9,27.4,62.9,27.9,62.9,28.3z M60.8,34.2c-1.3,0-2.1-1.1-2.1-3c0-1.9,0.8-3,2.1-3c1.6,0,2,0.9,2,3C62.9,33.2,62.4,34.2,60.8,34.2
	z"/>
<path class="st1" d="M69.4,27.1c-2.5,0-3.5,2.2-3.5,4.2c0,2.2,0.9,4.2,3.4,4.2c2.2,0,2.9-1.4,3.2-2.4h-1.3c-0.2,0.4-0.6,1.3-1.8,1.3
	c-1.4,0-2.1-1.2-2.1-2.8h5.4c0-0.1,0-0.6,0-0.6C72.7,29.1,71.9,27.1,69.4,27.1z M67.3,30.6c0.1-1,0.5-2.4,2-2.4c1.4,0,1.9,1,2,2.4
	H67.3z"/>
</svg>
