<svg id="new-logo" xmlns="http://www.w3.org/2000/svg" width="287.585" height="80" viewBox="0 0 287.585 80">
  <g id="Group_1154" data-name="Group 1154" transform="translate(0 52.913)">
    <g id="Group_1153" data-name="Group 1153">
      <path id="Path_1289" data-name="Path 1289" d="M0,82.963l.43-2.6a10.967,10.967,0,0,0,4.75,1.112A5.352,5.352,0,0,0,7.828,80.9a2.157,2.157,0,0,0,.349-3.557,14.408,14.408,0,0,0-3-1.762,16.614,16.614,0,0,1-3.589-2.144,3.85,3.85,0,0,1-1.4-2.948,4.371,4.371,0,0,1,1.868-3.9A7.594,7.594,0,0,1,6.456,65.48a10.41,10.41,0,0,1,4.474.991l-.43,2.485a10.312,10.312,0,0,0-4.125-1.072q-3.386,0-3.386,2.257A1.7,1.7,0,0,0,3.711,71.5,14.918,14.918,0,0,0,6.5,73.081a16.416,16.416,0,0,1,3.695,2.176,4.062,4.062,0,0,1,1.519,3.134,4.934,4.934,0,0,1-2.144,4.32A7.581,7.581,0,0,1,5.173,83.9,12.608,12.608,0,0,1,0,82.963Z" transform="translate(0 -65.22)" fill="#58595b"/>
      <path id="Path_1290" data-name="Path 1290" d="M28.848,83.177l.309,1.454a4.752,4.752,0,0,1-2.063.422,2.317,2.317,0,0,1-1.559-.5,1.672,1.672,0,0,1-.585-1.34,3.98,3.98,0,0,1-3.735,1.835q-4.129,0-4.125-3.711a3.769,3.769,0,0,1,1.981-3.557,7.709,7.709,0,0,1,3.776-.8,17.153,17.153,0,0,1,2.1.154V75.95a1.618,1.618,0,0,0-.682-1.494,4.933,4.933,0,0,0-2.428-.422,10.89,10.89,0,0,0-3.817.69l.43-2.1a11.526,11.526,0,0,1,4.125-.69q2.765,0,3.849,1.113a4.924,4.924,0,0,1,1.088,3.6v5.928c0,.455.219.69.658.69A2.045,2.045,0,0,0,28.848,83.177Zm-3.89-2.98V78.938c-.853-.073-1.478-.114-1.868-.114a4.491,4.491,0,0,0-2.493.536,1.943,1.943,0,0,0-.78,1.722c0,1.251.763,1.876,2.3,1.876a2.787,2.787,0,0,0,2.022-.788A2.611,2.611,0,0,0,24.959,80.2Z" transform="translate(-3.212 -66.432)" fill="#58595b"/>
      <path id="Path_1291" data-name="Path 1291" d="M46.771,83.231l.276,1.454a4.285,4.285,0,0,1-2.063.422,2.247,2.247,0,0,1-1.559-.52,1.717,1.717,0,0,1-.585-1.356A7.691,7.691,0,0,1,40.7,84.587a5.746,5.746,0,0,1-2.217.52,4.222,4.222,0,0,1-3-.845,4.787,4.787,0,0,1-.893-3.289V72.22H37.2v8.486a2.867,2.867,0,0,0,.333,1.648,1.586,1.586,0,0,0,1.3.422,5.775,5.775,0,0,0,2.241-.552,4.306,4.306,0,0,0,1.77-1.242V72.22h2.566v10.4c0,.455.219.69.658.69A2.447,2.447,0,0,0,46.771,83.231Z" transform="translate(-6.501 -66.487)" fill="#58595b"/>
      <path id="Path_1292" data-name="Path 1292" d="M65.631,82.034l.349,1.454a5.177,5.177,0,0,1-2.1.422,2.291,2.291,0,0,1-1.575-.5,1.746,1.746,0,0,1-.56-1.38q-.853,1.876-4.279,1.876a4.581,4.581,0,0,1-3.654-1.567,7.314,7.314,0,0,1-1.437-4.937,7.2,7.2,0,0,1,1.559-4.937,5.246,5.246,0,0,1,4.166-1.681,11.729,11.729,0,0,1,3.654.5V65.85h2.566V81.417c0,.455.219.69.658.69A1.985,1.985,0,0,0,65.631,82.034Zm-3.89-3.63v-5.01a11,11,0,0,0-3.037-.5,3.4,3.4,0,0,0-2.761.991,5.368,5.368,0,0,0-.82,3.362,6.06,6.06,0,0,0,.739,3.484,2.736,2.736,0,0,0,2.412.991,3.3,3.3,0,0,0,2.688-1.112A3.264,3.264,0,0,0,61.741,78.4Z" transform="translate(-9.843 -65.29)" fill="#58595b"/>
      <path id="Path_1293" data-name="Path 1293" d="M74.935,66.76a1.624,1.624,0,0,1-.463,1.169,1.567,1.567,0,0,1-1.169.479,1.674,1.674,0,0,1-1.169-.479,1.444,1.444,0,0,1-.5-1.088,1.615,1.615,0,0,1,.5-1.186,1.6,1.6,0,0,1,1.169-.5,1.58,1.58,0,0,1,1.169.479A1.553,1.553,0,0,1,74.935,66.76ZM75.869,81.9l.349,1.454a4.5,4.5,0,0,1-2.144.422,2.157,2.157,0,0,1-1.535-.52,1.752,1.752,0,0,1-.56-1.356V70.893h2.607V81.3c0,.455.211.69.625.69A2.277,2.277,0,0,0,75.869,81.9Z" transform="translate(-13.463 -65.16)" fill="#58595b"/>
      <path id="Path_1294" data-name="Path 1294" d="M91.94,82.963l.43-2.6a10.967,10.967,0,0,0,4.75,1.112,5.352,5.352,0,0,0,2.647-.577,2.157,2.157,0,0,0,.349-3.557,14.408,14.408,0,0,0-3-1.762,16.385,16.385,0,0,1-3.581-2.144,3.85,3.85,0,0,1-1.4-2.948,4.371,4.371,0,0,1,1.868-3.9A7.594,7.594,0,0,1,98.4,65.48a10.41,10.41,0,0,1,4.474.991l-.43,2.485a10.312,10.312,0,0,0-4.125-1.072q-3.386,0-3.386,2.257a1.7,1.7,0,0,0,.723,1.356,14.917,14.917,0,0,0,2.785,1.583,16.416,16.416,0,0,1,3.695,2.176,4.062,4.062,0,0,1,1.519,3.134,4.934,4.934,0,0,1-2.144,4.32A7.581,7.581,0,0,1,97.121,83.9,12.622,12.622,0,0,1,91.94,82.963Z" transform="translate(-17.281 -65.22)" fill="#58595b"/>
      <path id="Path_1295" data-name="Path 1295" d="M115.563,81.71l.39,1.908a8.715,8.715,0,0,1-2.883.5,2.555,2.555,0,0,1-2.063-.747,3.929,3.929,0,0,1-.625-2.5V73.257H108.32l.43-2.03h1.632v-3.4l2.566-.845v4.247h2.688v2.03h-2.688v7.3a1.879,1.879,0,0,0,.252,1.169,1.437,1.437,0,0,0,1.072.284A2.714,2.714,0,0,0,115.563,81.71Z" transform="translate(-20.36 -65.502)" fill="#58595b"/>
      <path id="Path_1296" data-name="Path 1296" d="M131.808,83.177l.309,1.454a4.752,4.752,0,0,1-2.063.422,2.317,2.317,0,0,1-1.559-.5,1.672,1.672,0,0,1-.585-1.34,3.98,3.98,0,0,1-3.735,1.835q-4.129,0-4.125-3.711a3.769,3.769,0,0,1,1.981-3.557,7.709,7.709,0,0,1,3.776-.8,17.152,17.152,0,0,1,2.1.154V75.95a1.618,1.618,0,0,0-.682-1.494,4.933,4.933,0,0,0-2.428-.422,10.89,10.89,0,0,0-3.817.69l.43-2.1a11.526,11.526,0,0,1,4.125-.69q2.765,0,3.849,1.113a4.924,4.924,0,0,1,1.088,3.6v5.928c0,.455.219.69.658.69A2.045,2.045,0,0,0,131.808,83.177Zm-3.89-2.98V78.938c-.853-.073-1.478-.114-1.868-.114a4.491,4.491,0,0,0-2.493.536,1.943,1.943,0,0,0-.78,1.722c0,1.251.763,1.876,2.3,1.876a2.787,2.787,0,0,0,2.022-.788A2.641,2.641,0,0,0,127.919,80.2Z" transform="translate(-22.564 -66.432)" fill="#58595b"/>
      <path id="Path_1297" data-name="Path 1297" d="M149.914,83.179l.309,1.454a4.394,4.394,0,0,1-2.1.422,2.317,2.317,0,0,1-1.559-.5,1.711,1.711,0,0,1-.585-1.38V76.293a2.638,2.638,0,0,0-.349-1.608,1.591,1.591,0,0,0-1.283-.422,5.613,5.613,0,0,0-2.144.536,7.059,7.059,0,0,0-2.063,1.3v8.754H137.53V72.167h2.607v1.681a7.594,7.594,0,0,1,2.217-1.356,6.166,6.166,0,0,1,2.371-.552,4.067,4.067,0,0,1,2.956.845,4.8,4.8,0,0,1,.893,3.289v6.5c0,.455.211.69.625.69A2.7,2.7,0,0,0,149.914,83.179Z" transform="translate(-25.85 -66.434)" fill="#58595b"/>
      <path id="Path_1298" data-name="Path 1298" d="M168.881,82.034l.349,1.454a5.177,5.177,0,0,1-2.1.422,2.291,2.291,0,0,1-1.575-.5,1.746,1.746,0,0,1-.56-1.38q-.853,1.876-4.279,1.876a4.57,4.57,0,0,1-3.654-1.567,7.314,7.314,0,0,1-1.437-4.937,7.2,7.2,0,0,1,1.559-4.937,5.246,5.246,0,0,1,4.166-1.681,11.729,11.729,0,0,1,3.654.5V65.85h2.566V81.417c0,.455.219.69.658.69A2.012,2.012,0,0,0,168.881,82.034Zm-3.89-3.63v-5.01a11,11,0,0,0-3.037-.5,3.4,3.4,0,0,0-2.761.991,5.368,5.368,0,0,0-.82,3.362,6.06,6.06,0,0,0,.739,3.484,2.736,2.736,0,0,0,2.412.991,3.3,3.3,0,0,0,2.688-1.112A3.264,3.264,0,0,0,164.991,78.4Z" transform="translate(-29.25 -65.29)" fill="#58595b"/>
      <path id="Path_1299" data-name="Path 1299" d="M186.188,83.177l.309,1.454a4.752,4.752,0,0,1-2.063.422,2.317,2.317,0,0,1-1.559-.5,1.672,1.672,0,0,1-.585-1.34,3.98,3.98,0,0,1-3.735,1.835q-4.129,0-4.125-3.711a3.769,3.769,0,0,1,1.981-3.557,7.709,7.709,0,0,1,3.776-.8,17.153,17.153,0,0,1,2.1.154V75.95a1.618,1.618,0,0,0-.682-1.494,4.933,4.933,0,0,0-2.428-.422,10.89,10.89,0,0,0-3.817.69l.43-2.1a11.527,11.527,0,0,1,4.125-.69q2.765,0,3.849,1.113a4.924,4.924,0,0,1,1.088,3.6v5.928c0,.455.219.69.658.69A2.045,2.045,0,0,0,186.188,83.177ZM182.3,80.2V78.938c-.853-.073-1.478-.114-1.868-.114a4.491,4.491,0,0,0-2.493.536,1.943,1.943,0,0,0-.78,1.722c0,1.251.763,1.876,2.3,1.876a2.787,2.787,0,0,0,2.022-.788A2.641,2.641,0,0,0,182.3,80.2Z" transform="translate(-32.786 -66.432)" fill="#58595b"/>
      <path id="Path_1300" data-name="Path 1300" d="M194.537,84.868H191.93v-12.7h2.607v1.648a3.206,3.206,0,0,1,1.031-1.356,2.306,2.306,0,0,1,1.38-.52,4.929,4.929,0,0,1,2.412.69l-.471,2.1a7.04,7.04,0,0,0-2.144-.382q-1.279,0-2.217,1.681v8.835Z" transform="translate(-36.075 -66.434)" fill="#58595b"/>
      <path id="Path_1301" data-name="Path 1301" d="M216.211,82.034l.349,1.454a5.177,5.177,0,0,1-2.1.422,2.291,2.291,0,0,1-1.575-.5,1.746,1.746,0,0,1-.56-1.38q-.853,1.876-4.279,1.876a4.57,4.57,0,0,1-3.654-1.567,7.314,7.314,0,0,1-1.437-4.937,7.2,7.2,0,0,1,1.559-4.937,5.246,5.246,0,0,1,4.166-1.681,11.729,11.729,0,0,1,3.654.5V65.85H214.9V81.417c0,.455.219.69.658.69A1.986,1.986,0,0,0,216.211,82.034Zm-3.89-3.63v-5.01a11,11,0,0,0-3.037-.5,3.4,3.4,0,0,0-2.761.991,5.368,5.368,0,0,0-.82,3.362,6.059,6.059,0,0,0,.739,3.484,2.736,2.736,0,0,0,2.412.991,3.3,3.3,0,0,0,2.688-1.112A3.264,3.264,0,0,0,212.321,78.4Z" transform="translate(-38.146 -65.29)" fill="#58595b"/>
      <path id="Path_1302" data-name="Path 1302" d="M221.97,84.478l.585-2.217a8.663,8.663,0,0,0,1.689.536,8.022,8.022,0,0,0,1.689.227q3.106,0,3.11-1.835a1.213,1.213,0,0,0-.544-1.015,9.533,9.533,0,0,0-2.144-.974,10.614,10.614,0,0,1-2.842-1.413,2.837,2.837,0,0,1-1.169-2.331,2.968,2.968,0,0,1,1.324-2.6,6.6,6.6,0,0,1,3.776-.918,9.277,9.277,0,0,1,3.654.65l-.43,2.063a7.627,7.627,0,0,0-3.151-.69q-2.607,0-2.607,1.34a1.019,1.019,0,0,0,.487.845,9.838,9.838,0,0,0,1.925.877,11.548,11.548,0,0,1,3.037,1.494,3.445,3.445,0,0,1-.471,5.627,6.4,6.4,0,0,1-3.5.918A14.892,14.892,0,0,1,221.97,84.478Z" transform="translate(-41.721 -66.434)" fill="#58595b"/>
    </g>
  </g>
  <g id="XMLID_1_" transform="translate(204.367)">
    <g id="XMLID_26_" transform="translate(0 0.008)">
      <path id="Path_1303" data-name="Path 1303" d="M276.567,14.245a98.605,98.605,0,0,0-9.119,12.148c-.926,1.437-1.795,2.9-2.631,4.369-.853,1.454-1.689,2.94-2.477,4.45A99.544,99.544,0,0,0,256.372,49.2a103.913,103.913,0,0,0-4.7,20.334l26.887-15.494A82.994,82.994,0,0,1,284.1,41.919h.016V41.9a83.081,83.081,0,0,1,7.714-10.833V.01a103.986,103.986,0,0,0-15.266,14.235" transform="translate(-251.67 -0.01)" fill="#529c44"/>
    </g>
    <path id="XMLID_25_" d="M304.67,31.077A82.1,82.1,0,0,1,312.4,41.909l.008.016h.008a83.854,83.854,0,0,1,5.546,12.116L344.85,69.535a103.337,103.337,0,0,0-4.7-20.334,97.672,97.672,0,0,0-5.969-13.983q-1.194-2.278-2.477-4.45c-.836-1.47-1.705-2.931-2.631-4.369a99.425,99.425,0,0,0-9.119-12.148A103.344,103.344,0,0,0,304.67,0Z" transform="translate(-261.632)" fill="#0096b6"/>
    <path id="XMLID_24_" d="M280.429,69.512a83.811,83.811,0,0,0,13.261,1.251h.024a82.133,82.133,0,0,0,13.253-1.283l26.9,15.486a104.333,104.333,0,0,1-19.96,6.147,98.972,98.972,0,0,1-15.08,1.851c-1.705.081-3.4.106-5.1.089-1.681.016-3.394,0-5.1-.073a100.825,100.825,0,0,1-15.08-1.778,104.476,104.476,0,0,1-20-6.082Z" transform="translate(-252.023 -13.059)" fill="#8d5316"/>
    <g id="XMLID_13_" transform="translate(21.073 62.402)">
      <path id="XMLID_22_" d="M281.087,88.242a5.413,5.413,0,0,1-3.467-1.86l1.275-1.4a4.791,4.791,0,0,0,2.379,1.307c1.064.171,1.835-.235,1.965-1.031a1.112,1.112,0,0,0-.179-.82c-.56-.8-2.469-1.38-3.419-2.712a2.844,2.844,0,0,1-.52-2.2c.325-1.957,2.119-2.972,4.312-2.6a5.056,5.056,0,0,1,3.232,1.762l-1.3,1.307a4.238,4.238,0,0,0-2.1-1.194c-.958-.162-1.722.187-1.835.877a.815.815,0,0,0,.171.7c.43.6,2.59,1.47,3.532,2.785a2.8,2.8,0,0,1,.487,2.282C285.278,87.487,283.475,88.64,281.087,88.242Z" transform="translate(-277.62 -76.846)" fill="#fff"/>
      <path id="XMLID_19_" d="M296.962,89.693l-.674-2.347-3.963-.252-.95,2.241L289.02,89.2l4.669-10.768,2.339.146,3.337,11.263ZM294.7,81l-1.673,4.336,2.777.171Z" transform="translate(-279.763 -77.144)" fill="#fff"/>
      <path id="XMLID_17_" d="M307.318,89.862a5.417,5.417,0,0,1-3.768-1.137l.966-1.624a4.838,4.838,0,0,0,2.607.8c1.072-.041,1.746-.609,1.713-1.413a1.158,1.158,0,0,0-.341-.763c-.715-.666-2.7-.861-3.9-1.965a2.847,2.847,0,0,1-.95-2.054c-.081-1.973,1.478-3.329,3.695-3.411a5.105,5.105,0,0,1,3.516,1.064l-1,1.551a4.309,4.309,0,0,0-2.306-.747c-.974.032-1.657.528-1.616,1.218a.828.828,0,0,0,.292.658c.552.5,2.834.918,4.012,2.014a2.766,2.766,0,0,1,.95,2.136C311.273,88.271,309.746,89.765,307.318,89.862Z" transform="translate(-282.494 -77.118)" fill="#fff"/>
      <path id="XMLID_14_" d="M321.173,88.607c-3.167.479-5.7-1.551-6.212-5-.5-3.362,1.315-5.952,4.474-6.431,3.232-.487,5.676,1.551,6.163,4.824C326.126,85.529,324.275,88.136,321.173,88.607Zm-1.543-9.533c-1.746.268-2.647,2.054-2.306,4.32.341,2.29,1.868,3.532,3.589,3.264,2.257-.341,2.607-2.574,2.347-4.328C322.935,80.178,321.465,78.806,319.63,79.074Z" transform="translate(-284.623 -76.894)" fill="#fff"/>
    </g>
  </g>
  <g id="Group_1156" data-name="Group 1156" transform="translate(0.203 22.924)">
    <g id="Group_1155" data-name="Group 1155">
      <path id="Path_1304" data-name="Path 1304" d="M8.135,31.291a1.45,1.45,0,0,0,1.08-.463A1.518,1.518,0,0,0,9.67,29.74a1.437,1.437,0,0,0-.455-1.064,1.529,1.529,0,0,0-2.16,0A1.45,1.45,0,0,0,6.6,29.74a1.531,1.531,0,0,0,.455,1.088A1.45,1.45,0,0,0,8.135,31.291Z" transform="translate(-1.444 -28.23)" fill="#58595b"/>
      <path id="Path_1305" data-name="Path 1305" d="M3.375,31.291a1.45,1.45,0,0,0,1.08-.463A1.518,1.518,0,0,0,4.91,29.74a1.437,1.437,0,0,0-.455-1.064,1.478,1.478,0,0,0-1.08-.447,1.547,1.547,0,0,0-1.1.447A1.407,1.407,0,0,0,1.8,29.74a1.484,1.484,0,0,0,.471,1.088A1.53,1.53,0,0,0,3.375,31.291Z" transform="translate(-0.541 -28.23)" fill="#58595b"/>
      <path id="Path_1306" data-name="Path 1306" d="M15.305,47.772a3.987,3.987,0,0,0,1.535-3.443V35.77H14.323v8.673q0,1.705-1.851,1.705H9.694V35.77h-5A4.688,4.688,0,0,0,1.7,36.7,4.2,4.2,0,0,0,.25,40.139v4.1A4.373,4.373,0,0,0,1.273,47.3a4.81,4.81,0,0,0,3.7,1.316h.942l1.218-1.624v1.624h5.14A4.987,4.987,0,0,0,15.305,47.772ZM7.136,46.148H4.773a2.2,2.2,0,0,1-1.519-.422A1.908,1.908,0,0,1,2.8,44.3V40.074a1.6,1.6,0,0,1,1.811-1.819H7.128v7.893Z" transform="translate(-0.25 -29.647)" fill="#58595b"/>
      <path id="Path_1307" data-name="Path 1307" d="M12.945,56.22a1.465,1.465,0,0,0-1.08.447,1.45,1.45,0,0,0-.455,1.064,1.494,1.494,0,0,0,.43,1.088,1.513,1.513,0,0,0,1.1.422,1.465,1.465,0,0,0,1.08-.447,1.472,1.472,0,0,0,0-2.128A1.484,1.484,0,0,0,12.945,56.22Z" transform="translate(-2.348 -33.491)" fill="#58595b"/>
      <path id="Path_1308" data-name="Path 1308" d="M17.785,56.22a1.518,1.518,0,0,0-1.121.447,1.5,1.5,0,0,0,0,2.152,1.564,1.564,0,0,0,1.121.422,1.417,1.417,0,0,0,1.064-.447,1.458,1.458,0,0,0,.43-1.064,1.54,1.54,0,0,0-1.494-1.51Z" transform="translate(-3.25 -33.491)" fill="#58595b"/>
      <path id="Path_1309" data-name="Path 1309" d="M27.09,35.77H25.239v2.477h1.689q3.7,0,3.7,3.719V44.4c0,1.161-.617,1.746-1.851,1.746H23.03v2.477h5.546a4.539,4.539,0,0,0,3.459-1.242A4.011,4.011,0,0,0,33.1,44.516V41.69a5.664,5.664,0,0,0-1.657-4.223A5.919,5.919,0,0,0,27.09,35.77Z" transform="translate(-4.532 -29.647)" fill="#58595b"/>
      <path id="Path_1310" data-name="Path 1310" d="M88.447,43.037a1.964,1.964,0,0,1-.455,1.47,2.244,2.244,0,0,1-1.551.422H84.557V34.56H82.04V44.937H77.671V34.56H75.154V44.937H70.745V34.56H68.268V44.937H60.334a35.288,35.288,0,0,1,4.174-3.873v-.309a6.166,6.166,0,0,0-1.657-4.491,6.245,6.245,0,0,0-4.685-1.86,6.5,6.5,0,0,0-4.214,1.4,5.946,5.946,0,0,0-2.087,4.88v.39A35.425,35.425,0,0,1,56,44.946H48.324V34.56H43.33a4.571,4.571,0,0,0-3.151,1.048,4.22,4.22,0,0,0-1.3,3.329v4.1a4.237,4.237,0,0,0,1.145,3.175,4.883,4.883,0,0,0,3.581,1.2h2.168v.771c0,2.5-1.754,3.76-5.27,3.76h-.4L41.8,54.195a8.028,8.028,0,0,0,4.8-1.583c1.153-1.031,1.73-2.663,1.73-4.88v-.317H56a3.9,3.9,0,0,0,2.2-.739,4.058,4.058,0,0,0,2.168.739H86.514a4.585,4.585,0,0,0,3.224-1.048,3.98,3.98,0,0,0,1.218-3.134V29.33H88.439V43.037Zm-42.689,1.9H43.793a3.192,3.192,0,0,1-1.892-.39,1.9,1.9,0,0,1-.471-1.51v-4.1a2.1,2.1,0,0,1,.414-1.454,1.825,1.825,0,0,1,1.4-.447h2.517ZM58.19,43.614a31.128,31.128,0,0,0-3.817-3.792,3.033,3.033,0,0,1,1.177-2.054,4.181,4.181,0,0,1,2.639-.893,4.062,4.062,0,0,1,2.241.658,3.151,3.151,0,0,1,1.494,2.282A28.141,28.141,0,0,0,58.19,43.614Z" transform="translate(-7.511 -28.437)" fill="#58595b"/>
      <path id="Path_1311" data-name="Path 1311" d="M106.45,48.8l2.558-1.389V29.33H106.45Z" transform="translate(-20.211 -28.437)" fill="#58595b"/>
      <path id="Path_1312" data-name="Path 1312" d="M127.314,31.3a1.53,1.53,0,0,0,1.1-.463,1.424,1.424,0,0,0,.471-1.048,1.4,1.4,0,0,0-.471-1.064,1.547,1.547,0,0,0-1.1-.447,1.428,1.428,0,0,0-1.039.447,1.472,1.472,0,0,0,0,2.128A1.415,1.415,0,0,0,127.314,31.3Z" transform="translate(-23.852 -28.239)" fill="#58595b"/>
      <path id="Path_1313" data-name="Path 1313" d="M130.18,44.443c0,1.137-.6,1.705-1.811,1.705h-9.46a1.845,1.845,0,0,1-1.38-.447,2.021,2.021,0,0,1-.43-1.454v-5.5l-2.558,1.624v3.76A4.613,4.613,0,0,0,115.6,47.35a4.535,4.535,0,0,0,3.5,1.275h9.071a4.663,4.663,0,0,0,3.305-1.088,4.151,4.151,0,0,0,1.218-3.216V35.77H130.18Z" transform="translate(-21.732 -29.647)" fill="#58595b"/>
      <path id="Path_1314" data-name="Path 1314" d="M122.545,31.291a1.45,1.45,0,0,0,1.08-.463,1.518,1.518,0,0,0,.455-1.088,1.437,1.437,0,0,0-.455-1.064,1.478,1.478,0,0,0-1.08-.447,1.547,1.547,0,0,0-1.1.447,1.407,1.407,0,0,0-.471,1.064,1.484,1.484,0,0,0,.471,1.088A1.53,1.53,0,0,0,122.545,31.291Z" transform="translate(-22.94 -28.23)" fill="#58595b"/>
      <path id="Path_1315" data-name="Path 1315" d="M153.245,31.291a1.45,1.45,0,0,0,1.08-.463,1.518,1.518,0,0,0,.455-1.088,1.437,1.437,0,0,0-.455-1.064,1.478,1.478,0,0,0-1.08-.447,1.547,1.547,0,0,0-1.1.447,1.407,1.407,0,0,0-.471,1.064,1.484,1.484,0,0,0,.471,1.088A1.53,1.53,0,0,0,153.245,31.291Z" transform="translate(-28.711 -28.23)" fill="#58595b"/>
      <path id="Path_1316" data-name="Path 1316" d="M185.49,48.8l2.558-1.389V29.33H185.49Z" transform="translate(-35.067 -28.437)" fill="#58595b"/>
      <path id="Path_1317" data-name="Path 1317" d="M217.94,43.037a1.964,1.964,0,0,1-.455,1.47,2.244,2.244,0,0,1-1.551.422H215.2V38.774a4.183,4.183,0,0,0-1.259-3.216,4.865,4.865,0,0,0-3.427-1.161,5.316,5.316,0,0,0-3.029.812,3.937,3.937,0,0,0-1.657,3.565v6.155h-4.369V34.56H196.47a4.571,4.571,0,0,0-3.151,1.048,4.22,4.22,0,0,0-1.3,3.329v4.1a4.237,4.237,0,0,0,1.145,3.175,4.883,4.883,0,0,0,3.581,1.2h2.168v.771c0,2.5-1.762,3.76-5.27,3.76h-.39l1.689,2.249a8.028,8.028,0,0,0,4.8-1.583c1.153-1.031,1.73-2.663,1.73-4.88v-.317h4.409a3.634,3.634,0,0,0,1.454,2.249,5.1,5.1,0,0,0,3.191.966,5.242,5.242,0,0,0,3.11-.836,3.51,3.51,0,0,0,1.454-2.379h.918a4.585,4.585,0,0,0,3.224-1.048,3.98,3.98,0,0,0,1.218-3.134V29.33h-2.517V43.037Zm-19.034,1.9h-1.965a3.192,3.192,0,0,1-1.892-.39,1.9,1.9,0,0,1-.471-1.51v-4.1a2.1,2.1,0,0,1,.414-1.454,1.825,1.825,0,0,1,1.4-.447h2.517Zm13.813,1.348c0,1.267-.731,1.9-2.2,1.9s-2.2-.633-2.2-1.9V38.733c0-1.267.731-1.9,2.2-1.9s2.2.633,2.2,1.9Z" transform="translate(-36.295 -28.437)" fill="#58595b"/>
      <path id="Path_1318" data-name="Path 1318" d="M230.47,29.33V48.8l2.558-1.389V29.33Z" transform="translate(-43.522 -28.437)" fill="#58595b"/>
    </g>
    <path id="Path_1319" data-name="Path 1319" d="M173.112,35.721a3.922,3.922,0,0,0-2.956-1.275,5.469,5.469,0,0,0-1.535.235l-5.985,2.087V34.56H160.16V44.937h-4.369V34.56h-5.075a4.488,4.488,0,0,0-3.029,1.007,4.217,4.217,0,0,0-1.34,3.37v6h-2.079c-.918,0-1.38-.528-1.38-1.592V29.33H140.33V43.46a3.863,3.863,0,0,0,3.938,3.955h10.215L155.7,45.79v1.624h4.409v2.4l2.517-1.316V47.414h7.162a4.379,4.379,0,0,0,3.386-1.275,4.031,4.031,0,0,0,1.023-2.826V38.36A3.606,3.606,0,0,0,173.112,35.721Zm-19.879,9.217h-4.328v-6c0-1.267.6-1.9,1.811-1.9h2.517Zm18.458-1.673c0,1.112-.6,1.665-1.811,1.665h-7.243V40.674a1.744,1.744,0,0,1,.26-1.121,3.1,3.1,0,0,1,1.2-.658l4.84-1.705a3.678,3.678,0,0,1,1.3-.268,1.321,1.321,0,0,1,1.064.463,1.866,1.866,0,0,1,.39,1.242v4.637Z" transform="translate(-26.579 -28.437)" fill="#58595b"/>
  </g>
</svg>
