<svg height="111.93" width="120" xmlns="http://www.w3.org/2000/svg"><g fill="#2a3e92" transform="matrix(1.25 0 0 -1.25 -250.66449375 478.0643375)"><path d="m273.46432 342.84535c.5381-.82503.50238-1.90125.60993-2.86995-.0361-2.04474.14327-4.48412-.21548-6.56512-.17935-.86079-.7532-1.75767-1.65005-2.08065-1.43497-.64569-3.37239-.46629-4.69944.28693-1.11232.7893-1.2556 2.11672-1.39925 3.37235-.10755 2.47547-.28692 5.09422.39448 7.35422.53812 1.39909 2.00919 1.75782 3.33662 1.86555 1.39889 0 2.76204-.21528 3.62319-1.36333z"/><path d="m208.53161 300.90819v73.54256h79.99997v-73.54256zm42.18818 64.75332c-.96834.10757-2.15229.14347-3.19262.03592-.39465.0359-.86115 0-1.32742-.03592-8.60985-.68158-16.53814-5.16588-21.48876-12.80722.35875.03588.78915-.10755 1.14788.03588.86115 1.21972 1.82964 2.40367 2.90589 3.55154.93275.89685 1.7937 1.758 2.79828 2.40365.9326-.60992 1.9731-1.11212 2.86995-1.68615-1.11213-1.39909-2.26018-2.79812-3.08521-4.30492.25098-.10755.71748-.07167 1.07623 0 .89685 1.32742 1.86537 2.65485 3.01342 3.83862 1.54253-.574 3.04932-1.18377 4.62775-1.61435 0 0 .14347-.14347.14347-.14347s-.89685-2.0808-.89685-2.0808c.39463-.07167.64583-.03573 1.0405 0 .32281.60993.57383 1.29148.93258 1.90143 2.0808-.46646 4.26919-.7175 6.49332-.7893.28707-.25101.07182-.78913.17937-1.11213h.96867c.10755.35873-.03592.75338.10755 1.07622 2.08081.10771 4.26903.32303 6.27822.82521 0 0 .17938-.0359.17938-.0359s.9683-1.86553.9683-1.86553c.32302 0 .75357-.07167 1.00477.07182 0 0-.89685 2.08063-.89685 2.08063s.07145.07182.07145.07182c1.65045.43058 3.19297 1.07623 4.77158 1.7219 1.11197-1.18377 2.15247-2.58287 3.08504-3.94617.39448 0 .78933-.03573 1.07625.07182-.43057.7893-.9687 1.57841-1.54252 2.26-.4663.68175-.9687 1.29153-1.57863 1.93738v.17935l2.5112 1.4707s.35875.14365.35875.14365c2.18855-1.68615 4.12559-3.73108 5.6681-5.99108.43057 0 .78932-.14349 1.14807.03588-4.80699 7.31835-12.73544 12.01794-21.30923 12.69952 0 0-.03605-.07181-.03605-.07181s-.07183.07181-.07183.07181zm3.69535-1.61435v-.0718c-3.12117-2.29593-8.17947-2.51123-11.47999-.3945-.17938.14347-.53815.21512-.57405.4663 3.80275.89685 8.28722.96867 12.05404 0zm9.86544-4.37675s-.0718-.14345-.0718-.14345l-2.47549-1.39907h-.17936c-1.90127 1.93719-4.12557 3.62337-6.38557 4.95057.07183.2512.43058.43057.68175.60995 3.01323-.7893 5.84745-2.15245 8.43047-4.018zm-22.60105 3.40805c-2.2241-1.39903-4.41247-3.0493-6.42147-5.05812-.96868.35875-1.86553.89685-2.7265 1.50662v.07182c2.26018 1.68598 4.77142 2.94158 7.42607 3.8027.10755.10755.17937.2151.32285.2151v-.07162c.28692-.07183.50218.25102.75337.0359.2153-.17938.4663-.32302.64568-.5024zm18.83425-5.41687s-.07182-.10771-.07182-.10771c-1.39925-.60977-2.83422-1.18381-4.37675-1.50664-1.11195 1.90127-2.33182 3.80255-3.69501 5.63219.50206.28708 1.11199.50218 1.65011.7893 2.33183-1.18397 4.59185-2.86995 6.49347-4.80714zm-16.14366 4.08967s-.10757-.28713-.10757-.28713c-1.36332-1.72189-2.43955-3.58744-3.51577-5.41689 0 0-.1435-.03592-.1435-.03592-1.47085.39467-2.90583.86097-4.26898 1.47089 0 0 .07178.2151.07178.2151 1.97312 1.90147 4.05377 3.4799 6.34969 4.6996.53813-.2153 1.07625-.39467 1.61435-.64565zm3.4799-.6816c.10755-1.86555.03588-4.018.03588-5.9911-1.00456-.14347-1.90143.03591-2.90583.10755-.96867.14365-2.18839.2512-3.15707.57401 1.0405 1.97312 2.26018 3.87457 3.73107 5.63239 0 0 2.29595-.32285 2.29595-.32285zm3.37213.28692c1.39924-1.79372 2.76239-3.62334 3.69501-5.59646-1.93702-.46628-3.91011-.71748-5.91929-.71748-.07163 1.90147-.03572 4.01802 0 5.99112.71748.10755 1.5068.21527 2.22428.32282zm-2.90583-12.19729c-3.9462 1.68618-9.47082 1.86555-13.05826-.75342-2.33187-1.72187-3.04935-4.80712-2.43942-7.53359.4663-2.58287 2.90572-4.48415 5.23754-5.381 3.19297-1.14805 6.52922-1.97312 9.75792-3.08542.32284-.1433.7534-.46628.68157-.8608 0-.32298-.32285-.50235-.57402-.64598-3.37215-.93262-7.03125-.21514-9.47082 2.36793-.28692.35872-.4663.78928-.75338 1.148 0 0-4.84304-.03605-4.84304-.03605-.07165-2.90572-.10757-6.24195 0-9.11189 0 0 5.38114.03572 5.38114.03572s.07183 1.7219.07183 1.7219c.60995-.28692 1.21968-.64567 1.82962-.9687 3.7309-1.57825 8.53805-1.93697 12.2332 0 2.69061 1.5068 4.12559 4.41285 3.73074 7.53367-.39445 3.0493-3.2644 5.81172-6.17012 6.56512 0 0-8.68167 2.5471-8.68167 2.5471s-.64587.32285-.64587.32285c-.2869.25119-.46628.57402-.39463.96867.68175 1.1838 2.26018.82505 3.444.78912 2.5112-.35874 5.09422-1.21967 6.5651-3.55152 1.57827 0 3.40805-.03592 5.12999.0359.07182 2.94178-.03573 5.52465-.07183 8.5023-1.61435.03577-3.58744.03577-5.20181-.0359-.07178-.43056.07182-1.04033-.10755-1.47086 0 0-1.65023.89685-1.65023.89685zm30.4216-1.14805c-4.66367 3.0136-11.76674 3.2287-16.57406.50236-2.61875-1.36333-4.34065-4.0539-4.87877-6.81612-.96868-4.55612-.71748-9.97304 2.72632-13.38109 4.018-3.58745 9.86546-4.37675 15.06726-2.90605.24663.0494 1.03138.2512 1.56948.54268 0 0 .1524.06725.1524.06725 1.61434.68177 3.15687 1.79372 4.30492 3.30052 2.65485 3.94622 2.83422 9.86549 1.21987 14.31388-.64565 1.7219-1.97307 3.26458-3.58742 4.37657zm-60.95077 2.15248s-2.22412-.03577-2.22412-.03577c-.03593-1.90143-.03593-4.12555 0-6.06292 1.21967-.03573 2.36772 0 3.55154-.10755v-12.19727l-.03592-.5024s-3.55155-.07147-3.55155-.07147c-.07178-2.00916-.07178-3.9462 0-5.91927h15.82068v5.91927c-1.18399.07147-2.51119-.03608-3.65927.10755 0 0 .03591 12.59176.03591 12.59176l.07182.10775s3.55154.0359 3.55154.0359c.03588 2.04475.07163 4.23314-.03592 6.09865 0 0-13.52471.03577-13.52471.03577zm22.74453-27.5515c-.35875 0-.75343.07182-1.00462-.03573 0 0 .89685-2.11674.89685-2.11674s-.10753-.10755-.10753-.10755c-1.61435-.46665-3.19278-1.0405-4.7355-1.68618 0 0-.14345.07183-.14345.07183-1.00444 1.11197-1.97312 2.33184-2.76242 3.55134-.17937.60995-.89687.2512-1.29135.32303.86098-1.57825 2.00887-2.9775 3.15688-4.41247-.96863-.57387-1.93716-1.21988-2.94178-1.68618-2.15245 1.65041-4.16127 3.8029-5.66807 6.06292-.43055.07145-.71747.03573-1.14805 0 2.58303-4.08982 6.60102-7.67727 10.79824-9.79366 0 0 0 .03573.03593.03573.0359 0 .10755-.07183.0359-.10788 2.83404-1.39892 5.84744-2.40332 9.04024-2.8339 11.01354-1.47103 21.52463 3.30052 27.62332 12.69971-.32265.03573-.78932.03573-1.14807 0-1.50645-2.18857-3.40809-4.30529-5.48872-5.95537-.07182-.10755-.28692-.07149-.35875.03573-.89685.5742-1.86555 1.0405-2.7263 1.61435 1.14805 1.39925 2.26 2.79849 3.12113 4.34102h-1.11233c-.89685-1.32743-1.82942-2.72667-3.01322-3.91012-1.5786.64532-3.01358 1.21954-4.62792 1.6501 0 0-.17938.14365-.17938.14365.2512.71749.71748 1.39887.86113 2.11637h-.96868s-.96867-1.937-.96867-1.937c-2.11675.46593-4.44857.71748-6.60087.86075-.10775.32303.0359.78932-.10775 1.07625h-.9326c-.07182-.43057.10755-.75322-.1077-1.11233-2.22412-.10719-4.37659-.35874-6.45742-.78894 0 0-.96847 1.90127-.96847 1.90127zm7.53359-8.25112c-.75337-.17935-1.5786-.17935-2.2961-.35873-1.4707 1.75763-2.69057 3.65925-3.73092 5.63235 0 0 .17938.14365.17938.14365 1.86555.35873 3.80274.64528 5.81176.64528 0 0 .03588-6.06255.03588-6.06255zm7.06737 5.34507s.03572-.10717.03572-.10717c-1.00444-1.93738-2.26004-3.80292-3.62319-5.56057-.60995-.07215-1.18413.17937-1.79372.2151 0 0-.60993.07149-.60993.07149-.07182 2.11673-.10773 3.98228 0 6.09863 2.0449-.03573 4.08947-.25083 5.99112-.71748zm-14.17061-.32265c1.04035-1.9731 2.33187-3.83862 3.62337-5.70384-.50222-.28725-1.11213-.46663-1.61435-.75357-2.36777 1.18381-4.62777 2.83389-6.5292 4.80696v.10793c1.39925.68173 2.86995 1.18377 4.37673 1.57862 0 0 .14345-.0361.14345-.0361zm19.73113-1.5068c-1.14805-1.32709-2.61912-2.47547-3.98227-3.44382-.82505-.50235-1.65008-1.04047-2.5112-1.4707 0 0-1.54253.68143-1.54253.68143s.10755.25115.10755.25115c1.2917 1.758 2.43938 3.55172 3.44415 5.45264 0 0 .10755.0722.10755.0722 1.54253-.35877 3.01323-.86115 4.37675-1.5429zm3.83825-2.04457c-2.0088-1.61435-4.34065-2.69057-6.7082-3.58744 0 0-1.68617-.53811-1.68617-.53811-.28693.14328-.5381.35873-.7893.57383 0 0 .07182.10755.07182.10755 2.29573 1.3632 4.37675 3.01327 6.34982 4.98634.96833-.39445 1.90128-.93257 2.76203-1.54217zm-22.74413-3.55172c-.17938-.2151-.4665-.43055-.7175-.57383-3.0136.78898-5.81172 2.15245-8.39477 4.01767v.10788c.86113.5381 1.7221 1.112 2.65485 1.50645 2.04475-2.04457 4.16129-3.58742 6.45742-5.05817zm12.84296-.82535c.10755-.21515-.17937-.14332-.25118-.21515-3.80257-.82502-8.03584-.8611-11.83858.07183-.07165.17937.17937.21547.2871.32267 3.33627 2.18857 8.53822 2.18857 11.80266-.17935z"/></g><path d="m15.39648 11.3614675h89.20704875v89.20704875h-89.20704875z" fill="none"/></svg>